M48
;GenerationSoftware,Autodesk,EAGLE,9.7.0*%
;CreationDate,2024-12-02T23:22:13Z*%
FMAT,2
ICI,OFF
METRIC,TZ,000.000
T7C0.660
T6C0.790
T5C0.890
T4C1.000
T3C1.016
T2C1.200
T1C3.000
%
G90
M71
T1
X5000Y5000
X68000Y5000
X5000Y65000
X68000Y65000
T2
X6200Y15500
X6200Y20580
X6200Y25660
T3
X27400Y28800
X27400Y31340
X6800Y48460
X22100Y26260
X22100Y31340
X26800Y4932
X24260Y4932
X21720Y4932
X54710Y4932
X52170Y4932
X49630Y4932
X47090Y4932
X54900Y26260
X54900Y28800
X54900Y31340
X49200Y26260
X49200Y28800
X49200Y31340
X6800Y37270
X22100Y28800
X19180Y4932
X27400Y26260
X7870Y58600
X5330Y58600
X6800Y51000
X6800Y53540
X6800Y32190
X6800Y34730
X6800Y39810
X-10070Y3200
X-7530Y3200
X-17870Y3200
X-15330Y3200
T4
X42039Y9650
X44579Y9650
X47119Y9650
X49659Y9650
X52199Y9650
X54739Y9650
X57279Y9650
X59819Y9650
X59819Y19810
X59819Y17270
X14110Y22350
X16650Y22350
X19190Y22350
X21730Y22350
X24270Y22350
X29350Y22350
X31890Y22350
X14110Y9650
X16650Y9650
X19190Y9650
X24270Y9650
X26810Y9650
X29350Y9650
X31890Y9650
X31890Y19810
X31890Y17270
X57279Y22350
X21730Y9650
X42039Y22350
X44579Y22350
X47119Y22350
X49659Y22350
X52199Y22350
X54739Y22350
X26810Y22350
X59819Y22350
T5
X61127Y55539
X17947Y55539
X58587Y55539
X61127Y52999
X17947Y52999
X58587Y52999
X61127Y50459
X17947Y50459
X58587Y50459
X61127Y47919
X17947Y47919
X58587Y47919
X61127Y45379
X17947Y45379
X58587Y45379
X61127Y42839
X17947Y42839
X58587Y42839
X61127Y40299
X15407Y60619
X58587Y40299
X61127Y37759
X17947Y37759
X58587Y37759
X15407Y58079
X15407Y55539
X15407Y52999
X15407Y50459
X15407Y47919
X15407Y45379
X15407Y42839
X15407Y40299
X15407Y37759
X61127Y60619
X17947Y40299
X17947Y60619
X58587Y60619
X61127Y58079
X17947Y58079
X58587Y58079
T6
X-16070Y24600
X-14800Y24600
X-13530Y24600
X-16070Y17200
X-14800Y17200
X-13530Y17200
T7
X-11120Y9900
X-3880Y9900
X-19820Y9900
X-12580Y9900
M30