G04 EAGLE Gerber RS-274X export*
G75*
%MOMM*%
%FSLAX34Y34*%
%LPD*%
%INTop Copper*%
%IPPOS*%
%AMOC8*
5,1,8,0,0,1.08239X$1,22.5*%
G01*
G04 Define Apertures*
%ADD10C,1.500000*%
%ADD11R,1.500000X1.500000*%
%ADD12C,1.524000*%
%ADD13R,1.520000X1.520000*%
%ADD14C,1.520000*%
%ADD15C,1.800000*%
%ADD16C,1.879600*%
%ADD17C,1.260000*%
%ADD18C,1.185000*%
%ADD19C,0.609600*%
%ADD20C,1.016000*%
%ADD21C,0.406400*%
G36*
X723449Y6156D02*
X723152Y6096D01*
X6858Y6096D01*
X6583Y6147D01*
X6328Y6311D01*
X6156Y6561D01*
X6096Y6858D01*
X6096Y693133D01*
X6148Y693408D01*
X6311Y693664D01*
X6562Y693835D01*
X6859Y693895D01*
X724133Y692913D01*
X724408Y692862D01*
X724663Y692698D01*
X724834Y692448D01*
X724894Y692150D01*
X723914Y6857D01*
X723863Y6583D01*
X723699Y6328D01*
X723449Y6156D01*
G37*
%LPC*%
G36*
X675070Y618872D02*
X684930Y618872D01*
X694308Y621919D01*
X702285Y627715D01*
X708081Y635692D01*
X711128Y645070D01*
X711128Y654930D01*
X708081Y664308D01*
X702285Y672285D01*
X694308Y678081D01*
X684930Y681128D01*
X675070Y681128D01*
X665692Y678081D01*
X657715Y672285D01*
X651919Y664308D01*
X648872Y654930D01*
X648872Y645070D01*
X651919Y635692D01*
X657715Y627715D01*
X665692Y621919D01*
X675070Y618872D01*
G37*
G36*
X45070Y618872D02*
X54930Y618872D01*
X64308Y621919D01*
X72285Y627715D01*
X78081Y635692D01*
X81128Y645070D01*
X81128Y654930D01*
X78081Y664308D01*
X72285Y672285D01*
X64308Y678081D01*
X54930Y681128D01*
X45070Y681128D01*
X35692Y678081D01*
X27715Y672285D01*
X21919Y664308D01*
X18872Y654930D01*
X18872Y645070D01*
X21919Y635692D01*
X27715Y627715D01*
X35692Y621919D01*
X45070Y618872D01*
G37*
G36*
X316196Y159104D02*
X321604Y159104D01*
X326602Y161174D01*
X330426Y164998D01*
X332496Y169996D01*
X332496Y175404D01*
X330426Y180402D01*
X326602Y184226D01*
X325467Y184696D01*
X325242Y184840D01*
X325064Y185086D01*
X324997Y185382D01*
X325050Y185680D01*
X325216Y185935D01*
X325467Y186104D01*
X326602Y186574D01*
X330426Y190398D01*
X332496Y195396D01*
X332496Y200804D01*
X330426Y205802D01*
X326602Y209626D01*
X325467Y210096D01*
X325242Y210240D01*
X325064Y210486D01*
X324997Y210782D01*
X325050Y211080D01*
X325216Y211335D01*
X325467Y211504D01*
X326602Y211974D01*
X330426Y215798D01*
X332496Y220796D01*
X332496Y226204D01*
X330426Y231202D01*
X327663Y233965D01*
X327500Y234206D01*
X327440Y234504D01*
X327440Y381629D01*
X327495Y381915D01*
X327663Y382168D01*
X543334Y597839D01*
X543575Y598002D01*
X543872Y598062D01*
X574317Y598062D01*
X574603Y598006D01*
X574856Y597839D01*
X578116Y594579D01*
X579046Y594194D01*
X579271Y594050D01*
X579448Y593804D01*
X579516Y593508D01*
X579463Y593210D01*
X579297Y592956D01*
X579046Y592786D01*
X578116Y592401D01*
X574263Y588548D01*
X572178Y583514D01*
X572178Y578066D01*
X574263Y573032D01*
X578116Y569179D01*
X579046Y568794D01*
X579271Y568650D01*
X579448Y568404D01*
X579516Y568108D01*
X579463Y567810D01*
X579297Y567556D01*
X579046Y567386D01*
X578116Y567001D01*
X574263Y563148D01*
X572178Y558114D01*
X572178Y552666D01*
X574263Y547632D01*
X578116Y543779D01*
X579046Y543394D01*
X579271Y543250D01*
X579448Y543004D01*
X579516Y542708D01*
X579463Y542410D01*
X579297Y542156D01*
X579046Y541986D01*
X578116Y541601D01*
X574263Y537748D01*
X572178Y532714D01*
X572178Y527266D01*
X574263Y522232D01*
X578116Y518379D01*
X579046Y517994D01*
X579271Y517850D01*
X579448Y517604D01*
X579516Y517308D01*
X579463Y517010D01*
X579297Y516756D01*
X579046Y516586D01*
X578116Y516201D01*
X574263Y512348D01*
X572178Y507314D01*
X572178Y501866D01*
X574263Y496832D01*
X578116Y492979D01*
X579046Y492594D01*
X579271Y492450D01*
X579448Y492204D01*
X579516Y491908D01*
X579463Y491610D01*
X579297Y491356D01*
X579046Y491186D01*
X578116Y490801D01*
X574263Y486948D01*
X572178Y481914D01*
X572178Y476466D01*
X574263Y471432D01*
X578116Y467579D01*
X579046Y467194D01*
X579271Y467050D01*
X579448Y466804D01*
X579516Y466508D01*
X579463Y466210D01*
X579297Y465956D01*
X579046Y465786D01*
X578116Y465401D01*
X574263Y461548D01*
X572178Y456514D01*
X572178Y451066D01*
X574263Y446032D01*
X578116Y442179D01*
X579046Y441794D01*
X579271Y441650D01*
X579448Y441404D01*
X579516Y441108D01*
X579463Y440810D01*
X579297Y440556D01*
X579046Y440386D01*
X578116Y440001D01*
X574263Y436148D01*
X572178Y431114D01*
X572178Y425666D01*
X574263Y420632D01*
X578116Y416779D01*
X579046Y416394D01*
X579271Y416250D01*
X579448Y416004D01*
X579516Y415708D01*
X579463Y415410D01*
X579297Y415156D01*
X579046Y414986D01*
X578116Y414601D01*
X574263Y410748D01*
X572178Y405714D01*
X572178Y400266D01*
X574263Y395232D01*
X578116Y391379D01*
X579046Y390994D01*
X579271Y390850D01*
X579448Y390604D01*
X579516Y390308D01*
X579463Y390010D01*
X579297Y389756D01*
X579046Y389586D01*
X578116Y389201D01*
X574263Y385348D01*
X572178Y380314D01*
X572178Y374866D01*
X574263Y369832D01*
X578116Y365979D01*
X583150Y363894D01*
X588598Y363894D01*
X593632Y365979D01*
X597485Y369832D01*
X597870Y370762D01*
X598014Y370987D01*
X598260Y371164D01*
X598556Y371232D01*
X598854Y371178D01*
X599109Y371013D01*
X599278Y370762D01*
X599663Y369832D01*
X603516Y365979D01*
X608550Y363894D01*
X613998Y363894D01*
X619032Y365979D01*
X622885Y369832D01*
X624970Y374866D01*
X624970Y380314D01*
X622885Y385348D01*
X619032Y389201D01*
X618103Y389586D01*
X617877Y389730D01*
X617700Y389976D01*
X617632Y390272D01*
X617686Y390570D01*
X617851Y390825D01*
X618103Y390994D01*
X619032Y391379D01*
X622885Y395232D01*
X624970Y400266D01*
X624970Y405714D01*
X622885Y410748D01*
X619032Y414601D01*
X618103Y414986D01*
X617877Y415130D01*
X617700Y415376D01*
X617632Y415672D01*
X617686Y415970D01*
X617851Y416225D01*
X618103Y416394D01*
X619032Y416779D01*
X622885Y420632D01*
X624970Y425666D01*
X624970Y431114D01*
X622885Y436148D01*
X619032Y440001D01*
X618103Y440386D01*
X617877Y440530D01*
X617700Y440776D01*
X617632Y441072D01*
X617686Y441370D01*
X617851Y441625D01*
X618103Y441794D01*
X619032Y442179D01*
X622403Y445550D01*
X622645Y445713D01*
X622942Y445774D01*
X624463Y445774D01*
X624749Y445718D01*
X625001Y445550D01*
X636897Y433654D01*
X637060Y433413D01*
X637121Y433116D01*
X637121Y373066D01*
X637065Y372780D01*
X636897Y372527D01*
X620027Y355657D01*
X619786Y355494D01*
X619489Y355434D01*
X476855Y355434D01*
X473867Y354196D01*
X438896Y319225D01*
X437658Y316237D01*
X437658Y234915D01*
X437603Y234629D01*
X437435Y234376D01*
X434260Y231202D01*
X433790Y230067D01*
X433646Y229842D01*
X433400Y229664D01*
X433104Y229597D01*
X432806Y229650D01*
X432552Y229816D01*
X432382Y230067D01*
X431912Y231202D01*
X428088Y235026D01*
X423091Y237096D01*
X417682Y237096D01*
X412685Y235026D01*
X408860Y231202D01*
X406790Y226204D01*
X406790Y220796D01*
X408860Y215798D01*
X412685Y211974D01*
X417682Y209904D01*
X423091Y209904D01*
X428088Y211974D01*
X431912Y215798D01*
X432382Y216933D01*
X432526Y217158D01*
X432772Y217336D01*
X433068Y217403D01*
X433367Y217350D01*
X433621Y217184D01*
X433790Y216933D01*
X434260Y215798D01*
X438085Y211974D01*
X443082Y209904D01*
X448491Y209904D01*
X453488Y211974D01*
X457312Y215798D01*
X457782Y216933D01*
X457926Y217158D01*
X458172Y217336D01*
X458468Y217403D01*
X458767Y217350D01*
X459021Y217184D01*
X459190Y216933D01*
X459660Y215798D01*
X463485Y211974D01*
X468482Y209904D01*
X473891Y209904D01*
X478888Y211974D01*
X482712Y215798D01*
X483182Y216933D01*
X483326Y217158D01*
X483572Y217336D01*
X483868Y217403D01*
X484167Y217350D01*
X484421Y217184D01*
X484590Y216933D01*
X485060Y215798D01*
X488885Y211974D01*
X493882Y209904D01*
X499291Y209904D01*
X504288Y211974D01*
X508112Y215798D01*
X508582Y216933D01*
X508726Y217158D01*
X508972Y217336D01*
X509268Y217403D01*
X509567Y217350D01*
X509821Y217184D01*
X509990Y216933D01*
X510460Y215798D01*
X514285Y211974D01*
X519282Y209904D01*
X524691Y209904D01*
X529688Y211974D01*
X533512Y215798D01*
X533982Y216933D01*
X534126Y217158D01*
X534372Y217336D01*
X534668Y217403D01*
X534967Y217350D01*
X535221Y217184D01*
X535390Y216933D01*
X535860Y215798D01*
X539685Y211974D01*
X544682Y209904D01*
X550091Y209904D01*
X555088Y211974D01*
X558912Y215798D01*
X559382Y216933D01*
X559526Y217158D01*
X559772Y217336D01*
X560068Y217403D01*
X560367Y217350D01*
X560621Y217184D01*
X560790Y216933D01*
X561260Y215798D01*
X565085Y211974D01*
X570082Y209904D01*
X575491Y209904D01*
X580488Y211974D01*
X584312Y215798D01*
X584782Y216933D01*
X584926Y217158D01*
X585172Y217336D01*
X585468Y217403D01*
X585767Y217350D01*
X586021Y217184D01*
X586190Y216933D01*
X586660Y215798D01*
X590485Y211974D01*
X591619Y211504D01*
X591844Y211360D01*
X592022Y211114D01*
X592089Y210818D01*
X592036Y210520D01*
X591871Y210266D01*
X591619Y210096D01*
X590485Y209626D01*
X586660Y205802D01*
X584590Y200804D01*
X584590Y195396D01*
X586660Y190398D01*
X590485Y186574D01*
X591619Y186104D01*
X591844Y185960D01*
X592022Y185714D01*
X592089Y185418D01*
X592036Y185120D01*
X591871Y184866D01*
X591619Y184696D01*
X590485Y184226D01*
X586660Y180402D01*
X584590Y175404D01*
X584590Y169996D01*
X586660Y164998D01*
X590485Y161174D01*
X595482Y159104D01*
X600891Y159104D01*
X605888Y161174D01*
X609712Y164998D01*
X611782Y169996D01*
X611782Y175404D01*
X609712Y180402D01*
X605888Y184226D01*
X604753Y184696D01*
X604528Y184840D01*
X604351Y185086D01*
X604283Y185382D01*
X604336Y185680D01*
X604502Y185935D01*
X604753Y186104D01*
X605888Y186574D01*
X609712Y190398D01*
X611782Y195396D01*
X611782Y200804D01*
X609712Y205802D01*
X605888Y209626D01*
X604753Y210096D01*
X604528Y210240D01*
X604351Y210486D01*
X604283Y210782D01*
X604336Y211080D01*
X604502Y211335D01*
X604753Y211504D01*
X605888Y211974D01*
X609712Y215798D01*
X611782Y220796D01*
X611782Y226204D01*
X609712Y231202D01*
X605888Y235026D01*
X600891Y237096D01*
X595482Y237096D01*
X590485Y235026D01*
X586660Y231202D01*
X586190Y230067D01*
X586046Y229842D01*
X585800Y229664D01*
X585504Y229597D01*
X585206Y229650D01*
X584952Y229816D01*
X584782Y230067D01*
X584312Y231202D01*
X581137Y234376D01*
X580975Y234618D01*
X580914Y234915D01*
X580914Y278831D01*
X579677Y281818D01*
X566604Y294891D01*
X564546Y295743D01*
X564299Y295908D01*
X560580Y299628D01*
X555538Y301716D01*
X554983Y301716D01*
X554725Y301761D01*
X554466Y301918D01*
X554288Y302164D01*
X554221Y302460D01*
X554274Y302758D01*
X554439Y303013D01*
X554691Y303182D01*
X558565Y304787D01*
X561423Y307645D01*
X562545Y310352D01*
X535455Y310352D01*
X536577Y307645D01*
X539435Y304787D01*
X543309Y303182D01*
X543530Y303042D01*
X543709Y302797D01*
X543779Y302502D01*
X543728Y302203D01*
X543565Y301948D01*
X543315Y301776D01*
X543017Y301716D01*
X542462Y301716D01*
X537421Y299628D01*
X533562Y295770D01*
X531474Y290728D01*
X531474Y285272D01*
X533562Y280231D01*
X537421Y276372D01*
X538309Y276004D01*
X538535Y275860D01*
X538712Y275614D01*
X538779Y275318D01*
X538726Y275020D01*
X538561Y274766D01*
X538309Y274596D01*
X537421Y274228D01*
X533562Y270370D01*
X531474Y265328D01*
X531474Y259872D01*
X533562Y254831D01*
X537421Y250972D01*
X542462Y248884D01*
X555538Y248884D01*
X560580Y250972D01*
X563357Y253750D01*
X563577Y253903D01*
X563872Y253973D01*
X564171Y253922D01*
X564426Y253759D01*
X564598Y253508D01*
X564658Y253211D01*
X564658Y234915D01*
X564603Y234629D01*
X564435Y234376D01*
X561260Y231202D01*
X560790Y230067D01*
X560646Y229842D01*
X560400Y229664D01*
X560104Y229597D01*
X559806Y229650D01*
X559552Y229816D01*
X559382Y230067D01*
X558912Y231202D01*
X555088Y235026D01*
X550091Y237096D01*
X545601Y237096D01*
X545315Y237152D01*
X545062Y237319D01*
X529351Y253030D01*
X529188Y253271D01*
X529128Y253569D01*
X529128Y274617D01*
X527891Y277604D01*
X510604Y294891D01*
X507617Y296128D01*
X507395Y296128D01*
X507109Y296184D01*
X506856Y296351D01*
X503580Y299628D01*
X498538Y301716D01*
X497983Y301716D01*
X497725Y301761D01*
X497466Y301918D01*
X497288Y302164D01*
X497221Y302460D01*
X497274Y302758D01*
X497439Y303013D01*
X497691Y303182D01*
X501565Y304787D01*
X504423Y307645D01*
X505545Y310352D01*
X478455Y310352D01*
X479577Y307645D01*
X482435Y304787D01*
X486309Y303182D01*
X486530Y303042D01*
X486709Y302797D01*
X486779Y302502D01*
X486728Y302203D01*
X486565Y301948D01*
X486315Y301776D01*
X486017Y301716D01*
X485462Y301716D01*
X480421Y299628D01*
X476562Y295770D01*
X474474Y290728D01*
X474474Y285272D01*
X476562Y280231D01*
X480421Y276372D01*
X481309Y276004D01*
X481535Y275860D01*
X481712Y275614D01*
X481779Y275318D01*
X481726Y275020D01*
X481561Y274766D01*
X481309Y274596D01*
X480421Y274228D01*
X476562Y270370D01*
X474474Y265328D01*
X474474Y259872D01*
X476562Y254831D01*
X480421Y250972D01*
X485462Y248884D01*
X498538Y248884D01*
X503580Y250972D01*
X507438Y254831D01*
X509526Y259872D01*
X509526Y265328D01*
X507438Y270370D01*
X503580Y274228D01*
X502691Y274596D01*
X502465Y274740D01*
X502288Y274986D01*
X502221Y275282D01*
X502274Y275580D01*
X502439Y275835D01*
X502691Y276004D01*
X503580Y276372D01*
X504318Y277110D01*
X504548Y277268D01*
X504844Y277333D01*
X505142Y277278D01*
X505395Y277110D01*
X512649Y269856D01*
X512812Y269615D01*
X512872Y269318D01*
X512872Y248269D01*
X514109Y245282D01*
X520995Y238397D01*
X521148Y238177D01*
X521218Y237882D01*
X521167Y237583D01*
X521003Y237328D01*
X520753Y237156D01*
X520456Y237096D01*
X519282Y237096D01*
X514285Y235026D01*
X510460Y231202D01*
X509990Y230067D01*
X509846Y229842D01*
X509600Y229664D01*
X509304Y229597D01*
X509006Y229650D01*
X508752Y229816D01*
X508582Y230067D01*
X508112Y231202D01*
X504288Y235026D01*
X499291Y237096D01*
X493882Y237096D01*
X488885Y235026D01*
X485060Y231202D01*
X484590Y230067D01*
X484446Y229842D01*
X484200Y229664D01*
X483904Y229597D01*
X483606Y229650D01*
X483352Y229816D01*
X483182Y230067D01*
X482712Y231202D01*
X478888Y235026D01*
X473891Y237096D01*
X468482Y237096D01*
X463485Y235026D01*
X459660Y231202D01*
X459190Y230067D01*
X459046Y229842D01*
X458800Y229664D01*
X458504Y229597D01*
X458206Y229650D01*
X457952Y229816D01*
X457782Y230067D01*
X457312Y231202D01*
X454137Y234376D01*
X453975Y234618D01*
X453914Y234915D01*
X453914Y310938D01*
X453970Y311224D01*
X454137Y311477D01*
X481615Y338954D01*
X481857Y339117D01*
X482154Y339178D01*
X624788Y339178D01*
X627775Y340415D01*
X652139Y364779D01*
X653377Y367767D01*
X653377Y438415D01*
X652139Y441402D01*
X632749Y460792D01*
X629762Y462030D01*
X622719Y462030D01*
X622433Y462085D01*
X622180Y462253D01*
X619032Y465401D01*
X618103Y465786D01*
X617877Y465930D01*
X617700Y466176D01*
X617632Y466472D01*
X617686Y466770D01*
X617851Y467025D01*
X618103Y467194D01*
X619032Y467579D01*
X622885Y471432D01*
X624970Y476466D01*
X624970Y481914D01*
X622885Y486948D01*
X619032Y490801D01*
X618103Y491186D01*
X617877Y491330D01*
X617700Y491576D01*
X617632Y491872D01*
X617686Y492170D01*
X617851Y492425D01*
X618103Y492594D01*
X619032Y492979D01*
X622885Y496832D01*
X624970Y501866D01*
X624970Y507314D01*
X622885Y512348D01*
X619032Y516201D01*
X618103Y516586D01*
X617877Y516730D01*
X617700Y516976D01*
X617632Y517272D01*
X617686Y517570D01*
X617851Y517825D01*
X618103Y517994D01*
X619032Y518379D01*
X622292Y521639D01*
X622534Y521802D01*
X622831Y521862D01*
X623891Y521862D01*
X626878Y523099D01*
X648139Y544360D01*
X649377Y547348D01*
X649377Y612555D01*
X648139Y615542D01*
X626775Y636906D01*
X623788Y638143D01*
X492803Y638143D01*
X489815Y636906D01*
X159560Y306651D01*
X158323Y303663D01*
X158323Y234866D01*
X158267Y234580D01*
X158100Y234327D01*
X154974Y231202D01*
X154504Y230067D01*
X154360Y229842D01*
X154114Y229664D01*
X153818Y229597D01*
X153520Y229650D01*
X153266Y229816D01*
X153096Y230067D01*
X152626Y231202D01*
X149351Y234476D01*
X149188Y234718D01*
X149128Y235015D01*
X149128Y308318D01*
X149184Y308604D01*
X149351Y308856D01*
X186365Y345870D01*
X187602Y348857D01*
X187602Y366033D01*
X187658Y366319D01*
X187825Y366572D01*
X191085Y369832D01*
X193170Y374866D01*
X193170Y380314D01*
X191085Y385348D01*
X187232Y389201D01*
X186303Y389586D01*
X186077Y389730D01*
X185900Y389976D01*
X185832Y390272D01*
X185886Y390570D01*
X186051Y390825D01*
X186303Y390994D01*
X187232Y391379D01*
X191085Y395232D01*
X193170Y400266D01*
X193170Y405714D01*
X191085Y410748D01*
X187232Y414601D01*
X186303Y414986D01*
X186077Y415130D01*
X185900Y415376D01*
X185832Y415672D01*
X185886Y415970D01*
X186051Y416225D01*
X186303Y416394D01*
X187232Y416779D01*
X191085Y420632D01*
X193170Y425666D01*
X193170Y431114D01*
X191085Y436148D01*
X187232Y440001D01*
X186303Y440386D01*
X186077Y440530D01*
X185900Y440776D01*
X185832Y441072D01*
X185886Y441370D01*
X186051Y441625D01*
X186303Y441794D01*
X187232Y442179D01*
X191085Y446032D01*
X193170Y451066D01*
X193170Y456514D01*
X191085Y461548D01*
X187232Y465401D01*
X186303Y465786D01*
X186077Y465930D01*
X185900Y466176D01*
X185832Y466472D01*
X185886Y466770D01*
X186051Y467025D01*
X186303Y467194D01*
X187232Y467579D01*
X190492Y470839D01*
X190734Y471002D01*
X191031Y471062D01*
X191807Y471062D01*
X194794Y472299D01*
X216891Y494396D01*
X218128Y497383D01*
X218128Y620617D01*
X216891Y623604D01*
X195604Y644891D01*
X192617Y646128D01*
X134383Y646128D01*
X131396Y644891D01*
X112109Y625604D01*
X110872Y622617D01*
X110872Y579082D01*
X110816Y578796D01*
X110649Y578544D01*
X79624Y547519D01*
X79388Y547358D01*
X79091Y547295D01*
X78794Y547353D01*
X74538Y549116D01*
X61462Y549116D01*
X56421Y547028D01*
X52562Y543170D01*
X50474Y538128D01*
X50474Y532672D01*
X52562Y527631D01*
X56421Y523772D01*
X57309Y523404D01*
X57535Y523260D01*
X57712Y523014D01*
X57779Y522718D01*
X57726Y522420D01*
X57561Y522166D01*
X57309Y521996D01*
X56421Y521628D01*
X55901Y521108D01*
X55670Y520950D01*
X55374Y520885D01*
X55076Y520941D01*
X54823Y521108D01*
X47961Y527970D01*
X47799Y528212D01*
X47738Y528509D01*
X47738Y567238D01*
X47794Y567524D01*
X47961Y567776D01*
X48859Y568674D01*
X49095Y568835D01*
X49392Y568897D01*
X49690Y568839D01*
X50572Y568474D01*
X56028Y568474D01*
X61070Y570562D01*
X64928Y574421D01*
X65296Y575309D01*
X65440Y575535D01*
X65686Y575712D01*
X65982Y575779D01*
X66280Y575726D01*
X66535Y575561D01*
X66704Y575309D01*
X67072Y574421D01*
X70931Y570562D01*
X75972Y568474D01*
X81428Y568474D01*
X86470Y570562D01*
X90328Y574421D01*
X92416Y579462D01*
X92416Y592538D01*
X90328Y597580D01*
X86470Y601438D01*
X81428Y603526D01*
X75972Y603526D01*
X70931Y601438D01*
X67072Y597580D01*
X66704Y596691D01*
X66560Y596465D01*
X66314Y596288D01*
X66018Y596221D01*
X65720Y596274D01*
X65466Y596439D01*
X65296Y596691D01*
X64928Y597580D01*
X61070Y601438D01*
X56028Y603526D01*
X50572Y603526D01*
X45531Y601438D01*
X41672Y597580D01*
X39584Y592538D01*
X39584Y585578D01*
X39528Y585292D01*
X39361Y585039D01*
X30842Y576520D01*
X29450Y573160D01*
X29450Y330887D01*
X30842Y327526D01*
X44220Y314148D01*
X47581Y312756D01*
X53621Y312756D01*
X53907Y312700D01*
X54160Y312533D01*
X56421Y310272D01*
X61462Y308184D01*
X71094Y308184D01*
X71369Y308133D01*
X71624Y307969D01*
X71796Y307719D01*
X71856Y307422D01*
X71856Y274703D01*
X71800Y274417D01*
X71633Y274164D01*
X68306Y270837D01*
X68070Y270677D01*
X67773Y270614D01*
X67475Y270672D01*
X65003Y271696D01*
X58997Y271696D01*
X53449Y269398D01*
X49202Y265151D01*
X46904Y259603D01*
X46904Y253597D01*
X49202Y248049D01*
X53449Y243802D01*
X58997Y241504D01*
X65003Y241504D01*
X70551Y243802D01*
X74798Y248049D01*
X77151Y253729D01*
X77152Y253735D01*
X77319Y253988D01*
X88752Y265420D01*
X90144Y268781D01*
X90144Y313719D01*
X88752Y317080D01*
X85749Y320082D01*
X85586Y320324D01*
X85526Y320621D01*
X85526Y324628D01*
X83438Y329670D01*
X79580Y333528D01*
X74538Y335616D01*
X73983Y335616D01*
X73725Y335661D01*
X73466Y335818D01*
X73288Y336064D01*
X73221Y336360D01*
X73274Y336658D01*
X73439Y336913D01*
X73691Y337082D01*
X77565Y338687D01*
X80423Y341545D01*
X81545Y344252D01*
X54455Y344252D01*
X55577Y341545D01*
X58435Y338687D01*
X62309Y337082D01*
X62530Y336942D01*
X62709Y336697D01*
X62779Y336402D01*
X62728Y336103D01*
X62565Y335848D01*
X62315Y335676D01*
X62017Y335616D01*
X61462Y335616D01*
X56421Y333528D01*
X54160Y331267D01*
X53918Y331104D01*
X53621Y331044D01*
X53503Y331044D01*
X53217Y331100D01*
X52964Y331267D01*
X47961Y336270D01*
X47799Y336512D01*
X47738Y336809D01*
X47738Y501142D01*
X47787Y501411D01*
X47949Y501667D01*
X48197Y501841D01*
X48494Y501904D01*
X48792Y501846D01*
X51181Y500856D01*
X53621Y500856D01*
X53907Y500800D01*
X54160Y500633D01*
X56421Y498372D01*
X61462Y496284D01*
X62017Y496284D01*
X62275Y496239D01*
X62534Y496082D01*
X62712Y495836D01*
X62779Y495540D01*
X62726Y495242D01*
X62561Y494988D01*
X62309Y494818D01*
X58435Y493213D01*
X55577Y490355D01*
X54455Y487648D01*
X81545Y487648D01*
X80423Y490355D01*
X77565Y493213D01*
X73691Y494818D01*
X73470Y494958D01*
X73291Y495203D01*
X73221Y495498D01*
X73272Y495797D01*
X73435Y496052D01*
X73685Y496224D01*
X73983Y496284D01*
X74538Y496284D01*
X79580Y498372D01*
X83438Y502231D01*
X85526Y507272D01*
X85526Y512728D01*
X83438Y517770D01*
X79580Y521628D01*
X78691Y521996D01*
X78465Y522140D01*
X78288Y522386D01*
X78221Y522682D01*
X78274Y522980D01*
X78439Y523235D01*
X78691Y523404D01*
X79580Y523772D01*
X83438Y527631D01*
X83884Y528707D01*
X84049Y528954D01*
X125891Y570796D01*
X127128Y573783D01*
X127128Y617318D01*
X127184Y617604D01*
X127351Y617856D01*
X139144Y629649D01*
X139385Y629812D01*
X139682Y629872D01*
X187318Y629872D01*
X187604Y629816D01*
X187856Y629649D01*
X201649Y615856D01*
X201812Y615615D01*
X201872Y615318D01*
X201872Y502682D01*
X201816Y502396D01*
X201649Y502144D01*
X189308Y489803D01*
X189078Y489645D01*
X188781Y489580D01*
X188483Y489635D01*
X188230Y489803D01*
X187232Y490801D01*
X186303Y491186D01*
X186077Y491330D01*
X185900Y491576D01*
X185832Y491872D01*
X185886Y492170D01*
X186051Y492425D01*
X186303Y492594D01*
X187232Y492979D01*
X191085Y496832D01*
X193170Y501866D01*
X193170Y507314D01*
X191085Y512348D01*
X187232Y516201D01*
X186303Y516586D01*
X186077Y516730D01*
X185900Y516976D01*
X185832Y517272D01*
X185886Y517570D01*
X186051Y517825D01*
X186303Y517994D01*
X187232Y518379D01*
X191085Y522232D01*
X193170Y527266D01*
X193170Y532714D01*
X191085Y537748D01*
X187232Y541601D01*
X186303Y541986D01*
X186077Y542130D01*
X185900Y542376D01*
X185832Y542672D01*
X185886Y542970D01*
X186051Y543225D01*
X186303Y543394D01*
X187232Y543779D01*
X191085Y547632D01*
X193170Y552666D01*
X193170Y558114D01*
X191085Y563148D01*
X187232Y567001D01*
X182198Y569086D01*
X176750Y569086D01*
X171716Y567001D01*
X167863Y563148D01*
X167478Y562219D01*
X167334Y561993D01*
X167088Y561816D01*
X166792Y561748D01*
X166494Y561802D01*
X166240Y561967D01*
X166070Y562219D01*
X165685Y563148D01*
X161832Y567001D01*
X160903Y567386D01*
X160677Y567530D01*
X160500Y567776D01*
X160432Y568072D01*
X160486Y568370D01*
X160651Y568625D01*
X160903Y568794D01*
X161832Y569179D01*
X165685Y573032D01*
X167770Y578066D01*
X167770Y583514D01*
X165685Y588548D01*
X162882Y591352D01*
X162726Y591576D01*
X162659Y591872D01*
X162712Y592171D01*
X162877Y592425D01*
X163129Y592594D01*
X165127Y593422D01*
X166842Y595137D01*
X167670Y597135D01*
X167818Y597365D01*
X168065Y597540D01*
X168362Y597606D01*
X168660Y597550D01*
X168913Y597382D01*
X171716Y594579D01*
X176750Y592494D01*
X182198Y592494D01*
X187232Y594579D01*
X191085Y598432D01*
X193170Y603466D01*
X193170Y608914D01*
X191085Y613948D01*
X187232Y617801D01*
X182198Y619886D01*
X176750Y619886D01*
X171716Y617801D01*
X168913Y614998D01*
X168688Y614842D01*
X168392Y614775D01*
X168093Y614828D01*
X167839Y614993D01*
X167670Y615245D01*
X166842Y617243D01*
X165127Y618958D01*
X162887Y619886D01*
X145261Y619886D01*
X143021Y618958D01*
X141306Y617243D01*
X140378Y615003D01*
X140378Y597377D01*
X141306Y595137D01*
X143021Y593422D01*
X145019Y592594D01*
X145249Y592446D01*
X145424Y592199D01*
X145490Y591902D01*
X145434Y591604D01*
X145266Y591352D01*
X142463Y588548D01*
X140378Y583514D01*
X140378Y578066D01*
X142463Y573032D01*
X146316Y569179D01*
X147246Y568794D01*
X147471Y568650D01*
X147648Y568404D01*
X147716Y568108D01*
X147663Y567810D01*
X147497Y567556D01*
X147246Y567386D01*
X146316Y567001D01*
X144072Y564757D01*
X143831Y564594D01*
X143533Y564534D01*
X135255Y564534D01*
X131894Y563142D01*
X95248Y526496D01*
X93856Y523135D01*
X93856Y424203D01*
X93800Y423917D01*
X93633Y423664D01*
X80022Y410054D01*
X79786Y409893D01*
X79489Y409831D01*
X79192Y409889D01*
X74538Y411816D01*
X61462Y411816D01*
X56421Y409728D01*
X52562Y405870D01*
X50474Y400828D01*
X50474Y395372D01*
X52562Y390331D01*
X56421Y386472D01*
X57309Y386104D01*
X57535Y385960D01*
X57712Y385714D01*
X57779Y385418D01*
X57726Y385120D01*
X57561Y384866D01*
X57309Y384696D01*
X56421Y384328D01*
X52562Y380470D01*
X50474Y375428D01*
X50474Y369972D01*
X52562Y364931D01*
X56421Y361072D01*
X61462Y358984D01*
X62017Y358984D01*
X62275Y358939D01*
X62534Y358782D01*
X62712Y358536D01*
X62779Y358240D01*
X62726Y357942D01*
X62561Y357688D01*
X62309Y357518D01*
X58435Y355913D01*
X55577Y353055D01*
X54455Y350348D01*
X81545Y350348D01*
X80423Y353055D01*
X77565Y355913D01*
X73691Y357518D01*
X73470Y357658D01*
X73291Y357903D01*
X73221Y358198D01*
X73272Y358497D01*
X73435Y358752D01*
X73685Y358924D01*
X73983Y358984D01*
X74538Y358984D01*
X79580Y361072D01*
X81840Y363333D01*
X82082Y363496D01*
X82379Y363556D01*
X94519Y363556D01*
X97880Y364948D01*
X125752Y392820D01*
X127144Y396181D01*
X127144Y501813D01*
X127200Y502099D01*
X127367Y502352D01*
X144317Y519301D01*
X144547Y519459D01*
X144843Y519524D01*
X145141Y519468D01*
X145394Y519301D01*
X146316Y518379D01*
X147246Y517994D01*
X147471Y517850D01*
X147648Y517604D01*
X147716Y517308D01*
X147663Y517010D01*
X147497Y516756D01*
X147246Y516586D01*
X146316Y516201D01*
X142463Y512348D01*
X140378Y507314D01*
X140378Y501866D01*
X142463Y496832D01*
X146316Y492979D01*
X147246Y492594D01*
X147471Y492450D01*
X147648Y492204D01*
X147716Y491908D01*
X147663Y491610D01*
X147497Y491356D01*
X147246Y491186D01*
X146316Y490801D01*
X142463Y486948D01*
X140378Y481914D01*
X140378Y476466D01*
X142463Y471432D01*
X146316Y467579D01*
X147246Y467194D01*
X147471Y467050D01*
X147648Y466804D01*
X147716Y466508D01*
X147663Y466210D01*
X147497Y465956D01*
X147246Y465786D01*
X146316Y465401D01*
X142463Y461548D01*
X140378Y456514D01*
X140378Y451066D01*
X142463Y446032D01*
X146316Y442179D01*
X147246Y441794D01*
X147471Y441650D01*
X147648Y441404D01*
X147716Y441108D01*
X147663Y440810D01*
X147497Y440556D01*
X147246Y440386D01*
X146316Y440001D01*
X142463Y436148D01*
X140378Y431114D01*
X140378Y425666D01*
X142463Y420632D01*
X146316Y416779D01*
X147246Y416394D01*
X147471Y416250D01*
X147648Y416004D01*
X147716Y415708D01*
X147663Y415410D01*
X147497Y415156D01*
X147246Y414986D01*
X146316Y414601D01*
X142463Y410748D01*
X140378Y405714D01*
X140378Y400266D01*
X142463Y395232D01*
X146316Y391379D01*
X147246Y390994D01*
X147471Y390850D01*
X147648Y390604D01*
X147716Y390308D01*
X147663Y390010D01*
X147497Y389756D01*
X147246Y389586D01*
X146316Y389201D01*
X142463Y385348D01*
X140378Y380314D01*
X140378Y374866D01*
X142463Y369832D01*
X146316Y365979D01*
X151350Y363894D01*
X156798Y363894D01*
X161832Y365979D01*
X165685Y369832D01*
X166070Y370762D01*
X166214Y370987D01*
X166460Y371164D01*
X166756Y371232D01*
X167054Y371178D01*
X167309Y371013D01*
X167478Y370762D01*
X167863Y369832D01*
X171123Y366572D01*
X171286Y366331D01*
X171346Y366033D01*
X171346Y354156D01*
X171290Y353870D01*
X171123Y353618D01*
X134109Y316604D01*
X132872Y313617D01*
X132872Y234815D01*
X132816Y234529D01*
X132649Y234276D01*
X129574Y231202D01*
X127504Y226204D01*
X127504Y220796D01*
X129574Y215798D01*
X133398Y211974D01*
X138396Y209904D01*
X143804Y209904D01*
X148802Y211974D01*
X152626Y215798D01*
X153096Y216933D01*
X153240Y217158D01*
X153486Y217336D01*
X153782Y217403D01*
X154080Y217350D01*
X154335Y217184D01*
X154504Y216933D01*
X154974Y215798D01*
X158798Y211974D01*
X163796Y209904D01*
X169204Y209904D01*
X174202Y211974D01*
X178026Y215798D01*
X178496Y216933D01*
X178640Y217158D01*
X178886Y217336D01*
X179182Y217403D01*
X179480Y217350D01*
X179735Y217184D01*
X179904Y216933D01*
X180374Y215798D01*
X184198Y211974D01*
X189196Y209904D01*
X194604Y209904D01*
X199602Y211974D01*
X203426Y215798D01*
X203896Y216933D01*
X204040Y217158D01*
X204286Y217336D01*
X204582Y217403D01*
X204880Y217350D01*
X205135Y217184D01*
X205304Y216933D01*
X205774Y215798D01*
X209598Y211974D01*
X214596Y209904D01*
X220004Y209904D01*
X225002Y211974D01*
X228826Y215798D01*
X229296Y216933D01*
X229440Y217158D01*
X229686Y217336D01*
X229982Y217403D01*
X230280Y217350D01*
X230535Y217184D01*
X230704Y216933D01*
X231174Y215798D01*
X234998Y211974D01*
X239996Y209904D01*
X245404Y209904D01*
X250402Y211974D01*
X254226Y215798D01*
X254696Y216933D01*
X254840Y217158D01*
X255086Y217336D01*
X255382Y217403D01*
X255680Y217350D01*
X255935Y217184D01*
X256104Y216933D01*
X256574Y215798D01*
X260398Y211974D01*
X265396Y209904D01*
X270804Y209904D01*
X275802Y211974D01*
X279626Y215798D01*
X280096Y216933D01*
X280240Y217158D01*
X280486Y217336D01*
X280782Y217403D01*
X281080Y217350D01*
X281335Y217184D01*
X281504Y216933D01*
X281974Y215798D01*
X285798Y211974D01*
X290796Y209904D01*
X296204Y209904D01*
X301202Y211974D01*
X305026Y215798D01*
X305496Y216933D01*
X305640Y217158D01*
X305886Y217336D01*
X306182Y217403D01*
X306480Y217350D01*
X306735Y217184D01*
X306904Y216933D01*
X307374Y215798D01*
X311198Y211974D01*
X312333Y211504D01*
X312558Y211360D01*
X312736Y211114D01*
X312803Y210818D01*
X312750Y210520D01*
X312584Y210266D01*
X312333Y210096D01*
X311198Y209626D01*
X307374Y205802D01*
X305304Y200804D01*
X305304Y195396D01*
X307374Y190398D01*
X311198Y186574D01*
X312333Y186104D01*
X312558Y185960D01*
X312736Y185714D01*
X312803Y185418D01*
X312750Y185120D01*
X312584Y184866D01*
X312333Y184696D01*
X311198Y184226D01*
X307374Y180402D01*
X305304Y175404D01*
X305304Y169996D01*
X307374Y164998D01*
X311198Y161174D01*
X316196Y159104D01*
G37*
G36*
X177457Y570650D02*
X181491Y570650D01*
X185218Y572194D01*
X188070Y575046D01*
X189187Y577742D01*
X176426Y577742D01*
X176426Y583838D01*
X189187Y583838D01*
X188070Y586534D01*
X185218Y589386D01*
X181491Y590930D01*
X177457Y590930D01*
X173730Y589386D01*
X170878Y586534D01*
X169334Y582807D01*
X169334Y578773D01*
X170878Y575046D01*
X173730Y572194D01*
X177457Y570650D01*
G37*
G36*
X62169Y474440D02*
X64952Y474440D01*
X64952Y481552D01*
X54455Y481552D01*
X55577Y478845D01*
X58435Y475987D01*
X62169Y474440D01*
G37*
G36*
X71048Y474440D02*
X73831Y474440D01*
X77565Y475987D01*
X80423Y478845D01*
X81545Y481552D01*
X71048Y481552D01*
X71048Y474440D01*
G37*
G36*
X495048Y316448D02*
X505545Y316448D01*
X504423Y319155D01*
X501565Y322013D01*
X497831Y323560D01*
X495048Y323560D01*
X495048Y316448D01*
G37*
G36*
X478455Y316448D02*
X488952Y316448D01*
X488952Y323560D01*
X486169Y323560D01*
X482435Y322013D01*
X479577Y319155D01*
X478455Y316448D01*
G37*
G36*
X535455Y316448D02*
X545952Y316448D01*
X545952Y323560D01*
X543169Y323560D01*
X539435Y322013D01*
X536577Y319155D01*
X535455Y316448D01*
G37*
G36*
X552048Y316448D02*
X562545Y316448D01*
X561423Y319155D01*
X558565Y322013D01*
X554831Y323560D01*
X552048Y323560D01*
X552048Y316448D01*
G37*
G36*
X50772Y208848D02*
X58952Y208848D01*
X58952Y217028D01*
X55463Y215583D01*
X52217Y212337D01*
X50772Y208848D01*
G37*
G36*
X65048Y208848D02*
X73228Y208848D01*
X71783Y212337D01*
X68537Y215583D01*
X65048Y217028D01*
X65048Y208848D01*
G37*
G36*
X65048Y202752D02*
X65048Y194572D01*
X68537Y196017D01*
X71783Y199263D01*
X73228Y202752D01*
X65048Y202752D01*
G37*
G36*
X55463Y196017D02*
X58952Y194572D01*
X58952Y202752D01*
X50772Y202752D01*
X52217Y199263D01*
X55463Y196017D01*
G37*
G36*
X316196Y82904D02*
X321604Y82904D01*
X326602Y84974D01*
X330426Y88798D01*
X332496Y93796D01*
X332496Y99204D01*
X330426Y104202D01*
X330299Y104328D01*
X330136Y104570D01*
X330076Y104867D01*
X330076Y112323D01*
X328375Y116431D01*
X328282Y116523D01*
X328129Y116743D01*
X328059Y117038D01*
X328110Y117337D01*
X328274Y117592D01*
X328524Y117764D01*
X328821Y117824D01*
X574741Y117824D01*
X575027Y117768D01*
X575280Y117601D01*
X586787Y106094D01*
X586950Y105852D01*
X587010Y105555D01*
X587010Y104867D01*
X586955Y104581D01*
X586787Y104328D01*
X586660Y104202D01*
X584590Y99204D01*
X584590Y93796D01*
X586660Y88798D01*
X590485Y84974D01*
X595482Y82904D01*
X600891Y82904D01*
X605888Y84974D01*
X609712Y88798D01*
X611782Y93796D01*
X611782Y99204D01*
X609712Y104202D01*
X609585Y104328D01*
X609423Y104570D01*
X609362Y104867D01*
X609362Y112723D01*
X607661Y116831D01*
X586017Y138475D01*
X581909Y140176D01*
X92945Y140176D01*
X92659Y140232D01*
X92406Y140399D01*
X77319Y155486D01*
X77156Y155728D01*
X77096Y156025D01*
X77096Y158003D01*
X74798Y163551D01*
X70551Y167798D01*
X65003Y170096D01*
X58997Y170096D01*
X53449Y167798D01*
X49202Y163551D01*
X46904Y158003D01*
X46904Y151997D01*
X49202Y146449D01*
X53449Y142202D01*
X58997Y139904D01*
X60975Y139904D01*
X61261Y139848D01*
X61514Y139681D01*
X81669Y119525D01*
X85777Y117824D01*
X295055Y117824D01*
X295341Y117768D01*
X295594Y117601D01*
X307501Y105694D01*
X307664Y105452D01*
X307724Y105155D01*
X307724Y104867D01*
X307668Y104581D01*
X307501Y104328D01*
X307374Y104202D01*
X305304Y99204D01*
X305304Y93796D01*
X307374Y88798D01*
X311198Y84974D01*
X316196Y82904D01*
G37*
G36*
X468172Y31792D02*
X473628Y31792D01*
X478670Y33880D01*
X482528Y37739D01*
X482896Y38627D01*
X483040Y38853D01*
X483286Y39030D01*
X483582Y39098D01*
X483880Y39044D01*
X484135Y38879D01*
X484304Y38627D01*
X484672Y37739D01*
X488531Y33880D01*
X493572Y31792D01*
X499028Y31792D01*
X504070Y33880D01*
X507928Y37739D01*
X508296Y38627D01*
X508440Y38853D01*
X508686Y39030D01*
X508982Y39098D01*
X509280Y39044D01*
X509535Y38879D01*
X509704Y38627D01*
X510072Y37739D01*
X513931Y33880D01*
X518972Y31792D01*
X524428Y31792D01*
X529470Y33880D01*
X533328Y37739D01*
X533696Y38627D01*
X533840Y38853D01*
X534086Y39030D01*
X534382Y39098D01*
X534680Y39044D01*
X534935Y38879D01*
X535104Y38627D01*
X535472Y37739D01*
X539331Y33880D01*
X544372Y31792D01*
X549828Y31792D01*
X554870Y33880D01*
X558728Y37739D01*
X560816Y42780D01*
X560816Y55856D01*
X558698Y60970D01*
X558623Y61082D01*
X558562Y61379D01*
X558562Y88133D01*
X558618Y88419D01*
X558785Y88672D01*
X558912Y88798D01*
X560982Y93796D01*
X560982Y99204D01*
X558912Y104202D01*
X555088Y108026D01*
X550091Y110096D01*
X544682Y110096D01*
X539685Y108026D01*
X535860Y104202D01*
X535390Y103067D01*
X535246Y102842D01*
X535000Y102664D01*
X534704Y102597D01*
X534406Y102650D01*
X534152Y102816D01*
X533982Y103067D01*
X533512Y104202D01*
X529688Y108026D01*
X524691Y110096D01*
X519282Y110096D01*
X514285Y108026D01*
X510460Y104202D01*
X509990Y103067D01*
X509846Y102842D01*
X509600Y102664D01*
X509304Y102597D01*
X509006Y102650D01*
X508752Y102816D01*
X508582Y103067D01*
X508112Y104202D01*
X504288Y108026D01*
X499291Y110096D01*
X493882Y110096D01*
X488885Y108026D01*
X485060Y104202D01*
X484590Y103067D01*
X484446Y102842D01*
X484200Y102664D01*
X483904Y102597D01*
X483606Y102650D01*
X483352Y102816D01*
X483182Y103067D01*
X482712Y104202D01*
X478888Y108026D01*
X473891Y110096D01*
X468482Y110096D01*
X463485Y108026D01*
X459660Y104202D01*
X459190Y103067D01*
X459046Y102842D01*
X458800Y102664D01*
X458504Y102597D01*
X458206Y102650D01*
X457952Y102816D01*
X457782Y103067D01*
X457312Y104202D01*
X453488Y108026D01*
X448491Y110096D01*
X443082Y110096D01*
X438085Y108026D01*
X434260Y104202D01*
X432190Y99204D01*
X432190Y93796D01*
X434260Y88798D01*
X438085Y84974D01*
X443082Y82904D01*
X448491Y82904D01*
X453488Y84974D01*
X457312Y88798D01*
X457782Y89933D01*
X457926Y90158D01*
X458172Y90336D01*
X458468Y90403D01*
X458767Y90350D01*
X459021Y90184D01*
X459190Y89933D01*
X459660Y88798D01*
X459787Y88672D01*
X459950Y88430D01*
X460010Y88133D01*
X460010Y61951D01*
X459955Y61665D01*
X459787Y61412D01*
X459272Y60898D01*
X457184Y55856D01*
X457184Y42780D01*
X459272Y37739D01*
X463131Y33880D01*
X468172Y31792D01*
G37*
G36*
X189075Y31792D02*
X194532Y31792D01*
X199573Y33880D01*
X203431Y37739D01*
X203799Y38627D01*
X203943Y38853D01*
X204189Y39030D01*
X204485Y39098D01*
X204784Y39044D01*
X205038Y38879D01*
X205207Y38627D01*
X205575Y37739D01*
X209434Y33880D01*
X214475Y31792D01*
X219932Y31792D01*
X224973Y33880D01*
X228831Y37739D01*
X229199Y38627D01*
X229343Y38853D01*
X229589Y39030D01*
X229885Y39098D01*
X230184Y39044D01*
X230438Y38879D01*
X230607Y38627D01*
X230975Y37739D01*
X234834Y33880D01*
X239875Y31792D01*
X245332Y31792D01*
X250373Y33880D01*
X254231Y37739D01*
X254599Y38627D01*
X254743Y38853D01*
X254989Y39030D01*
X255285Y39098D01*
X255584Y39044D01*
X255838Y38879D01*
X256007Y38627D01*
X256375Y37739D01*
X260234Y33880D01*
X265275Y31792D01*
X270732Y31792D01*
X275773Y33880D01*
X279631Y37739D01*
X281719Y42780D01*
X281719Y55856D01*
X279631Y60898D01*
X279499Y61030D01*
X279336Y61271D01*
X279276Y61568D01*
X279276Y88133D01*
X279332Y88419D01*
X279499Y88672D01*
X279626Y88798D01*
X281696Y93796D01*
X281696Y99204D01*
X279626Y104202D01*
X275802Y108026D01*
X270804Y110096D01*
X265396Y110096D01*
X260398Y108026D01*
X256574Y104202D01*
X256104Y103067D01*
X255960Y102842D01*
X255714Y102664D01*
X255418Y102597D01*
X255120Y102650D01*
X254866Y102816D01*
X254696Y103067D01*
X254226Y104202D01*
X250402Y108026D01*
X245404Y110096D01*
X239996Y110096D01*
X234998Y108026D01*
X231174Y104202D01*
X230704Y103067D01*
X230560Y102842D01*
X230314Y102664D01*
X230018Y102597D01*
X229720Y102650D01*
X229466Y102816D01*
X229296Y103067D01*
X228826Y104202D01*
X225002Y108026D01*
X220004Y110096D01*
X214596Y110096D01*
X209598Y108026D01*
X205774Y104202D01*
X205304Y103067D01*
X205160Y102842D01*
X204914Y102664D01*
X204618Y102597D01*
X204320Y102650D01*
X204066Y102816D01*
X203896Y103067D01*
X203426Y104202D01*
X199602Y108026D01*
X194604Y110096D01*
X189196Y110096D01*
X184198Y108026D01*
X180374Y104202D01*
X179904Y103067D01*
X179760Y102842D01*
X179514Y102664D01*
X179218Y102597D01*
X178920Y102650D01*
X178666Y102816D01*
X178496Y103067D01*
X178026Y104202D01*
X174202Y108026D01*
X169204Y110096D01*
X163796Y110096D01*
X158798Y108026D01*
X154974Y104202D01*
X152904Y99204D01*
X152904Y93796D01*
X154974Y88798D01*
X158798Y84974D01*
X163796Y82904D01*
X169204Y82904D01*
X174202Y84974D01*
X178026Y88798D01*
X178496Y89933D01*
X178640Y90158D01*
X178886Y90336D01*
X179182Y90403D01*
X179480Y90350D01*
X179735Y90184D01*
X179904Y89933D01*
X180374Y88798D01*
X180404Y88768D01*
X180567Y88527D01*
X180627Y88229D01*
X180627Y61665D01*
X180572Y61379D01*
X180404Y61126D01*
X180175Y60898D01*
X178087Y55856D01*
X178087Y42780D01*
X180175Y37739D01*
X184034Y33880D01*
X189075Y31792D01*
G37*
G36*
X131060Y99548D02*
X138052Y99548D01*
X138052Y106540D01*
X132548Y106540D01*
X131060Y105052D01*
X131060Y99548D01*
G37*
G36*
X144148Y86460D02*
X149652Y86460D01*
X151140Y87948D01*
X151140Y105052D01*
X149652Y106540D01*
X144148Y106540D01*
X144148Y86460D01*
G37*
G36*
X423434Y86460D02*
X428938Y86460D01*
X430426Y87948D01*
X430426Y105052D01*
X428938Y106540D01*
X423434Y106540D01*
X423434Y86460D01*
G37*
G36*
X410346Y99548D02*
X417338Y99548D01*
X417338Y106540D01*
X411834Y106540D01*
X410346Y105052D01*
X410346Y99548D01*
G37*
G36*
X296548Y106105D02*
X296548Y86895D01*
X299187Y87989D01*
X302012Y90813D01*
X303540Y94503D01*
X303540Y98497D01*
X302012Y102187D01*
X299187Y105012D01*
X296548Y106105D01*
G37*
G36*
X287813Y87989D02*
X290452Y86895D01*
X290452Y106105D01*
X287813Y105012D01*
X284989Y102187D01*
X283460Y98497D01*
X283460Y94503D01*
X284989Y90813D01*
X287813Y87989D01*
G37*
G36*
X567099Y87989D02*
X569738Y86895D01*
X569738Y106105D01*
X567099Y105012D01*
X564275Y102187D01*
X562746Y98497D01*
X562746Y94503D01*
X564275Y90813D01*
X567099Y87989D01*
G37*
G36*
X575834Y106105D02*
X575834Y86895D01*
X578473Y87989D01*
X581298Y90813D01*
X582826Y94503D01*
X582826Y98497D01*
X581298Y102187D01*
X578473Y105012D01*
X575834Y106105D01*
G37*
G36*
X411834Y86460D02*
X417338Y86460D01*
X417338Y93452D01*
X410346Y93452D01*
X410346Y87948D01*
X411834Y86460D01*
G37*
G36*
X132548Y86460D02*
X138052Y86460D01*
X138052Y93452D01*
X131060Y93452D01*
X131060Y87948D01*
X132548Y86460D01*
G37*
G36*
X675070Y18872D02*
X684930Y18872D01*
X694308Y21919D01*
X702285Y27715D01*
X708081Y35692D01*
X711128Y45070D01*
X711128Y54930D01*
X708081Y64308D01*
X702285Y72285D01*
X694308Y78081D01*
X684930Y81128D01*
X675070Y81128D01*
X665692Y78081D01*
X657715Y72285D01*
X651919Y64308D01*
X648872Y54930D01*
X648872Y45070D01*
X651919Y35692D01*
X657715Y27715D01*
X665692Y21919D01*
X675070Y18872D01*
G37*
G36*
X45070Y18872D02*
X54930Y18872D01*
X64308Y21919D01*
X72285Y27715D01*
X78081Y35692D01*
X81128Y45070D01*
X81128Y54930D01*
X78081Y64308D01*
X72285Y72285D01*
X64308Y78081D01*
X54930Y81128D01*
X45070Y81128D01*
X35692Y78081D01*
X27715Y72285D01*
X21919Y64308D01*
X18872Y54930D01*
X18872Y45070D01*
X21919Y35692D01*
X27715Y27715D01*
X35692Y21919D01*
X45070Y18872D01*
G37*
%LPD*%
G36*
X306514Y229664D02*
X306218Y229597D01*
X305920Y229650D01*
X305666Y229816D01*
X305496Y230067D01*
X305026Y231202D01*
X301851Y234376D01*
X301688Y234618D01*
X301628Y234915D01*
X301628Y271626D01*
X300391Y274614D01*
X291361Y283644D01*
X291200Y283880D01*
X291138Y284176D01*
X291196Y284474D01*
X291526Y285272D01*
X291526Y290728D01*
X289438Y295770D01*
X285580Y299628D01*
X280538Y301716D01*
X279983Y301716D01*
X279725Y301761D01*
X279466Y301918D01*
X279288Y302164D01*
X279221Y302460D01*
X279274Y302758D01*
X279439Y303013D01*
X279691Y303182D01*
X283565Y304787D01*
X286423Y307645D01*
X287545Y310352D01*
X260455Y310352D01*
X261577Y307645D01*
X264435Y304787D01*
X268309Y303182D01*
X268530Y303042D01*
X268709Y302797D01*
X268779Y302502D01*
X268728Y302203D01*
X268565Y301948D01*
X268315Y301776D01*
X268017Y301716D01*
X267462Y301716D01*
X262421Y299628D01*
X258562Y295770D01*
X256474Y290728D01*
X256474Y285272D01*
X258562Y280231D01*
X262421Y276372D01*
X263309Y276004D01*
X263535Y275860D01*
X263712Y275614D01*
X263779Y275318D01*
X263726Y275020D01*
X263561Y274766D01*
X263309Y274596D01*
X262421Y274228D01*
X258562Y270370D01*
X256594Y265618D01*
X256454Y265397D01*
X256209Y265218D01*
X255914Y265148D01*
X255615Y265199D01*
X255360Y265362D01*
X255188Y265612D01*
X255128Y265910D01*
X255128Y276617D01*
X253891Y279604D01*
X238604Y294891D01*
X236546Y295743D01*
X236299Y295908D01*
X232580Y299628D01*
X227538Y301716D01*
X226983Y301716D01*
X226725Y301761D01*
X226466Y301918D01*
X226288Y302164D01*
X226221Y302460D01*
X226274Y302758D01*
X226439Y303013D01*
X226691Y303182D01*
X230565Y304787D01*
X233423Y307645D01*
X234545Y310352D01*
X207455Y310352D01*
X208577Y307645D01*
X211435Y304787D01*
X215309Y303182D01*
X215530Y303042D01*
X215709Y302797D01*
X215779Y302502D01*
X215728Y302203D01*
X215565Y301948D01*
X215315Y301776D01*
X215017Y301716D01*
X214462Y301716D01*
X209421Y299628D01*
X205562Y295770D01*
X203474Y290728D01*
X203474Y285272D01*
X205562Y280231D01*
X209421Y276372D01*
X210309Y276004D01*
X210535Y275860D01*
X210712Y275614D01*
X210779Y275318D01*
X210726Y275020D01*
X210561Y274766D01*
X210309Y274596D01*
X209421Y274228D01*
X205562Y270370D01*
X203474Y265328D01*
X203474Y259872D01*
X205562Y254831D01*
X209421Y250972D01*
X214462Y248884D01*
X227538Y248884D01*
X232580Y250972D01*
X236438Y254831D01*
X237406Y257168D01*
X237546Y257389D01*
X237791Y257568D01*
X238086Y257638D01*
X238385Y257587D01*
X238640Y257424D01*
X238812Y257173D01*
X238872Y256876D01*
X238872Y242983D01*
X240109Y239996D01*
X241708Y238397D01*
X241861Y238177D01*
X241931Y237882D01*
X241880Y237583D01*
X241717Y237328D01*
X241467Y237156D01*
X241170Y237096D01*
X239996Y237096D01*
X234998Y235026D01*
X231174Y231202D01*
X230704Y230067D01*
X230560Y229842D01*
X230314Y229664D01*
X230018Y229597D01*
X229720Y229650D01*
X229466Y229816D01*
X229296Y230067D01*
X228826Y231202D01*
X225002Y235026D01*
X220004Y237096D01*
X214596Y237096D01*
X209598Y235026D01*
X205774Y231202D01*
X205304Y230067D01*
X205160Y229842D01*
X204914Y229664D01*
X204618Y229597D01*
X204320Y229650D01*
X204066Y229816D01*
X203896Y230067D01*
X203426Y231202D01*
X199602Y235026D01*
X194604Y237096D01*
X189196Y237096D01*
X184198Y235026D01*
X180374Y231202D01*
X179904Y230067D01*
X179760Y229842D01*
X179514Y229664D01*
X179218Y229597D01*
X178920Y229650D01*
X178666Y229816D01*
X178496Y230067D01*
X178026Y231202D01*
X174802Y234426D01*
X174639Y234667D01*
X174579Y234965D01*
X174579Y298364D01*
X174634Y298650D01*
X174802Y298903D01*
X497563Y621664D01*
X497805Y621827D01*
X498102Y621887D01*
X618489Y621887D01*
X618775Y621832D01*
X619027Y621664D01*
X632897Y607794D01*
X633060Y607553D01*
X633121Y607255D01*
X633121Y552647D01*
X633065Y552361D01*
X632897Y552108D01*
X621250Y540461D01*
X621020Y540303D01*
X620723Y540238D01*
X620425Y540293D01*
X620172Y540461D01*
X619032Y541601D01*
X618103Y541986D01*
X617877Y542130D01*
X617700Y542376D01*
X617632Y542672D01*
X617686Y542970D01*
X617851Y543225D01*
X618103Y543394D01*
X619032Y543779D01*
X622885Y547632D01*
X624970Y552666D01*
X624970Y558114D01*
X622885Y563148D01*
X619032Y567001D01*
X618103Y567386D01*
X617877Y567530D01*
X617700Y567776D01*
X617632Y568072D01*
X617686Y568370D01*
X617851Y568625D01*
X618103Y568794D01*
X619032Y569179D01*
X622885Y573032D01*
X624970Y578066D01*
X624970Y583514D01*
X622885Y588548D01*
X619032Y592401D01*
X613998Y594486D01*
X608550Y594486D01*
X603516Y592401D01*
X599663Y588548D01*
X599278Y587619D01*
X599134Y587393D01*
X598888Y587216D01*
X598592Y587148D01*
X598294Y587202D01*
X598040Y587367D01*
X597870Y587619D01*
X597485Y588548D01*
X593632Y592401D01*
X592703Y592786D01*
X592477Y592930D01*
X592300Y593176D01*
X592232Y593472D01*
X592286Y593770D01*
X592451Y594025D01*
X592703Y594194D01*
X593632Y594579D01*
X597485Y598432D01*
X599570Y603466D01*
X599570Y608914D01*
X597485Y613948D01*
X593632Y617801D01*
X588598Y619886D01*
X583150Y619886D01*
X578116Y617801D01*
X574856Y614541D01*
X574615Y614378D01*
X574317Y614318D01*
X538573Y614318D01*
X535586Y613081D01*
X312421Y389916D01*
X311184Y386928D01*
X311184Y235327D01*
X311128Y235041D01*
X310960Y234788D01*
X307374Y231202D01*
X306904Y230067D01*
X306760Y229842D01*
X306514Y229664D01*
G37*
%LPC*%
G36*
X609257Y596050D02*
X613291Y596050D01*
X617018Y597594D01*
X619870Y600446D01*
X620987Y603142D01*
X608226Y603142D01*
X608226Y615903D01*
X605530Y614786D01*
X602678Y611934D01*
X601134Y608207D01*
X601134Y604173D01*
X602678Y600446D01*
X605530Y597594D01*
X609257Y596050D01*
G37*
G36*
X614322Y609238D02*
X620987Y609238D01*
X619870Y611934D01*
X617018Y614786D01*
X614322Y615903D01*
X614322Y609238D01*
G37*
G36*
X277048Y316448D02*
X287545Y316448D01*
X286423Y319155D01*
X283565Y322013D01*
X279831Y323560D01*
X277048Y323560D01*
X277048Y316448D01*
G37*
G36*
X207455Y316448D02*
X217952Y316448D01*
X217952Y323560D01*
X215169Y323560D01*
X211435Y322013D01*
X208577Y319155D01*
X207455Y316448D01*
G37*
G36*
X260455Y316448D02*
X270952Y316448D01*
X270952Y323560D01*
X268169Y323560D01*
X264435Y322013D01*
X261577Y319155D01*
X260455Y316448D01*
G37*
G36*
X224048Y316448D02*
X234545Y316448D01*
X233423Y319155D01*
X230565Y322013D01*
X226831Y323560D01*
X224048Y323560D01*
X224048Y316448D01*
G37*
%LPD*%
D10*
X141100Y223500D03*
X166500Y223500D03*
X191900Y223500D03*
X217300Y223500D03*
X242700Y223500D03*
X268100Y223500D03*
X293500Y223500D03*
X318900Y223500D03*
D11*
X141100Y96500D03*
D10*
X166500Y96500D03*
X191900Y96500D03*
X217300Y96500D03*
X242700Y96500D03*
X268100Y96500D03*
X293500Y96500D03*
X318900Y96500D03*
X318900Y198100D03*
X318900Y172700D03*
D12*
X268003Y53128D02*
X268003Y45508D01*
X242603Y45508D02*
X242603Y53128D01*
X217203Y53128D02*
X217203Y45508D01*
X191803Y45508D02*
X191803Y53128D01*
X270190Y262600D02*
X277810Y262600D01*
X277810Y288000D02*
X270190Y288000D01*
X270190Y313400D02*
X277810Y313400D01*
X224810Y262600D02*
X217190Y262600D01*
X217190Y288000D02*
X224810Y288000D01*
X224810Y313400D02*
X217190Y313400D01*
D10*
X420386Y223500D03*
X445786Y223500D03*
X471186Y223500D03*
X496586Y223500D03*
X521986Y223500D03*
X547386Y223500D03*
X572786Y223500D03*
X598186Y223500D03*
D11*
X420386Y96500D03*
D10*
X445786Y96500D03*
X471186Y96500D03*
X496586Y96500D03*
X521986Y96500D03*
X547386Y96500D03*
X572786Y96500D03*
X598186Y96500D03*
X598186Y198100D03*
X598186Y172700D03*
D12*
X547100Y53128D02*
X547100Y45508D01*
X521700Y45508D02*
X521700Y53128D01*
X496300Y53128D02*
X496300Y45508D01*
X470900Y45508D02*
X470900Y53128D01*
X545190Y262600D02*
X552810Y262600D01*
X552810Y288000D02*
X545190Y288000D01*
X545190Y313400D02*
X552810Y313400D01*
X495810Y262600D02*
X488190Y262600D01*
X488190Y288000D02*
X495810Y288000D01*
X495810Y313400D02*
X488190Y313400D01*
D13*
X154074Y606190D03*
D14*
X154074Y580790D03*
X154074Y555390D03*
X154074Y529990D03*
X154074Y504590D03*
X154074Y479190D03*
X154074Y453790D03*
X154074Y428390D03*
X154074Y402990D03*
X154074Y377590D03*
X611274Y606190D03*
X179474Y606190D03*
X585874Y606190D03*
X611274Y580790D03*
X179474Y580790D03*
X585874Y580790D03*
X611274Y555390D03*
X179474Y555390D03*
X585874Y555390D03*
X611274Y529990D03*
X179474Y529990D03*
X585874Y529990D03*
X611274Y504590D03*
X179474Y504590D03*
X585874Y504590D03*
X611274Y479190D03*
X179474Y479190D03*
X585874Y479190D03*
X611274Y453790D03*
X179474Y453790D03*
X585874Y453790D03*
X611274Y428390D03*
X179474Y428390D03*
X585874Y428390D03*
X611274Y402990D03*
X179474Y402990D03*
X585874Y402990D03*
X611274Y377590D03*
X179474Y377590D03*
X585874Y377590D03*
D15*
X62000Y155000D03*
X62000Y205800D03*
X62000Y256600D03*
D12*
X78700Y582190D02*
X78700Y589810D01*
X53300Y589810D02*
X53300Y582190D01*
X64190Y484600D02*
X71810Y484600D01*
X71810Y510000D02*
X64190Y510000D01*
X64190Y535400D02*
X71810Y535400D01*
X71810Y321900D02*
X64190Y321900D01*
X64190Y347300D02*
X71810Y347300D01*
X71810Y372700D02*
X64190Y372700D01*
X64190Y398100D02*
X71810Y398100D01*
D16*
X-100700Y32000D03*
X-75300Y32000D03*
X-178700Y32000D03*
X-153300Y32000D03*
D17*
X-111200Y99000D03*
X-38800Y99000D03*
X-198200Y99000D03*
X-125800Y99000D03*
D18*
X-160700Y246000D03*
X-148000Y246000D03*
X-135300Y246000D03*
X-160700Y172000D03*
X-148000Y172000D03*
X-135300Y172000D03*
D19*
X53000Y510000D02*
X68000Y510000D01*
X53000Y510000D02*
X38594Y524406D01*
X49400Y321900D02*
X68000Y321900D01*
X71000Y321900D02*
X81000Y311900D01*
X71000Y321900D02*
X68000Y321900D01*
X81000Y311900D02*
X81000Y270600D01*
X67000Y256600D01*
X62000Y256600D01*
X38594Y524406D02*
X38594Y571341D01*
X53254Y586000D02*
X53300Y586000D01*
X53254Y586000D02*
X38594Y571341D01*
X38594Y332706D02*
X49400Y321900D01*
X38594Y332706D02*
X38594Y524406D01*
D20*
X547386Y96500D02*
X547386Y49604D01*
X547100Y49318D01*
X521700Y49318D02*
X521700Y96214D01*
X521986Y96500D01*
X471186Y49604D02*
X470900Y49318D01*
X471186Y49604D02*
X471186Y96500D01*
D21*
X166451Y223549D02*
X166451Y302047D01*
X166451Y223549D02*
X166500Y223500D01*
X166451Y302047D02*
X494420Y630015D01*
X622171Y630015D01*
X641249Y610938D01*
X641249Y548965D01*
X622274Y529990D01*
X611274Y529990D01*
X623171Y347306D02*
X478471Y347306D01*
X623171Y347306D02*
X645249Y369383D01*
X645249Y436798D01*
X628145Y453902D01*
X611386Y453902D01*
X611274Y453790D01*
X478471Y347306D02*
X445786Y314620D01*
X445786Y223500D01*
D20*
X268100Y96500D02*
X268100Y49415D01*
X268003Y49318D01*
X242700Y49415D02*
X242700Y96500D01*
X242700Y49415D02*
X242603Y49318D01*
X191803Y49318D02*
X191803Y96403D01*
X191900Y96500D01*
D21*
X119000Y621000D02*
X136000Y638000D01*
X191000Y638000D01*
X210000Y619000D01*
X210000Y499000D01*
X190190Y479190D01*
X179474Y479190D01*
X119000Y575400D02*
X119000Y621000D01*
X119000Y575400D02*
X79000Y535400D01*
X68000Y535400D01*
D20*
X88000Y129000D02*
X300000Y129000D01*
X88000Y129000D02*
X62000Y155000D01*
X300000Y129000D02*
X318900Y110100D01*
X318900Y96500D01*
X300000Y129000D02*
X579686Y129000D01*
X598186Y110500D02*
X598186Y96500D01*
X598186Y110500D02*
X579686Y129000D01*
D21*
X562000Y288000D02*
X549000Y288000D01*
X562000Y288000D02*
X572786Y277214D01*
X572786Y223500D01*
X547386Y223500D02*
X521000Y249886D01*
X521000Y273000D01*
X506000Y288000D01*
X492000Y288000D01*
X275510Y288000D02*
X274000Y288000D01*
X275510Y288000D02*
X293500Y270010D01*
X293500Y223500D01*
X234000Y288000D02*
X221000Y288000D01*
X234000Y288000D02*
X247000Y275000D01*
X247000Y244600D01*
X268100Y223500D01*
D20*
X496300Y49318D02*
X496586Y49604D01*
X496586Y96500D01*
D21*
X179474Y350474D02*
X179474Y377590D01*
X179474Y350474D02*
X141000Y312000D01*
X141000Y223600D01*
X141100Y223500D01*
X319312Y385312D02*
X540190Y606190D01*
X585874Y606190D01*
X319312Y385312D02*
X319312Y223912D01*
X318900Y223500D01*
D20*
X217203Y96403D02*
X217203Y49318D01*
X217203Y96403D02*
X217300Y96500D01*
D19*
X103000Y420100D02*
X103000Y521316D01*
X103000Y420100D02*
X80000Y397100D01*
X69000Y397100D01*
X68000Y398100D01*
X137074Y555390D02*
X154074Y555390D01*
X137074Y555390D02*
X103000Y521316D01*
X142074Y529990D02*
X154074Y529990D01*
X142074Y529990D02*
X118000Y505916D01*
X118000Y398000D01*
X92700Y372700D01*
X68000Y372700D01*
M02*
