G04 EAGLE Gerber RS-274X export*
G75*
%MOMM*%
%FSLAX34Y34*%
%LPD*%
%INBottom Copper*%
%IPPOS*%
%AMOC8*
5,1,8,0,0,1.08239X$1,22.5*%
G01*
G04 Define Apertures*
%ADD10C,1.500000*%
%ADD11R,1.500000X1.500000*%
%ADD12C,1.524000*%
%ADD13R,1.520000X1.520000*%
%ADD14C,1.520000*%
%ADD15C,1.800000*%
%ADD16C,1.879600*%
%ADD17C,1.260000*%
%ADD18C,1.185000*%
%ADD19C,0.406400*%
G36*
X725478Y4124D02*
X725181Y4064D01*
X4826Y4064D01*
X4551Y4115D01*
X4296Y4279D01*
X4124Y4529D01*
X4064Y4826D01*
X4064Y695167D01*
X4116Y695443D01*
X4279Y695698D01*
X4530Y695869D01*
X4827Y695929D01*
X726168Y694943D01*
X726443Y694891D01*
X726698Y694727D01*
X726869Y694477D01*
X726929Y694180D01*
X725943Y4825D01*
X725892Y4551D01*
X725728Y4296D01*
X725478Y4124D01*
G37*
%LPC*%
G36*
X676208Y630936D02*
X683792Y630936D01*
X690799Y633838D01*
X696162Y639201D01*
X699064Y646208D01*
X699064Y653792D01*
X696162Y660799D01*
X690799Y666162D01*
X683792Y669064D01*
X676208Y669064D01*
X669201Y666162D01*
X663838Y660799D01*
X660936Y653792D01*
X660936Y646208D01*
X663838Y639201D01*
X669201Y633838D01*
X676208Y630936D01*
G37*
G36*
X46208Y630936D02*
X53792Y630936D01*
X60799Y633838D01*
X66162Y639201D01*
X69064Y646208D01*
X69064Y653792D01*
X66162Y660799D01*
X60799Y666162D01*
X53792Y669064D01*
X46208Y669064D01*
X39201Y666162D01*
X33838Y660799D01*
X30936Y653792D01*
X30936Y646208D01*
X33838Y639201D01*
X39201Y633838D01*
X46208Y630936D01*
G37*
G36*
X76376Y570506D02*
X81024Y570506D01*
X85318Y572285D01*
X88605Y575572D01*
X90384Y579866D01*
X90384Y588747D01*
X90440Y589033D01*
X90607Y589286D01*
X128017Y626696D01*
X128259Y626859D01*
X128556Y626919D01*
X165808Y626919D01*
X166094Y626864D01*
X166347Y626696D01*
X173155Y619888D01*
X173318Y619647D01*
X173378Y619349D01*
X173378Y616799D01*
X173325Y616519D01*
X173159Y616265D01*
X172908Y616095D01*
X172867Y616078D01*
X169586Y612797D01*
X167810Y608510D01*
X167810Y603870D01*
X169586Y599583D01*
X172867Y596302D01*
X177154Y594526D01*
X181794Y594526D01*
X186081Y596302D01*
X189362Y599583D01*
X191138Y603870D01*
X191138Y608510D01*
X189362Y612797D01*
X186081Y616078D01*
X186040Y616095D01*
X185802Y616252D01*
X185630Y616502D01*
X185570Y616799D01*
X185570Y623403D01*
X184642Y625643D01*
X172102Y638183D01*
X169861Y639111D01*
X124503Y639111D01*
X122262Y638183D01*
X84601Y600522D01*
X84365Y600361D01*
X84068Y600299D01*
X83770Y600357D01*
X81024Y601494D01*
X76376Y601494D01*
X72082Y599715D01*
X68795Y596428D01*
X67016Y592134D01*
X67016Y579866D01*
X68795Y575572D01*
X72082Y572285D01*
X76376Y570506D01*
G37*
G36*
X583554Y594526D02*
X588194Y594526D01*
X592481Y596302D01*
X595762Y599583D01*
X597538Y603870D01*
X597538Y608510D01*
X595762Y612797D01*
X592481Y616078D01*
X588194Y617854D01*
X583554Y617854D01*
X579267Y616078D01*
X575986Y612797D01*
X574210Y608510D01*
X574210Y603870D01*
X575986Y599583D01*
X579267Y596302D01*
X583554Y594526D01*
G37*
G36*
X164200Y84936D02*
X168800Y84936D01*
X173051Y86697D01*
X176303Y89950D01*
X178064Y94200D01*
X178064Y98800D01*
X176303Y103051D01*
X173039Y106315D01*
X172828Y106454D01*
X172656Y106704D01*
X172596Y107001D01*
X172596Y110713D01*
X171668Y112953D01*
X113355Y171266D01*
X113193Y171507D01*
X113132Y171804D01*
X113132Y265101D01*
X113179Y265365D01*
X113339Y265623D01*
X113586Y265798D01*
X113882Y265863D01*
X114180Y265808D01*
X114433Y265640D01*
X122641Y257432D01*
X124882Y256504D01*
X206559Y256504D01*
X206840Y256451D01*
X207094Y256285D01*
X207263Y256034D01*
X207285Y255982D01*
X210572Y252695D01*
X214866Y250916D01*
X227134Y250916D01*
X231428Y252695D01*
X234715Y255982D01*
X234737Y256034D01*
X234893Y256272D01*
X235144Y256444D01*
X235441Y256504D01*
X259559Y256504D01*
X259840Y256451D01*
X260094Y256285D01*
X260263Y256034D01*
X260285Y255982D01*
X263572Y252695D01*
X267866Y250916D01*
X280134Y250916D01*
X284428Y252695D01*
X287715Y255982D01*
X287737Y256034D01*
X287893Y256272D01*
X288144Y256444D01*
X288441Y256504D01*
X337159Y256504D01*
X337445Y256448D01*
X337698Y256281D01*
X386681Y207298D01*
X386844Y207057D01*
X386904Y206759D01*
X386904Y163787D01*
X387832Y161547D01*
X439467Y109912D01*
X439630Y109670D01*
X439690Y109373D01*
X439690Y107001D01*
X439637Y106721D01*
X439471Y106466D01*
X439248Y106316D01*
X435983Y103051D01*
X434222Y98800D01*
X434222Y94200D01*
X435983Y89950D01*
X439236Y86697D01*
X443486Y84936D01*
X448086Y84936D01*
X452337Y86697D01*
X455590Y89950D01*
X457350Y94200D01*
X457350Y98800D01*
X455590Y103051D01*
X452325Y106315D01*
X452114Y106454D01*
X451943Y106704D01*
X451882Y107001D01*
X451882Y113426D01*
X450954Y115667D01*
X399319Y167302D01*
X399156Y167543D01*
X399096Y167841D01*
X399096Y210813D01*
X398168Y213053D01*
X356018Y255203D01*
X355865Y255423D01*
X355795Y255718D01*
X355846Y256017D01*
X356009Y256272D01*
X356259Y256444D01*
X356557Y256504D01*
X477559Y256504D01*
X477840Y256451D01*
X478094Y256285D01*
X478263Y256034D01*
X478285Y255982D01*
X481572Y252695D01*
X485866Y250916D01*
X498134Y250916D01*
X502428Y252695D01*
X505715Y255982D01*
X505772Y256118D01*
X505928Y256356D01*
X506178Y256528D01*
X506476Y256588D01*
X534524Y256588D01*
X534805Y256534D01*
X535059Y256369D01*
X535228Y256118D01*
X535285Y255982D01*
X538572Y252695D01*
X542866Y250916D01*
X555134Y250916D01*
X559428Y252695D01*
X562715Y255982D01*
X564494Y260276D01*
X564494Y264924D01*
X562715Y269218D01*
X559428Y272505D01*
X555134Y274284D01*
X542866Y274284D01*
X538572Y272505D01*
X535262Y269196D01*
X535141Y269012D01*
X534891Y268840D01*
X534594Y268780D01*
X506406Y268780D01*
X506126Y268833D01*
X505872Y268999D01*
X505741Y269193D01*
X502428Y272505D01*
X498134Y274284D01*
X485866Y274284D01*
X481572Y272505D01*
X478285Y269218D01*
X478263Y269166D01*
X478107Y268928D01*
X477856Y268756D01*
X477559Y268696D01*
X288441Y268696D01*
X288160Y268749D01*
X287906Y268915D01*
X287737Y269166D01*
X287715Y269218D01*
X284428Y272505D01*
X280134Y274284D01*
X267866Y274284D01*
X263572Y272505D01*
X260285Y269218D01*
X260263Y269166D01*
X260107Y268928D01*
X259856Y268756D01*
X259559Y268696D01*
X235441Y268696D01*
X235160Y268749D01*
X234906Y268915D01*
X234737Y269166D01*
X234715Y269218D01*
X231428Y272505D01*
X227134Y274284D01*
X214866Y274284D01*
X210572Y272505D01*
X207285Y269218D01*
X207263Y269166D01*
X207107Y268928D01*
X206856Y268756D01*
X206559Y268696D01*
X128935Y268696D01*
X128649Y268752D01*
X128396Y268919D01*
X113355Y283960D01*
X113193Y284201D01*
X113132Y284499D01*
X113132Y569042D01*
X113188Y569328D01*
X113355Y569581D01*
X141109Y597335D01*
X141329Y597488D01*
X141624Y597558D01*
X141923Y597507D01*
X142178Y597343D01*
X142350Y597093D01*
X142382Y596935D01*
X144791Y594526D01*
X163357Y594526D01*
X165738Y596907D01*
X165738Y615473D01*
X163357Y617854D01*
X144791Y617854D01*
X142410Y615473D01*
X142410Y613048D01*
X142359Y612773D01*
X142195Y612518D01*
X141945Y612346D01*
X141648Y612286D01*
X140131Y612286D01*
X137890Y611358D01*
X101868Y575336D01*
X100940Y573095D01*
X100940Y167751D01*
X101868Y165511D01*
X103690Y163689D01*
X159974Y107405D01*
X160132Y107175D01*
X160197Y106879D01*
X160141Y106581D01*
X159974Y106328D01*
X156697Y103051D01*
X154936Y98800D01*
X154936Y94200D01*
X156697Y89950D01*
X159950Y86697D01*
X164200Y84936D01*
G37*
G36*
X601561Y609238D02*
X608226Y609238D01*
X608226Y615903D01*
X605530Y614786D01*
X602678Y611934D01*
X601561Y609238D01*
G37*
G36*
X614322Y609238D02*
X620987Y609238D01*
X619870Y611934D01*
X617018Y614786D01*
X614322Y615903D01*
X614322Y609238D01*
G37*
G36*
X614322Y603142D02*
X614322Y596477D01*
X617018Y597594D01*
X619870Y600446D01*
X620987Y603142D01*
X614322Y603142D01*
G37*
G36*
X605530Y597594D02*
X608226Y596477D01*
X608226Y603142D01*
X601561Y603142D01*
X602678Y600446D01*
X605530Y597594D01*
G37*
G36*
X50976Y570506D02*
X55624Y570506D01*
X59918Y572285D01*
X63205Y575572D01*
X64984Y579866D01*
X64984Y592134D01*
X63205Y596428D01*
X59918Y599715D01*
X55624Y601494D01*
X50976Y601494D01*
X46682Y599715D01*
X43395Y596428D01*
X41616Y592134D01*
X41616Y579866D01*
X43395Y575572D01*
X46682Y572285D01*
X50976Y570506D01*
G37*
G36*
X608954Y569126D02*
X613594Y569126D01*
X617881Y570902D01*
X621162Y574183D01*
X622938Y578470D01*
X622938Y583110D01*
X621162Y587397D01*
X617881Y590678D01*
X613594Y592454D01*
X608954Y592454D01*
X604667Y590678D01*
X601386Y587397D01*
X599610Y583110D01*
X599610Y578470D01*
X601386Y574183D01*
X604667Y570902D01*
X608954Y569126D01*
G37*
G36*
X583554Y569126D02*
X588194Y569126D01*
X592481Y570902D01*
X595762Y574183D01*
X597538Y578470D01*
X597538Y583110D01*
X595762Y587397D01*
X592481Y590678D01*
X588194Y592454D01*
X583554Y592454D01*
X579267Y590678D01*
X575986Y587397D01*
X574210Y583110D01*
X574210Y578470D01*
X575986Y574183D01*
X579267Y570902D01*
X583554Y569126D01*
G37*
G36*
X595886Y211936D02*
X600486Y211936D01*
X604737Y213697D01*
X607990Y216950D01*
X609750Y221200D01*
X609750Y225800D01*
X607990Y230051D01*
X604737Y233303D01*
X604686Y233325D01*
X604447Y233481D01*
X604275Y233731D01*
X604215Y234029D01*
X604215Y315026D01*
X603287Y317267D01*
X577210Y343344D01*
X574969Y344272D01*
X150110Y344272D01*
X149824Y344328D01*
X149571Y344495D01*
X132111Y361956D01*
X131948Y362197D01*
X131888Y362495D01*
X131888Y549667D01*
X131943Y549953D01*
X132111Y550206D01*
X141678Y559772D01*
X141891Y559923D01*
X142186Y559995D01*
X142485Y559947D01*
X142742Y559785D01*
X142916Y559536D01*
X142978Y559240D01*
X142920Y558942D01*
X142410Y557710D01*
X142410Y553070D01*
X144186Y548783D01*
X147467Y545502D01*
X151754Y543726D01*
X156394Y543726D01*
X160681Y545502D01*
X163962Y548783D01*
X165738Y553070D01*
X165738Y557710D01*
X163962Y561997D01*
X160681Y565278D01*
X156394Y567054D01*
X151754Y567054D01*
X150522Y566544D01*
X150267Y566487D01*
X149967Y566533D01*
X149709Y566692D01*
X149534Y566939D01*
X149469Y567236D01*
X149524Y567534D01*
X149692Y567787D01*
X150883Y568978D01*
X151119Y569138D01*
X151416Y569201D01*
X151713Y569143D01*
X151754Y569126D01*
X156394Y569126D01*
X160681Y570902D01*
X163962Y574183D01*
X165738Y578470D01*
X165738Y583110D01*
X163962Y587397D01*
X160681Y590678D01*
X156394Y592454D01*
X151754Y592454D01*
X147467Y590678D01*
X144186Y587397D01*
X142410Y583110D01*
X142410Y578470D01*
X142427Y578429D01*
X142485Y578150D01*
X142429Y577852D01*
X142262Y577599D01*
X120624Y555961D01*
X119696Y553720D01*
X119696Y358441D01*
X120624Y356201D01*
X143816Y333008D01*
X146057Y332080D01*
X570916Y332080D01*
X571202Y332024D01*
X571455Y331857D01*
X591800Y311512D01*
X591963Y311270D01*
X592023Y310973D01*
X592023Y233973D01*
X591970Y233693D01*
X591804Y233439D01*
X591702Y233370D01*
X588383Y230051D01*
X586622Y225800D01*
X586622Y221200D01*
X588383Y216950D01*
X591636Y213697D01*
X595886Y211936D01*
G37*
G36*
X169761Y583838D02*
X176426Y583838D01*
X176426Y590503D01*
X173730Y589386D01*
X170878Y586534D01*
X169761Y583838D01*
G37*
G36*
X182522Y583838D02*
X189187Y583838D01*
X188070Y586534D01*
X185218Y589386D01*
X182522Y590503D01*
X182522Y583838D01*
G37*
G36*
X182522Y577742D02*
X182522Y571077D01*
X185218Y572194D01*
X188070Y575046D01*
X189187Y577742D01*
X182522Y577742D01*
G37*
G36*
X173730Y572194D02*
X176426Y571077D01*
X176426Y577742D01*
X169761Y577742D01*
X170878Y575046D01*
X173730Y572194D01*
G37*
G36*
X583554Y543726D02*
X588194Y543726D01*
X592481Y545502D01*
X595762Y548783D01*
X597538Y553070D01*
X597538Y557710D01*
X595762Y561997D01*
X592481Y565278D01*
X588194Y567054D01*
X583554Y567054D01*
X579267Y565278D01*
X575986Y561997D01*
X574210Y557710D01*
X574210Y553070D01*
X575986Y548783D01*
X579267Y545502D01*
X583554Y543726D01*
G37*
G36*
X608954Y543726D02*
X613594Y543726D01*
X617881Y545502D01*
X621162Y548783D01*
X622938Y553070D01*
X622938Y557710D01*
X621162Y561997D01*
X617881Y565278D01*
X613594Y567054D01*
X608954Y567054D01*
X604667Y565278D01*
X601386Y561997D01*
X599610Y557710D01*
X599610Y553070D01*
X601386Y548783D01*
X604667Y545502D01*
X608954Y543726D01*
G37*
G36*
X177154Y543726D02*
X181794Y543726D01*
X186081Y545502D01*
X189362Y548783D01*
X191138Y553070D01*
X191138Y557710D01*
X189362Y561997D01*
X186081Y565278D01*
X181794Y567054D01*
X177154Y567054D01*
X172867Y565278D01*
X169586Y561997D01*
X167810Y557710D01*
X167810Y553070D01*
X169586Y548783D01*
X172867Y545502D01*
X177154Y543726D01*
G37*
G36*
X61866Y523716D02*
X74134Y523716D01*
X78428Y525495D01*
X81715Y528782D01*
X83494Y533076D01*
X83494Y537724D01*
X81715Y542018D01*
X78428Y545305D01*
X74134Y547084D01*
X61866Y547084D01*
X57572Y545305D01*
X54285Y542018D01*
X52506Y537724D01*
X52506Y533076D01*
X54285Y528782D01*
X57572Y525495D01*
X61866Y523716D01*
G37*
G36*
X608954Y518326D02*
X613594Y518326D01*
X617881Y520102D01*
X621162Y523383D01*
X622938Y527670D01*
X622938Y532310D01*
X621162Y536597D01*
X617881Y539878D01*
X613594Y541654D01*
X608954Y541654D01*
X604667Y539878D01*
X601386Y536597D01*
X599610Y532310D01*
X599610Y527670D01*
X601386Y523383D01*
X604667Y520102D01*
X608954Y518326D01*
G37*
G36*
X583554Y518326D02*
X588194Y518326D01*
X592481Y520102D01*
X595762Y523383D01*
X597538Y527670D01*
X597538Y532310D01*
X595762Y536597D01*
X592481Y539878D01*
X588194Y541654D01*
X583554Y541654D01*
X579267Y539878D01*
X575986Y536597D01*
X574210Y532310D01*
X574210Y527670D01*
X575986Y523383D01*
X579267Y520102D01*
X583554Y518326D01*
G37*
G36*
X177154Y518326D02*
X181794Y518326D01*
X186081Y520102D01*
X189362Y523383D01*
X191138Y527670D01*
X191138Y532310D01*
X189362Y536597D01*
X186081Y539878D01*
X181794Y541654D01*
X177154Y541654D01*
X172867Y539878D01*
X169586Y536597D01*
X167810Y532310D01*
X167810Y527670D01*
X169586Y523383D01*
X172867Y520102D01*
X177154Y518326D01*
G37*
G36*
X151754Y518326D02*
X156394Y518326D01*
X160681Y520102D01*
X163962Y523383D01*
X165738Y527670D01*
X165738Y532310D01*
X163962Y536597D01*
X160681Y539878D01*
X156394Y541654D01*
X151754Y541654D01*
X147467Y539878D01*
X144186Y536597D01*
X142410Y532310D01*
X142410Y527670D01*
X144186Y523383D01*
X147467Y520102D01*
X151754Y518326D01*
G37*
G36*
X61866Y498316D02*
X74134Y498316D01*
X78428Y500095D01*
X81715Y503382D01*
X83494Y507676D01*
X83494Y512324D01*
X81715Y516618D01*
X78428Y519905D01*
X74134Y521684D01*
X61866Y521684D01*
X57572Y519905D01*
X54285Y516618D01*
X52506Y512324D01*
X52506Y507676D01*
X54285Y503382D01*
X57572Y500095D01*
X61866Y498316D01*
G37*
G36*
X608954Y492926D02*
X613594Y492926D01*
X617881Y494702D01*
X621162Y497983D01*
X622938Y502270D01*
X622938Y506910D01*
X621162Y511197D01*
X617881Y514478D01*
X613594Y516254D01*
X608954Y516254D01*
X604667Y514478D01*
X601386Y511197D01*
X599610Y506910D01*
X599610Y502270D01*
X601386Y497983D01*
X604667Y494702D01*
X608954Y492926D01*
G37*
G36*
X583554Y492926D02*
X588194Y492926D01*
X592481Y494702D01*
X595762Y497983D01*
X597538Y502270D01*
X597538Y506910D01*
X595762Y511197D01*
X592481Y514478D01*
X588194Y516254D01*
X583554Y516254D01*
X579267Y514478D01*
X575986Y511197D01*
X574210Y506910D01*
X574210Y502270D01*
X575986Y497983D01*
X579267Y494702D01*
X583554Y492926D01*
G37*
G36*
X177154Y492926D02*
X181794Y492926D01*
X186081Y494702D01*
X189362Y497983D01*
X191138Y502270D01*
X191138Y506910D01*
X189362Y511197D01*
X186081Y514478D01*
X181794Y516254D01*
X177154Y516254D01*
X172867Y514478D01*
X169586Y511197D01*
X167810Y506910D01*
X167810Y502270D01*
X169586Y497983D01*
X172867Y494702D01*
X177154Y492926D01*
G37*
G36*
X151754Y492926D02*
X156394Y492926D01*
X160681Y494702D01*
X163962Y497983D01*
X165738Y502270D01*
X165738Y506910D01*
X163962Y511197D01*
X160681Y514478D01*
X156394Y516254D01*
X151754Y516254D01*
X147467Y514478D01*
X144186Y511197D01*
X142410Y506910D01*
X142410Y502270D01*
X144186Y497983D01*
X147467Y494702D01*
X151754Y492926D01*
G37*
G36*
X71048Y487648D02*
X81545Y487648D01*
X80423Y490355D01*
X77565Y493213D01*
X73831Y494760D01*
X71048Y494760D01*
X71048Y487648D01*
G37*
G36*
X54455Y487648D02*
X64952Y487648D01*
X64952Y494760D01*
X62169Y494760D01*
X58435Y493213D01*
X55577Y490355D01*
X54455Y487648D01*
G37*
G36*
X477103Y136888D02*
X617306Y136888D01*
X619546Y137817D01*
X640417Y158687D01*
X641345Y160927D01*
X641345Y467218D01*
X640417Y469458D01*
X625517Y484358D01*
X623276Y485286D01*
X621883Y485286D01*
X621603Y485339D01*
X621349Y485505D01*
X621179Y485756D01*
X621162Y485797D01*
X617881Y489078D01*
X613594Y490854D01*
X608954Y490854D01*
X604667Y489078D01*
X601386Y485797D01*
X599610Y481510D01*
X599610Y476870D01*
X601386Y472583D01*
X604667Y469302D01*
X608954Y467526D01*
X613594Y467526D01*
X617881Y469302D01*
X620067Y471488D01*
X620298Y471646D01*
X620594Y471711D01*
X620892Y471655D01*
X621145Y471488D01*
X628929Y463703D01*
X629092Y463462D01*
X629153Y463164D01*
X629153Y164981D01*
X629097Y164695D01*
X628929Y164442D01*
X613791Y149304D01*
X613550Y149141D01*
X613253Y149080D01*
X481157Y149080D01*
X480871Y149136D01*
X480618Y149304D01*
X427221Y202701D01*
X427058Y202942D01*
X426998Y203240D01*
X426998Y213442D01*
X427053Y213728D01*
X427221Y213981D01*
X430190Y216950D01*
X431950Y221200D01*
X431950Y225800D01*
X430190Y230051D01*
X426937Y233303D01*
X422686Y235064D01*
X418086Y235064D01*
X413836Y233303D01*
X410583Y230051D01*
X408822Y225800D01*
X408822Y221200D01*
X410583Y216950D01*
X413836Y213697D01*
X414335Y213490D01*
X414574Y213333D01*
X414745Y213083D01*
X414806Y212786D01*
X414806Y199186D01*
X415734Y196946D01*
X474863Y137817D01*
X477103Y136888D01*
G37*
G36*
X583554Y467526D02*
X588194Y467526D01*
X592481Y469302D01*
X595762Y472583D01*
X597538Y476870D01*
X597538Y481510D01*
X595762Y485797D01*
X592481Y489078D01*
X588194Y490854D01*
X583554Y490854D01*
X579267Y489078D01*
X575986Y485797D01*
X574210Y481510D01*
X574210Y476870D01*
X575986Y472583D01*
X579267Y469302D01*
X583554Y467526D01*
G37*
G36*
X177154Y467526D02*
X181794Y467526D01*
X186081Y469302D01*
X189362Y472583D01*
X191138Y476870D01*
X191138Y481510D01*
X189362Y485797D01*
X186081Y489078D01*
X181794Y490854D01*
X177154Y490854D01*
X172867Y489078D01*
X169586Y485797D01*
X167810Y481510D01*
X167810Y476870D01*
X169586Y472583D01*
X172867Y469302D01*
X177154Y467526D01*
G37*
G36*
X151754Y467526D02*
X156394Y467526D01*
X160681Y469302D01*
X163962Y472583D01*
X165738Y476870D01*
X165738Y481510D01*
X163962Y485797D01*
X160681Y489078D01*
X156394Y490854D01*
X151754Y490854D01*
X147467Y489078D01*
X144186Y485797D01*
X142410Y481510D01*
X142410Y476870D01*
X144186Y472583D01*
X147467Y469302D01*
X151754Y467526D01*
G37*
G36*
X62169Y474440D02*
X64952Y474440D01*
X64952Y481552D01*
X54455Y481552D01*
X55577Y478845D01*
X58435Y475987D01*
X62169Y474440D01*
G37*
G36*
X71048Y474440D02*
X73831Y474440D01*
X77565Y475987D01*
X80423Y478845D01*
X81545Y481552D01*
X71048Y481552D01*
X71048Y474440D01*
G37*
G36*
X608954Y442126D02*
X613594Y442126D01*
X617881Y443902D01*
X621162Y447183D01*
X622938Y451470D01*
X622938Y456110D01*
X621162Y460397D01*
X617881Y463678D01*
X613594Y465454D01*
X608954Y465454D01*
X604667Y463678D01*
X601386Y460397D01*
X599610Y456110D01*
X599610Y451470D01*
X601386Y447183D01*
X604667Y443902D01*
X608954Y442126D01*
G37*
G36*
X151754Y442126D02*
X156394Y442126D01*
X160681Y443902D01*
X163962Y447183D01*
X165738Y451470D01*
X165738Y456110D01*
X163962Y460397D01*
X160681Y463678D01*
X156394Y465454D01*
X151754Y465454D01*
X147467Y463678D01*
X144186Y460397D01*
X142410Y456110D01*
X142410Y451470D01*
X144186Y447183D01*
X147467Y443902D01*
X151754Y442126D01*
G37*
G36*
X583554Y442126D02*
X588194Y442126D01*
X592481Y443902D01*
X595762Y447183D01*
X597538Y451470D01*
X597538Y456110D01*
X595762Y460397D01*
X592481Y463678D01*
X588194Y465454D01*
X583554Y465454D01*
X579267Y463678D01*
X575986Y460397D01*
X574210Y456110D01*
X574210Y451470D01*
X575986Y447183D01*
X579267Y443902D01*
X583554Y442126D01*
G37*
G36*
X177154Y442126D02*
X181794Y442126D01*
X186081Y443902D01*
X189362Y447183D01*
X191138Y451470D01*
X191138Y456110D01*
X189362Y460397D01*
X186081Y463678D01*
X181794Y465454D01*
X177154Y465454D01*
X172867Y463678D01*
X169586Y460397D01*
X167810Y456110D01*
X167810Y451470D01*
X169586Y447183D01*
X172867Y443902D01*
X177154Y442126D01*
G37*
G36*
X151754Y416726D02*
X156394Y416726D01*
X160681Y418502D01*
X163962Y421783D01*
X165738Y426070D01*
X165738Y430710D01*
X163962Y434997D01*
X160681Y438278D01*
X156394Y440054D01*
X151754Y440054D01*
X147467Y438278D01*
X144186Y434997D01*
X142410Y430710D01*
X142410Y426070D01*
X144186Y421783D01*
X147467Y418502D01*
X151754Y416726D01*
G37*
G36*
X608954Y416726D02*
X613594Y416726D01*
X617881Y418502D01*
X621162Y421783D01*
X622938Y426070D01*
X622938Y430710D01*
X621162Y434997D01*
X617881Y438278D01*
X613594Y440054D01*
X608954Y440054D01*
X604667Y438278D01*
X601386Y434997D01*
X599610Y430710D01*
X599610Y426070D01*
X601386Y421783D01*
X604667Y418502D01*
X608954Y416726D01*
G37*
G36*
X583554Y416726D02*
X588194Y416726D01*
X592481Y418502D01*
X595762Y421783D01*
X597538Y426070D01*
X597538Y430710D01*
X595762Y434997D01*
X592481Y438278D01*
X588194Y440054D01*
X583554Y440054D01*
X579267Y438278D01*
X575986Y434997D01*
X574210Y430710D01*
X574210Y426070D01*
X575986Y421783D01*
X579267Y418502D01*
X583554Y416726D01*
G37*
G36*
X177154Y416726D02*
X181794Y416726D01*
X186081Y418502D01*
X189362Y421783D01*
X191138Y426070D01*
X191138Y430710D01*
X189362Y434997D01*
X186081Y438278D01*
X181794Y440054D01*
X177154Y440054D01*
X172867Y438278D01*
X169586Y434997D01*
X167810Y430710D01*
X167810Y426070D01*
X169586Y421783D01*
X172867Y418502D01*
X177154Y416726D01*
G37*
G36*
X177154Y391326D02*
X181794Y391326D01*
X186081Y393102D01*
X189362Y396383D01*
X191138Y400670D01*
X191138Y405310D01*
X189362Y409597D01*
X186081Y412878D01*
X181794Y414654D01*
X177154Y414654D01*
X172867Y412878D01*
X169586Y409597D01*
X167810Y405310D01*
X167810Y400670D01*
X169586Y396383D01*
X172867Y393102D01*
X177154Y391326D01*
G37*
G36*
X583554Y391326D02*
X588194Y391326D01*
X592481Y393102D01*
X595762Y396383D01*
X597538Y400670D01*
X597538Y405310D01*
X595762Y409597D01*
X592481Y412878D01*
X588194Y414654D01*
X583554Y414654D01*
X579267Y412878D01*
X575986Y409597D01*
X574210Y405310D01*
X574210Y400670D01*
X575986Y396383D01*
X579267Y393102D01*
X583554Y391326D01*
G37*
G36*
X608954Y391326D02*
X613594Y391326D01*
X617881Y393102D01*
X621162Y396383D01*
X622938Y400670D01*
X622938Y405310D01*
X621162Y409597D01*
X617881Y412878D01*
X613594Y414654D01*
X608954Y414654D01*
X604667Y412878D01*
X601386Y409597D01*
X599610Y405310D01*
X599610Y400670D01*
X601386Y396383D01*
X604667Y393102D01*
X608954Y391326D01*
G37*
G36*
X151754Y391326D02*
X156394Y391326D01*
X160681Y393102D01*
X163962Y396383D01*
X165738Y400670D01*
X165738Y405310D01*
X163962Y409597D01*
X160681Y412878D01*
X156394Y414654D01*
X151754Y414654D01*
X147467Y412878D01*
X144186Y409597D01*
X142410Y405310D01*
X142410Y400670D01*
X144186Y396383D01*
X147467Y393102D01*
X151754Y391326D01*
G37*
G36*
X61866Y386416D02*
X74134Y386416D01*
X78428Y388195D01*
X81715Y391482D01*
X83494Y395776D01*
X83494Y400424D01*
X81715Y404718D01*
X78428Y408005D01*
X74134Y409784D01*
X61866Y409784D01*
X57572Y408005D01*
X54285Y404718D01*
X52506Y400424D01*
X52506Y395776D01*
X54285Y391482D01*
X57572Y388195D01*
X61866Y386416D01*
G37*
G36*
X177154Y365926D02*
X181794Y365926D01*
X186081Y367702D01*
X189362Y370983D01*
X191138Y375270D01*
X191138Y379910D01*
X189362Y384197D01*
X186081Y387478D01*
X181794Y389254D01*
X177154Y389254D01*
X172867Y387478D01*
X169586Y384197D01*
X167810Y379910D01*
X167810Y375270D01*
X169586Y370983D01*
X172867Y367702D01*
X177154Y365926D01*
G37*
G36*
X583554Y365926D02*
X588194Y365926D01*
X592481Y367702D01*
X595762Y370983D01*
X597538Y375270D01*
X597538Y379910D01*
X595762Y384197D01*
X592481Y387478D01*
X588194Y389254D01*
X583554Y389254D01*
X579267Y387478D01*
X575986Y384197D01*
X574210Y379910D01*
X574210Y375270D01*
X575986Y370983D01*
X579267Y367702D01*
X583554Y365926D01*
G37*
G36*
X151754Y365926D02*
X156394Y365926D01*
X160681Y367702D01*
X163962Y370983D01*
X165738Y375270D01*
X165738Y379910D01*
X163962Y384197D01*
X160681Y387478D01*
X156394Y389254D01*
X151754Y389254D01*
X147467Y387478D01*
X144186Y384197D01*
X142410Y379910D01*
X142410Y375270D01*
X144186Y370983D01*
X147467Y367702D01*
X151754Y365926D01*
G37*
G36*
X608954Y365926D02*
X613594Y365926D01*
X617881Y367702D01*
X621162Y370983D01*
X622938Y375270D01*
X622938Y379910D01*
X621162Y384197D01*
X617881Y387478D01*
X613594Y389254D01*
X608954Y389254D01*
X604667Y387478D01*
X601386Y384197D01*
X599610Y379910D01*
X599610Y375270D01*
X601386Y370983D01*
X604667Y367702D01*
X608954Y365926D01*
G37*
G36*
X61866Y361016D02*
X74134Y361016D01*
X78428Y362795D01*
X81715Y366082D01*
X83494Y370376D01*
X83494Y375024D01*
X81715Y379318D01*
X78428Y382605D01*
X74134Y384384D01*
X61866Y384384D01*
X57572Y382605D01*
X54285Y379318D01*
X52506Y375024D01*
X52506Y370376D01*
X54285Y366082D01*
X57572Y362795D01*
X61866Y361016D01*
G37*
G36*
X54455Y350348D02*
X64952Y350348D01*
X64952Y357460D01*
X62169Y357460D01*
X58435Y355913D01*
X55577Y353055D01*
X54455Y350348D01*
G37*
G36*
X71048Y350348D02*
X81545Y350348D01*
X80423Y353055D01*
X77565Y355913D01*
X73831Y357460D01*
X71048Y357460D01*
X71048Y350348D01*
G37*
G36*
X62169Y337140D02*
X64952Y337140D01*
X64952Y344252D01*
X54455Y344252D01*
X55577Y341545D01*
X58435Y338687D01*
X62169Y337140D01*
G37*
G36*
X71048Y337140D02*
X73831Y337140D01*
X77565Y338687D01*
X80423Y341545D01*
X81545Y344252D01*
X71048Y344252D01*
X71048Y337140D01*
G37*
G36*
X61866Y310216D02*
X74134Y310216D01*
X78428Y311995D01*
X81715Y315282D01*
X83494Y319576D01*
X83494Y324224D01*
X81715Y328518D01*
X78428Y331805D01*
X74134Y333584D01*
X61866Y333584D01*
X57572Y331805D01*
X54285Y328518D01*
X52506Y324224D01*
X52506Y319576D01*
X54285Y315282D01*
X57572Y311995D01*
X61866Y310216D01*
G37*
G36*
X224048Y316448D02*
X234545Y316448D01*
X233423Y319155D01*
X230565Y322013D01*
X226831Y323560D01*
X224048Y323560D01*
X224048Y316448D01*
G37*
G36*
X277048Y316448D02*
X287545Y316448D01*
X286423Y319155D01*
X283565Y322013D01*
X279831Y323560D01*
X277048Y323560D01*
X277048Y316448D01*
G37*
G36*
X260455Y316448D02*
X270952Y316448D01*
X270952Y323560D01*
X268169Y323560D01*
X264435Y322013D01*
X261577Y319155D01*
X260455Y316448D01*
G37*
G36*
X207455Y316448D02*
X217952Y316448D01*
X217952Y323560D01*
X215169Y323560D01*
X211435Y322013D01*
X208577Y319155D01*
X207455Y316448D01*
G37*
G36*
X535455Y316448D02*
X545952Y316448D01*
X545952Y323560D01*
X543169Y323560D01*
X539435Y322013D01*
X536577Y319155D01*
X535455Y316448D01*
G37*
G36*
X478455Y316448D02*
X488952Y316448D01*
X488952Y323560D01*
X486169Y323560D01*
X482435Y322013D01*
X479577Y319155D01*
X478455Y316448D01*
G37*
G36*
X495048Y316448D02*
X505545Y316448D01*
X504423Y319155D01*
X501565Y322013D01*
X497831Y323560D01*
X495048Y323560D01*
X495048Y316448D01*
G37*
G36*
X552048Y316448D02*
X562545Y316448D01*
X561423Y319155D01*
X558565Y322013D01*
X554831Y323560D01*
X552048Y323560D01*
X552048Y316448D01*
G37*
G36*
X552048Y303240D02*
X554831Y303240D01*
X558565Y304787D01*
X561423Y307645D01*
X562545Y310352D01*
X552048Y310352D01*
X552048Y303240D01*
G37*
G36*
X495048Y303240D02*
X497831Y303240D01*
X501565Y304787D01*
X504423Y307645D01*
X505545Y310352D01*
X495048Y310352D01*
X495048Y303240D01*
G37*
G36*
X486169Y303240D02*
X488952Y303240D01*
X488952Y310352D01*
X478455Y310352D01*
X479577Y307645D01*
X482435Y304787D01*
X486169Y303240D01*
G37*
G36*
X277048Y303240D02*
X279831Y303240D01*
X283565Y304787D01*
X286423Y307645D01*
X287545Y310352D01*
X277048Y310352D01*
X277048Y303240D01*
G37*
G36*
X268169Y303240D02*
X270952Y303240D01*
X270952Y310352D01*
X260455Y310352D01*
X261577Y307645D01*
X264435Y304787D01*
X268169Y303240D01*
G37*
G36*
X224048Y303240D02*
X226831Y303240D01*
X230565Y304787D01*
X233423Y307645D01*
X234545Y310352D01*
X224048Y310352D01*
X224048Y303240D01*
G37*
G36*
X215169Y303240D02*
X217952Y303240D01*
X217952Y310352D01*
X207455Y310352D01*
X208577Y307645D01*
X211435Y304787D01*
X215169Y303240D01*
G37*
G36*
X543169Y303240D02*
X545952Y303240D01*
X545952Y310352D01*
X535455Y310352D01*
X536577Y307645D01*
X539435Y304787D01*
X543169Y303240D01*
G37*
G36*
X542866Y276316D02*
X555134Y276316D01*
X559428Y278095D01*
X562715Y281382D01*
X564494Y285676D01*
X564494Y290324D01*
X562715Y294618D01*
X559428Y297905D01*
X555134Y299684D01*
X542866Y299684D01*
X538572Y297905D01*
X535285Y294618D01*
X533506Y290324D01*
X533506Y285676D01*
X535285Y281382D01*
X538572Y278095D01*
X542866Y276316D01*
G37*
G36*
X485866Y276316D02*
X498134Y276316D01*
X502428Y278095D01*
X505715Y281382D01*
X507494Y285676D01*
X507494Y290324D01*
X505715Y294618D01*
X502428Y297905D01*
X498134Y299684D01*
X485866Y299684D01*
X481572Y297905D01*
X478285Y294618D01*
X476506Y290324D01*
X476506Y285676D01*
X478285Y281382D01*
X481572Y278095D01*
X485866Y276316D01*
G37*
G36*
X214866Y276316D02*
X227134Y276316D01*
X231428Y278095D01*
X234715Y281382D01*
X236494Y285676D01*
X236494Y290324D01*
X234715Y294618D01*
X231428Y297905D01*
X227134Y299684D01*
X214866Y299684D01*
X210572Y297905D01*
X207285Y294618D01*
X205506Y290324D01*
X205506Y285676D01*
X207285Y281382D01*
X210572Y278095D01*
X214866Y276316D01*
G37*
G36*
X267866Y276316D02*
X280134Y276316D01*
X284428Y278095D01*
X287715Y281382D01*
X289494Y285676D01*
X289494Y290324D01*
X287715Y294618D01*
X284428Y297905D01*
X280134Y299684D01*
X267866Y299684D01*
X263572Y297905D01*
X260285Y294618D01*
X258506Y290324D01*
X258506Y285676D01*
X260285Y281382D01*
X263572Y278095D01*
X267866Y276316D01*
G37*
G36*
X59401Y243536D02*
X64599Y243536D01*
X69400Y245525D01*
X73075Y249200D01*
X75064Y254001D01*
X75064Y259199D01*
X73075Y264000D01*
X69400Y267675D01*
X64599Y269664D01*
X59401Y269664D01*
X54600Y267675D01*
X50925Y264000D01*
X48936Y259199D01*
X48936Y254001D01*
X50925Y249200D01*
X54600Y245525D01*
X59401Y243536D01*
G37*
G36*
X570486Y211936D02*
X575086Y211936D01*
X579337Y213697D01*
X582590Y216950D01*
X584350Y221200D01*
X584350Y225800D01*
X582590Y230051D01*
X579337Y233303D01*
X575086Y235064D01*
X570486Y235064D01*
X566236Y233303D01*
X562983Y230051D01*
X561222Y225800D01*
X561222Y221200D01*
X562983Y216950D01*
X566236Y213697D01*
X570486Y211936D01*
G37*
G36*
X545086Y211936D02*
X549686Y211936D01*
X553937Y213697D01*
X557190Y216950D01*
X558950Y221200D01*
X558950Y225800D01*
X557190Y230051D01*
X553937Y233303D01*
X549686Y235064D01*
X545086Y235064D01*
X540836Y233303D01*
X537583Y230051D01*
X535822Y225800D01*
X535822Y221200D01*
X537583Y216950D01*
X540836Y213697D01*
X545086Y211936D01*
G37*
G36*
X240400Y211936D02*
X245000Y211936D01*
X249251Y213697D01*
X252503Y216950D01*
X254264Y221200D01*
X254264Y225800D01*
X252503Y230051D01*
X249251Y233303D01*
X245000Y235064D01*
X240400Y235064D01*
X236150Y233303D01*
X232897Y230051D01*
X231136Y225800D01*
X231136Y221200D01*
X232897Y216950D01*
X236150Y213697D01*
X240400Y211936D01*
G37*
G36*
X215000Y211936D02*
X219600Y211936D01*
X223851Y213697D01*
X227103Y216950D01*
X228864Y221200D01*
X228864Y225800D01*
X227103Y230051D01*
X223851Y233303D01*
X219600Y235064D01*
X215000Y235064D01*
X210750Y233303D01*
X207497Y230051D01*
X205736Y225800D01*
X205736Y221200D01*
X207497Y216950D01*
X210750Y213697D01*
X215000Y211936D01*
G37*
G36*
X189600Y211936D02*
X194200Y211936D01*
X198451Y213697D01*
X201703Y216950D01*
X203464Y221200D01*
X203464Y225800D01*
X201703Y230051D01*
X198451Y233303D01*
X194200Y235064D01*
X189600Y235064D01*
X185350Y233303D01*
X182097Y230051D01*
X180336Y225800D01*
X180336Y221200D01*
X182097Y216950D01*
X185350Y213697D01*
X189600Y211936D01*
G37*
G36*
X164200Y211936D02*
X168800Y211936D01*
X173051Y213697D01*
X176303Y216950D01*
X178064Y221200D01*
X178064Y225800D01*
X176303Y230051D01*
X173051Y233303D01*
X168800Y235064D01*
X164200Y235064D01*
X159950Y233303D01*
X156697Y230051D01*
X154936Y225800D01*
X154936Y221200D01*
X156697Y216950D01*
X159950Y213697D01*
X164200Y211936D01*
G37*
G36*
X138800Y211936D02*
X143400Y211936D01*
X147651Y213697D01*
X150903Y216950D01*
X152664Y221200D01*
X152664Y225800D01*
X150903Y230051D01*
X147651Y233303D01*
X143400Y235064D01*
X138800Y235064D01*
X134550Y233303D01*
X131297Y230051D01*
X129536Y225800D01*
X129536Y221200D01*
X131297Y216950D01*
X134550Y213697D01*
X138800Y211936D01*
G37*
G36*
X316600Y211936D02*
X321200Y211936D01*
X325451Y213697D01*
X328703Y216950D01*
X330464Y221200D01*
X330464Y225800D01*
X328703Y230051D01*
X325451Y233303D01*
X321200Y235064D01*
X316600Y235064D01*
X312350Y233303D01*
X309097Y230051D01*
X307336Y225800D01*
X307336Y221200D01*
X309097Y216950D01*
X312350Y213697D01*
X316600Y211936D01*
G37*
G36*
X443486Y211936D02*
X448086Y211936D01*
X452337Y213697D01*
X455590Y216950D01*
X457350Y221200D01*
X457350Y225800D01*
X455590Y230051D01*
X452337Y233303D01*
X448086Y235064D01*
X443486Y235064D01*
X439236Y233303D01*
X435983Y230051D01*
X434222Y225800D01*
X434222Y221200D01*
X435983Y216950D01*
X439236Y213697D01*
X443486Y211936D01*
G37*
G36*
X468886Y211936D02*
X473486Y211936D01*
X477737Y213697D01*
X480990Y216950D01*
X482750Y221200D01*
X482750Y225800D01*
X480990Y230051D01*
X477737Y233303D01*
X473486Y235064D01*
X468886Y235064D01*
X464636Y233303D01*
X461383Y230051D01*
X459622Y225800D01*
X459622Y221200D01*
X461383Y216950D01*
X464636Y213697D01*
X468886Y211936D01*
G37*
G36*
X291200Y211936D02*
X295800Y211936D01*
X300051Y213697D01*
X303303Y216950D01*
X305064Y221200D01*
X305064Y225800D01*
X303303Y230051D01*
X300051Y233303D01*
X295800Y235064D01*
X291200Y235064D01*
X286950Y233303D01*
X283697Y230051D01*
X281936Y225800D01*
X281936Y221200D01*
X283697Y216950D01*
X286950Y213697D01*
X291200Y211936D01*
G37*
G36*
X494286Y211936D02*
X498886Y211936D01*
X503137Y213697D01*
X506390Y216950D01*
X508150Y221200D01*
X508150Y225800D01*
X506390Y230051D01*
X503137Y233303D01*
X498886Y235064D01*
X494286Y235064D01*
X490036Y233303D01*
X486783Y230051D01*
X485022Y225800D01*
X485022Y221200D01*
X486783Y216950D01*
X490036Y213697D01*
X494286Y211936D01*
G37*
G36*
X265800Y211936D02*
X270400Y211936D01*
X274651Y213697D01*
X277903Y216950D01*
X279664Y221200D01*
X279664Y225800D01*
X277903Y230051D01*
X274651Y233303D01*
X270400Y235064D01*
X265800Y235064D01*
X261550Y233303D01*
X258297Y230051D01*
X256536Y225800D01*
X256536Y221200D01*
X258297Y216950D01*
X261550Y213697D01*
X265800Y211936D01*
G37*
G36*
X519686Y211936D02*
X524286Y211936D01*
X528537Y213697D01*
X531790Y216950D01*
X533550Y221200D01*
X533550Y225800D01*
X531790Y230051D01*
X528537Y233303D01*
X524286Y235064D01*
X519686Y235064D01*
X515436Y233303D01*
X512183Y230051D01*
X510422Y225800D01*
X510422Y221200D01*
X512183Y216950D01*
X515436Y213697D01*
X519686Y211936D01*
G37*
G36*
X50772Y208848D02*
X58952Y208848D01*
X58952Y217028D01*
X55463Y215583D01*
X52217Y212337D01*
X50772Y208848D01*
G37*
G36*
X65048Y208848D02*
X73228Y208848D01*
X71783Y212337D01*
X68537Y215583D01*
X65048Y217028D01*
X65048Y208848D01*
G37*
G36*
X595886Y186536D02*
X600486Y186536D01*
X604737Y188297D01*
X607990Y191550D01*
X609750Y195800D01*
X609750Y200400D01*
X607990Y204651D01*
X604737Y207903D01*
X600486Y209664D01*
X595886Y209664D01*
X591636Y207903D01*
X588383Y204651D01*
X586622Y200400D01*
X586622Y195800D01*
X588383Y191550D01*
X591636Y188297D01*
X595886Y186536D01*
G37*
G36*
X316600Y186536D02*
X321200Y186536D01*
X325451Y188297D01*
X328703Y191550D01*
X330464Y195800D01*
X330464Y200400D01*
X328703Y204651D01*
X325451Y207903D01*
X321200Y209664D01*
X316600Y209664D01*
X312350Y207903D01*
X309097Y204651D01*
X307336Y200400D01*
X307336Y195800D01*
X309097Y191550D01*
X312350Y188297D01*
X316600Y186536D01*
G37*
G36*
X65048Y202752D02*
X65048Y194572D01*
X68537Y196017D01*
X71783Y199263D01*
X73228Y202752D01*
X65048Y202752D01*
G37*
G36*
X55463Y196017D02*
X58952Y194572D01*
X58952Y202752D01*
X50772Y202752D01*
X52217Y199263D01*
X55463Y196017D01*
G37*
G36*
X595886Y161136D02*
X600486Y161136D01*
X604737Y162897D01*
X607990Y166150D01*
X609750Y170400D01*
X609750Y175000D01*
X607990Y179251D01*
X604737Y182503D01*
X600486Y184264D01*
X595886Y184264D01*
X591636Y182503D01*
X588383Y179251D01*
X586622Y175000D01*
X586622Y170400D01*
X588383Y166150D01*
X591636Y162897D01*
X595886Y161136D01*
G37*
G36*
X316600Y161136D02*
X321200Y161136D01*
X325451Y162897D01*
X328703Y166150D01*
X330464Y170400D01*
X330464Y175000D01*
X328703Y179251D01*
X325451Y182503D01*
X321200Y184264D01*
X316600Y184264D01*
X312350Y182503D01*
X309097Y179251D01*
X307336Y175000D01*
X307336Y170400D01*
X309097Y166150D01*
X312350Y162897D01*
X316600Y161136D01*
G37*
G36*
X59401Y141936D02*
X64599Y141936D01*
X69400Y143925D01*
X73075Y147600D01*
X75064Y152401D01*
X75064Y157599D01*
X73075Y162400D01*
X69400Y166075D01*
X64599Y168064D01*
X59401Y168064D01*
X54600Y166075D01*
X50925Y162400D01*
X48936Y157599D01*
X48936Y152401D01*
X50925Y147600D01*
X54600Y143925D01*
X59401Y141936D01*
G37*
G36*
X189600Y84936D02*
X194200Y84936D01*
X198451Y86697D01*
X201703Y89950D01*
X203464Y94200D01*
X203464Y98800D01*
X201703Y103051D01*
X198451Y106303D01*
X194200Y108064D01*
X189600Y108064D01*
X185350Y106303D01*
X182097Y103051D01*
X180336Y98800D01*
X180336Y94200D01*
X182097Y89950D01*
X185350Y86697D01*
X189600Y84936D01*
G37*
G36*
X545086Y84936D02*
X549686Y84936D01*
X553937Y86697D01*
X557190Y89950D01*
X558950Y94200D01*
X558950Y98800D01*
X557190Y103051D01*
X553937Y106303D01*
X549686Y108064D01*
X545086Y108064D01*
X540836Y106303D01*
X537583Y103051D01*
X535822Y98800D01*
X535822Y94200D01*
X537583Y89950D01*
X540836Y86697D01*
X545086Y84936D01*
G37*
G36*
X468886Y84936D02*
X473486Y84936D01*
X477737Y86697D01*
X480990Y89950D01*
X482750Y94200D01*
X482750Y98800D01*
X480990Y103051D01*
X477737Y106303D01*
X473486Y108064D01*
X468886Y108064D01*
X464636Y106303D01*
X461383Y103051D01*
X459622Y98800D01*
X459622Y94200D01*
X461383Y89950D01*
X464636Y86697D01*
X468886Y84936D01*
G37*
G36*
X519686Y84936D02*
X524286Y84936D01*
X528537Y86697D01*
X531790Y89950D01*
X533550Y94200D01*
X533550Y98800D01*
X531790Y103051D01*
X528537Y106303D01*
X524286Y108064D01*
X519686Y108064D01*
X515436Y106303D01*
X512183Y103051D01*
X510422Y98800D01*
X510422Y94200D01*
X512183Y89950D01*
X515436Y86697D01*
X519686Y84936D01*
G37*
G36*
X494286Y84936D02*
X498886Y84936D01*
X503137Y86697D01*
X506390Y89950D01*
X508150Y94200D01*
X508150Y98800D01*
X506390Y103051D01*
X503137Y106303D01*
X498886Y108064D01*
X494286Y108064D01*
X490036Y106303D01*
X486783Y103051D01*
X485022Y98800D01*
X485022Y94200D01*
X486783Y89950D01*
X490036Y86697D01*
X494286Y84936D01*
G37*
G36*
X595886Y84936D02*
X600486Y84936D01*
X604737Y86697D01*
X607990Y89950D01*
X609750Y94200D01*
X609750Y98800D01*
X607990Y103051D01*
X604737Y106303D01*
X600486Y108064D01*
X595886Y108064D01*
X591636Y106303D01*
X588383Y103051D01*
X586622Y98800D01*
X586622Y94200D01*
X588383Y89950D01*
X591636Y86697D01*
X595886Y84936D01*
G37*
G36*
X316600Y84936D02*
X321200Y84936D01*
X325451Y86697D01*
X328703Y89950D01*
X330464Y94200D01*
X330464Y98800D01*
X328703Y103051D01*
X325451Y106303D01*
X321200Y108064D01*
X316600Y108064D01*
X312350Y106303D01*
X309097Y103051D01*
X307336Y98800D01*
X307336Y94200D01*
X309097Y89950D01*
X312350Y86697D01*
X316600Y84936D01*
G37*
G36*
X265800Y84936D02*
X270400Y84936D01*
X274651Y86697D01*
X277903Y89950D01*
X279664Y94200D01*
X279664Y98800D01*
X277903Y103051D01*
X274651Y106303D01*
X270400Y108064D01*
X265800Y108064D01*
X261550Y106303D01*
X258297Y103051D01*
X256536Y98800D01*
X256536Y94200D01*
X258297Y89950D01*
X261550Y86697D01*
X265800Y84936D01*
G37*
G36*
X240400Y84936D02*
X245000Y84936D01*
X249251Y86697D01*
X252503Y89950D01*
X254264Y94200D01*
X254264Y98800D01*
X252503Y103051D01*
X249251Y106303D01*
X245000Y108064D01*
X240400Y108064D01*
X236150Y106303D01*
X232897Y103051D01*
X231136Y98800D01*
X231136Y94200D01*
X232897Y89950D01*
X236150Y86697D01*
X240400Y84936D01*
G37*
G36*
X215000Y84936D02*
X219600Y84936D01*
X223851Y86697D01*
X227103Y89950D01*
X228864Y94200D01*
X228864Y98800D01*
X227103Y103051D01*
X223851Y106303D01*
X219600Y108064D01*
X215000Y108064D01*
X210750Y106303D01*
X207497Y103051D01*
X205736Y98800D01*
X205736Y94200D01*
X207497Y89950D01*
X210750Y86697D01*
X215000Y84936D01*
G37*
G36*
X131060Y99548D02*
X138052Y99548D01*
X138052Y106540D01*
X132548Y106540D01*
X131060Y105052D01*
X131060Y99548D01*
G37*
G36*
X410346Y99548D02*
X417338Y99548D01*
X417338Y106540D01*
X411834Y106540D01*
X410346Y105052D01*
X410346Y99548D01*
G37*
G36*
X423434Y99548D02*
X430426Y99548D01*
X430426Y105052D01*
X428938Y106540D01*
X423434Y106540D01*
X423434Y99548D01*
G37*
G36*
X144148Y99548D02*
X151140Y99548D01*
X151140Y105052D01*
X149652Y106540D01*
X144148Y106540D01*
X144148Y99548D01*
G37*
G36*
X283895Y99548D02*
X290452Y99548D01*
X290452Y106105D01*
X287813Y105012D01*
X284989Y102187D01*
X283895Y99548D01*
G37*
G36*
X296548Y99548D02*
X303105Y99548D01*
X302012Y102187D01*
X299187Y105012D01*
X296548Y106105D01*
X296548Y99548D01*
G37*
G36*
X563182Y99548D02*
X569738Y99548D01*
X569738Y106105D01*
X567099Y105012D01*
X564275Y102187D01*
X563182Y99548D01*
G37*
G36*
X575834Y99548D02*
X582391Y99548D01*
X581298Y102187D01*
X578473Y105012D01*
X575834Y106105D01*
X575834Y99548D01*
G37*
G36*
X575834Y93452D02*
X575834Y86895D01*
X578473Y87989D01*
X581298Y90813D01*
X582391Y93452D01*
X575834Y93452D01*
G37*
G36*
X567099Y87989D02*
X569738Y86895D01*
X569738Y93452D01*
X563182Y93452D01*
X564275Y90813D01*
X567099Y87989D01*
G37*
G36*
X423434Y86460D02*
X428938Y86460D01*
X430426Y87948D01*
X430426Y93452D01*
X423434Y93452D01*
X423434Y86460D01*
G37*
G36*
X411834Y86460D02*
X417338Y86460D01*
X417338Y93452D01*
X410346Y93452D01*
X410346Y87948D01*
X411834Y86460D01*
G37*
G36*
X296548Y93452D02*
X296548Y86895D01*
X299187Y87989D01*
X302012Y90813D01*
X303105Y93452D01*
X296548Y93452D01*
G37*
G36*
X287813Y87989D02*
X290452Y86895D01*
X290452Y93452D01*
X283895Y93452D01*
X284989Y90813D01*
X287813Y87989D01*
G37*
G36*
X144148Y86460D02*
X149652Y86460D01*
X151140Y87948D01*
X151140Y93452D01*
X144148Y93452D01*
X144148Y86460D01*
G37*
G36*
X132548Y86460D02*
X138052Y86460D01*
X138052Y93452D01*
X131060Y93452D01*
X131060Y87948D01*
X132548Y86460D01*
G37*
G36*
X676208Y30936D02*
X683792Y30936D01*
X690799Y33838D01*
X696162Y39201D01*
X699064Y46208D01*
X699064Y53792D01*
X696162Y60799D01*
X690799Y66162D01*
X683792Y69064D01*
X676208Y69064D01*
X669201Y66162D01*
X663838Y60799D01*
X660936Y53792D01*
X660936Y46208D01*
X663838Y39201D01*
X669201Y33838D01*
X676208Y30936D01*
G37*
G36*
X46208Y30936D02*
X53792Y30936D01*
X60799Y33838D01*
X66162Y39201D01*
X69064Y46208D01*
X69064Y53792D01*
X66162Y60799D01*
X60799Y66162D01*
X53792Y69064D01*
X46208Y69064D01*
X39201Y66162D01*
X33838Y60799D01*
X30936Y53792D01*
X30936Y46208D01*
X33838Y39201D01*
X39201Y33838D01*
X46208Y30936D01*
G37*
G36*
X189479Y33824D02*
X194127Y33824D01*
X198422Y35603D01*
X201709Y38890D01*
X203487Y43184D01*
X203487Y55452D01*
X201709Y59747D01*
X198422Y63033D01*
X194127Y64812D01*
X189479Y64812D01*
X185185Y63033D01*
X181898Y59747D01*
X180119Y55452D01*
X180119Y43184D01*
X181898Y38890D01*
X185185Y35603D01*
X189479Y33824D01*
G37*
G36*
X493976Y33824D02*
X498624Y33824D01*
X502918Y35603D01*
X506205Y38890D01*
X507984Y43184D01*
X507984Y55452D01*
X506205Y59747D01*
X502918Y63033D01*
X498624Y64812D01*
X493976Y64812D01*
X489682Y63033D01*
X486395Y59747D01*
X484616Y55452D01*
X484616Y43184D01*
X486395Y38890D01*
X489682Y35603D01*
X493976Y33824D01*
G37*
G36*
X544776Y33824D02*
X549424Y33824D01*
X553718Y35603D01*
X557005Y38890D01*
X558784Y43184D01*
X558784Y55452D01*
X557005Y59747D01*
X553718Y63033D01*
X549424Y64812D01*
X544776Y64812D01*
X540482Y63033D01*
X537195Y59747D01*
X535416Y55452D01*
X535416Y43184D01*
X537195Y38890D01*
X540482Y35603D01*
X544776Y33824D01*
G37*
G36*
X519376Y33824D02*
X524024Y33824D01*
X528318Y35603D01*
X531605Y38890D01*
X533384Y43184D01*
X533384Y55452D01*
X531605Y59747D01*
X528318Y63033D01*
X524024Y64812D01*
X519376Y64812D01*
X515082Y63033D01*
X511795Y59747D01*
X510016Y55452D01*
X510016Y43184D01*
X511795Y38890D01*
X515082Y35603D01*
X519376Y33824D01*
G37*
G36*
X468576Y33824D02*
X473224Y33824D01*
X477518Y35603D01*
X480805Y38890D01*
X482584Y43184D01*
X482584Y55452D01*
X480805Y59747D01*
X477518Y63033D01*
X473224Y64812D01*
X468576Y64812D01*
X464282Y63033D01*
X460995Y59747D01*
X459216Y55452D01*
X459216Y43184D01*
X460995Y38890D01*
X464282Y35603D01*
X468576Y33824D01*
G37*
G36*
X240279Y33824D02*
X244927Y33824D01*
X249222Y35603D01*
X252509Y38890D01*
X254287Y43184D01*
X254287Y55452D01*
X252509Y59747D01*
X249222Y63033D01*
X244927Y64812D01*
X240279Y64812D01*
X235985Y63033D01*
X232698Y59747D01*
X230919Y55452D01*
X230919Y43184D01*
X232698Y38890D01*
X235985Y35603D01*
X240279Y33824D01*
G37*
G36*
X214879Y33824D02*
X219527Y33824D01*
X223822Y35603D01*
X227109Y38890D01*
X228887Y43184D01*
X228887Y55452D01*
X227109Y59747D01*
X223822Y63033D01*
X219527Y64812D01*
X214879Y64812D01*
X210585Y63033D01*
X207298Y59747D01*
X205519Y55452D01*
X205519Y43184D01*
X207298Y38890D01*
X210585Y35603D01*
X214879Y33824D01*
G37*
G36*
X265679Y33824D02*
X270327Y33824D01*
X274622Y35603D01*
X277909Y38890D01*
X279687Y43184D01*
X279687Y55452D01*
X277909Y59747D01*
X274622Y63033D01*
X270327Y64812D01*
X265679Y64812D01*
X261385Y63033D01*
X258098Y59747D01*
X256319Y55452D01*
X256319Y43184D01*
X258098Y38890D01*
X261385Y35603D01*
X265679Y33824D01*
G37*
%LPD*%
D10*
X141100Y223500D03*
X166500Y223500D03*
X191900Y223500D03*
X217300Y223500D03*
X242700Y223500D03*
X268100Y223500D03*
X293500Y223500D03*
X318900Y223500D03*
D11*
X141100Y96500D03*
D10*
X166500Y96500D03*
X191900Y96500D03*
X217300Y96500D03*
X242700Y96500D03*
X268100Y96500D03*
X293500Y96500D03*
X318900Y96500D03*
X318900Y198100D03*
X318900Y172700D03*
D12*
X268003Y53128D02*
X268003Y45508D01*
X242603Y45508D02*
X242603Y53128D01*
X217203Y53128D02*
X217203Y45508D01*
X191803Y45508D02*
X191803Y53128D01*
X270190Y262600D02*
X277810Y262600D01*
X277810Y288000D02*
X270190Y288000D01*
X270190Y313400D02*
X277810Y313400D01*
X224810Y262600D02*
X217190Y262600D01*
X217190Y288000D02*
X224810Y288000D01*
X224810Y313400D02*
X217190Y313400D01*
D10*
X420386Y223500D03*
X445786Y223500D03*
X471186Y223500D03*
X496586Y223500D03*
X521986Y223500D03*
X547386Y223500D03*
X572786Y223500D03*
X598186Y223500D03*
D11*
X420386Y96500D03*
D10*
X445786Y96500D03*
X471186Y96500D03*
X496586Y96500D03*
X521986Y96500D03*
X547386Y96500D03*
X572786Y96500D03*
X598186Y96500D03*
X598186Y198100D03*
X598186Y172700D03*
D12*
X547100Y53128D02*
X547100Y45508D01*
X521700Y45508D02*
X521700Y53128D01*
X496300Y53128D02*
X496300Y45508D01*
X470900Y45508D02*
X470900Y53128D01*
X545190Y262600D02*
X552810Y262600D01*
X552810Y288000D02*
X545190Y288000D01*
X545190Y313400D02*
X552810Y313400D01*
X495810Y262600D02*
X488190Y262600D01*
X488190Y288000D02*
X495810Y288000D01*
X495810Y313400D02*
X488190Y313400D01*
D13*
X154074Y606190D03*
D14*
X154074Y580790D03*
X154074Y555390D03*
X154074Y529990D03*
X154074Y504590D03*
X154074Y479190D03*
X154074Y453790D03*
X154074Y428390D03*
X154074Y402990D03*
X154074Y377590D03*
X611274Y606190D03*
X179474Y606190D03*
X585874Y606190D03*
X611274Y580790D03*
X179474Y580790D03*
X585874Y580790D03*
X611274Y555390D03*
X179474Y555390D03*
X585874Y555390D03*
X611274Y529990D03*
X179474Y529990D03*
X585874Y529990D03*
X611274Y504590D03*
X179474Y504590D03*
X585874Y504590D03*
X611274Y479190D03*
X179474Y479190D03*
X585874Y479190D03*
X611274Y453790D03*
X179474Y453790D03*
X585874Y453790D03*
X611274Y428390D03*
X179474Y428390D03*
X585874Y428390D03*
X611274Y402990D03*
X179474Y402990D03*
X585874Y402990D03*
X611274Y377590D03*
X179474Y377590D03*
X585874Y377590D03*
D15*
X62000Y155000D03*
X62000Y205800D03*
X62000Y256600D03*
D12*
X78700Y582190D02*
X78700Y589810D01*
X53300Y589810D02*
X53300Y582190D01*
X64190Y484600D02*
X71810Y484600D01*
X71810Y510000D02*
X64190Y510000D01*
X64190Y535400D02*
X71810Y535400D01*
X71810Y321900D02*
X64190Y321900D01*
X64190Y347300D02*
X71810Y347300D01*
X71810Y372700D02*
X64190Y372700D01*
X64190Y398100D02*
X71810Y398100D01*
D16*
X-100700Y32000D03*
X-75300Y32000D03*
X-178700Y32000D03*
X-153300Y32000D03*
D17*
X-111200Y99000D03*
X-38800Y99000D03*
X-198200Y99000D03*
X-125800Y99000D03*
D18*
X-160700Y246000D03*
X-148000Y246000D03*
X-135300Y246000D03*
X-160700Y172000D03*
X-148000Y172000D03*
X-135300Y172000D03*
D19*
X492000Y262600D02*
X492084Y262684D01*
X548916Y262684D02*
X549000Y262600D01*
X548916Y262684D02*
X492084Y262684D01*
X340000Y262600D02*
X274000Y262600D01*
X340000Y262600D02*
X492000Y262600D01*
X166500Y109500D02*
X166500Y96500D01*
X107036Y168964D02*
X107036Y281658D01*
X126094Y262600D02*
X221000Y262600D01*
X154074Y606190D02*
X141343Y606190D01*
X107036Y281658D02*
X126094Y262600D01*
X107036Y168964D02*
X166500Y109500D01*
X340000Y262600D02*
X393000Y209600D01*
X393000Y165000D01*
X445786Y112214D02*
X445786Y96500D01*
X445786Y112214D02*
X393000Y165000D01*
X274000Y262600D02*
X221000Y262600D01*
X107036Y281658D02*
X107036Y571883D01*
X141343Y606190D01*
X125715Y633015D02*
X168649Y633015D01*
X125715Y633015D02*
X78700Y586000D01*
X179474Y606190D02*
X179474Y622190D01*
X168649Y633015D01*
X420902Y221425D02*
X420902Y200399D01*
X478316Y142984D01*
X616093Y142984D01*
X635249Y162140D01*
X635249Y466005D01*
X622064Y479190D01*
X611274Y479190D01*
X420386Y223500D02*
X420902Y221425D01*
X598119Y223567D02*
X598119Y313813D01*
X598119Y223567D02*
X598186Y223500D01*
X598119Y313813D02*
X573756Y338176D01*
X147269Y338176D01*
X125792Y359654D01*
X125792Y552508D02*
X154074Y580790D01*
X125792Y552508D02*
X125792Y359654D01*
M02*
