G04 EAGLE Gerber RS-274X export*
G75*
%MOMM*%
%FSLAX34Y34*%
%LPD*%
%INSilkscreen Top*%
%IPPOS*%
%AMOC8*
5,1,8,0,0,1.08239X$1,22.5*%
G01*
G04 Define Apertures*
%ADD10C,0.127000*%
%ADD11C,0.200000*%
%ADD12C,0.152400*%
%ADD13C,0.100000*%
G36*
X124800Y117846D02*
X112459Y117846D01*
X112459Y121928D01*
X112465Y122314D01*
X112484Y122689D01*
X112515Y123053D01*
X112558Y123406D01*
X112613Y123748D01*
X112680Y124078D01*
X112760Y124397D01*
X112852Y124705D01*
X112957Y125002D01*
X113073Y125288D01*
X113202Y125562D01*
X113344Y125826D01*
X113497Y126078D01*
X113663Y126319D01*
X113841Y126548D01*
X114031Y126767D01*
X114233Y126973D01*
X114445Y127166D01*
X114668Y127346D01*
X114900Y127512D01*
X115144Y127665D01*
X115397Y127805D01*
X115661Y127932D01*
X115935Y128045D01*
X116220Y128144D01*
X116515Y128231D01*
X116820Y128304D01*
X117136Y128364D01*
X117462Y128411D01*
X117799Y128444D01*
X118145Y128464D01*
X118503Y128471D01*
X118973Y128459D01*
X119427Y128424D01*
X119868Y128366D01*
X120293Y128284D01*
X120703Y128180D01*
X121098Y128052D01*
X121479Y127901D01*
X121844Y127726D01*
X122192Y127530D01*
X122518Y127315D01*
X122824Y127080D01*
X123109Y126826D01*
X123372Y126553D01*
X123615Y126260D01*
X123837Y125947D01*
X124038Y125615D01*
X124217Y125267D01*
X124371Y124906D01*
X124502Y124531D01*
X124610Y124144D01*
X124693Y123743D01*
X124752Y123329D01*
X124788Y122902D01*
X124800Y122462D01*
X124800Y117846D01*
G37*
%LPC*%
G36*
X123460Y119519D02*
X123460Y122270D01*
X123451Y122604D01*
X123423Y122928D01*
X123376Y123241D01*
X123311Y123545D01*
X123227Y123838D01*
X123125Y124121D01*
X123004Y124394D01*
X122864Y124656D01*
X122707Y124906D01*
X122534Y125141D01*
X122344Y125361D01*
X122137Y125566D01*
X121915Y125756D01*
X121675Y125931D01*
X121420Y126092D01*
X121148Y126237D01*
X120861Y126366D01*
X120562Y126479D01*
X120250Y126573D01*
X119926Y126651D01*
X119589Y126711D01*
X119239Y126754D01*
X118877Y126780D01*
X118503Y126789D01*
X117946Y126769D01*
X117423Y126710D01*
X116935Y126612D01*
X116481Y126475D01*
X116060Y126298D01*
X115674Y126082D01*
X115322Y125827D01*
X115004Y125532D01*
X114721Y125200D01*
X114477Y124833D01*
X114270Y124431D01*
X114100Y123994D01*
X113969Y123521D01*
X113875Y123014D01*
X113818Y122471D01*
X113799Y121893D01*
X113799Y119519D01*
X123460Y119519D01*
G37*
%LPD*%
G36*
X124800Y130815D02*
X112459Y130815D01*
X112459Y136622D01*
X112474Y137128D01*
X112518Y137605D01*
X112590Y138052D01*
X112692Y138469D01*
X112824Y138857D01*
X112984Y139214D01*
X113173Y139542D01*
X113392Y139841D01*
X113637Y140107D01*
X113904Y140337D01*
X114194Y140532D01*
X114508Y140692D01*
X114844Y140816D01*
X115203Y140904D01*
X115584Y140957D01*
X115989Y140975D01*
X116326Y140963D01*
X116649Y140925D01*
X116959Y140862D01*
X117255Y140775D01*
X117537Y140662D01*
X117805Y140524D01*
X118060Y140362D01*
X118301Y140174D01*
X118525Y139964D01*
X118727Y139735D01*
X118907Y139487D01*
X118973Y139376D01*
X119065Y139220D01*
X119202Y138934D01*
X119318Y138629D01*
X119411Y138305D01*
X119484Y137962D01*
X121747Y139454D01*
X124800Y141466D01*
X124800Y139539D01*
X119676Y136333D01*
X119676Y132488D01*
X124800Y132488D01*
X124800Y130815D01*
G37*
%LPC*%
G36*
X118354Y132488D02*
X118354Y136526D01*
X118344Y136847D01*
X118315Y137150D01*
X118267Y137433D01*
X118199Y137698D01*
X118113Y137945D01*
X118006Y138172D01*
X117881Y138381D01*
X117736Y138571D01*
X117574Y138740D01*
X117397Y138887D01*
X117204Y139011D01*
X116995Y139113D01*
X116771Y139192D01*
X116532Y139248D01*
X116277Y139282D01*
X116006Y139293D01*
X115745Y139282D01*
X115500Y139248D01*
X115271Y139191D01*
X115057Y139111D01*
X114860Y139008D01*
X114679Y138882D01*
X114513Y138734D01*
X114364Y138562D01*
X114232Y138369D01*
X114117Y138156D01*
X114020Y137923D01*
X113941Y137670D01*
X113879Y137396D01*
X113835Y137103D01*
X113808Y136789D01*
X113799Y136456D01*
X113799Y132488D01*
X118354Y132488D01*
G37*
%LPD*%
G36*
X124800Y172690D02*
X112459Y172690D01*
X112459Y178497D01*
X112474Y179003D01*
X112518Y179480D01*
X112590Y179927D01*
X112692Y180344D01*
X112824Y180732D01*
X112984Y181089D01*
X113173Y181417D01*
X113392Y181716D01*
X113637Y181982D01*
X113904Y182212D01*
X114194Y182407D01*
X114508Y182567D01*
X114844Y182691D01*
X115203Y182779D01*
X115584Y182832D01*
X115989Y182850D01*
X116326Y182838D01*
X116649Y182800D01*
X116959Y182737D01*
X117255Y182650D01*
X117537Y182537D01*
X117805Y182399D01*
X118060Y182237D01*
X118301Y182049D01*
X118525Y181839D01*
X118727Y181610D01*
X118907Y181362D01*
X118973Y181251D01*
X119065Y181095D01*
X119202Y180809D01*
X119318Y180504D01*
X119411Y180180D01*
X119484Y179837D01*
X121747Y181329D01*
X124800Y183341D01*
X124800Y181414D01*
X119676Y178208D01*
X119676Y174363D01*
X124800Y174363D01*
X124800Y172690D01*
G37*
%LPC*%
G36*
X118354Y174363D02*
X118354Y178401D01*
X118344Y178722D01*
X118315Y179025D01*
X118267Y179308D01*
X118199Y179573D01*
X118113Y179820D01*
X118006Y180047D01*
X117881Y180256D01*
X117736Y180446D01*
X117574Y180615D01*
X117397Y180762D01*
X117204Y180886D01*
X116995Y180988D01*
X116771Y181067D01*
X116532Y181123D01*
X116277Y181157D01*
X116006Y181168D01*
X115745Y181157D01*
X115500Y181123D01*
X115271Y181066D01*
X115057Y180986D01*
X114860Y180883D01*
X114679Y180757D01*
X114513Y180609D01*
X114364Y180437D01*
X114232Y180244D01*
X114117Y180031D01*
X114020Y179798D01*
X113941Y179545D01*
X113879Y179271D01*
X113835Y178978D01*
X113808Y178664D01*
X113799Y178331D01*
X113799Y174363D01*
X118354Y174363D01*
G37*
%LPD*%
G36*
X124800Y77535D02*
X112459Y82571D01*
X112459Y84472D01*
X124800Y89429D01*
X124800Y87721D01*
X121192Y86311D01*
X121192Y80688D01*
X124800Y79269D01*
X124800Y77535D01*
G37*
%LPC*%
G36*
X119886Y81196D02*
X119886Y85812D01*
X115814Y84227D01*
X115170Y83981D01*
X114447Y83736D01*
X113720Y83500D01*
X113966Y83421D01*
X114796Y83149D01*
X115831Y82773D01*
X119886Y81196D01*
G37*
%LPD*%
G36*
X118573Y103340D02*
X118202Y103346D01*
X117843Y103365D01*
X117494Y103396D01*
X117155Y103440D01*
X116828Y103497D01*
X116510Y103566D01*
X116204Y103648D01*
X115908Y103743D01*
X115623Y103850D01*
X115348Y103969D01*
X115084Y104101D01*
X114830Y104246D01*
X114587Y104404D01*
X114355Y104573D01*
X113922Y104951D01*
X113536Y105374D01*
X113362Y105601D01*
X113202Y105839D01*
X113054Y106086D01*
X112919Y106343D01*
X112796Y106611D01*
X112687Y106889D01*
X112590Y107177D01*
X112507Y107475D01*
X112436Y107784D01*
X112378Y108103D01*
X112333Y108432D01*
X112301Y108771D01*
X112282Y109120D01*
X112275Y109479D01*
X112286Y109980D01*
X112319Y110456D01*
X112373Y110908D01*
X112448Y111336D01*
X112546Y111740D01*
X112665Y112120D01*
X112805Y112476D01*
X112967Y112808D01*
X113153Y113118D01*
X113365Y113410D01*
X113603Y113684D01*
X113867Y113940D01*
X114157Y114177D01*
X114473Y114396D01*
X114815Y114596D01*
X115183Y114778D01*
X115656Y113184D01*
X115402Y113047D01*
X115166Y112897D01*
X114948Y112734D01*
X114747Y112559D01*
X114565Y112372D01*
X114400Y112172D01*
X114253Y111959D01*
X114123Y111735D01*
X114010Y111497D01*
X113913Y111244D01*
X113830Y110978D01*
X113762Y110698D01*
X113709Y110403D01*
X113672Y110095D01*
X113649Y109772D01*
X113642Y109436D01*
X113662Y108917D01*
X113722Y108430D01*
X113823Y107974D01*
X113965Y107550D01*
X114146Y107158D01*
X114368Y106797D01*
X114631Y106467D01*
X114934Y106169D01*
X115273Y105904D01*
X115645Y105674D01*
X116051Y105480D01*
X116489Y105321D01*
X116961Y105198D01*
X117465Y105109D01*
X118002Y105056D01*
X118573Y105039D01*
X119142Y105058D01*
X119680Y105114D01*
X120188Y105208D01*
X120665Y105339D01*
X121111Y105508D01*
X121526Y105714D01*
X121911Y105957D01*
X122264Y106239D01*
X122582Y106553D01*
X122856Y106896D01*
X123089Y107268D01*
X123279Y107669D01*
X123427Y108098D01*
X123533Y108556D01*
X123596Y109043D01*
X123618Y109558D01*
X123595Y110152D01*
X123526Y110726D01*
X123411Y111280D01*
X123250Y111814D01*
X123049Y112312D01*
X122816Y112761D01*
X122550Y113159D01*
X122251Y113508D01*
X120027Y113508D01*
X120027Y109821D01*
X118625Y109821D01*
X118625Y115050D01*
X122882Y115050D01*
X123124Y114798D01*
X123353Y114532D01*
X123567Y114252D01*
X123768Y113958D01*
X123954Y113651D01*
X124126Y113330D01*
X124284Y112994D01*
X124428Y112646D01*
X124556Y112286D01*
X124667Y111919D01*
X124761Y111544D01*
X124838Y111162D01*
X124898Y110772D01*
X124941Y110375D01*
X124967Y109970D01*
X124975Y109558D01*
X124963Y109083D01*
X124927Y108624D01*
X124867Y108182D01*
X124783Y107756D01*
X124674Y107347D01*
X124542Y106955D01*
X124385Y106580D01*
X124204Y106221D01*
X124001Y105881D01*
X123777Y105562D01*
X123531Y105263D01*
X123264Y104985D01*
X122976Y104728D01*
X122667Y104491D01*
X122336Y104275D01*
X121984Y104080D01*
X121614Y103906D01*
X121227Y103756D01*
X120825Y103629D01*
X120407Y103525D01*
X119972Y103444D01*
X119522Y103386D01*
X119055Y103351D01*
X118573Y103340D01*
G37*
G36*
X124800Y160721D02*
X112459Y160721D01*
X112459Y170084D01*
X113826Y170084D01*
X113826Y162394D01*
X117784Y162394D01*
X117784Y169559D01*
X119133Y169559D01*
X119133Y162394D01*
X123434Y162394D01*
X123434Y170443D01*
X124800Y170443D01*
X124800Y160721D01*
G37*
G36*
X120316Y90853D02*
X112459Y90853D01*
X112459Y92525D01*
X120176Y92525D01*
X120585Y92539D01*
X120970Y92579D01*
X121329Y92646D01*
X121662Y92740D01*
X121970Y92861D01*
X122253Y93008D01*
X122510Y93183D01*
X122742Y93384D01*
X122947Y93610D01*
X123125Y93861D01*
X123275Y94135D01*
X123399Y94433D01*
X123494Y94754D01*
X123563Y95100D01*
X123604Y95469D01*
X123618Y95862D01*
X123603Y96267D01*
X123561Y96648D01*
X123490Y97007D01*
X123391Y97342D01*
X123264Y97654D01*
X123108Y97942D01*
X122924Y98208D01*
X122711Y98451D01*
X122471Y98667D01*
X122206Y98855D01*
X121914Y99014D01*
X121595Y99144D01*
X121251Y99245D01*
X120881Y99317D01*
X120484Y99360D01*
X120062Y99375D01*
X112459Y99375D01*
X112459Y101039D01*
X120158Y101039D01*
X120526Y101029D01*
X120881Y100999D01*
X121223Y100949D01*
X121553Y100880D01*
X121869Y100791D01*
X122173Y100682D01*
X122464Y100553D01*
X122742Y100404D01*
X123005Y100237D01*
X123253Y100053D01*
X123484Y99854D01*
X123700Y99637D01*
X123899Y99405D01*
X124083Y99156D01*
X124250Y98890D01*
X124402Y98608D01*
X124536Y98312D01*
X124653Y98002D01*
X124751Y97679D01*
X124832Y97344D01*
X124894Y96995D01*
X124939Y96634D01*
X124966Y96259D01*
X124975Y95871D01*
X124967Y95498D01*
X124941Y95138D01*
X124898Y94789D01*
X124837Y94452D01*
X124760Y94128D01*
X124665Y93815D01*
X124553Y93515D01*
X124423Y93226D01*
X124278Y92952D01*
X124116Y92693D01*
X123939Y92450D01*
X123747Y92223D01*
X123539Y92012D01*
X123315Y91817D01*
X123076Y91638D01*
X122821Y91474D01*
X122552Y91329D01*
X122270Y91202D01*
X121976Y91096D01*
X121669Y91008D01*
X121349Y90940D01*
X121017Y90891D01*
X120673Y90862D01*
X120316Y90853D01*
G37*
G36*
X112459Y147360D02*
X112459Y149121D01*
X121148Y152536D01*
X123329Y153272D01*
X121148Y154008D01*
X112459Y157406D01*
X112459Y159167D01*
X124800Y154130D01*
X124800Y152396D01*
X112459Y147360D01*
G37*
G36*
X124800Y143968D02*
X112459Y143968D01*
X112459Y145641D01*
X124800Y145641D01*
X124800Y143968D01*
G37*
G36*
X236928Y18155D02*
X236461Y18167D01*
X236011Y18203D01*
X235576Y18263D01*
X235158Y18348D01*
X234756Y18456D01*
X234371Y18588D01*
X234001Y18745D01*
X233648Y18926D01*
X233314Y19129D01*
X232999Y19354D01*
X232705Y19600D01*
X232432Y19868D01*
X232179Y20158D01*
X231946Y20468D01*
X231734Y20801D01*
X231542Y21155D01*
X231371Y21527D01*
X231224Y21914D01*
X231099Y22317D01*
X230997Y22734D01*
X230917Y23167D01*
X230860Y23616D01*
X230826Y24079D01*
X230815Y24557D01*
X230821Y24922D01*
X230840Y25277D01*
X230872Y25622D01*
X230916Y25957D01*
X230973Y26281D01*
X231043Y26596D01*
X231125Y26900D01*
X231220Y27195D01*
X231328Y27479D01*
X231448Y27753D01*
X231581Y28017D01*
X231726Y28271D01*
X232055Y28749D01*
X232435Y29186D01*
X232860Y29577D01*
X233087Y29753D01*
X233325Y29916D01*
X233572Y30066D01*
X233829Y30203D01*
X234096Y30327D01*
X234373Y30438D01*
X234660Y30535D01*
X234957Y30620D01*
X235263Y30692D01*
X235580Y30750D01*
X235907Y30796D01*
X236243Y30829D01*
X236590Y30848D01*
X236946Y30855D01*
X237409Y30843D01*
X237856Y30808D01*
X238288Y30749D01*
X238704Y30668D01*
X239105Y30562D01*
X239490Y30434D01*
X239859Y30281D01*
X240213Y30106D01*
X240549Y29908D01*
X240864Y29689D01*
X241159Y29449D01*
X241434Y29187D01*
X241688Y28905D01*
X241922Y28601D01*
X242135Y28276D01*
X242328Y27929D01*
X242499Y27564D01*
X242648Y27183D01*
X242774Y26786D01*
X242877Y26373D01*
X242956Y25943D01*
X243014Y25497D01*
X243048Y25035D01*
X243059Y24557D01*
X243048Y24081D01*
X243013Y23620D01*
X242955Y23173D01*
X242874Y22742D01*
X242770Y22326D01*
X242643Y21925D01*
X242493Y21539D01*
X242319Y21168D01*
X242124Y20815D01*
X241909Y20483D01*
X241674Y20172D01*
X241418Y19882D01*
X241143Y19614D01*
X240847Y19366D01*
X240531Y19140D01*
X240195Y18934D01*
X239842Y18752D01*
X239472Y18593D01*
X239087Y18459D01*
X238687Y18350D01*
X238270Y18265D01*
X237839Y18204D01*
X237391Y18167D01*
X236928Y18155D01*
G37*
%LPC*%
G36*
X236928Y19512D02*
X237447Y19533D01*
X237935Y19595D01*
X238391Y19698D01*
X238817Y19842D01*
X239211Y20027D01*
X239575Y20254D01*
X239907Y20522D01*
X240208Y20831D01*
X240476Y21177D01*
X240708Y21558D01*
X240905Y21973D01*
X241066Y22421D01*
X241191Y22904D01*
X241280Y23421D01*
X241334Y23972D01*
X241351Y24557D01*
X241333Y25118D01*
X241279Y25647D01*
X241189Y26146D01*
X241063Y26613D01*
X240902Y27050D01*
X240704Y27456D01*
X240470Y27831D01*
X240200Y28175D01*
X239897Y28483D01*
X239564Y28749D01*
X239202Y28975D01*
X238810Y29160D01*
X238389Y29304D01*
X237938Y29406D01*
X237457Y29468D01*
X236946Y29488D01*
X236431Y29468D01*
X235946Y29407D01*
X235492Y29306D01*
X235067Y29164D01*
X234673Y28982D01*
X234308Y28759D01*
X233974Y28496D01*
X233670Y28192D01*
X233399Y27852D01*
X233164Y27479D01*
X232966Y27073D01*
X232803Y26635D01*
X232677Y26165D01*
X232586Y25661D01*
X232532Y25126D01*
X232514Y24557D01*
X232532Y23992D01*
X232587Y23457D01*
X232678Y22951D01*
X232806Y22476D01*
X232971Y22031D01*
X233172Y21615D01*
X233409Y21230D01*
X233683Y20874D01*
X233990Y20555D01*
X234325Y20279D01*
X234688Y20044D01*
X235079Y19853D01*
X235499Y19704D01*
X235947Y19598D01*
X236424Y19534D01*
X236928Y19512D01*
G37*
%LPD*%
G36*
X261522Y18155D02*
X261055Y18167D01*
X260604Y18203D01*
X260170Y18263D01*
X259752Y18348D01*
X259350Y18456D01*
X258964Y18588D01*
X258595Y18745D01*
X258242Y18926D01*
X257907Y19129D01*
X257593Y19354D01*
X257299Y19600D01*
X257026Y19868D01*
X256773Y20158D01*
X256540Y20468D01*
X256328Y20801D01*
X256136Y21155D01*
X255965Y21527D01*
X255818Y21914D01*
X255693Y22317D01*
X255590Y22734D01*
X255511Y23167D01*
X255454Y23616D01*
X255420Y24079D01*
X255409Y24557D01*
X255415Y24922D01*
X255434Y25277D01*
X255466Y25622D01*
X255510Y25957D01*
X255567Y26281D01*
X255637Y26596D01*
X255719Y26900D01*
X255814Y27195D01*
X255921Y27479D01*
X256042Y27753D01*
X256175Y28017D01*
X256320Y28271D01*
X256649Y28749D01*
X257029Y29186D01*
X257454Y29577D01*
X257681Y29753D01*
X257919Y29916D01*
X258166Y30066D01*
X258423Y30203D01*
X258690Y30327D01*
X258967Y30438D01*
X259254Y30535D01*
X259550Y30620D01*
X259857Y30692D01*
X260174Y30750D01*
X260500Y30796D01*
X260837Y30829D01*
X261183Y30848D01*
X261540Y30855D01*
X262003Y30843D01*
X262450Y30808D01*
X262882Y30749D01*
X263298Y30668D01*
X263698Y30562D01*
X264083Y30434D01*
X264453Y30281D01*
X264807Y30106D01*
X265142Y29908D01*
X265458Y29689D01*
X265753Y29449D01*
X266027Y29187D01*
X266281Y28905D01*
X266515Y28601D01*
X266729Y28276D01*
X266922Y27929D01*
X267093Y27564D01*
X267242Y27183D01*
X267367Y26786D01*
X267470Y26373D01*
X267550Y25943D01*
X267607Y25497D01*
X267642Y25035D01*
X267653Y24557D01*
X267642Y24081D01*
X267607Y23620D01*
X267549Y23173D01*
X267468Y22742D01*
X267364Y22326D01*
X267237Y21925D01*
X267086Y21539D01*
X266913Y21168D01*
X266718Y20815D01*
X266503Y20483D01*
X266267Y20172D01*
X266012Y19882D01*
X265736Y19614D01*
X265441Y19366D01*
X265125Y19140D01*
X264789Y18934D01*
X264435Y18752D01*
X264066Y18593D01*
X263681Y18459D01*
X263280Y18350D01*
X262864Y18265D01*
X262432Y18204D01*
X261985Y18167D01*
X261522Y18155D01*
G37*
%LPC*%
G36*
X261522Y19512D02*
X262041Y19533D01*
X262529Y19595D01*
X262985Y19698D01*
X263411Y19842D01*
X263805Y20027D01*
X264169Y20254D01*
X264501Y20522D01*
X264802Y20831D01*
X265070Y21177D01*
X265302Y21558D01*
X265499Y21973D01*
X265659Y22421D01*
X265784Y22904D01*
X265874Y23421D01*
X265927Y23972D01*
X265945Y24557D01*
X265927Y25118D01*
X265873Y25647D01*
X265783Y26146D01*
X265657Y26613D01*
X265495Y27050D01*
X265297Y27456D01*
X265063Y27831D01*
X264793Y28175D01*
X264491Y28483D01*
X264158Y28749D01*
X263796Y28975D01*
X263404Y29160D01*
X262983Y29304D01*
X262531Y29406D01*
X262050Y29468D01*
X261540Y29488D01*
X261025Y29468D01*
X260540Y29407D01*
X260085Y29306D01*
X259661Y29164D01*
X259267Y28982D01*
X258902Y28759D01*
X258568Y28496D01*
X258264Y28192D01*
X257993Y27852D01*
X257758Y27479D01*
X257559Y27073D01*
X257397Y26635D01*
X257270Y26165D01*
X257180Y25661D01*
X257126Y25126D01*
X257108Y24557D01*
X257126Y23992D01*
X257181Y23457D01*
X257272Y22951D01*
X257400Y22476D01*
X257565Y22031D01*
X257766Y21615D01*
X258003Y21230D01*
X258277Y20874D01*
X258584Y20555D01*
X258918Y20279D01*
X259281Y20044D01*
X259673Y19853D01*
X260093Y19704D01*
X260541Y19598D01*
X261017Y19534D01*
X261522Y19512D01*
G37*
%LPD*%
G36*
X271641Y18330D02*
X269968Y18330D01*
X269968Y30671D01*
X275775Y30671D01*
X276281Y30656D01*
X276758Y30613D01*
X277205Y30540D01*
X277622Y30438D01*
X278009Y30306D01*
X278367Y30146D01*
X278695Y29957D01*
X278994Y29738D01*
X279260Y29493D01*
X279490Y29226D01*
X279685Y28936D01*
X279844Y28622D01*
X279968Y28286D01*
X280057Y27927D01*
X280110Y27546D01*
X280128Y27141D01*
X280115Y26804D01*
X280078Y26481D01*
X280015Y26171D01*
X279928Y25876D01*
X279815Y25593D01*
X279677Y25325D01*
X279514Y25070D01*
X279327Y24829D01*
X279117Y24605D01*
X278888Y24404D01*
X278640Y24223D01*
X278529Y24157D01*
X278373Y24065D01*
X278087Y23928D01*
X277782Y23812D01*
X277458Y23719D01*
X277115Y23646D01*
X278606Y21383D01*
X280618Y18330D01*
X278692Y18330D01*
X275486Y23454D01*
X271641Y23454D01*
X271641Y18330D01*
G37*
%LPC*%
G36*
X275679Y24776D02*
X276000Y24786D01*
X276302Y24815D01*
X276586Y24863D01*
X276851Y24931D01*
X277097Y25018D01*
X277325Y25124D01*
X277534Y25249D01*
X277724Y25394D01*
X277893Y25556D01*
X278040Y25733D01*
X278164Y25926D01*
X278266Y26135D01*
X278345Y26359D01*
X278401Y26598D01*
X278435Y26853D01*
X278446Y27124D01*
X278435Y27385D01*
X278401Y27630D01*
X278343Y27860D01*
X278263Y28073D01*
X278161Y28270D01*
X278035Y28451D01*
X277886Y28617D01*
X277715Y28766D01*
X277522Y28898D01*
X277309Y29013D01*
X277076Y29110D01*
X276823Y29190D01*
X276549Y29251D01*
X276256Y29295D01*
X275942Y29322D01*
X275609Y29331D01*
X271641Y29331D01*
X271641Y24776D01*
X275679Y24776D01*
G37*
%LPD*%
G36*
X217988Y18330D02*
X216499Y18330D01*
X216499Y30671D01*
X218698Y30671D01*
X221982Y22114D01*
X222154Y21578D01*
X222319Y21006D01*
X222534Y20152D01*
X222642Y20593D01*
X222827Y21216D01*
X223015Y21797D01*
X223129Y22114D01*
X226353Y30671D01*
X228498Y30671D01*
X228498Y18330D01*
X226992Y18330D01*
X226992Y26563D01*
X227012Y27903D01*
X227071Y29191D01*
X226664Y27794D01*
X226476Y27223D01*
X226300Y26738D01*
X223112Y18330D01*
X221938Y18330D01*
X218706Y26738D01*
X218216Y28227D01*
X217927Y29191D01*
X217953Y28218D01*
X217988Y26563D01*
X217988Y18330D01*
G37*
G36*
X177922Y18330D02*
X176188Y18330D01*
X181224Y30671D01*
X183125Y30671D01*
X188082Y18330D01*
X186374Y18330D01*
X184964Y21939D01*
X179341Y21939D01*
X177922Y18330D01*
G37*
%LPC*%
G36*
X184465Y23244D02*
X182879Y27316D01*
X182634Y27960D01*
X182389Y28683D01*
X182152Y29410D01*
X182074Y29164D01*
X181802Y28334D01*
X181425Y27299D01*
X179849Y23244D01*
X184465Y23244D01*
G37*
%LPD*%
G36*
X208211Y18155D02*
X207735Y18167D01*
X207277Y18203D01*
X206834Y18263D01*
X206409Y18348D01*
X206000Y18456D01*
X205608Y18588D01*
X205233Y18745D01*
X204874Y18926D01*
X204534Y19129D01*
X204215Y19353D01*
X203916Y19599D01*
X203638Y19866D01*
X203381Y20154D01*
X203144Y20464D01*
X202928Y20794D01*
X202733Y21146D01*
X202559Y21516D01*
X202409Y21903D01*
X202282Y22305D01*
X202177Y22724D01*
X202097Y23158D01*
X202039Y23608D01*
X202004Y24075D01*
X201992Y24557D01*
X201999Y24928D01*
X202018Y25287D01*
X202049Y25636D01*
X202093Y25975D01*
X202150Y26302D01*
X202219Y26620D01*
X202301Y26926D01*
X202395Y27222D01*
X202502Y27508D01*
X202622Y27782D01*
X202754Y28046D01*
X202899Y28300D01*
X203056Y28543D01*
X203226Y28775D01*
X203604Y29208D01*
X204027Y29594D01*
X204254Y29768D01*
X204491Y29929D01*
X204739Y30076D01*
X204996Y30212D01*
X205264Y30334D01*
X205542Y30443D01*
X205830Y30540D01*
X206128Y30623D01*
X206437Y30694D01*
X206755Y30752D01*
X207084Y30797D01*
X207423Y30829D01*
X207773Y30848D01*
X208132Y30855D01*
X208633Y30844D01*
X209109Y30812D01*
X209561Y30757D01*
X209989Y30682D01*
X210393Y30584D01*
X210773Y30466D01*
X211129Y30325D01*
X211460Y30163D01*
X211771Y29977D01*
X212063Y29765D01*
X212337Y29527D01*
X212592Y29263D01*
X212830Y28973D01*
X213048Y28657D01*
X213249Y28315D01*
X213431Y27947D01*
X211837Y27474D01*
X211699Y27728D01*
X211549Y27964D01*
X211387Y28182D01*
X211212Y28383D01*
X211024Y28565D01*
X210825Y28730D01*
X210612Y28877D01*
X210388Y29007D01*
X210149Y29120D01*
X209897Y29217D01*
X209631Y29300D01*
X209351Y29368D01*
X209056Y29421D01*
X208748Y29458D01*
X208425Y29481D01*
X208088Y29488D01*
X207570Y29468D01*
X207083Y29408D01*
X206627Y29307D01*
X206203Y29165D01*
X205810Y28984D01*
X205449Y28762D01*
X205120Y28499D01*
X204821Y28197D01*
X204557Y27857D01*
X204327Y27485D01*
X204133Y27079D01*
X203974Y26641D01*
X203850Y26169D01*
X203762Y25665D01*
X203709Y25128D01*
X203692Y24557D01*
X203710Y23988D01*
X203767Y23450D01*
X203860Y22942D01*
X203992Y22465D01*
X204160Y22019D01*
X204367Y21604D01*
X204610Y21219D01*
X204892Y20866D01*
X205206Y20548D01*
X205549Y20274D01*
X205921Y20041D01*
X206321Y19851D01*
X206751Y19703D01*
X207209Y19597D01*
X207695Y19534D01*
X208211Y19512D01*
X208805Y19535D01*
X209379Y19604D01*
X209933Y19719D01*
X210466Y19880D01*
X210965Y20081D01*
X211413Y20314D01*
X211812Y20580D01*
X212161Y20879D01*
X212161Y23103D01*
X208474Y23103D01*
X208474Y24505D01*
X213703Y24505D01*
X213703Y20248D01*
X213450Y20006D01*
X213184Y19777D01*
X212905Y19563D01*
X212611Y19362D01*
X212304Y19176D01*
X211982Y19004D01*
X211647Y18846D01*
X211298Y18702D01*
X210939Y18574D01*
X210572Y18463D01*
X210197Y18369D01*
X209815Y18292D01*
X209425Y18232D01*
X209028Y18189D01*
X208623Y18163D01*
X208211Y18155D01*
G37*
G36*
X194524Y18155D02*
X194151Y18164D01*
X193791Y18189D01*
X193442Y18232D01*
X193105Y18293D01*
X192781Y18370D01*
X192468Y18465D01*
X192167Y18577D01*
X191879Y18707D01*
X191604Y18852D01*
X191346Y19014D01*
X191103Y19191D01*
X190876Y19383D01*
X190665Y19591D01*
X190470Y19815D01*
X190291Y20055D01*
X190127Y20309D01*
X189982Y20579D01*
X189855Y20860D01*
X189748Y21154D01*
X189661Y21461D01*
X189593Y21781D01*
X189544Y22113D01*
X189515Y22457D01*
X189505Y22814D01*
X189505Y30671D01*
X191178Y30671D01*
X191178Y22955D01*
X191192Y22545D01*
X191232Y22160D01*
X191299Y21801D01*
X191393Y21468D01*
X191514Y21160D01*
X191661Y20877D01*
X191835Y20620D01*
X192037Y20388D01*
X192263Y20183D01*
X192513Y20005D01*
X192788Y19855D01*
X193085Y19731D01*
X193407Y19636D01*
X193753Y19567D01*
X194122Y19526D01*
X194515Y19512D01*
X194920Y19527D01*
X195301Y19569D01*
X195659Y19640D01*
X195994Y19739D01*
X196306Y19867D01*
X196595Y20022D01*
X196861Y20206D01*
X197103Y20419D01*
X197320Y20659D01*
X197508Y20924D01*
X197667Y21216D01*
X197796Y21535D01*
X197898Y21879D01*
X197970Y22249D01*
X198013Y22646D01*
X198027Y23068D01*
X198027Y30671D01*
X199692Y30671D01*
X199692Y22972D01*
X199682Y22604D01*
X199652Y22249D01*
X199602Y21907D01*
X199533Y21577D01*
X199444Y21261D01*
X199334Y20957D01*
X199205Y20666D01*
X199057Y20388D01*
X198890Y20125D01*
X198706Y19877D01*
X198506Y19646D01*
X198290Y19430D01*
X198058Y19231D01*
X197809Y19047D01*
X197543Y18880D01*
X197261Y18729D01*
X196964Y18594D01*
X196655Y18478D01*
X196332Y18379D01*
X195997Y18298D01*
X195648Y18236D01*
X195286Y18191D01*
X194912Y18164D01*
X194524Y18155D01*
G37*
G36*
X250209Y18330D02*
X248545Y18330D01*
X248545Y29304D01*
X244306Y29304D01*
X244306Y30671D01*
X254448Y30671D01*
X254448Y29304D01*
X250209Y29304D01*
X250209Y18330D01*
G37*
G36*
X255712Y289484D02*
X243371Y289484D01*
X243371Y291683D01*
X251928Y294967D01*
X252464Y295139D01*
X253036Y295304D01*
X253890Y295519D01*
X253449Y295627D01*
X252826Y295812D01*
X252245Y296000D01*
X251928Y296115D01*
X243371Y299338D01*
X243371Y301484D01*
X255712Y301484D01*
X255712Y299977D01*
X247479Y299977D01*
X246139Y299997D01*
X244851Y300056D01*
X246248Y299649D01*
X246819Y299462D01*
X247304Y299285D01*
X255712Y296097D01*
X255712Y294923D01*
X247304Y291692D01*
X245815Y291201D01*
X244851Y290912D01*
X245824Y290938D01*
X247479Y290973D01*
X255712Y290973D01*
X255712Y289484D01*
G37*
G36*
X255712Y249173D02*
X243371Y254209D01*
X243371Y256110D01*
X255712Y261067D01*
X255712Y259359D01*
X252104Y257949D01*
X252104Y252326D01*
X255712Y250907D01*
X255712Y249173D01*
G37*
%LPC*%
G36*
X250798Y252834D02*
X250798Y257450D01*
X246726Y255865D01*
X246082Y255619D01*
X245359Y255374D01*
X244632Y255138D01*
X244878Y255059D01*
X245708Y254787D01*
X246743Y254411D01*
X250798Y252834D01*
G37*
%LPD*%
G36*
X249485Y274978D02*
X249114Y274984D01*
X248755Y275003D01*
X248406Y275034D01*
X248067Y275078D01*
X247740Y275135D01*
X247422Y275204D01*
X247116Y275286D01*
X246820Y275381D01*
X246535Y275488D01*
X246260Y275607D01*
X245996Y275739D01*
X245742Y275884D01*
X245499Y276042D01*
X245267Y276211D01*
X244834Y276589D01*
X244448Y277012D01*
X244274Y277239D01*
X244114Y277477D01*
X243966Y277724D01*
X243831Y277981D01*
X243708Y278249D01*
X243599Y278527D01*
X243502Y278815D01*
X243419Y279113D01*
X243348Y279422D01*
X243290Y279741D01*
X243245Y280070D01*
X243213Y280409D01*
X243194Y280758D01*
X243187Y281117D01*
X243198Y281618D01*
X243231Y282094D01*
X243285Y282546D01*
X243360Y282974D01*
X243458Y283378D01*
X243577Y283758D01*
X243717Y284114D01*
X243879Y284446D01*
X244065Y284756D01*
X244277Y285048D01*
X244515Y285322D01*
X244779Y285578D01*
X245069Y285815D01*
X245385Y286034D01*
X245727Y286234D01*
X246095Y286416D01*
X246568Y284822D01*
X246314Y284685D01*
X246078Y284535D01*
X245860Y284372D01*
X245659Y284197D01*
X245477Y284010D01*
X245312Y283810D01*
X245165Y283597D01*
X245035Y283373D01*
X244922Y283135D01*
X244825Y282882D01*
X244742Y282616D01*
X244674Y282336D01*
X244621Y282041D01*
X244584Y281733D01*
X244561Y281410D01*
X244554Y281074D01*
X244574Y280555D01*
X244634Y280068D01*
X244735Y279612D01*
X244877Y279188D01*
X245058Y278796D01*
X245280Y278435D01*
X245543Y278105D01*
X245846Y277807D01*
X246185Y277542D01*
X246557Y277312D01*
X246963Y277118D01*
X247401Y276959D01*
X247873Y276836D01*
X248377Y276747D01*
X248914Y276694D01*
X249485Y276677D01*
X250054Y276696D01*
X250592Y276752D01*
X251100Y276846D01*
X251577Y276977D01*
X252023Y277146D01*
X252438Y277352D01*
X252823Y277595D01*
X253176Y277877D01*
X253494Y278191D01*
X253768Y278534D01*
X254001Y278906D01*
X254191Y279307D01*
X254339Y279736D01*
X254445Y280194D01*
X254508Y280681D01*
X254530Y281196D01*
X254507Y281790D01*
X254438Y282364D01*
X254323Y282918D01*
X254162Y283452D01*
X253961Y283950D01*
X253728Y284399D01*
X253462Y284797D01*
X253163Y285146D01*
X250939Y285146D01*
X250939Y281459D01*
X249537Y281459D01*
X249537Y286688D01*
X253794Y286688D01*
X254036Y286436D01*
X254265Y286170D01*
X254479Y285890D01*
X254680Y285596D01*
X254866Y285289D01*
X255038Y284968D01*
X255196Y284632D01*
X255340Y284284D01*
X255468Y283924D01*
X255579Y283557D01*
X255673Y283182D01*
X255750Y282800D01*
X255810Y282410D01*
X255853Y282013D01*
X255879Y281608D01*
X255887Y281196D01*
X255875Y280721D01*
X255839Y280262D01*
X255779Y279820D01*
X255695Y279394D01*
X255586Y278985D01*
X255454Y278593D01*
X255297Y278218D01*
X255116Y277859D01*
X254913Y277519D01*
X254689Y277200D01*
X254443Y276901D01*
X254176Y276623D01*
X253888Y276366D01*
X253579Y276129D01*
X253248Y275913D01*
X252896Y275718D01*
X252526Y275544D01*
X252139Y275394D01*
X251737Y275267D01*
X251319Y275163D01*
X250884Y275082D01*
X250434Y275024D01*
X249967Y274989D01*
X249485Y274978D01*
G37*
G36*
X252752Y303765D02*
X252428Y305385D01*
X252696Y305465D01*
X252947Y305565D01*
X253179Y305684D01*
X253392Y305823D01*
X253587Y305982D01*
X253764Y306161D01*
X253922Y306359D01*
X254061Y306577D01*
X254183Y306815D01*
X254289Y307073D01*
X254379Y307352D01*
X254452Y307652D01*
X254509Y307972D01*
X254550Y308312D01*
X254574Y308674D01*
X254582Y309055D01*
X254573Y309449D01*
X254547Y309819D01*
X254504Y310166D01*
X254443Y310491D01*
X254365Y310792D01*
X254269Y311069D01*
X254156Y311324D01*
X254026Y311556D01*
X253879Y311762D01*
X253715Y311941D01*
X253536Y312092D01*
X253340Y312216D01*
X253127Y312312D01*
X252899Y312381D01*
X252654Y312422D01*
X252393Y312436D01*
X252105Y312419D01*
X251845Y312367D01*
X251614Y312281D01*
X251412Y312160D01*
X251231Y312008D01*
X251068Y311828D01*
X250921Y311621D01*
X250790Y311385D01*
X250672Y311123D01*
X250564Y310838D01*
X250466Y310528D01*
X250378Y310194D01*
X250019Y308661D01*
X249857Y307974D01*
X249695Y307375D01*
X249533Y306864D01*
X249371Y306441D01*
X249204Y306082D01*
X249028Y305763D01*
X248843Y305484D01*
X248648Y305245D01*
X248441Y305039D01*
X248216Y304859D01*
X247974Y304704D01*
X247715Y304575D01*
X247438Y304474D01*
X247142Y304401D01*
X246825Y304358D01*
X246489Y304343D01*
X246104Y304362D01*
X245742Y304419D01*
X245403Y304514D01*
X245086Y304646D01*
X244792Y304817D01*
X244520Y305025D01*
X244272Y305272D01*
X244046Y305556D01*
X243844Y305876D01*
X243670Y306228D01*
X243523Y306613D01*
X243402Y307031D01*
X243308Y307481D01*
X243241Y307964D01*
X243201Y308480D01*
X243187Y309029D01*
X243197Y309539D01*
X243228Y310018D01*
X243278Y310466D01*
X243348Y310884D01*
X243439Y311270D01*
X243549Y311625D01*
X243680Y311950D01*
X243831Y312243D01*
X244006Y312511D01*
X244210Y312758D01*
X244441Y312984D01*
X244701Y313189D01*
X244990Y313374D01*
X245307Y313537D01*
X245652Y313680D01*
X246025Y313802D01*
X246314Y312156D01*
X246077Y312080D01*
X245857Y311989D01*
X245654Y311883D01*
X245468Y311762D01*
X245298Y311625D01*
X245146Y311473D01*
X245010Y311305D01*
X244891Y311122D01*
X244787Y310923D01*
X244697Y310705D01*
X244621Y310468D01*
X244559Y310214D01*
X244511Y309941D01*
X244476Y309649D01*
X244455Y309339D01*
X244449Y309011D01*
X244456Y308652D01*
X244479Y308315D01*
X244518Y308000D01*
X244571Y307706D01*
X244640Y307435D01*
X244724Y307185D01*
X244824Y306958D01*
X244939Y306752D01*
X245069Y306569D01*
X245214Y306411D01*
X245375Y306277D01*
X245550Y306167D01*
X245740Y306082D01*
X245946Y306021D01*
X246166Y305984D01*
X246402Y305972D01*
X246674Y305991D01*
X246922Y306048D01*
X247145Y306142D01*
X247343Y306274D01*
X247522Y306442D01*
X247687Y306643D01*
X247838Y306878D01*
X247974Y307146D01*
X248110Y307501D01*
X248262Y307998D01*
X248428Y308635D01*
X248609Y309414D01*
X248876Y310549D01*
X249025Y311101D01*
X249200Y311630D01*
X249405Y312131D01*
X249642Y312598D01*
X249776Y312816D01*
X249925Y313020D01*
X250087Y313208D01*
X250264Y313382D01*
X250456Y313539D01*
X250665Y313679D01*
X250890Y313800D01*
X251131Y313903D01*
X251392Y313985D01*
X251674Y314044D01*
X251979Y314080D01*
X252305Y314091D01*
X252720Y314070D01*
X253111Y314008D01*
X253478Y313904D01*
X253820Y313757D01*
X254139Y313570D01*
X254433Y313340D01*
X254704Y313069D01*
X254950Y312756D01*
X255170Y312405D01*
X255360Y312020D01*
X255521Y311601D01*
X255653Y311147D01*
X255755Y310660D01*
X255829Y310139D01*
X255873Y309583D01*
X255887Y308994D01*
X255875Y308445D01*
X255838Y307925D01*
X255777Y307436D01*
X255691Y306976D01*
X255581Y306545D01*
X255446Y306144D01*
X255287Y305773D01*
X255103Y305431D01*
X254895Y305119D01*
X254662Y304837D01*
X254405Y304584D01*
X254123Y304361D01*
X253817Y304168D01*
X253487Y304004D01*
X253131Y303870D01*
X252752Y303765D01*
G37*
G36*
X251228Y262491D02*
X243371Y262491D01*
X243371Y264163D01*
X251088Y264163D01*
X251497Y264177D01*
X251882Y264217D01*
X252241Y264284D01*
X252574Y264378D01*
X252882Y264499D01*
X253165Y264646D01*
X253422Y264821D01*
X253654Y265022D01*
X253859Y265248D01*
X254037Y265499D01*
X254187Y265773D01*
X254311Y266071D01*
X254406Y266392D01*
X254475Y266738D01*
X254516Y267107D01*
X254530Y267500D01*
X254515Y267905D01*
X254473Y268286D01*
X254402Y268645D01*
X254303Y268980D01*
X254176Y269292D01*
X254020Y269580D01*
X253836Y269846D01*
X253623Y270089D01*
X253383Y270305D01*
X253118Y270493D01*
X252826Y270652D01*
X252507Y270782D01*
X252163Y270883D01*
X251793Y270955D01*
X251396Y270998D01*
X250974Y271013D01*
X243371Y271013D01*
X243371Y272677D01*
X251070Y272677D01*
X251438Y272667D01*
X251793Y272637D01*
X252135Y272587D01*
X252465Y272518D01*
X252781Y272429D01*
X253085Y272320D01*
X253376Y272191D01*
X253654Y272042D01*
X253917Y271875D01*
X254165Y271691D01*
X254396Y271492D01*
X254612Y271275D01*
X254811Y271043D01*
X254995Y270794D01*
X255162Y270528D01*
X255314Y270246D01*
X255448Y269950D01*
X255565Y269640D01*
X255663Y269317D01*
X255744Y268982D01*
X255806Y268633D01*
X255851Y268272D01*
X255878Y267897D01*
X255887Y267509D01*
X255879Y267136D01*
X255853Y266776D01*
X255810Y266427D01*
X255749Y266090D01*
X255672Y265766D01*
X255577Y265453D01*
X255465Y265153D01*
X255335Y264864D01*
X255190Y264590D01*
X255028Y264331D01*
X254851Y264088D01*
X254659Y263861D01*
X254451Y263650D01*
X254227Y263455D01*
X253988Y263276D01*
X253733Y263112D01*
X253464Y262967D01*
X253182Y262840D01*
X252888Y262734D01*
X252581Y262646D01*
X252261Y262578D01*
X251929Y262529D01*
X251585Y262500D01*
X251228Y262491D01*
G37*
G36*
X255712Y316286D02*
X254372Y316286D01*
X254372Y319430D01*
X244878Y319430D01*
X246866Y316645D01*
X245377Y316645D01*
X243371Y319561D01*
X243371Y321015D01*
X254372Y321015D01*
X254372Y324019D01*
X255712Y324019D01*
X255712Y316286D01*
G37*
G36*
X202712Y289484D02*
X190371Y289484D01*
X190371Y291683D01*
X198928Y294967D01*
X199464Y295139D01*
X200036Y295304D01*
X200890Y295519D01*
X200449Y295627D01*
X199826Y295812D01*
X199245Y296000D01*
X198928Y296115D01*
X190371Y299338D01*
X190371Y301484D01*
X202712Y301484D01*
X202712Y299977D01*
X194479Y299977D01*
X193139Y299997D01*
X191851Y300056D01*
X193248Y299649D01*
X193819Y299462D01*
X194304Y299285D01*
X202712Y296097D01*
X202712Y294923D01*
X194304Y291692D01*
X192815Y291201D01*
X191851Y290912D01*
X192824Y290938D01*
X194479Y290973D01*
X202712Y290973D01*
X202712Y289484D01*
G37*
G36*
X202712Y249173D02*
X190371Y254209D01*
X190371Y256110D01*
X202712Y261067D01*
X202712Y259359D01*
X199104Y257949D01*
X199104Y252326D01*
X202712Y250907D01*
X202712Y249173D01*
G37*
%LPC*%
G36*
X197798Y252834D02*
X197798Y257450D01*
X193726Y255865D01*
X193082Y255619D01*
X192359Y255374D01*
X191632Y255138D01*
X191878Y255059D01*
X192708Y254787D01*
X193743Y254411D01*
X197798Y252834D01*
G37*
%LPD*%
G36*
X196485Y274978D02*
X196114Y274984D01*
X195755Y275003D01*
X195406Y275034D01*
X195067Y275078D01*
X194740Y275135D01*
X194422Y275204D01*
X194116Y275286D01*
X193820Y275381D01*
X193535Y275488D01*
X193260Y275607D01*
X192996Y275739D01*
X192742Y275884D01*
X192499Y276042D01*
X192267Y276211D01*
X191834Y276589D01*
X191448Y277012D01*
X191274Y277239D01*
X191114Y277477D01*
X190966Y277724D01*
X190831Y277981D01*
X190708Y278249D01*
X190599Y278527D01*
X190502Y278815D01*
X190419Y279113D01*
X190348Y279422D01*
X190290Y279741D01*
X190245Y280070D01*
X190213Y280409D01*
X190194Y280758D01*
X190187Y281117D01*
X190198Y281618D01*
X190231Y282094D01*
X190285Y282546D01*
X190360Y282974D01*
X190458Y283378D01*
X190577Y283758D01*
X190717Y284114D01*
X190879Y284446D01*
X191065Y284756D01*
X191277Y285048D01*
X191515Y285322D01*
X191779Y285578D01*
X192069Y285815D01*
X192385Y286034D01*
X192727Y286234D01*
X193095Y286416D01*
X193568Y284822D01*
X193314Y284685D01*
X193078Y284535D01*
X192860Y284372D01*
X192659Y284197D01*
X192477Y284010D01*
X192312Y283810D01*
X192165Y283597D01*
X192035Y283373D01*
X191922Y283135D01*
X191825Y282882D01*
X191742Y282616D01*
X191674Y282336D01*
X191621Y282041D01*
X191584Y281733D01*
X191561Y281410D01*
X191554Y281074D01*
X191574Y280555D01*
X191634Y280068D01*
X191735Y279612D01*
X191877Y279188D01*
X192058Y278796D01*
X192280Y278435D01*
X192543Y278105D01*
X192846Y277807D01*
X193185Y277542D01*
X193557Y277312D01*
X193963Y277118D01*
X194401Y276959D01*
X194873Y276836D01*
X195377Y276747D01*
X195914Y276694D01*
X196485Y276677D01*
X197054Y276696D01*
X197592Y276752D01*
X198100Y276846D01*
X198577Y276977D01*
X199023Y277146D01*
X199438Y277352D01*
X199823Y277595D01*
X200176Y277877D01*
X200494Y278191D01*
X200768Y278534D01*
X201001Y278906D01*
X201191Y279307D01*
X201339Y279736D01*
X201445Y280194D01*
X201508Y280681D01*
X201530Y281196D01*
X201507Y281790D01*
X201438Y282364D01*
X201323Y282918D01*
X201162Y283452D01*
X200961Y283950D01*
X200728Y284399D01*
X200462Y284797D01*
X200163Y285146D01*
X197939Y285146D01*
X197939Y281459D01*
X196537Y281459D01*
X196537Y286688D01*
X200794Y286688D01*
X201036Y286436D01*
X201265Y286170D01*
X201479Y285890D01*
X201680Y285596D01*
X201866Y285289D01*
X202038Y284968D01*
X202196Y284632D01*
X202340Y284284D01*
X202468Y283924D01*
X202579Y283557D01*
X202673Y283182D01*
X202750Y282800D01*
X202810Y282410D01*
X202853Y282013D01*
X202879Y281608D01*
X202887Y281196D01*
X202875Y280721D01*
X202839Y280262D01*
X202779Y279820D01*
X202695Y279394D01*
X202586Y278985D01*
X202454Y278593D01*
X202297Y278218D01*
X202116Y277859D01*
X201913Y277519D01*
X201689Y277200D01*
X201443Y276901D01*
X201176Y276623D01*
X200888Y276366D01*
X200579Y276129D01*
X200248Y275913D01*
X199896Y275718D01*
X199526Y275544D01*
X199139Y275394D01*
X198737Y275267D01*
X198319Y275163D01*
X197884Y275082D01*
X197434Y275024D01*
X196967Y274989D01*
X196485Y274978D01*
G37*
G36*
X199752Y303765D02*
X199428Y305385D01*
X199696Y305465D01*
X199947Y305565D01*
X200179Y305684D01*
X200392Y305823D01*
X200587Y305982D01*
X200764Y306161D01*
X200922Y306359D01*
X201061Y306577D01*
X201183Y306815D01*
X201289Y307073D01*
X201379Y307352D01*
X201452Y307652D01*
X201509Y307972D01*
X201550Y308312D01*
X201574Y308674D01*
X201582Y309055D01*
X201573Y309449D01*
X201547Y309819D01*
X201504Y310166D01*
X201443Y310491D01*
X201365Y310792D01*
X201269Y311069D01*
X201156Y311324D01*
X201026Y311556D01*
X200879Y311762D01*
X200715Y311941D01*
X200536Y312092D01*
X200340Y312216D01*
X200127Y312312D01*
X199899Y312381D01*
X199654Y312422D01*
X199393Y312436D01*
X199105Y312419D01*
X198845Y312367D01*
X198614Y312281D01*
X198412Y312160D01*
X198231Y312008D01*
X198068Y311828D01*
X197921Y311621D01*
X197790Y311385D01*
X197672Y311123D01*
X197564Y310838D01*
X197466Y310528D01*
X197378Y310194D01*
X197019Y308661D01*
X196857Y307974D01*
X196695Y307375D01*
X196533Y306864D01*
X196371Y306441D01*
X196204Y306082D01*
X196028Y305763D01*
X195843Y305484D01*
X195648Y305245D01*
X195441Y305039D01*
X195216Y304859D01*
X194974Y304704D01*
X194715Y304575D01*
X194438Y304474D01*
X194142Y304401D01*
X193825Y304358D01*
X193489Y304343D01*
X193104Y304362D01*
X192742Y304419D01*
X192403Y304514D01*
X192086Y304646D01*
X191792Y304817D01*
X191520Y305025D01*
X191272Y305272D01*
X191046Y305556D01*
X190844Y305876D01*
X190670Y306228D01*
X190523Y306613D01*
X190402Y307031D01*
X190308Y307481D01*
X190241Y307964D01*
X190201Y308480D01*
X190187Y309029D01*
X190197Y309539D01*
X190228Y310018D01*
X190278Y310466D01*
X190348Y310884D01*
X190439Y311270D01*
X190549Y311625D01*
X190680Y311950D01*
X190831Y312243D01*
X191006Y312511D01*
X191210Y312758D01*
X191441Y312984D01*
X191701Y313189D01*
X191990Y313374D01*
X192307Y313537D01*
X192652Y313680D01*
X193025Y313802D01*
X193314Y312156D01*
X193077Y312080D01*
X192857Y311989D01*
X192654Y311883D01*
X192468Y311762D01*
X192298Y311625D01*
X192146Y311473D01*
X192010Y311305D01*
X191891Y311122D01*
X191787Y310923D01*
X191697Y310705D01*
X191621Y310468D01*
X191559Y310214D01*
X191511Y309941D01*
X191476Y309649D01*
X191455Y309339D01*
X191449Y309011D01*
X191456Y308652D01*
X191479Y308315D01*
X191518Y308000D01*
X191571Y307706D01*
X191640Y307435D01*
X191724Y307185D01*
X191824Y306958D01*
X191939Y306752D01*
X192069Y306569D01*
X192214Y306411D01*
X192375Y306277D01*
X192550Y306167D01*
X192740Y306082D01*
X192946Y306021D01*
X193166Y305984D01*
X193402Y305972D01*
X193674Y305991D01*
X193922Y306048D01*
X194145Y306142D01*
X194343Y306274D01*
X194522Y306442D01*
X194687Y306643D01*
X194838Y306878D01*
X194974Y307146D01*
X195110Y307501D01*
X195262Y307998D01*
X195428Y308635D01*
X195609Y309414D01*
X195876Y310549D01*
X196025Y311101D01*
X196200Y311630D01*
X196405Y312131D01*
X196642Y312598D01*
X196776Y312816D01*
X196925Y313020D01*
X197087Y313208D01*
X197264Y313382D01*
X197456Y313539D01*
X197665Y313679D01*
X197890Y313800D01*
X198131Y313903D01*
X198392Y313985D01*
X198674Y314044D01*
X198979Y314080D01*
X199305Y314091D01*
X199720Y314070D01*
X200111Y314008D01*
X200478Y313904D01*
X200820Y313757D01*
X201139Y313570D01*
X201433Y313340D01*
X201704Y313069D01*
X201950Y312756D01*
X202170Y312405D01*
X202360Y312020D01*
X202521Y311601D01*
X202653Y311147D01*
X202755Y310660D01*
X202829Y310139D01*
X202873Y309583D01*
X202887Y308994D01*
X202875Y308445D01*
X202838Y307925D01*
X202777Y307436D01*
X202691Y306976D01*
X202581Y306545D01*
X202446Y306144D01*
X202287Y305773D01*
X202103Y305431D01*
X201895Y305119D01*
X201662Y304837D01*
X201405Y304584D01*
X201123Y304361D01*
X200817Y304168D01*
X200487Y304004D01*
X200131Y303870D01*
X199752Y303765D01*
G37*
G36*
X198228Y262491D02*
X190371Y262491D01*
X190371Y264163D01*
X198088Y264163D01*
X198497Y264177D01*
X198882Y264217D01*
X199241Y264284D01*
X199574Y264378D01*
X199882Y264499D01*
X200165Y264646D01*
X200422Y264821D01*
X200654Y265022D01*
X200859Y265248D01*
X201037Y265499D01*
X201187Y265773D01*
X201311Y266071D01*
X201406Y266392D01*
X201475Y266738D01*
X201516Y267107D01*
X201530Y267500D01*
X201515Y267905D01*
X201473Y268286D01*
X201402Y268645D01*
X201303Y268980D01*
X201176Y269292D01*
X201020Y269580D01*
X200836Y269846D01*
X200623Y270089D01*
X200383Y270305D01*
X200118Y270493D01*
X199826Y270652D01*
X199507Y270782D01*
X199163Y270883D01*
X198793Y270955D01*
X198396Y270998D01*
X197974Y271013D01*
X190371Y271013D01*
X190371Y272677D01*
X198070Y272677D01*
X198438Y272667D01*
X198793Y272637D01*
X199135Y272587D01*
X199465Y272518D01*
X199781Y272429D01*
X200085Y272320D01*
X200376Y272191D01*
X200654Y272042D01*
X200917Y271875D01*
X201165Y271691D01*
X201396Y271492D01*
X201612Y271275D01*
X201811Y271043D01*
X201995Y270794D01*
X202162Y270528D01*
X202314Y270246D01*
X202448Y269950D01*
X202565Y269640D01*
X202663Y269317D01*
X202744Y268982D01*
X202806Y268633D01*
X202851Y268272D01*
X202878Y267897D01*
X202887Y267509D01*
X202879Y267136D01*
X202853Y266776D01*
X202810Y266427D01*
X202749Y266090D01*
X202672Y265766D01*
X202577Y265453D01*
X202465Y265153D01*
X202335Y264864D01*
X202190Y264590D01*
X202028Y264331D01*
X201851Y264088D01*
X201659Y263861D01*
X201451Y263650D01*
X201227Y263455D01*
X200988Y263276D01*
X200733Y263112D01*
X200464Y262967D01*
X200182Y262840D01*
X199888Y262734D01*
X199581Y262646D01*
X199261Y262578D01*
X198929Y262529D01*
X198585Y262500D01*
X198228Y262491D01*
G37*
G36*
X202712Y315821D02*
X201600Y315821D01*
X201102Y316057D01*
X200635Y316317D01*
X200198Y316602D01*
X199791Y316912D01*
X199408Y317238D01*
X199044Y317572D01*
X198699Y317914D01*
X198372Y318265D01*
X197760Y318971D01*
X197194Y319671D01*
X196651Y320333D01*
X196108Y320928D01*
X195833Y321194D01*
X195552Y321435D01*
X195264Y321648D01*
X194969Y321834D01*
X194662Y321985D01*
X194334Y322094D01*
X193987Y322158D01*
X193621Y322180D01*
X193374Y322171D01*
X193141Y322143D01*
X192923Y322096D01*
X192719Y322031D01*
X192529Y321947D01*
X192353Y321845D01*
X192191Y321724D01*
X192044Y321585D01*
X191913Y321428D01*
X191799Y321258D01*
X191703Y321073D01*
X191624Y320873D01*
X191562Y320659D01*
X191519Y320430D01*
X191492Y320187D01*
X191484Y319929D01*
X191492Y319683D01*
X191518Y319448D01*
X191561Y319224D01*
X191620Y319011D01*
X191697Y318809D01*
X191791Y318618D01*
X191903Y318438D01*
X192031Y318269D01*
X192175Y318115D01*
X192332Y317977D01*
X192504Y317856D01*
X192689Y317752D01*
X192888Y317664D01*
X193101Y317594D01*
X193328Y317540D01*
X193568Y317503D01*
X193419Y315891D01*
X193059Y315949D01*
X192717Y316036D01*
X192394Y316150D01*
X192090Y316293D01*
X191805Y316465D01*
X191539Y316664D01*
X191292Y316892D01*
X191063Y317148D01*
X190858Y317428D01*
X190680Y317728D01*
X190529Y318046D01*
X190406Y318384D01*
X190310Y318742D01*
X190242Y319118D01*
X190201Y319514D01*
X190187Y319929D01*
X190201Y320382D01*
X190242Y320808D01*
X190311Y321207D01*
X190407Y321579D01*
X190531Y321924D01*
X190682Y322242D01*
X190861Y322533D01*
X191068Y322798D01*
X191299Y323033D01*
X191554Y323236D01*
X191832Y323409D01*
X192133Y323550D01*
X192457Y323659D01*
X192804Y323738D01*
X193175Y323785D01*
X193568Y323800D01*
X193927Y323780D01*
X194284Y323718D01*
X194640Y323616D01*
X194996Y323472D01*
X195350Y323288D01*
X195705Y323064D01*
X196060Y322799D01*
X196415Y322495D01*
X196818Y322097D01*
X197319Y321552D01*
X197917Y320858D01*
X198613Y320017D01*
X199015Y319539D01*
X199396Y319112D01*
X199757Y318737D01*
X200098Y318414D01*
X200425Y318137D01*
X200747Y317902D01*
X201062Y317708D01*
X201372Y317556D01*
X201372Y323993D01*
X202712Y323993D01*
X202712Y315821D01*
G37*
G36*
X404086Y128846D02*
X391745Y128846D01*
X391745Y132928D01*
X391752Y133314D01*
X391770Y133689D01*
X391801Y134053D01*
X391844Y134406D01*
X391899Y134748D01*
X391967Y135078D01*
X392046Y135397D01*
X392138Y135705D01*
X392243Y136002D01*
X392360Y136288D01*
X392489Y136562D01*
X392630Y136826D01*
X392783Y137078D01*
X392949Y137319D01*
X393127Y137548D01*
X393318Y137767D01*
X393519Y137973D01*
X393731Y138166D01*
X393954Y138346D01*
X394187Y138512D01*
X394430Y138665D01*
X394683Y138805D01*
X394947Y138932D01*
X395222Y139045D01*
X395506Y139144D01*
X395801Y139231D01*
X396107Y139304D01*
X396422Y139364D01*
X396748Y139411D01*
X397085Y139444D01*
X397432Y139464D01*
X397789Y139471D01*
X398259Y139459D01*
X398714Y139424D01*
X399154Y139366D01*
X399579Y139284D01*
X399989Y139180D01*
X400384Y139052D01*
X400765Y138901D01*
X401130Y138726D01*
X401478Y138530D01*
X401804Y138315D01*
X402110Y138080D01*
X402395Y137826D01*
X402659Y137553D01*
X402901Y137260D01*
X403123Y136947D01*
X403324Y136615D01*
X403503Y136267D01*
X403658Y135906D01*
X403789Y135531D01*
X403896Y135144D01*
X403979Y134743D01*
X404039Y134329D01*
X404074Y133902D01*
X404086Y133462D01*
X404086Y128846D01*
G37*
%LPC*%
G36*
X402746Y130519D02*
X402746Y133270D01*
X402737Y133604D01*
X402709Y133928D01*
X402662Y134241D01*
X402597Y134545D01*
X402514Y134838D01*
X402411Y135121D01*
X402290Y135394D01*
X402151Y135656D01*
X401994Y135906D01*
X401820Y136141D01*
X401630Y136361D01*
X401424Y136566D01*
X401201Y136756D01*
X400962Y136931D01*
X400706Y137092D01*
X400434Y137237D01*
X400147Y137366D01*
X399848Y137479D01*
X399536Y137573D01*
X399212Y137651D01*
X398875Y137711D01*
X398526Y137754D01*
X398164Y137780D01*
X397789Y137789D01*
X397232Y137769D01*
X396710Y137710D01*
X396221Y137612D01*
X395767Y137475D01*
X395346Y137298D01*
X394960Y137082D01*
X394608Y136827D01*
X394290Y136532D01*
X394008Y136200D01*
X393763Y135833D01*
X393556Y135431D01*
X393387Y134994D01*
X393255Y134521D01*
X393161Y134014D01*
X393104Y133471D01*
X393086Y132893D01*
X393086Y130519D01*
X402746Y130519D01*
G37*
%LPD*%
G36*
X404086Y78971D02*
X391745Y78971D01*
X391745Y84778D01*
X391760Y85285D01*
X391804Y85761D01*
X391877Y86208D01*
X391979Y86625D01*
X392110Y87013D01*
X392270Y87371D01*
X392460Y87699D01*
X392678Y87997D01*
X392923Y88263D01*
X393190Y88493D01*
X393481Y88688D01*
X393794Y88848D01*
X394130Y88972D01*
X394489Y89060D01*
X394871Y89114D01*
X395275Y89131D01*
X395612Y89119D01*
X395935Y89081D01*
X396245Y89019D01*
X396541Y88931D01*
X396823Y88818D01*
X397091Y88681D01*
X397346Y88518D01*
X397587Y88330D01*
X397811Y88120D01*
X398013Y87891D01*
X398193Y87643D01*
X398259Y87532D01*
X398352Y87376D01*
X398489Y87090D01*
X398604Y86785D01*
X398698Y86461D01*
X398770Y86118D01*
X401033Y87610D01*
X404086Y89622D01*
X404086Y87695D01*
X398963Y84489D01*
X398963Y80644D01*
X404086Y80644D01*
X404086Y78971D01*
G37*
%LPC*%
G36*
X397640Y80644D02*
X397640Y84682D01*
X397630Y85003D01*
X397601Y85306D01*
X397553Y85590D01*
X397486Y85855D01*
X397399Y86101D01*
X397293Y86328D01*
X397167Y86537D01*
X397022Y86727D01*
X396860Y86896D01*
X396683Y87043D01*
X396490Y87167D01*
X396281Y87269D01*
X396057Y87348D01*
X395818Y87405D01*
X395563Y87438D01*
X395293Y87450D01*
X395031Y87438D01*
X394786Y87404D01*
X394557Y87347D01*
X394343Y87267D01*
X394146Y87164D01*
X393965Y87038D01*
X393800Y86890D01*
X393650Y86718D01*
X393518Y86525D01*
X393403Y86312D01*
X393306Y86079D01*
X393227Y85826D01*
X393165Y85553D01*
X393121Y85259D01*
X393094Y84946D01*
X393086Y84612D01*
X393086Y80644D01*
X397640Y80644D01*
G37*
%LPD*%
G36*
X404086Y141815D02*
X391745Y141815D01*
X391745Y147622D01*
X391760Y148128D01*
X391804Y148605D01*
X391877Y149052D01*
X391979Y149469D01*
X392110Y149857D01*
X392270Y150214D01*
X392460Y150542D01*
X392678Y150841D01*
X392923Y151107D01*
X393190Y151337D01*
X393481Y151532D01*
X393794Y151692D01*
X394130Y151816D01*
X394489Y151904D01*
X394871Y151957D01*
X395275Y151975D01*
X395612Y151963D01*
X395935Y151925D01*
X396245Y151862D01*
X396541Y151775D01*
X396823Y151662D01*
X397091Y151524D01*
X397346Y151362D01*
X397587Y151174D01*
X397811Y150964D01*
X398013Y150735D01*
X398193Y150487D01*
X398259Y150376D01*
X398352Y150220D01*
X398489Y149934D01*
X398604Y149629D01*
X398698Y149305D01*
X398770Y148962D01*
X401033Y150454D01*
X404086Y152466D01*
X404086Y150539D01*
X398963Y147333D01*
X398963Y143488D01*
X404086Y143488D01*
X404086Y141815D01*
G37*
%LPC*%
G36*
X397640Y143488D02*
X397640Y147526D01*
X397630Y147847D01*
X397601Y148150D01*
X397553Y148433D01*
X397486Y148698D01*
X397399Y148945D01*
X397293Y149172D01*
X397167Y149381D01*
X397022Y149571D01*
X396860Y149740D01*
X396683Y149887D01*
X396490Y150011D01*
X396281Y150113D01*
X396057Y150192D01*
X395818Y150248D01*
X395563Y150282D01*
X395293Y150293D01*
X395031Y150282D01*
X394786Y150248D01*
X394557Y150191D01*
X394343Y150111D01*
X394146Y150008D01*
X393965Y149882D01*
X393800Y149734D01*
X393650Y149562D01*
X393518Y149369D01*
X393403Y149156D01*
X393306Y148923D01*
X393227Y148670D01*
X393165Y148396D01*
X393121Y148103D01*
X393094Y147789D01*
X393086Y147456D01*
X393086Y143488D01*
X397640Y143488D01*
G37*
%LPD*%
G36*
X404086Y183690D02*
X391745Y183690D01*
X391745Y189497D01*
X391760Y190003D01*
X391804Y190480D01*
X391877Y190927D01*
X391979Y191344D01*
X392110Y191732D01*
X392270Y192089D01*
X392460Y192417D01*
X392678Y192716D01*
X392923Y192982D01*
X393190Y193212D01*
X393481Y193407D01*
X393794Y193567D01*
X394130Y193691D01*
X394489Y193779D01*
X394871Y193832D01*
X395275Y193850D01*
X395612Y193838D01*
X395935Y193800D01*
X396245Y193737D01*
X396541Y193650D01*
X396823Y193537D01*
X397091Y193399D01*
X397346Y193237D01*
X397587Y193049D01*
X397811Y192839D01*
X398013Y192610D01*
X398193Y192362D01*
X398259Y192251D01*
X398352Y192095D01*
X398489Y191809D01*
X398604Y191504D01*
X398698Y191180D01*
X398770Y190837D01*
X401033Y192329D01*
X404086Y194341D01*
X404086Y192414D01*
X398963Y189208D01*
X398963Y185363D01*
X404086Y185363D01*
X404086Y183690D01*
G37*
%LPC*%
G36*
X397640Y185363D02*
X397640Y189401D01*
X397630Y189722D01*
X397601Y190025D01*
X397553Y190308D01*
X397486Y190573D01*
X397399Y190820D01*
X397293Y191047D01*
X397167Y191256D01*
X397022Y191446D01*
X396860Y191615D01*
X396683Y191762D01*
X396490Y191886D01*
X396281Y191988D01*
X396057Y192067D01*
X395818Y192123D01*
X395563Y192157D01*
X395293Y192168D01*
X395031Y192157D01*
X394786Y192123D01*
X394557Y192066D01*
X394343Y191986D01*
X394146Y191883D01*
X393965Y191757D01*
X393800Y191609D01*
X393650Y191437D01*
X393518Y191244D01*
X393403Y191031D01*
X393306Y190798D01*
X393227Y190545D01*
X393165Y190271D01*
X393121Y189978D01*
X393094Y189664D01*
X393086Y189331D01*
X393086Y185363D01*
X397640Y185363D01*
G37*
%LPD*%
G36*
X404086Y90504D02*
X391745Y95540D01*
X391745Y97441D01*
X404086Y102398D01*
X404086Y100690D01*
X400478Y99280D01*
X400478Y93657D01*
X404086Y92238D01*
X404086Y90504D01*
G37*
%LPC*%
G36*
X399173Y94165D02*
X399173Y98781D01*
X395100Y97195D01*
X394456Y96950D01*
X393734Y96705D01*
X393007Y96468D01*
X393252Y96390D01*
X394082Y96118D01*
X395117Y95741D01*
X399173Y94165D01*
G37*
%LPD*%
G36*
X404086Y171721D02*
X391745Y171721D01*
X391745Y181084D01*
X393112Y181084D01*
X393112Y173394D01*
X397071Y173394D01*
X397071Y180559D01*
X398419Y180559D01*
X398419Y173394D01*
X402720Y173394D01*
X402720Y181443D01*
X404086Y181443D01*
X404086Y171721D01*
G37*
G36*
X404086Y116878D02*
X391745Y116878D01*
X391745Y118551D01*
X397929Y118551D01*
X391745Y124498D01*
X391745Y126468D01*
X397106Y121213D01*
X404086Y127169D01*
X404086Y125093D01*
X398130Y120162D01*
X399357Y118551D01*
X404086Y118551D01*
X404086Y116878D01*
G37*
G36*
X397859Y103348D02*
X397495Y103355D01*
X397141Y103373D01*
X396797Y103404D01*
X396463Y103448D01*
X396139Y103504D01*
X395825Y103573D01*
X395521Y103654D01*
X395227Y103747D01*
X394943Y103853D01*
X394669Y103971D01*
X394151Y104245D01*
X393673Y104569D01*
X393234Y104942D01*
X392842Y105360D01*
X392503Y105816D01*
X392352Y106058D01*
X392215Y106310D01*
X392091Y106572D01*
X391980Y106843D01*
X391882Y107124D01*
X391797Y107414D01*
X391725Y107714D01*
X391666Y108023D01*
X391620Y108342D01*
X391588Y108671D01*
X391568Y109009D01*
X391562Y109357D01*
X391574Y109839D01*
X391610Y110302D01*
X391670Y110744D01*
X391754Y111165D01*
X391863Y111567D01*
X391995Y111948D01*
X392152Y112309D01*
X392332Y112650D01*
X392537Y112970D01*
X392764Y113267D01*
X393015Y113543D01*
X393289Y113797D01*
X393587Y114029D01*
X393907Y114240D01*
X394251Y114428D01*
X394618Y114594D01*
X395144Y113009D01*
X394882Y112894D01*
X394637Y112762D01*
X394407Y112614D01*
X394193Y112450D01*
X393996Y112269D01*
X393814Y112072D01*
X393647Y111859D01*
X393497Y111630D01*
X393364Y111386D01*
X393248Y111132D01*
X393150Y110867D01*
X393070Y110591D01*
X393008Y110303D01*
X392963Y110005D01*
X392937Y109695D01*
X392928Y109374D01*
X392948Y108876D01*
X393010Y108406D01*
X393113Y107965D01*
X393257Y107552D01*
X393443Y107168D01*
X393669Y106812D01*
X393937Y106485D01*
X394246Y106186D01*
X394591Y105919D01*
X394966Y105688D01*
X395372Y105492D01*
X395808Y105332D01*
X396275Y105208D01*
X396773Y105119D01*
X397300Y105065D01*
X397859Y105048D01*
X398412Y105066D01*
X398938Y105122D01*
X399435Y105214D01*
X399905Y105344D01*
X400347Y105511D01*
X400762Y105715D01*
X401148Y105956D01*
X401507Y106234D01*
X401830Y106544D01*
X402110Y106880D01*
X402347Y107242D01*
X402541Y107630D01*
X402692Y108045D01*
X402800Y108485D01*
X402865Y108952D01*
X402886Y109444D01*
X402876Y109763D01*
X402846Y110072D01*
X402796Y110371D01*
X402726Y110660D01*
X402636Y110939D01*
X402525Y111208D01*
X402395Y111466D01*
X402245Y111715D01*
X402074Y111954D01*
X401884Y112182D01*
X401673Y112401D01*
X401443Y112609D01*
X401192Y112807D01*
X400922Y112996D01*
X400631Y113174D01*
X400320Y113342D01*
X401003Y114708D01*
X401390Y114508D01*
X401753Y114289D01*
X402092Y114050D01*
X402407Y113792D01*
X402698Y113515D01*
X402966Y113218D01*
X403209Y112902D01*
X403429Y112567D01*
X403624Y112215D01*
X403793Y111849D01*
X403936Y111470D01*
X404053Y111077D01*
X404144Y110670D01*
X404209Y110249D01*
X404248Y109814D01*
X404261Y109366D01*
X404249Y108907D01*
X404213Y108464D01*
X404152Y108037D01*
X404068Y107626D01*
X403959Y107230D01*
X403825Y106850D01*
X403668Y106486D01*
X403486Y106138D01*
X403282Y105808D01*
X403057Y105498D01*
X402811Y105208D01*
X402545Y104938D01*
X402257Y104689D01*
X401949Y104460D01*
X401620Y104251D01*
X401270Y104062D01*
X400902Y103895D01*
X400517Y103750D01*
X400115Y103627D01*
X399697Y103527D01*
X399262Y103449D01*
X398811Y103393D01*
X398343Y103360D01*
X397859Y103348D01*
G37*
G36*
X391745Y158360D02*
X391745Y160121D01*
X400434Y163536D01*
X402615Y164272D01*
X400434Y165008D01*
X391745Y168406D01*
X391745Y170167D01*
X404086Y165130D01*
X404086Y163396D01*
X391745Y158360D01*
G37*
G36*
X404086Y154968D02*
X391745Y154968D01*
X391745Y156641D01*
X404086Y156641D01*
X404086Y154968D01*
G37*
G36*
X516025Y18155D02*
X515558Y18167D01*
X515107Y18203D01*
X514673Y18263D01*
X514255Y18348D01*
X513853Y18456D01*
X513467Y18588D01*
X513098Y18745D01*
X512745Y18926D01*
X512410Y19129D01*
X512096Y19354D01*
X511802Y19600D01*
X511529Y19868D01*
X511276Y20158D01*
X511043Y20468D01*
X510830Y20801D01*
X510639Y21155D01*
X510468Y21527D01*
X510320Y21914D01*
X510196Y22317D01*
X510093Y22734D01*
X510014Y23167D01*
X509957Y23616D01*
X509923Y24079D01*
X509912Y24557D01*
X509918Y24922D01*
X509937Y25277D01*
X509969Y25622D01*
X510013Y25957D01*
X510070Y26281D01*
X510139Y26596D01*
X510222Y26900D01*
X510317Y27195D01*
X510424Y27479D01*
X510545Y27753D01*
X510677Y28017D01*
X510823Y28271D01*
X511152Y28749D01*
X511532Y29186D01*
X511957Y29577D01*
X512184Y29753D01*
X512421Y29916D01*
X512669Y30066D01*
X512926Y30203D01*
X513193Y30327D01*
X513470Y30438D01*
X513757Y30535D01*
X514053Y30620D01*
X514360Y30692D01*
X514677Y30750D01*
X515003Y30796D01*
X515340Y30829D01*
X515686Y30848D01*
X516043Y30855D01*
X516506Y30843D01*
X516953Y30808D01*
X517385Y30749D01*
X517801Y30668D01*
X518201Y30562D01*
X518586Y30434D01*
X518956Y30281D01*
X519309Y30106D01*
X519645Y29908D01*
X519961Y29689D01*
X520256Y29449D01*
X520530Y29187D01*
X520784Y28905D01*
X521018Y28601D01*
X521232Y28276D01*
X521425Y27929D01*
X521596Y27564D01*
X521745Y27183D01*
X521870Y26786D01*
X521973Y26373D01*
X522053Y25943D01*
X522110Y25497D01*
X522145Y25035D01*
X522156Y24557D01*
X522144Y24081D01*
X522110Y23620D01*
X522052Y23173D01*
X521971Y22742D01*
X521867Y22326D01*
X521740Y21925D01*
X521589Y21539D01*
X521416Y21168D01*
X521221Y20815D01*
X521006Y20483D01*
X520770Y20172D01*
X520515Y19882D01*
X520239Y19614D01*
X519944Y19366D01*
X519628Y19140D01*
X519292Y18934D01*
X518938Y18752D01*
X518569Y18593D01*
X518184Y18459D01*
X517783Y18350D01*
X517367Y18265D01*
X516935Y18204D01*
X516488Y18167D01*
X516025Y18155D01*
G37*
%LPC*%
G36*
X516025Y19512D02*
X516544Y19533D01*
X517031Y19595D01*
X517488Y19698D01*
X517914Y19842D01*
X518308Y20027D01*
X518671Y20254D01*
X519004Y20522D01*
X519305Y20831D01*
X519573Y21177D01*
X519805Y21558D01*
X520002Y21973D01*
X520162Y22421D01*
X520287Y22904D01*
X520377Y23421D01*
X520430Y23972D01*
X520448Y24557D01*
X520430Y25118D01*
X520376Y25647D01*
X520286Y26146D01*
X520160Y26613D01*
X519998Y27050D01*
X519800Y27456D01*
X519566Y27831D01*
X519296Y28175D01*
X518994Y28483D01*
X518661Y28749D01*
X518299Y28975D01*
X517907Y29160D01*
X517485Y29304D01*
X517034Y29406D01*
X516553Y29468D01*
X516043Y29488D01*
X515528Y29468D01*
X515043Y29407D01*
X514588Y29306D01*
X514164Y29164D01*
X513769Y28982D01*
X513405Y28759D01*
X513071Y28496D01*
X512767Y28192D01*
X512496Y27852D01*
X512261Y27479D01*
X512062Y27073D01*
X511900Y26635D01*
X511773Y26165D01*
X511683Y25661D01*
X511629Y25126D01*
X511611Y24557D01*
X511629Y23992D01*
X511684Y23457D01*
X511775Y22951D01*
X511903Y22476D01*
X512067Y22031D01*
X512268Y21615D01*
X512506Y21230D01*
X512780Y20874D01*
X513086Y20555D01*
X513421Y20279D01*
X513784Y20044D01*
X514176Y19853D01*
X514596Y19704D01*
X515044Y19598D01*
X515520Y19534D01*
X516025Y19512D01*
G37*
%LPD*%
G36*
X540619Y18155D02*
X540152Y18167D01*
X539701Y18203D01*
X539267Y18263D01*
X538848Y18348D01*
X538447Y18456D01*
X538061Y18588D01*
X537692Y18745D01*
X537339Y18926D01*
X537004Y19129D01*
X536690Y19354D01*
X536396Y19600D01*
X536122Y19868D01*
X535869Y20158D01*
X535637Y20468D01*
X535424Y20801D01*
X535232Y21155D01*
X535062Y21527D01*
X534914Y21914D01*
X534789Y22317D01*
X534687Y22734D01*
X534608Y23167D01*
X534551Y23616D01*
X534517Y24079D01*
X534505Y24557D01*
X534512Y24922D01*
X534531Y25277D01*
X534562Y25622D01*
X534607Y25957D01*
X534664Y26281D01*
X534733Y26596D01*
X534815Y26900D01*
X534910Y27195D01*
X535018Y27479D01*
X535138Y27753D01*
X535271Y28017D01*
X535417Y28271D01*
X535746Y28749D01*
X536126Y29186D01*
X536551Y29577D01*
X536778Y29753D01*
X537015Y29916D01*
X537262Y30066D01*
X537519Y30203D01*
X537787Y30327D01*
X538063Y30438D01*
X538350Y30535D01*
X538647Y30620D01*
X538954Y30692D01*
X539271Y30750D01*
X539597Y30796D01*
X539934Y30829D01*
X540280Y30848D01*
X540636Y30855D01*
X541099Y30843D01*
X541547Y30808D01*
X541978Y30749D01*
X542395Y30668D01*
X542795Y30562D01*
X543180Y30434D01*
X543549Y30281D01*
X543903Y30106D01*
X544239Y29908D01*
X544554Y29689D01*
X544849Y29449D01*
X545124Y29187D01*
X545378Y28905D01*
X545612Y28601D01*
X545825Y28276D01*
X546018Y27929D01*
X546190Y27564D01*
X546338Y27183D01*
X546464Y26786D01*
X546567Y26373D01*
X546647Y25943D01*
X546704Y25497D01*
X546738Y25035D01*
X546750Y24557D01*
X546738Y24081D01*
X546704Y23620D01*
X546646Y23173D01*
X546565Y22742D01*
X546461Y22326D01*
X546333Y21925D01*
X546183Y21539D01*
X546010Y21168D01*
X545815Y20815D01*
X545599Y20483D01*
X545364Y20172D01*
X545109Y19882D01*
X544833Y19614D01*
X544537Y19366D01*
X544222Y19140D01*
X543886Y18934D01*
X543532Y18752D01*
X543163Y18593D01*
X542778Y18459D01*
X542377Y18350D01*
X541961Y18265D01*
X541529Y18204D01*
X541082Y18167D01*
X540619Y18155D01*
G37*
%LPC*%
G36*
X540619Y19512D02*
X541138Y19533D01*
X541625Y19595D01*
X542082Y19698D01*
X542507Y19842D01*
X542902Y20027D01*
X543265Y20254D01*
X543598Y20522D01*
X543899Y20831D01*
X544167Y21177D01*
X544399Y21558D01*
X544595Y21973D01*
X544756Y22421D01*
X544881Y22904D01*
X544970Y23421D01*
X545024Y23972D01*
X545042Y24557D01*
X545024Y25118D01*
X544970Y25647D01*
X544880Y26146D01*
X544754Y26613D01*
X544592Y27050D01*
X544394Y27456D01*
X544160Y27831D01*
X543890Y28175D01*
X543587Y28483D01*
X543255Y28749D01*
X542893Y28975D01*
X542501Y29160D01*
X542079Y29304D01*
X541628Y29406D01*
X541147Y29468D01*
X540636Y29488D01*
X540121Y29468D01*
X539637Y29407D01*
X539182Y29306D01*
X538758Y29164D01*
X538363Y28982D01*
X537999Y28759D01*
X537665Y28496D01*
X537361Y28192D01*
X537090Y27852D01*
X536855Y27479D01*
X536656Y27073D01*
X536494Y26635D01*
X536367Y26165D01*
X536277Y25661D01*
X536223Y25126D01*
X536204Y24557D01*
X536223Y23992D01*
X536278Y23457D01*
X536369Y22951D01*
X536497Y22476D01*
X536661Y22031D01*
X536862Y21615D01*
X537100Y21230D01*
X537374Y20874D01*
X537680Y20555D01*
X538015Y20279D01*
X538378Y20044D01*
X538770Y19853D01*
X539189Y19704D01*
X539638Y19598D01*
X540114Y19534D01*
X540619Y19512D01*
G37*
%LPD*%
G36*
X447394Y18330D02*
X445721Y18330D01*
X445721Y30671D01*
X451528Y30671D01*
X452034Y30656D01*
X452511Y30613D01*
X452958Y30540D01*
X453375Y30438D01*
X453762Y30306D01*
X454120Y30146D01*
X454448Y29957D01*
X454747Y29738D01*
X455012Y29493D01*
X455243Y29226D01*
X455438Y28936D01*
X455597Y28622D01*
X455721Y28286D01*
X455810Y27927D01*
X455863Y27546D01*
X455881Y27141D01*
X455868Y26804D01*
X455831Y26481D01*
X455768Y26171D01*
X455680Y25876D01*
X455568Y25593D01*
X455430Y25325D01*
X455267Y25070D01*
X455079Y24829D01*
X454870Y24605D01*
X454641Y24404D01*
X454393Y24223D01*
X454282Y24157D01*
X454126Y24065D01*
X453840Y23928D01*
X453535Y23812D01*
X453211Y23719D01*
X452868Y23646D01*
X454359Y21383D01*
X456371Y18330D01*
X454444Y18330D01*
X451239Y23454D01*
X447394Y23454D01*
X447394Y18330D01*
G37*
%LPC*%
G36*
X451432Y24776D02*
X451753Y24786D01*
X452055Y24815D01*
X452339Y24863D01*
X452604Y24931D01*
X452850Y25018D01*
X453078Y25124D01*
X453287Y25249D01*
X453477Y25394D01*
X453646Y25556D01*
X453793Y25733D01*
X453917Y25926D01*
X454019Y26135D01*
X454098Y26359D01*
X454154Y26598D01*
X454188Y26853D01*
X454199Y27124D01*
X454188Y27385D01*
X454153Y27630D01*
X454096Y27860D01*
X454016Y28073D01*
X453914Y28270D01*
X453788Y28451D01*
X453639Y28617D01*
X453468Y28766D01*
X453275Y28898D01*
X453062Y29013D01*
X452829Y29110D01*
X452576Y29190D01*
X452302Y29251D01*
X452009Y29295D01*
X451695Y29322D01*
X451361Y29331D01*
X447394Y29331D01*
X447394Y24776D01*
X451432Y24776D01*
G37*
%LPD*%
G36*
X550738Y18330D02*
X549065Y18330D01*
X549065Y30671D01*
X554872Y30671D01*
X555378Y30656D01*
X555854Y30613D01*
X556301Y30540D01*
X556719Y30438D01*
X557106Y30306D01*
X557464Y30146D01*
X557792Y29957D01*
X558090Y29738D01*
X558356Y29493D01*
X558587Y29226D01*
X558782Y28936D01*
X558941Y28622D01*
X559065Y28286D01*
X559154Y27927D01*
X559207Y27546D01*
X559225Y27141D01*
X559212Y26804D01*
X559175Y26481D01*
X559112Y26171D01*
X559024Y25876D01*
X558912Y25593D01*
X558774Y25325D01*
X558611Y25070D01*
X558423Y24829D01*
X558213Y24605D01*
X557984Y24404D01*
X557737Y24223D01*
X557626Y24157D01*
X557470Y24065D01*
X557184Y23928D01*
X556879Y23812D01*
X556555Y23719D01*
X556212Y23646D01*
X557703Y21383D01*
X559715Y18330D01*
X557788Y18330D01*
X554583Y23454D01*
X550738Y23454D01*
X550738Y18330D01*
G37*
%LPC*%
G36*
X554775Y24776D02*
X555097Y24786D01*
X555399Y24815D01*
X555683Y24863D01*
X555948Y24931D01*
X556194Y25018D01*
X556422Y25124D01*
X556630Y25249D01*
X556820Y25394D01*
X556990Y25556D01*
X557137Y25733D01*
X557261Y25926D01*
X557362Y26135D01*
X557441Y26359D01*
X557498Y26598D01*
X557532Y26853D01*
X557543Y27124D01*
X557532Y27385D01*
X557497Y27630D01*
X557440Y27860D01*
X557360Y28073D01*
X557257Y28270D01*
X557132Y28451D01*
X556983Y28617D01*
X556812Y28766D01*
X556619Y28898D01*
X556406Y29013D01*
X556173Y29110D01*
X555919Y29190D01*
X555646Y29251D01*
X555352Y29295D01*
X555039Y29322D01*
X554705Y29331D01*
X550738Y29331D01*
X550738Y24776D01*
X554775Y24776D01*
G37*
%LPD*%
G36*
X497085Y18330D02*
X495596Y18330D01*
X495596Y30671D01*
X497794Y30671D01*
X501079Y22114D01*
X501251Y21578D01*
X501416Y21006D01*
X501631Y20152D01*
X501739Y20593D01*
X501924Y21216D01*
X502111Y21797D01*
X502226Y22114D01*
X505449Y30671D01*
X507595Y30671D01*
X507595Y18330D01*
X506089Y18330D01*
X506089Y26563D01*
X506108Y27903D01*
X506167Y29191D01*
X505760Y27794D01*
X505573Y27223D01*
X505397Y26738D01*
X502209Y18330D01*
X501035Y18330D01*
X497803Y26738D01*
X497313Y28227D01*
X497024Y29191D01*
X497050Y28218D01*
X497085Y26563D01*
X497085Y18330D01*
G37*
G36*
X458987Y18330D02*
X457253Y18330D01*
X462289Y30671D01*
X464190Y30671D01*
X469147Y18330D01*
X467439Y18330D01*
X466029Y21939D01*
X460406Y21939D01*
X458987Y18330D01*
G37*
%LPC*%
G36*
X465530Y23244D02*
X463945Y27316D01*
X463700Y27960D01*
X463454Y28683D01*
X463218Y29410D01*
X463139Y29164D01*
X462868Y28334D01*
X462491Y27299D01*
X460914Y23244D01*
X465530Y23244D01*
G37*
%LPD*%
G36*
X485300Y18330D02*
X483627Y18330D01*
X483627Y30671D01*
X485300Y30671D01*
X485300Y24487D01*
X491247Y30671D01*
X493218Y30671D01*
X487963Y25311D01*
X493918Y18330D01*
X491843Y18330D01*
X486912Y24286D01*
X485300Y23060D01*
X485300Y18330D01*
G37*
G36*
X476115Y18155D02*
X475656Y18167D01*
X475214Y18203D01*
X474787Y18264D01*
X474375Y18349D01*
X473980Y18458D01*
X473600Y18591D01*
X473236Y18748D01*
X472887Y18930D01*
X472557Y19134D01*
X472247Y19359D01*
X471957Y19605D01*
X471688Y19872D01*
X471438Y20159D01*
X471209Y20467D01*
X471000Y20796D01*
X470812Y21146D01*
X470644Y21514D01*
X470499Y21899D01*
X470377Y22301D01*
X470276Y22719D01*
X470198Y23154D01*
X470143Y23605D01*
X470109Y24073D01*
X470098Y24557D01*
X470104Y24921D01*
X470123Y25275D01*
X470154Y25619D01*
X470198Y25953D01*
X470254Y26277D01*
X470322Y26591D01*
X470403Y26895D01*
X470496Y27189D01*
X470602Y27473D01*
X470721Y27747D01*
X470995Y28266D01*
X471318Y28744D01*
X471692Y29182D01*
X472110Y29574D01*
X472566Y29914D01*
X472808Y30064D01*
X473060Y30201D01*
X473321Y30325D01*
X473593Y30437D01*
X473873Y30535D01*
X474163Y30620D01*
X474463Y30691D01*
X474773Y30750D01*
X475092Y30796D01*
X475420Y30829D01*
X475759Y30848D01*
X476106Y30855D01*
X476589Y30843D01*
X477051Y30807D01*
X477493Y30746D01*
X477915Y30662D01*
X478316Y30554D01*
X478698Y30421D01*
X479059Y30265D01*
X479399Y30084D01*
X479719Y29880D01*
X480017Y29652D01*
X480293Y29401D01*
X480547Y29127D01*
X480779Y28830D01*
X480989Y28509D01*
X481177Y28165D01*
X481344Y27798D01*
X479759Y27273D01*
X479643Y27534D01*
X479511Y27779D01*
X479363Y28009D01*
X479199Y28223D01*
X479019Y28421D01*
X478822Y28603D01*
X478609Y28769D01*
X478379Y28919D01*
X478136Y29053D01*
X477882Y29168D01*
X477616Y29266D01*
X477340Y29346D01*
X477053Y29408D01*
X476754Y29453D01*
X476444Y29480D01*
X476124Y29488D01*
X475626Y29468D01*
X475156Y29406D01*
X474715Y29303D01*
X474302Y29159D01*
X473918Y28974D01*
X473562Y28747D01*
X473235Y28479D01*
X472936Y28170D01*
X472669Y27825D01*
X472438Y27450D01*
X472242Y27044D01*
X472082Y26608D01*
X471957Y26141D01*
X471868Y25644D01*
X471815Y25116D01*
X471797Y24557D01*
X471816Y24004D01*
X471871Y23479D01*
X471964Y22981D01*
X472094Y22511D01*
X472261Y22069D01*
X472465Y21655D01*
X472706Y21268D01*
X472984Y20909D01*
X473294Y20586D01*
X473629Y20306D01*
X473992Y20069D01*
X474380Y19875D01*
X474794Y19724D01*
X475235Y19616D01*
X475701Y19552D01*
X476194Y19530D01*
X476513Y19540D01*
X476822Y19570D01*
X477121Y19620D01*
X477410Y19690D01*
X477688Y19781D01*
X477957Y19891D01*
X478216Y20021D01*
X478464Y20172D01*
X478703Y20342D01*
X478932Y20532D01*
X479150Y20743D01*
X479358Y20973D01*
X479557Y21224D01*
X479745Y21495D01*
X479923Y21785D01*
X480091Y22096D01*
X481458Y21413D01*
X481258Y21026D01*
X481038Y20664D01*
X480799Y20325D01*
X480541Y20009D01*
X480264Y19718D01*
X479967Y19451D01*
X479651Y19207D01*
X479316Y18987D01*
X478964Y18792D01*
X478599Y18623D01*
X478219Y18480D01*
X477826Y18363D01*
X477419Y18272D01*
X476998Y18207D01*
X476564Y18168D01*
X476115Y18155D01*
G37*
G36*
X529306Y18330D02*
X527642Y18330D01*
X527642Y29304D01*
X523402Y29304D01*
X523402Y30671D01*
X533545Y30671D01*
X533545Y29304D01*
X529306Y29304D01*
X529306Y18330D01*
G37*
G36*
X525712Y244609D02*
X513371Y244609D01*
X513371Y250416D01*
X513386Y250923D01*
X513430Y251399D01*
X513502Y251846D01*
X513604Y252263D01*
X513736Y252651D01*
X513896Y253009D01*
X514085Y253337D01*
X514304Y253635D01*
X514549Y253901D01*
X514816Y254131D01*
X515106Y254326D01*
X515420Y254486D01*
X515756Y254610D01*
X516115Y254698D01*
X516496Y254752D01*
X516901Y254769D01*
X517238Y254757D01*
X517561Y254719D01*
X517871Y254657D01*
X518167Y254569D01*
X518449Y254456D01*
X518717Y254319D01*
X518972Y254156D01*
X519213Y253968D01*
X519437Y253758D01*
X519639Y253529D01*
X519819Y253281D01*
X519885Y253170D01*
X519977Y253014D01*
X520114Y252728D01*
X520230Y252423D01*
X520323Y252099D01*
X520396Y251756D01*
X522659Y253248D01*
X525712Y255260D01*
X525712Y253333D01*
X520588Y250127D01*
X520588Y246282D01*
X525712Y246282D01*
X525712Y244609D01*
G37*
%LPC*%
G36*
X519266Y246282D02*
X519266Y250320D01*
X519256Y250641D01*
X519227Y250944D01*
X519179Y251228D01*
X519111Y251493D01*
X519025Y251739D01*
X518918Y251966D01*
X518793Y252175D01*
X518648Y252365D01*
X518486Y252534D01*
X518309Y252681D01*
X518116Y252805D01*
X517907Y252907D01*
X517683Y252986D01*
X517444Y253043D01*
X517189Y253076D01*
X516918Y253088D01*
X516657Y253076D01*
X516412Y253042D01*
X516183Y252985D01*
X515969Y252905D01*
X515772Y252802D01*
X515591Y252676D01*
X515425Y252528D01*
X515276Y252356D01*
X515144Y252163D01*
X515029Y251950D01*
X514932Y251717D01*
X514853Y251464D01*
X514791Y251191D01*
X514747Y250897D01*
X514720Y250584D01*
X514711Y250250D01*
X514711Y246282D01*
X519266Y246282D01*
G37*
%LPD*%
G36*
X525712Y294484D02*
X513371Y294484D01*
X513371Y296683D01*
X521928Y299967D01*
X522464Y300139D01*
X523036Y300304D01*
X523890Y300519D01*
X523449Y300627D01*
X522826Y300812D01*
X522245Y301000D01*
X521928Y301115D01*
X513371Y304338D01*
X513371Y306484D01*
X525712Y306484D01*
X525712Y304977D01*
X517479Y304977D01*
X516139Y304997D01*
X514851Y305056D01*
X516248Y304649D01*
X516819Y304462D01*
X517304Y304285D01*
X525712Y301097D01*
X525712Y299923D01*
X517304Y296692D01*
X515815Y296201D01*
X514851Y295912D01*
X515824Y295938D01*
X517479Y295973D01*
X525712Y295973D01*
X525712Y294484D01*
G37*
G36*
X525712Y256142D02*
X513371Y261178D01*
X513371Y263079D01*
X525712Y268036D01*
X525712Y266328D01*
X522104Y264918D01*
X522104Y259295D01*
X525712Y257876D01*
X525712Y256142D01*
G37*
%LPC*%
G36*
X520798Y259803D02*
X520798Y264419D01*
X516726Y262833D01*
X516082Y262588D01*
X515359Y262343D01*
X514632Y262106D01*
X514878Y262028D01*
X515708Y261756D01*
X516743Y261379D01*
X520798Y259803D01*
G37*
%LPD*%
G36*
X522752Y308765D02*
X522428Y310385D01*
X522696Y310465D01*
X522947Y310565D01*
X523179Y310684D01*
X523392Y310823D01*
X523587Y310982D01*
X523764Y311161D01*
X523922Y311359D01*
X524061Y311577D01*
X524183Y311815D01*
X524289Y312073D01*
X524379Y312352D01*
X524452Y312652D01*
X524509Y312972D01*
X524550Y313312D01*
X524574Y313674D01*
X524582Y314055D01*
X524573Y314449D01*
X524547Y314819D01*
X524504Y315166D01*
X524443Y315491D01*
X524365Y315792D01*
X524269Y316069D01*
X524156Y316324D01*
X524026Y316556D01*
X523879Y316762D01*
X523715Y316941D01*
X523536Y317092D01*
X523340Y317216D01*
X523127Y317312D01*
X522899Y317381D01*
X522654Y317422D01*
X522393Y317436D01*
X522105Y317419D01*
X521845Y317367D01*
X521614Y317281D01*
X521412Y317160D01*
X521231Y317008D01*
X521068Y316828D01*
X520921Y316621D01*
X520790Y316385D01*
X520672Y316123D01*
X520564Y315838D01*
X520466Y315528D01*
X520378Y315194D01*
X520019Y313661D01*
X519857Y312974D01*
X519695Y312375D01*
X519533Y311864D01*
X519371Y311441D01*
X519204Y311082D01*
X519028Y310763D01*
X518843Y310484D01*
X518648Y310245D01*
X518441Y310039D01*
X518216Y309859D01*
X517974Y309704D01*
X517715Y309575D01*
X517438Y309474D01*
X517142Y309401D01*
X516825Y309358D01*
X516489Y309343D01*
X516104Y309362D01*
X515742Y309419D01*
X515403Y309514D01*
X515086Y309646D01*
X514792Y309817D01*
X514520Y310025D01*
X514272Y310272D01*
X514046Y310556D01*
X513844Y310876D01*
X513670Y311228D01*
X513523Y311613D01*
X513402Y312031D01*
X513308Y312481D01*
X513241Y312964D01*
X513201Y313480D01*
X513187Y314029D01*
X513197Y314539D01*
X513228Y315018D01*
X513278Y315466D01*
X513348Y315884D01*
X513439Y316270D01*
X513549Y316625D01*
X513680Y316950D01*
X513831Y317243D01*
X514006Y317511D01*
X514210Y317758D01*
X514441Y317984D01*
X514701Y318189D01*
X514990Y318374D01*
X515307Y318537D01*
X515652Y318680D01*
X516025Y318802D01*
X516314Y317156D01*
X516077Y317080D01*
X515857Y316989D01*
X515654Y316883D01*
X515468Y316762D01*
X515298Y316625D01*
X515146Y316473D01*
X515010Y316305D01*
X514891Y316122D01*
X514787Y315923D01*
X514697Y315705D01*
X514621Y315468D01*
X514559Y315214D01*
X514511Y314941D01*
X514476Y314649D01*
X514455Y314339D01*
X514449Y314011D01*
X514456Y313652D01*
X514479Y313315D01*
X514518Y313000D01*
X514571Y312706D01*
X514640Y312435D01*
X514724Y312185D01*
X514824Y311958D01*
X514939Y311752D01*
X515069Y311569D01*
X515214Y311411D01*
X515375Y311277D01*
X515550Y311167D01*
X515740Y311082D01*
X515946Y311021D01*
X516166Y310984D01*
X516402Y310972D01*
X516674Y310991D01*
X516922Y311048D01*
X517145Y311142D01*
X517343Y311274D01*
X517522Y311442D01*
X517687Y311643D01*
X517838Y311878D01*
X517974Y312146D01*
X518110Y312501D01*
X518262Y312998D01*
X518428Y313635D01*
X518609Y314414D01*
X518876Y315549D01*
X519025Y316101D01*
X519200Y316630D01*
X519405Y317131D01*
X519642Y317598D01*
X519776Y317816D01*
X519925Y318020D01*
X520087Y318208D01*
X520264Y318382D01*
X520456Y318539D01*
X520665Y318679D01*
X520890Y318800D01*
X521131Y318903D01*
X521392Y318985D01*
X521674Y319044D01*
X521979Y319080D01*
X522305Y319091D01*
X522720Y319070D01*
X523111Y319008D01*
X523478Y318904D01*
X523820Y318757D01*
X524139Y318570D01*
X524433Y318340D01*
X524704Y318069D01*
X524950Y317756D01*
X525170Y317405D01*
X525360Y317020D01*
X525521Y316601D01*
X525653Y316147D01*
X525755Y315660D01*
X525829Y315139D01*
X525873Y314583D01*
X525887Y313994D01*
X525875Y313445D01*
X525838Y312925D01*
X525777Y312436D01*
X525691Y311976D01*
X525581Y311545D01*
X525446Y311144D01*
X525287Y310773D01*
X525103Y310431D01*
X524895Y310119D01*
X524662Y309837D01*
X524405Y309584D01*
X524123Y309361D01*
X523817Y309168D01*
X523487Y309004D01*
X523131Y308870D01*
X522752Y308765D01*
G37*
G36*
X525712Y282516D02*
X513371Y282516D01*
X513371Y284189D01*
X519555Y284189D01*
X513371Y290136D01*
X513371Y292106D01*
X518731Y286851D01*
X525712Y292807D01*
X525712Y290731D01*
X519756Y285800D01*
X520982Y284189D01*
X525712Y284189D01*
X525712Y282516D01*
G37*
G36*
X519485Y268986D02*
X519121Y268993D01*
X518767Y269011D01*
X518423Y269042D01*
X518089Y269086D01*
X517765Y269142D01*
X517451Y269211D01*
X517147Y269292D01*
X516853Y269385D01*
X516569Y269491D01*
X516295Y269609D01*
X515777Y269883D01*
X515298Y270207D01*
X514860Y270580D01*
X514468Y270998D01*
X514128Y271454D01*
X513978Y271696D01*
X513841Y271948D01*
X513717Y272210D01*
X513606Y272481D01*
X513508Y272762D01*
X513423Y273052D01*
X513351Y273352D01*
X513292Y273661D01*
X513246Y273980D01*
X513213Y274309D01*
X513194Y274647D01*
X513187Y274995D01*
X513199Y275477D01*
X513235Y275940D01*
X513296Y276382D01*
X513380Y276803D01*
X513488Y277205D01*
X513621Y277586D01*
X513777Y277947D01*
X513958Y278288D01*
X514162Y278608D01*
X514390Y278905D01*
X514641Y279181D01*
X514915Y279435D01*
X515212Y279667D01*
X515533Y279878D01*
X515877Y280066D01*
X516244Y280232D01*
X516770Y278647D01*
X516508Y278532D01*
X516263Y278400D01*
X516033Y278252D01*
X515819Y278088D01*
X515621Y277907D01*
X515439Y277710D01*
X515273Y277497D01*
X515123Y277268D01*
X514990Y277024D01*
X514874Y276770D01*
X514776Y276505D01*
X514696Y276229D01*
X514634Y275941D01*
X514589Y275643D01*
X514563Y275333D01*
X514554Y275012D01*
X514574Y274514D01*
X514636Y274044D01*
X514739Y273603D01*
X514883Y273190D01*
X515069Y272806D01*
X515295Y272450D01*
X515563Y272123D01*
X515872Y271824D01*
X516217Y271557D01*
X516592Y271326D01*
X516998Y271130D01*
X517434Y270970D01*
X517901Y270846D01*
X518398Y270757D01*
X518926Y270703D01*
X519485Y270686D01*
X520038Y270704D01*
X520563Y270760D01*
X521061Y270852D01*
X521531Y270982D01*
X521973Y271149D01*
X522387Y271353D01*
X522774Y271594D01*
X523133Y271872D01*
X523456Y272182D01*
X523736Y272518D01*
X523973Y272880D01*
X524167Y273268D01*
X524318Y273683D01*
X524426Y274123D01*
X524491Y274590D01*
X524512Y275082D01*
X524502Y275401D01*
X524472Y275710D01*
X524422Y276009D01*
X524352Y276298D01*
X524261Y276577D01*
X524151Y276846D01*
X524021Y277104D01*
X523871Y277353D01*
X523700Y277592D01*
X523510Y277820D01*
X523299Y278039D01*
X523069Y278247D01*
X522818Y278445D01*
X522547Y278634D01*
X522257Y278812D01*
X521946Y278980D01*
X522629Y280346D01*
X523016Y280146D01*
X523378Y279927D01*
X523717Y279688D01*
X524033Y279430D01*
X524324Y279153D01*
X524591Y278856D01*
X524835Y278540D01*
X525055Y278205D01*
X525250Y277853D01*
X525419Y277487D01*
X525562Y277108D01*
X525679Y276715D01*
X525770Y276308D01*
X525835Y275887D01*
X525874Y275452D01*
X525887Y275004D01*
X525875Y274545D01*
X525839Y274102D01*
X525778Y273675D01*
X525693Y273264D01*
X525584Y272868D01*
X525451Y272488D01*
X525294Y272124D01*
X525112Y271776D01*
X524908Y271446D01*
X524683Y271136D01*
X524437Y270846D01*
X524171Y270576D01*
X523883Y270327D01*
X523575Y270098D01*
X523246Y269889D01*
X522896Y269700D01*
X522528Y269533D01*
X522143Y269388D01*
X521741Y269265D01*
X521323Y269165D01*
X520888Y269087D01*
X520437Y269031D01*
X519969Y268998D01*
X519485Y268986D01*
G37*
G36*
X525712Y321286D02*
X524372Y321286D01*
X524372Y324430D01*
X514878Y324430D01*
X516866Y321645D01*
X515377Y321645D01*
X513371Y324561D01*
X513371Y326015D01*
X524372Y326015D01*
X524372Y329019D01*
X525712Y329019D01*
X525712Y321286D01*
G37*
G36*
X467712Y256609D02*
X455371Y256609D01*
X455371Y262416D01*
X455386Y262923D01*
X455430Y263399D01*
X455502Y263846D01*
X455604Y264263D01*
X455736Y264651D01*
X455896Y265009D01*
X456085Y265337D01*
X456304Y265635D01*
X456549Y265901D01*
X456816Y266131D01*
X457106Y266326D01*
X457420Y266486D01*
X457756Y266610D01*
X458115Y266698D01*
X458496Y266752D01*
X458901Y266769D01*
X459238Y266757D01*
X459561Y266719D01*
X459871Y266657D01*
X460167Y266569D01*
X460449Y266456D01*
X460717Y266319D01*
X460972Y266156D01*
X461213Y265968D01*
X461437Y265758D01*
X461639Y265529D01*
X461819Y265281D01*
X461885Y265170D01*
X461977Y265014D01*
X462114Y264728D01*
X462230Y264423D01*
X462323Y264099D01*
X462396Y263756D01*
X464659Y265248D01*
X467712Y267260D01*
X467712Y265333D01*
X462588Y262127D01*
X462588Y258282D01*
X467712Y258282D01*
X467712Y256609D01*
G37*
%LPC*%
G36*
X461266Y258282D02*
X461266Y262320D01*
X461256Y262641D01*
X461227Y262944D01*
X461179Y263228D01*
X461111Y263493D01*
X461025Y263739D01*
X460918Y263966D01*
X460793Y264175D01*
X460648Y264365D01*
X460486Y264534D01*
X460309Y264681D01*
X460116Y264805D01*
X459907Y264907D01*
X459683Y264986D01*
X459444Y265043D01*
X459189Y265076D01*
X458918Y265088D01*
X458657Y265076D01*
X458412Y265042D01*
X458183Y264985D01*
X457969Y264905D01*
X457772Y264802D01*
X457591Y264676D01*
X457425Y264528D01*
X457276Y264356D01*
X457144Y264163D01*
X457029Y263950D01*
X456932Y263717D01*
X456853Y263464D01*
X456791Y263191D01*
X456747Y262897D01*
X456720Y262584D01*
X456711Y262250D01*
X456711Y258282D01*
X461266Y258282D01*
G37*
%LPD*%
G36*
X467712Y306484D02*
X455371Y306484D01*
X455371Y308683D01*
X463928Y311967D01*
X464464Y312139D01*
X465036Y312304D01*
X465890Y312519D01*
X465449Y312627D01*
X464826Y312812D01*
X464245Y313000D01*
X463928Y313115D01*
X455371Y316338D01*
X455371Y318484D01*
X467712Y318484D01*
X467712Y316977D01*
X459479Y316977D01*
X458139Y316997D01*
X456851Y317056D01*
X458248Y316649D01*
X458819Y316462D01*
X459304Y316285D01*
X467712Y313097D01*
X467712Y311923D01*
X459304Y308692D01*
X457815Y308201D01*
X456851Y307912D01*
X457824Y307938D01*
X459479Y307973D01*
X467712Y307973D01*
X467712Y306484D01*
G37*
G36*
X467712Y268142D02*
X455371Y273178D01*
X455371Y275079D01*
X467712Y280036D01*
X467712Y278328D01*
X464104Y276918D01*
X464104Y271295D01*
X467712Y269876D01*
X467712Y268142D01*
G37*
%LPC*%
G36*
X462798Y271803D02*
X462798Y276419D01*
X458726Y274833D01*
X458082Y274588D01*
X457359Y274343D01*
X456632Y274106D01*
X456878Y274028D01*
X457708Y273756D01*
X458743Y273379D01*
X462798Y271803D01*
G37*
%LPD*%
G36*
X464752Y320765D02*
X464428Y322385D01*
X464696Y322465D01*
X464947Y322565D01*
X465179Y322684D01*
X465392Y322823D01*
X465587Y322982D01*
X465764Y323161D01*
X465922Y323359D01*
X466061Y323577D01*
X466183Y323815D01*
X466289Y324073D01*
X466379Y324352D01*
X466452Y324652D01*
X466509Y324972D01*
X466550Y325312D01*
X466574Y325674D01*
X466582Y326055D01*
X466573Y326449D01*
X466547Y326819D01*
X466504Y327166D01*
X466443Y327491D01*
X466365Y327792D01*
X466269Y328069D01*
X466156Y328324D01*
X466026Y328556D01*
X465879Y328762D01*
X465715Y328941D01*
X465536Y329092D01*
X465340Y329216D01*
X465127Y329312D01*
X464899Y329381D01*
X464654Y329422D01*
X464393Y329436D01*
X464105Y329419D01*
X463845Y329367D01*
X463614Y329281D01*
X463412Y329160D01*
X463231Y329008D01*
X463068Y328828D01*
X462921Y328621D01*
X462790Y328385D01*
X462672Y328123D01*
X462564Y327838D01*
X462466Y327528D01*
X462378Y327194D01*
X462019Y325661D01*
X461857Y324974D01*
X461695Y324375D01*
X461533Y323864D01*
X461371Y323441D01*
X461204Y323082D01*
X461028Y322763D01*
X460843Y322484D01*
X460648Y322245D01*
X460441Y322039D01*
X460216Y321859D01*
X459974Y321704D01*
X459715Y321575D01*
X459438Y321474D01*
X459142Y321401D01*
X458825Y321358D01*
X458489Y321343D01*
X458104Y321362D01*
X457742Y321419D01*
X457403Y321514D01*
X457086Y321646D01*
X456792Y321817D01*
X456520Y322025D01*
X456272Y322272D01*
X456046Y322556D01*
X455844Y322876D01*
X455670Y323228D01*
X455523Y323613D01*
X455402Y324031D01*
X455308Y324481D01*
X455241Y324964D01*
X455201Y325480D01*
X455187Y326029D01*
X455197Y326539D01*
X455228Y327018D01*
X455278Y327466D01*
X455348Y327884D01*
X455439Y328270D01*
X455549Y328625D01*
X455680Y328950D01*
X455831Y329243D01*
X456006Y329511D01*
X456210Y329758D01*
X456441Y329984D01*
X456701Y330189D01*
X456990Y330374D01*
X457307Y330537D01*
X457652Y330680D01*
X458025Y330802D01*
X458314Y329156D01*
X458077Y329080D01*
X457857Y328989D01*
X457654Y328883D01*
X457468Y328762D01*
X457298Y328625D01*
X457146Y328473D01*
X457010Y328305D01*
X456891Y328122D01*
X456787Y327923D01*
X456697Y327705D01*
X456621Y327468D01*
X456559Y327214D01*
X456511Y326941D01*
X456476Y326649D01*
X456455Y326339D01*
X456449Y326011D01*
X456456Y325652D01*
X456479Y325315D01*
X456518Y325000D01*
X456571Y324706D01*
X456640Y324435D01*
X456724Y324185D01*
X456824Y323958D01*
X456939Y323752D01*
X457069Y323569D01*
X457214Y323411D01*
X457375Y323277D01*
X457550Y323167D01*
X457740Y323082D01*
X457946Y323021D01*
X458166Y322984D01*
X458402Y322972D01*
X458674Y322991D01*
X458922Y323048D01*
X459145Y323142D01*
X459343Y323274D01*
X459522Y323442D01*
X459687Y323643D01*
X459838Y323878D01*
X459974Y324146D01*
X460110Y324501D01*
X460262Y324998D01*
X460428Y325635D01*
X460609Y326414D01*
X460876Y327549D01*
X461025Y328101D01*
X461200Y328630D01*
X461405Y329131D01*
X461642Y329598D01*
X461776Y329816D01*
X461925Y330020D01*
X462087Y330208D01*
X462264Y330382D01*
X462456Y330539D01*
X462665Y330679D01*
X462890Y330800D01*
X463131Y330903D01*
X463392Y330985D01*
X463674Y331044D01*
X463979Y331080D01*
X464305Y331091D01*
X464720Y331070D01*
X465111Y331008D01*
X465478Y330904D01*
X465820Y330757D01*
X466139Y330570D01*
X466433Y330340D01*
X466704Y330069D01*
X466950Y329756D01*
X467170Y329405D01*
X467360Y329020D01*
X467521Y328601D01*
X467653Y328147D01*
X467755Y327660D01*
X467829Y327139D01*
X467873Y326583D01*
X467887Y325994D01*
X467875Y325445D01*
X467838Y324925D01*
X467777Y324436D01*
X467691Y323976D01*
X467581Y323545D01*
X467446Y323144D01*
X467287Y322773D01*
X467103Y322431D01*
X466895Y322119D01*
X466662Y321837D01*
X466405Y321584D01*
X466123Y321361D01*
X465817Y321168D01*
X465487Y321004D01*
X465131Y320870D01*
X464752Y320765D01*
G37*
G36*
X467712Y294516D02*
X455371Y294516D01*
X455371Y296189D01*
X461555Y296189D01*
X455371Y302136D01*
X455371Y304106D01*
X460731Y298851D01*
X467712Y304807D01*
X467712Y302731D01*
X461756Y297800D01*
X462982Y296189D01*
X467712Y296189D01*
X467712Y294516D01*
G37*
G36*
X461485Y280986D02*
X461121Y280993D01*
X460767Y281011D01*
X460423Y281042D01*
X460089Y281086D01*
X459765Y281142D01*
X459451Y281211D01*
X459147Y281292D01*
X458853Y281385D01*
X458569Y281491D01*
X458295Y281609D01*
X457777Y281883D01*
X457298Y282207D01*
X456860Y282580D01*
X456468Y282998D01*
X456128Y283454D01*
X455978Y283696D01*
X455841Y283948D01*
X455717Y284210D01*
X455606Y284481D01*
X455508Y284762D01*
X455423Y285052D01*
X455351Y285352D01*
X455292Y285661D01*
X455246Y285980D01*
X455213Y286309D01*
X455194Y286647D01*
X455187Y286995D01*
X455199Y287477D01*
X455235Y287940D01*
X455296Y288382D01*
X455380Y288803D01*
X455488Y289205D01*
X455621Y289586D01*
X455777Y289947D01*
X455958Y290288D01*
X456162Y290608D01*
X456390Y290905D01*
X456641Y291181D01*
X456915Y291435D01*
X457212Y291667D01*
X457533Y291878D01*
X457877Y292066D01*
X458244Y292232D01*
X458770Y290647D01*
X458508Y290532D01*
X458263Y290400D01*
X458033Y290252D01*
X457819Y290088D01*
X457621Y289907D01*
X457439Y289710D01*
X457273Y289497D01*
X457123Y289268D01*
X456990Y289024D01*
X456874Y288770D01*
X456776Y288505D01*
X456696Y288229D01*
X456634Y287941D01*
X456589Y287643D01*
X456563Y287333D01*
X456554Y287012D01*
X456574Y286514D01*
X456636Y286044D01*
X456739Y285603D01*
X456883Y285190D01*
X457069Y284806D01*
X457295Y284450D01*
X457563Y284123D01*
X457872Y283824D01*
X458217Y283557D01*
X458592Y283326D01*
X458998Y283130D01*
X459434Y282970D01*
X459901Y282846D01*
X460398Y282757D01*
X460926Y282703D01*
X461485Y282686D01*
X462038Y282704D01*
X462563Y282760D01*
X463061Y282852D01*
X463531Y282982D01*
X463973Y283149D01*
X464387Y283353D01*
X464774Y283594D01*
X465133Y283872D01*
X465456Y284182D01*
X465736Y284518D01*
X465973Y284880D01*
X466167Y285268D01*
X466318Y285683D01*
X466426Y286123D01*
X466491Y286590D01*
X466512Y287082D01*
X466502Y287401D01*
X466472Y287710D01*
X466422Y288009D01*
X466352Y288298D01*
X466261Y288577D01*
X466151Y288846D01*
X466021Y289104D01*
X465871Y289353D01*
X465700Y289592D01*
X465510Y289820D01*
X465299Y290039D01*
X465069Y290247D01*
X464818Y290445D01*
X464547Y290634D01*
X464257Y290812D01*
X463946Y290980D01*
X464629Y292346D01*
X465016Y292146D01*
X465378Y291927D01*
X465717Y291688D01*
X466033Y291430D01*
X466324Y291153D01*
X466591Y290856D01*
X466835Y290540D01*
X467055Y290205D01*
X467250Y289853D01*
X467419Y289487D01*
X467562Y289108D01*
X467679Y288715D01*
X467770Y288308D01*
X467835Y287887D01*
X467874Y287452D01*
X467887Y287004D01*
X467875Y286545D01*
X467839Y286102D01*
X467778Y285675D01*
X467693Y285264D01*
X467584Y284868D01*
X467451Y284488D01*
X467294Y284124D01*
X467112Y283776D01*
X466908Y283446D01*
X466683Y283136D01*
X466437Y282846D01*
X466171Y282576D01*
X465883Y282327D01*
X465575Y282098D01*
X465246Y281889D01*
X464896Y281700D01*
X464528Y281533D01*
X464143Y281388D01*
X463741Y281265D01*
X463323Y281165D01*
X462888Y281087D01*
X462437Y281031D01*
X461969Y280998D01*
X461485Y280986D01*
G37*
G36*
X467712Y332821D02*
X466600Y332821D01*
X466102Y333057D01*
X465635Y333317D01*
X465198Y333602D01*
X464791Y333912D01*
X464408Y334238D01*
X464044Y334572D01*
X463699Y334914D01*
X463372Y335265D01*
X462760Y335971D01*
X462194Y336671D01*
X461651Y337333D01*
X461108Y337928D01*
X460833Y338194D01*
X460552Y338435D01*
X460264Y338648D01*
X459969Y338834D01*
X459662Y338985D01*
X459334Y339094D01*
X458987Y339158D01*
X458621Y339180D01*
X458374Y339171D01*
X458141Y339143D01*
X457923Y339096D01*
X457719Y339031D01*
X457529Y338947D01*
X457353Y338845D01*
X457191Y338724D01*
X457044Y338585D01*
X456913Y338428D01*
X456799Y338258D01*
X456703Y338073D01*
X456624Y337873D01*
X456562Y337659D01*
X456519Y337430D01*
X456492Y337187D01*
X456484Y336929D01*
X456492Y336683D01*
X456518Y336448D01*
X456561Y336224D01*
X456620Y336011D01*
X456697Y335809D01*
X456791Y335618D01*
X456903Y335438D01*
X457031Y335269D01*
X457175Y335115D01*
X457332Y334977D01*
X457504Y334856D01*
X457689Y334752D01*
X457888Y334664D01*
X458101Y334594D01*
X458328Y334540D01*
X458568Y334503D01*
X458419Y332891D01*
X458059Y332949D01*
X457717Y333036D01*
X457394Y333150D01*
X457090Y333293D01*
X456805Y333465D01*
X456539Y333664D01*
X456292Y333892D01*
X456063Y334148D01*
X455858Y334428D01*
X455680Y334728D01*
X455529Y335046D01*
X455406Y335384D01*
X455310Y335742D01*
X455242Y336118D01*
X455201Y336514D01*
X455187Y336929D01*
X455201Y337382D01*
X455242Y337808D01*
X455311Y338207D01*
X455407Y338579D01*
X455531Y338924D01*
X455682Y339242D01*
X455861Y339533D01*
X456068Y339798D01*
X456299Y340033D01*
X456554Y340236D01*
X456832Y340409D01*
X457133Y340550D01*
X457457Y340659D01*
X457804Y340738D01*
X458175Y340785D01*
X458568Y340800D01*
X458927Y340780D01*
X459284Y340718D01*
X459640Y340616D01*
X459996Y340472D01*
X460350Y340288D01*
X460705Y340064D01*
X461060Y339799D01*
X461415Y339495D01*
X461818Y339097D01*
X462319Y338552D01*
X462917Y337858D01*
X463613Y337017D01*
X464015Y336539D01*
X464396Y336112D01*
X464757Y335737D01*
X465098Y335414D01*
X465425Y335137D01*
X465747Y334902D01*
X466062Y334708D01*
X466372Y334556D01*
X466372Y340993D01*
X467712Y340993D01*
X467712Y332821D01*
G37*
G36*
X146266Y914546D02*
X145180Y914546D01*
X145180Y915965D01*
X144726Y915996D01*
X144296Y916049D01*
X143890Y916124D01*
X143509Y916221D01*
X143152Y916340D01*
X142820Y916481D01*
X142512Y916645D01*
X142228Y916830D01*
X141969Y917038D01*
X141734Y917267D01*
X141523Y917519D01*
X141337Y917793D01*
X141175Y918089D01*
X141037Y918407D01*
X140924Y918747D01*
X140836Y919109D01*
X142324Y919434D01*
X142387Y919181D01*
X142464Y918945D01*
X142556Y918725D01*
X142663Y918520D01*
X142785Y918333D01*
X142921Y918161D01*
X143073Y918005D01*
X143240Y917866D01*
X143422Y917741D01*
X143622Y917631D01*
X143839Y917534D01*
X144073Y917452D01*
X144324Y917383D01*
X144592Y917329D01*
X144844Y917293D01*
X144877Y917288D01*
X145180Y917261D01*
X145180Y921606D01*
X144465Y921793D01*
X143869Y921971D01*
X143640Y922052D01*
X143394Y922139D01*
X143038Y922298D01*
X142757Y922457D01*
X142504Y922627D01*
X142280Y922809D01*
X142084Y923003D01*
X141914Y923205D01*
X141770Y923415D01*
X141652Y923632D01*
X141558Y923857D01*
X141487Y924096D01*
X141437Y924358D01*
X141406Y924643D01*
X141396Y924951D01*
X141411Y925282D01*
X141458Y925593D01*
X141535Y925886D01*
X141642Y926161D01*
X141781Y926417D01*
X141950Y926655D01*
X142150Y926875D01*
X142381Y927075D01*
X142641Y927256D01*
X142926Y927416D01*
X143237Y927553D01*
X143574Y927670D01*
X143936Y927765D01*
X144325Y927838D01*
X144739Y927890D01*
X145180Y927921D01*
X145180Y929068D01*
X146266Y929068D01*
X146266Y927921D01*
X146664Y927892D01*
X147038Y927845D01*
X147389Y927780D01*
X147718Y927696D01*
X148022Y927595D01*
X148304Y927475D01*
X148562Y927337D01*
X148797Y927180D01*
X149012Y927004D01*
X149211Y926804D01*
X149393Y926580D01*
X149559Y926334D01*
X149708Y926065D01*
X149841Y925772D01*
X149958Y925457D01*
X150058Y925118D01*
X148534Y924829D01*
X148424Y925218D01*
X148269Y925561D01*
X148070Y925859D01*
X147825Y926112D01*
X147684Y926221D01*
X147527Y926319D01*
X147355Y926406D01*
X147168Y926481D01*
X146965Y926545D01*
X146748Y926597D01*
X146514Y926638D01*
X146266Y926668D01*
X146266Y922771D01*
X146993Y922590D01*
X147607Y922418D01*
X148108Y922253D01*
X148495Y922096D01*
X148808Y921938D01*
X149087Y921770D01*
X149332Y921592D01*
X149541Y921404D01*
X149723Y921203D01*
X149881Y920984D01*
X150016Y920747D01*
X150128Y920493D01*
X150216Y920219D01*
X150279Y919922D01*
X150317Y919602D01*
X150330Y919258D01*
X150313Y918906D01*
X150264Y918571D01*
X150181Y918255D01*
X150065Y917956D01*
X149916Y917674D01*
X149734Y917411D01*
X149518Y917165D01*
X149270Y916937D01*
X148991Y916731D01*
X148685Y916548D01*
X148351Y916390D01*
X147989Y916256D01*
X147600Y916147D01*
X147183Y916062D01*
X146738Y916001D01*
X146266Y915965D01*
X146266Y914546D01*
G37*
%LPC*%
G36*
X146266Y917253D02*
X146566Y917279D01*
X146655Y917292D01*
X146847Y917319D01*
X147111Y917372D01*
X147357Y917439D01*
X147585Y917519D01*
X147796Y917612D01*
X147988Y917719D01*
X148162Y917839D01*
X148317Y917973D01*
X148451Y918118D01*
X148565Y918275D01*
X148658Y918444D01*
X148730Y918625D01*
X148782Y918818D01*
X148813Y919024D01*
X148823Y919241D01*
X148809Y919513D01*
X148766Y919760D01*
X148695Y919982D01*
X148596Y920178D01*
X148469Y920354D01*
X148317Y920514D01*
X148141Y920658D01*
X147939Y920787D01*
X147673Y920912D01*
X147306Y921048D01*
X146837Y921195D01*
X146266Y921352D01*
X146266Y917253D01*
G37*
G36*
X145180Y922998D02*
X145180Y926686D01*
X144904Y926665D01*
X144646Y926632D01*
X144406Y926588D01*
X144183Y926532D01*
X143979Y926465D01*
X143792Y926387D01*
X143623Y926297D01*
X143472Y926195D01*
X143338Y926082D01*
X143223Y925958D01*
X143125Y925822D01*
X143045Y925674D01*
X142983Y925515D01*
X142938Y925344D01*
X142911Y925162D01*
X142903Y924969D01*
X142916Y924720D01*
X142957Y924492D01*
X143026Y924283D01*
X143121Y924093D01*
X143125Y924088D01*
X143244Y923921D01*
X143394Y923762D01*
X143571Y923618D01*
X143774Y923489D01*
X144024Y923366D01*
X144342Y923244D01*
X144727Y923121D01*
X145180Y922998D01*
G37*
%LPD*%
G36*
X134077Y915615D02*
X133704Y915623D01*
X133343Y915649D01*
X132994Y915692D01*
X132658Y915753D01*
X132333Y915830D01*
X132020Y915925D01*
X131720Y916037D01*
X131431Y916167D01*
X131157Y916312D01*
X130898Y916474D01*
X130656Y916651D01*
X130429Y916843D01*
X130218Y917051D01*
X130022Y917275D01*
X129843Y917514D01*
X129680Y917769D01*
X129534Y918038D01*
X129408Y918320D01*
X129301Y918614D01*
X129213Y918921D01*
X129145Y919241D01*
X129097Y919573D01*
X129068Y919917D01*
X129058Y920274D01*
X129058Y928131D01*
X130731Y928131D01*
X130731Y920415D01*
X130744Y920005D01*
X130784Y919620D01*
X130851Y919261D01*
X130945Y918928D01*
X131066Y918620D01*
X131214Y918337D01*
X131388Y918080D01*
X131589Y917848D01*
X131816Y917643D01*
X132066Y917465D01*
X132340Y917315D01*
X132638Y917191D01*
X132960Y917096D01*
X133305Y917027D01*
X133675Y916986D01*
X134068Y916972D01*
X134472Y916987D01*
X134854Y917029D01*
X135212Y917100D01*
X135547Y917199D01*
X135859Y917327D01*
X136148Y917482D01*
X136413Y917666D01*
X136656Y917879D01*
X136873Y918119D01*
X137060Y918384D01*
X137219Y918676D01*
X137349Y918995D01*
X137450Y919339D01*
X137522Y919709D01*
X137566Y920106D01*
X137580Y920528D01*
X137580Y928131D01*
X139244Y928131D01*
X139244Y920432D01*
X139234Y920064D01*
X139204Y919709D01*
X139155Y919367D01*
X139085Y919037D01*
X138996Y918721D01*
X138887Y918417D01*
X138758Y918126D01*
X138609Y917848D01*
X138442Y917585D01*
X138259Y917337D01*
X138059Y917106D01*
X137843Y916890D01*
X137610Y916691D01*
X137361Y916507D01*
X137096Y916340D01*
X136814Y916189D01*
X136517Y916054D01*
X136207Y915938D01*
X135885Y915839D01*
X135549Y915758D01*
X135200Y915696D01*
X134839Y915651D01*
X134464Y915624D01*
X134077Y915615D01*
G37*
G36*
X159712Y915790D02*
X151978Y915790D01*
X151978Y917130D01*
X155122Y917130D01*
X155122Y926624D01*
X152337Y924636D01*
X152337Y926125D01*
X155254Y928131D01*
X156708Y928131D01*
X156708Y917130D01*
X159712Y917130D01*
X159712Y915790D01*
G37*
G36*
X70000Y114011D02*
X68123Y114011D01*
X68123Y118415D01*
X54824Y118415D01*
X57609Y114514D01*
X55524Y114514D01*
X52714Y118599D01*
X52714Y120635D01*
X68123Y120635D01*
X68123Y124843D01*
X70000Y124843D01*
X70000Y114011D01*
G37*
G36*
X65706Y99927D02*
X65326Y102221D01*
X65672Y102285D01*
X65998Y102366D01*
X66305Y102464D01*
X66593Y102580D01*
X66860Y102713D01*
X67109Y102863D01*
X67337Y103030D01*
X67546Y103215D01*
X67733Y103414D01*
X67895Y103626D01*
X68032Y103850D01*
X68144Y104086D01*
X68232Y104334D01*
X68294Y104595D01*
X68331Y104868D01*
X68344Y105153D01*
X68330Y105464D01*
X68289Y105757D01*
X68220Y106034D01*
X68125Y106294D01*
X68001Y106537D01*
X67850Y106763D01*
X67672Y106973D01*
X67467Y107165D01*
X67235Y107338D01*
X66977Y107487D01*
X66694Y107614D01*
X66386Y107717D01*
X66052Y107798D01*
X65692Y107855D01*
X65307Y107890D01*
X64897Y107901D01*
X54628Y107901D01*
X54628Y104577D01*
X52714Y104577D01*
X52714Y110232D01*
X64847Y110232D01*
X65459Y110211D01*
X66038Y110147D01*
X66583Y110041D01*
X67094Y109892D01*
X67572Y109700D01*
X68016Y109466D01*
X68427Y109190D01*
X68804Y108870D01*
X69142Y108514D01*
X69435Y108127D01*
X69682Y107708D01*
X69885Y107257D01*
X70043Y106775D01*
X70155Y106262D01*
X70223Y105717D01*
X70245Y105141D01*
X70228Y104606D01*
X70174Y104099D01*
X70086Y103619D01*
X69962Y103168D01*
X69802Y102745D01*
X69607Y102349D01*
X69377Y101981D01*
X69111Y101641D01*
X68809Y101329D01*
X68472Y101045D01*
X68100Y100789D01*
X67692Y100561D01*
X67249Y100361D01*
X66770Y100188D01*
X66256Y100044D01*
X65706Y99927D01*
G37*
G36*
X54847Y552768D02*
X53761Y552768D01*
X53761Y554187D01*
X53307Y554218D01*
X52877Y554271D01*
X52472Y554346D01*
X52091Y554443D01*
X51734Y554562D01*
X51402Y554703D01*
X51093Y554867D01*
X50810Y555052D01*
X50550Y555260D01*
X50315Y555489D01*
X50105Y555741D01*
X49919Y556015D01*
X49757Y556311D01*
X49619Y556629D01*
X49506Y556969D01*
X49417Y557331D01*
X50906Y557656D01*
X50968Y557403D01*
X51045Y557167D01*
X51137Y556947D01*
X51244Y556742D01*
X51366Y556555D01*
X51503Y556383D01*
X51655Y556227D01*
X51821Y556088D01*
X52004Y555963D01*
X52204Y555853D01*
X52421Y555756D01*
X52655Y555674D01*
X52906Y555605D01*
X53174Y555551D01*
X53426Y555515D01*
X53459Y555510D01*
X53761Y555483D01*
X53761Y559828D01*
X53046Y560015D01*
X52451Y560193D01*
X52222Y560274D01*
X51976Y560361D01*
X51620Y560520D01*
X51339Y560679D01*
X51086Y560849D01*
X50861Y561031D01*
X50665Y561225D01*
X50496Y561427D01*
X50352Y561637D01*
X50233Y561854D01*
X50140Y562079D01*
X50069Y562318D01*
X50018Y562580D01*
X49988Y562865D01*
X49978Y563173D01*
X49993Y563504D01*
X50039Y563815D01*
X50116Y564108D01*
X50224Y564383D01*
X50363Y564639D01*
X50532Y564877D01*
X50732Y565097D01*
X50963Y565297D01*
X51222Y565478D01*
X51507Y565638D01*
X51818Y565775D01*
X52155Y565892D01*
X52518Y565987D01*
X52907Y566060D01*
X53321Y566112D01*
X53761Y566143D01*
X53761Y567290D01*
X54847Y567290D01*
X54847Y566143D01*
X55245Y566114D01*
X55620Y566067D01*
X55971Y566002D01*
X56299Y565918D01*
X56604Y565817D01*
X56885Y565697D01*
X57144Y565559D01*
X57379Y565402D01*
X57594Y565226D01*
X57793Y565026D01*
X57975Y564802D01*
X58141Y564556D01*
X58290Y564287D01*
X58423Y563994D01*
X58540Y563679D01*
X58640Y563340D01*
X57116Y563051D01*
X57006Y563440D01*
X56851Y563783D01*
X56651Y564081D01*
X56407Y564334D01*
X56265Y564443D01*
X56109Y564541D01*
X55937Y564628D01*
X55750Y564703D01*
X55547Y564767D01*
X55329Y564819D01*
X55096Y564860D01*
X54847Y564890D01*
X54847Y560993D01*
X55575Y560812D01*
X56189Y560640D01*
X56689Y560475D01*
X57077Y560318D01*
X57390Y560160D01*
X57669Y559992D01*
X57913Y559814D01*
X58123Y559626D01*
X58304Y559425D01*
X58463Y559206D01*
X58598Y558969D01*
X58710Y558715D01*
X58798Y558441D01*
X58861Y558144D01*
X58899Y557824D01*
X58911Y557480D01*
X58895Y557128D01*
X58845Y556793D01*
X58762Y556477D01*
X58647Y556178D01*
X58497Y555896D01*
X58315Y555633D01*
X58100Y555387D01*
X57852Y555159D01*
X57573Y554953D01*
X57266Y554770D01*
X56932Y554612D01*
X56571Y554478D01*
X56181Y554369D01*
X55764Y554284D01*
X55320Y554223D01*
X54847Y554187D01*
X54847Y552768D01*
G37*
%LPC*%
G36*
X54847Y555475D02*
X55147Y555501D01*
X55237Y555514D01*
X55429Y555541D01*
X55693Y555594D01*
X55939Y555661D01*
X56167Y555741D01*
X56377Y555834D01*
X56569Y555941D01*
X56744Y556061D01*
X56899Y556195D01*
X57033Y556340D01*
X57147Y556497D01*
X57240Y556666D01*
X57312Y556847D01*
X57364Y557040D01*
X57395Y557246D01*
X57405Y557463D01*
X57391Y557735D01*
X57348Y557982D01*
X57277Y558204D01*
X57177Y558400D01*
X57051Y558576D01*
X56899Y558736D01*
X56722Y558880D01*
X56520Y559009D01*
X56255Y559134D01*
X55888Y559270D01*
X55418Y559417D01*
X54847Y559574D01*
X54847Y555475D01*
G37*
G36*
X53761Y561220D02*
X53761Y564908D01*
X53486Y564887D01*
X53228Y564854D01*
X52988Y564810D01*
X52765Y564754D01*
X52561Y564687D01*
X52374Y564609D01*
X52205Y564519D01*
X52054Y564417D01*
X51920Y564304D01*
X51804Y564180D01*
X51707Y564044D01*
X51627Y563896D01*
X51564Y563737D01*
X51520Y563566D01*
X51493Y563384D01*
X51484Y563191D01*
X51498Y562942D01*
X51539Y562714D01*
X51607Y562505D01*
X51703Y562315D01*
X51707Y562310D01*
X51826Y562143D01*
X51976Y561984D01*
X52152Y561840D01*
X52356Y561711D01*
X52606Y561588D01*
X52924Y561466D01*
X53309Y561343D01*
X53761Y561220D01*
G37*
%LPD*%
G36*
X42658Y553837D02*
X42285Y553845D01*
X41925Y553871D01*
X41576Y553914D01*
X41239Y553975D01*
X40915Y554052D01*
X40602Y554147D01*
X40302Y554259D01*
X40013Y554389D01*
X39739Y554534D01*
X39480Y554696D01*
X39237Y554873D01*
X39010Y555065D01*
X38799Y555273D01*
X38604Y555497D01*
X38425Y555736D01*
X38261Y555991D01*
X38116Y556260D01*
X37989Y556542D01*
X37883Y556836D01*
X37795Y557143D01*
X37727Y557463D01*
X37678Y557795D01*
X37649Y558139D01*
X37640Y558496D01*
X37640Y566353D01*
X39312Y566353D01*
X39312Y558637D01*
X39326Y558227D01*
X39366Y557842D01*
X39433Y557483D01*
X39527Y557150D01*
X39648Y556842D01*
X39795Y556559D01*
X39970Y556302D01*
X40171Y556070D01*
X40397Y555865D01*
X40648Y555687D01*
X40922Y555537D01*
X41220Y555413D01*
X41541Y555318D01*
X41887Y555249D01*
X42256Y555208D01*
X42649Y555194D01*
X43054Y555209D01*
X43435Y555251D01*
X43794Y555322D01*
X44129Y555421D01*
X44441Y555549D01*
X44729Y555704D01*
X44995Y555888D01*
X45238Y556101D01*
X45454Y556341D01*
X45642Y556606D01*
X45801Y556898D01*
X45931Y557217D01*
X46032Y557561D01*
X46104Y557931D01*
X46147Y558328D01*
X46162Y558750D01*
X46162Y566353D01*
X47826Y566353D01*
X47826Y558654D01*
X47816Y558286D01*
X47786Y557931D01*
X47736Y557589D01*
X47667Y557259D01*
X47578Y556943D01*
X47469Y556639D01*
X47340Y556348D01*
X47191Y556070D01*
X47024Y555807D01*
X46840Y555559D01*
X46641Y555328D01*
X46424Y555112D01*
X46192Y554913D01*
X45943Y554729D01*
X45677Y554562D01*
X45395Y554411D01*
X45099Y554276D01*
X44789Y554160D01*
X44466Y554061D01*
X44131Y553980D01*
X43782Y553918D01*
X43421Y553873D01*
X43046Y553846D01*
X42658Y553837D01*
G37*
G36*
X64194Y553837D02*
X63738Y553850D01*
X63305Y553890D01*
X62895Y553956D01*
X62509Y554048D01*
X62147Y554167D01*
X61809Y554312D01*
X61494Y554484D01*
X61203Y554682D01*
X60938Y554906D01*
X60702Y555155D01*
X60493Y555430D01*
X60313Y555730D01*
X60162Y556055D01*
X60038Y556406D01*
X59943Y556781D01*
X59876Y557183D01*
X61506Y557331D01*
X61553Y557066D01*
X61616Y556818D01*
X61696Y556587D01*
X61792Y556374D01*
X61904Y556177D01*
X62031Y555997D01*
X62175Y555835D01*
X62335Y555689D01*
X62511Y555561D01*
X62704Y555450D01*
X62912Y555356D01*
X63136Y555279D01*
X63377Y555219D01*
X63633Y555176D01*
X63906Y555150D01*
X64194Y555142D01*
X64484Y555151D01*
X64758Y555179D01*
X65016Y555224D01*
X65257Y555289D01*
X65483Y555371D01*
X65693Y555472D01*
X65887Y555591D01*
X66064Y555729D01*
X66223Y555884D01*
X66361Y556058D01*
X66478Y556249D01*
X66573Y556458D01*
X66648Y556685D01*
X66701Y556929D01*
X66733Y557191D01*
X66743Y557472D01*
X66731Y557717D01*
X66695Y557948D01*
X66634Y558165D01*
X66549Y558368D01*
X66440Y558558D01*
X66307Y558734D01*
X66150Y558896D01*
X65968Y559044D01*
X65763Y559176D01*
X65537Y559291D01*
X65290Y559388D01*
X65021Y559467D01*
X64730Y559529D01*
X64419Y559573D01*
X64085Y559600D01*
X63730Y559609D01*
X62837Y559609D01*
X62837Y560975D01*
X63695Y560975D01*
X64010Y560984D01*
X64307Y561010D01*
X64585Y561054D01*
X64846Y561116D01*
X65088Y561196D01*
X65312Y561293D01*
X65518Y561408D01*
X65705Y561540D01*
X65873Y561688D01*
X66018Y561850D01*
X66140Y562025D01*
X66241Y562213D01*
X66319Y562415D01*
X66374Y562631D01*
X66408Y562861D01*
X66419Y563103D01*
X66410Y563344D01*
X66383Y563572D01*
X66337Y563787D01*
X66273Y563989D01*
X66192Y564178D01*
X66091Y564354D01*
X65973Y564517D01*
X65837Y564667D01*
X65682Y564801D01*
X65510Y564918D01*
X65320Y565016D01*
X65113Y565097D01*
X64888Y565160D01*
X64645Y565205D01*
X64385Y565231D01*
X64107Y565240D01*
X63852Y565232D01*
X63611Y565207D01*
X63381Y565165D01*
X63164Y565107D01*
X62960Y565032D01*
X62768Y564940D01*
X62588Y564831D01*
X62421Y564706D01*
X62268Y564566D01*
X62133Y564412D01*
X62014Y564244D01*
X61912Y564062D01*
X61826Y563867D01*
X61758Y563658D01*
X61707Y563436D01*
X61672Y563200D01*
X60087Y563322D01*
X60145Y563691D01*
X60231Y564038D01*
X60345Y564365D01*
X60488Y564671D01*
X60660Y564956D01*
X60859Y565221D01*
X61087Y565464D01*
X61343Y565687D01*
X61624Y565886D01*
X61923Y566059D01*
X62242Y566205D01*
X62580Y566324D01*
X62937Y566417D01*
X63313Y566484D01*
X63709Y566523D01*
X64124Y566537D01*
X64576Y566523D01*
X65001Y566483D01*
X65401Y566415D01*
X65774Y566321D01*
X66122Y566200D01*
X66444Y566051D01*
X66740Y565876D01*
X67010Y565674D01*
X67251Y565448D01*
X67460Y565200D01*
X67637Y564932D01*
X67782Y564642D01*
X67895Y564330D01*
X67975Y563998D01*
X68023Y563645D01*
X68039Y563270D01*
X68029Y562981D01*
X67998Y562706D01*
X67946Y562445D01*
X67874Y562198D01*
X67781Y561965D01*
X67667Y561745D01*
X67533Y561539D01*
X67378Y561347D01*
X67203Y561170D01*
X67010Y561007D01*
X66798Y560859D01*
X66567Y560727D01*
X66317Y560609D01*
X66049Y560506D01*
X65762Y560418D01*
X65456Y560344D01*
X65456Y560309D01*
X65792Y560262D01*
X66109Y560196D01*
X66407Y560109D01*
X66686Y560003D01*
X66946Y559877D01*
X67187Y559731D01*
X67408Y559566D01*
X67610Y559381D01*
X67791Y559180D01*
X67947Y558966D01*
X68080Y558740D01*
X68188Y558501D01*
X68273Y558249D01*
X68333Y557985D01*
X68369Y557708D01*
X68381Y557419D01*
X68364Y557004D01*
X68313Y556613D01*
X68228Y556247D01*
X68109Y555904D01*
X67957Y555585D01*
X67770Y555291D01*
X67549Y555020D01*
X67295Y554774D01*
X67009Y554554D01*
X66694Y554364D01*
X66350Y554203D01*
X65977Y554071D01*
X65575Y553969D01*
X65144Y553895D01*
X64683Y553852D01*
X64194Y553837D01*
G37*
G36*
X90606Y488649D02*
X84694Y488649D01*
X84694Y490604D01*
X84705Y490969D01*
X84741Y491312D01*
X84800Y491634D01*
X84882Y491935D01*
X84988Y492214D01*
X85117Y492472D01*
X85270Y492708D01*
X85447Y492923D01*
X85645Y493114D01*
X85863Y493280D01*
X86101Y493420D01*
X86359Y493535D01*
X86637Y493624D01*
X86934Y493688D01*
X87252Y493726D01*
X87589Y493739D01*
X88032Y493716D01*
X88447Y493649D01*
X88832Y493538D01*
X89190Y493382D01*
X89513Y493185D01*
X89796Y492951D01*
X90038Y492679D01*
X90241Y492371D01*
X90401Y492031D01*
X90515Y491666D01*
X90583Y491276D01*
X90606Y490860D01*
X90606Y488649D01*
G37*
%LPC*%
G36*
X89964Y489450D02*
X89964Y490768D01*
X89946Y491083D01*
X89893Y491379D01*
X89804Y491655D01*
X89679Y491911D01*
X89520Y492143D01*
X89330Y492347D01*
X89109Y492522D01*
X88856Y492669D01*
X88576Y492784D01*
X88271Y492867D01*
X87942Y492916D01*
X87589Y492933D01*
X87322Y492924D01*
X87072Y492895D01*
X86838Y492848D01*
X86620Y492782D01*
X86419Y492698D01*
X86234Y492594D01*
X86065Y492472D01*
X85913Y492331D01*
X85777Y492172D01*
X85660Y491996D01*
X85561Y491803D01*
X85480Y491594D01*
X85417Y491368D01*
X85372Y491124D01*
X85345Y490864D01*
X85336Y490587D01*
X85336Y489450D01*
X89964Y489450D01*
G37*
%LPD*%
G36*
X90606Y482430D02*
X84694Y482430D01*
X84694Y483362D01*
X89763Y486559D01*
X89053Y486521D01*
X88571Y486509D01*
X84694Y486509D01*
X84694Y487230D01*
X90606Y487230D01*
X90606Y486265D01*
X85571Y483101D01*
X85978Y483122D01*
X86678Y483143D01*
X90606Y483143D01*
X90606Y482430D01*
G37*
G36*
X87623Y475470D02*
X87273Y475482D01*
X86944Y475518D01*
X86635Y475578D01*
X86346Y475663D01*
X86078Y475771D01*
X85829Y475904D01*
X85602Y476061D01*
X85394Y476242D01*
X85209Y476445D01*
X85049Y476667D01*
X84914Y476909D01*
X84803Y477170D01*
X84716Y477451D01*
X84655Y477752D01*
X84618Y478072D01*
X84606Y478411D01*
X84626Y478879D01*
X84688Y479301D01*
X84792Y479676D01*
X84937Y480006D01*
X85128Y480295D01*
X85368Y480548D01*
X85658Y480767D01*
X85999Y480950D01*
X86225Y480186D01*
X85991Y480048D01*
X85790Y479887D01*
X85623Y479701D01*
X85491Y479492D01*
X85390Y479257D01*
X85318Y478995D01*
X85275Y478706D01*
X85260Y478390D01*
X85270Y478142D01*
X85299Y477908D01*
X85347Y477690D01*
X85415Y477487D01*
X85502Y477299D01*
X85608Y477126D01*
X85734Y476968D01*
X85879Y476825D01*
X86042Y476698D01*
X86220Y476588D01*
X86414Y476495D01*
X86624Y476419D01*
X86850Y476360D01*
X87092Y476318D01*
X87349Y476292D01*
X87623Y476284D01*
X87895Y476293D01*
X88153Y476320D01*
X88396Y476365D01*
X88625Y476427D01*
X88839Y476508D01*
X89038Y476607D01*
X89222Y476724D01*
X89391Y476859D01*
X89543Y477009D01*
X89675Y477174D01*
X89786Y477352D01*
X89877Y477544D01*
X89948Y477749D01*
X89999Y477969D01*
X90029Y478202D01*
X90040Y478449D01*
X90029Y478734D01*
X89995Y479009D01*
X89940Y479274D01*
X89863Y479529D01*
X89767Y479768D01*
X89656Y479983D01*
X89528Y480174D01*
X89385Y480341D01*
X88319Y480341D01*
X88319Y478575D01*
X87648Y478575D01*
X87648Y481080D01*
X89687Y481080D01*
X89913Y480832D01*
X90111Y480557D01*
X90283Y480256D01*
X90428Y479928D01*
X90542Y479580D01*
X90624Y479217D01*
X90674Y478840D01*
X90690Y478449D01*
X90667Y478001D01*
X90598Y477586D01*
X90482Y477202D01*
X90321Y476850D01*
X90116Y476534D01*
X89870Y476258D01*
X89584Y476021D01*
X89257Y475824D01*
X88894Y475669D01*
X88501Y475558D01*
X88077Y475492D01*
X87623Y475470D01*
G37*
G36*
X90606Y514517D02*
X84694Y514517D01*
X84694Y517300D01*
X84701Y517542D01*
X84722Y517770D01*
X84756Y517985D01*
X84805Y518184D01*
X84868Y518370D01*
X84945Y518541D01*
X85036Y518699D01*
X85141Y518842D01*
X85258Y518969D01*
X85386Y519079D01*
X85525Y519173D01*
X85675Y519249D01*
X85836Y519309D01*
X86008Y519351D01*
X86191Y519377D01*
X86385Y519385D01*
X86701Y519361D01*
X86991Y519289D01*
X87255Y519169D01*
X87492Y519001D01*
X87696Y518791D01*
X87809Y518619D01*
X87859Y518544D01*
X87979Y518261D01*
X88059Y517942D01*
X89143Y518656D01*
X90606Y519620D01*
X90606Y518697D01*
X88151Y517161D01*
X88151Y515319D01*
X90606Y515319D01*
X90606Y514517D01*
G37*
%LPC*%
G36*
X87518Y515319D02*
X87518Y517253D01*
X87499Y517552D01*
X87444Y517815D01*
X87351Y518042D01*
X87222Y518233D01*
X87059Y518385D01*
X86867Y518493D01*
X86645Y518558D01*
X86393Y518579D01*
X86150Y518557D01*
X85938Y518492D01*
X85757Y518382D01*
X85606Y518229D01*
X85488Y518034D01*
X85403Y517801D01*
X85353Y517530D01*
X85336Y517220D01*
X85336Y515319D01*
X87518Y515319D01*
G37*
%LPD*%
G36*
X90606Y500674D02*
X84694Y500674D01*
X84694Y503162D01*
X84701Y503404D01*
X84723Y503631D01*
X84759Y503845D01*
X84810Y504044D01*
X84876Y504230D01*
X84956Y504401D01*
X85050Y504559D01*
X85159Y504702D01*
X85282Y504830D01*
X85416Y504941D01*
X85562Y505034D01*
X85721Y505111D01*
X85891Y505171D01*
X86073Y505213D01*
X86267Y505239D01*
X86473Y505248D01*
X86677Y505239D01*
X86871Y505213D01*
X87054Y505171D01*
X87226Y505111D01*
X87387Y505034D01*
X87538Y504940D01*
X87678Y504828D01*
X87807Y504700D01*
X87923Y504557D01*
X88024Y504402D01*
X88109Y504234D01*
X88179Y504054D01*
X88233Y503862D01*
X88271Y503658D01*
X88295Y503441D01*
X88302Y503212D01*
X88302Y501475D01*
X90606Y501475D01*
X90606Y500674D01*
G37*
%LPC*%
G36*
X87669Y501475D02*
X87669Y503099D01*
X87650Y503414D01*
X87594Y503687D01*
X87502Y503917D01*
X87372Y504106D01*
X87205Y504253D01*
X87001Y504358D01*
X86760Y504421D01*
X86481Y504442D01*
X86213Y504420D01*
X85980Y504356D01*
X85783Y504248D01*
X85622Y504098D01*
X85497Y503904D01*
X85407Y503668D01*
X85354Y503388D01*
X85336Y503066D01*
X85336Y501475D01*
X87669Y501475D01*
G37*
%LPD*%
G36*
X84694Y505725D02*
X84694Y506560D01*
X88449Y507622D01*
X89165Y507803D01*
X89901Y507970D01*
X88894Y508203D01*
X87571Y508560D01*
X84694Y509368D01*
X84694Y510135D01*
X88374Y511163D01*
X89207Y511373D01*
X89901Y511533D01*
X89754Y511571D01*
X88967Y511755D01*
X84694Y512934D01*
X84694Y513769D01*
X90606Y512028D01*
X90606Y511071D01*
X86850Y510047D01*
X86358Y509924D01*
X85587Y509754D01*
X86401Y509569D01*
X90606Y508423D01*
X90606Y507467D01*
X84694Y505725D01*
G37*
G36*
X87623Y536535D02*
X87273Y536547D01*
X86944Y536584D01*
X86635Y536644D01*
X86346Y536728D01*
X86078Y536837D01*
X85829Y536970D01*
X85602Y537126D01*
X85394Y537307D01*
X85209Y537510D01*
X85049Y537733D01*
X84914Y537974D01*
X84803Y538236D01*
X84716Y538517D01*
X84655Y538817D01*
X84618Y539137D01*
X84606Y539477D01*
X84626Y539945D01*
X84688Y540366D01*
X84792Y540742D01*
X84937Y541071D01*
X85128Y541360D01*
X85368Y541614D01*
X85658Y541832D01*
X85999Y542016D01*
X86225Y541252D01*
X85991Y541114D01*
X85790Y540952D01*
X85623Y540767D01*
X85491Y540557D01*
X85390Y540323D01*
X85318Y540061D01*
X85275Y539772D01*
X85260Y539456D01*
X85270Y539207D01*
X85299Y538974D01*
X85347Y538756D01*
X85415Y538553D01*
X85502Y538365D01*
X85608Y538192D01*
X85734Y538034D01*
X85879Y537891D01*
X86042Y537764D01*
X86220Y537654D01*
X86414Y537561D01*
X86624Y537485D01*
X86850Y537426D01*
X87092Y537383D01*
X87349Y537358D01*
X87623Y537349D01*
X87895Y537358D01*
X88153Y537385D01*
X88396Y537430D01*
X88625Y537493D01*
X88839Y537574D01*
X89038Y537673D01*
X89222Y537790D01*
X89391Y537924D01*
X89543Y538075D01*
X89675Y538239D01*
X89786Y538417D01*
X89877Y538609D01*
X89948Y538815D01*
X89999Y539034D01*
X90029Y539268D01*
X90040Y539515D01*
X90029Y539799D01*
X89995Y540074D01*
X89940Y540340D01*
X89863Y540595D01*
X89767Y540834D01*
X89656Y541049D01*
X89528Y541240D01*
X89385Y541407D01*
X88319Y541407D01*
X88319Y539640D01*
X87648Y539640D01*
X87648Y542146D01*
X89687Y542146D01*
X89913Y541897D01*
X90111Y541623D01*
X90283Y541321D01*
X90428Y540994D01*
X90542Y540646D01*
X90624Y540283D01*
X90674Y539906D01*
X90690Y539515D01*
X90667Y539067D01*
X90598Y538651D01*
X90482Y538268D01*
X90321Y537916D01*
X90116Y537600D01*
X89870Y537324D01*
X89584Y537087D01*
X89257Y536890D01*
X88894Y536735D01*
X88501Y536624D01*
X88077Y536557D01*
X87623Y536535D01*
G37*
G36*
X89188Y528400D02*
X89032Y529176D01*
X89281Y529262D01*
X89495Y529386D01*
X89673Y529547D01*
X89815Y529747D01*
X89924Y529984D01*
X90002Y530262D01*
X90049Y530578D01*
X90065Y530934D01*
X90048Y531300D01*
X89998Y531622D01*
X89915Y531899D01*
X89798Y532132D01*
X89649Y532317D01*
X89469Y532448D01*
X89258Y532527D01*
X89141Y532547D01*
X89016Y532554D01*
X88878Y532546D01*
X88753Y532521D01*
X88643Y532479D01*
X88546Y532422D01*
X88381Y532263D01*
X88248Y532050D01*
X88140Y531788D01*
X88051Y531480D01*
X87879Y530745D01*
X87723Y530129D01*
X87568Y529682D01*
X87404Y529357D01*
X87222Y529109D01*
X87015Y528924D01*
X86775Y528788D01*
X86642Y528739D01*
X86500Y528704D01*
X86348Y528684D01*
X86187Y528677D01*
X86003Y528686D01*
X85829Y528713D01*
X85667Y528758D01*
X85515Y528822D01*
X85374Y528904D01*
X85244Y529003D01*
X85125Y529122D01*
X85017Y529258D01*
X84920Y529411D01*
X84837Y529580D01*
X84766Y529764D01*
X84708Y529964D01*
X84663Y530180D01*
X84631Y530412D01*
X84612Y530659D01*
X84606Y530922D01*
X84625Y531395D01*
X84683Y531810D01*
X84779Y532165D01*
X84914Y532462D01*
X84998Y532590D01*
X85095Y532708D01*
X85331Y532915D01*
X85621Y533081D01*
X85965Y533208D01*
X86104Y532420D01*
X85885Y532340D01*
X85698Y532231D01*
X85544Y532092D01*
X85422Y531924D01*
X85329Y531724D01*
X85263Y531489D01*
X85223Y531219D01*
X85210Y530913D01*
X85224Y530580D01*
X85269Y530288D01*
X85342Y530038D01*
X85445Y529831D01*
X85577Y529667D01*
X85737Y529550D01*
X85927Y529480D01*
X86146Y529457D01*
X86276Y529466D01*
X86395Y529493D01*
X86502Y529538D01*
X86597Y529602D01*
X86761Y529779D01*
X86899Y530019D01*
X86964Y530190D01*
X87037Y530427D01*
X87203Y531106D01*
X87331Y531650D01*
X87402Y531914D01*
X87486Y532168D01*
X87584Y532407D01*
X87698Y532631D01*
X87833Y532833D01*
X87996Y533007D01*
X88188Y533149D01*
X88411Y533257D01*
X88672Y533324D01*
X88974Y533347D01*
X89173Y533337D01*
X89360Y533307D01*
X89535Y533257D01*
X89700Y533187D01*
X89852Y533097D01*
X89993Y532987D01*
X90123Y532857D01*
X90241Y532707D01*
X90346Y532539D01*
X90437Y532354D01*
X90515Y532154D01*
X90578Y531936D01*
X90627Y531703D01*
X90662Y531453D01*
X90683Y531187D01*
X90690Y530905D01*
X90684Y530642D01*
X90666Y530393D01*
X90637Y530158D01*
X90596Y529938D01*
X90543Y529732D01*
X90479Y529539D01*
X90402Y529362D01*
X90314Y529198D01*
X90215Y529048D01*
X90103Y528913D01*
X89980Y528792D01*
X89845Y528685D01*
X89698Y528593D01*
X89540Y528514D01*
X89370Y528450D01*
X89188Y528400D01*
G37*
G36*
X90606Y534521D02*
X84694Y534521D01*
X84694Y535323D01*
X90606Y535323D01*
X90606Y534521D01*
G37*
G36*
X43485Y520550D02*
X43120Y520556D01*
X42765Y520575D01*
X42420Y520607D01*
X42085Y520651D01*
X41761Y520708D01*
X41446Y520778D01*
X41142Y520860D01*
X40847Y520955D01*
X40563Y521063D01*
X40289Y521183D01*
X40025Y521316D01*
X39771Y521462D01*
X39293Y521791D01*
X38856Y522170D01*
X38465Y522595D01*
X38289Y522823D01*
X38126Y523060D01*
X37976Y523307D01*
X37839Y523564D01*
X37715Y523831D01*
X37604Y524108D01*
X37507Y524395D01*
X37422Y524692D01*
X37350Y524999D01*
X37292Y525315D01*
X37246Y525642D01*
X37213Y525978D01*
X37194Y526325D01*
X37187Y526681D01*
X37199Y527144D01*
X37234Y527591D01*
X37293Y528023D01*
X37375Y528439D01*
X37480Y528840D01*
X37609Y529225D01*
X37761Y529594D01*
X37936Y529948D01*
X38134Y530284D01*
X38353Y530599D01*
X38593Y530894D01*
X38855Y531169D01*
X39137Y531423D01*
X39441Y531657D01*
X39766Y531870D01*
X40113Y532063D01*
X40478Y532235D01*
X40859Y532383D01*
X41256Y532509D01*
X41669Y532612D01*
X42099Y532692D01*
X42545Y532749D01*
X43007Y532783D01*
X43485Y532795D01*
X43961Y532783D01*
X44422Y532748D01*
X44869Y532690D01*
X45300Y532610D01*
X45716Y532505D01*
X46117Y532378D01*
X46503Y532228D01*
X46874Y532054D01*
X47227Y531859D01*
X47559Y531644D01*
X47870Y531409D01*
X48160Y531153D01*
X48428Y530878D01*
X48676Y530582D01*
X48902Y530266D01*
X49108Y529930D01*
X49290Y529577D01*
X49449Y529207D01*
X49583Y528822D01*
X49692Y528422D01*
X49778Y528006D01*
X49838Y527574D01*
X49875Y527127D01*
X49887Y526664D01*
X49875Y526197D01*
X49839Y525746D01*
X49779Y525311D01*
X49695Y524893D01*
X49586Y524491D01*
X49454Y524106D01*
X49297Y523736D01*
X49116Y523383D01*
X48913Y523049D01*
X48688Y522735D01*
X48442Y522441D01*
X48174Y522167D01*
X47884Y521914D01*
X47574Y521681D01*
X47241Y521469D01*
X46887Y521277D01*
X46515Y521107D01*
X46128Y520959D01*
X45725Y520834D01*
X45308Y520732D01*
X44875Y520652D01*
X44427Y520596D01*
X43963Y520561D01*
X43485Y520550D01*
G37*
%LPC*%
G36*
X43485Y522249D02*
X44050Y522268D01*
X44585Y522322D01*
X45091Y522414D01*
X45566Y522542D01*
X46011Y522706D01*
X46427Y522907D01*
X46812Y523144D01*
X47168Y523419D01*
X47487Y523725D01*
X47764Y524060D01*
X47998Y524423D01*
X48189Y524814D01*
X48338Y525234D01*
X48445Y525682D01*
X48508Y526159D01*
X48530Y526664D01*
X48509Y527182D01*
X48447Y527670D01*
X48344Y528127D01*
X48200Y528552D01*
X48015Y528947D01*
X47788Y529310D01*
X47520Y529642D01*
X47211Y529944D01*
X46865Y530212D01*
X46484Y530444D01*
X46070Y530640D01*
X45621Y530801D01*
X45138Y530926D01*
X44621Y531015D01*
X44070Y531069D01*
X43485Y531087D01*
X42924Y531069D01*
X42395Y531015D01*
X41896Y530925D01*
X41429Y530799D01*
X40992Y530637D01*
X40586Y530439D01*
X40211Y530205D01*
X39867Y529935D01*
X39560Y529632D01*
X39293Y529300D01*
X39067Y528937D01*
X38882Y528546D01*
X38738Y528124D01*
X38636Y527673D01*
X38574Y527192D01*
X38554Y526681D01*
X38574Y526166D01*
X38635Y525681D01*
X38736Y525227D01*
X38878Y524802D01*
X39060Y524408D01*
X39283Y524044D01*
X39546Y523709D01*
X39850Y523405D01*
X40190Y523134D01*
X40563Y522900D01*
X40969Y522701D01*
X41407Y522538D01*
X41877Y522412D01*
X42381Y522321D01*
X42916Y522267D01*
X43485Y522249D01*
G37*
%LPD*%
G36*
X49712Y496547D02*
X37371Y496547D01*
X37371Y502354D01*
X37386Y502860D01*
X37430Y503337D01*
X37502Y503784D01*
X37604Y504201D01*
X37736Y504588D01*
X37896Y504946D01*
X38085Y505274D01*
X38304Y505573D01*
X38549Y505838D01*
X38816Y506069D01*
X39106Y506264D01*
X39420Y506423D01*
X39756Y506547D01*
X40115Y506636D01*
X40496Y506689D01*
X40901Y506707D01*
X41238Y506694D01*
X41561Y506657D01*
X41871Y506594D01*
X42167Y506506D01*
X42449Y506394D01*
X42717Y506256D01*
X42972Y506093D01*
X43213Y505905D01*
X43437Y505696D01*
X43639Y505467D01*
X43819Y505219D01*
X43885Y505108D01*
X43977Y504952D01*
X44114Y504666D01*
X44230Y504361D01*
X44323Y504037D01*
X44396Y503694D01*
X46659Y505185D01*
X49712Y507197D01*
X49712Y505270D01*
X44588Y502065D01*
X44588Y498220D01*
X49712Y498220D01*
X49712Y496547D01*
G37*
%LPC*%
G36*
X43266Y498220D02*
X43266Y502258D01*
X43256Y502579D01*
X43227Y502881D01*
X43179Y503165D01*
X43111Y503430D01*
X43025Y503676D01*
X42918Y503904D01*
X42793Y504113D01*
X42648Y504303D01*
X42486Y504472D01*
X42309Y504619D01*
X42116Y504743D01*
X41907Y504845D01*
X41683Y504924D01*
X41444Y504980D01*
X41189Y505014D01*
X40918Y505025D01*
X40657Y505014D01*
X40412Y504979D01*
X40183Y504922D01*
X39969Y504842D01*
X39772Y504740D01*
X39591Y504614D01*
X39425Y504465D01*
X39276Y504294D01*
X39144Y504101D01*
X39029Y503888D01*
X38932Y503655D01*
X38853Y503402D01*
X38791Y503128D01*
X38747Y502835D01*
X38720Y502521D01*
X38711Y502187D01*
X38711Y498220D01*
X43266Y498220D01*
G37*
%LPD*%
G36*
X49712Y484578D02*
X37371Y484578D01*
X37371Y493941D01*
X38738Y493941D01*
X38738Y486251D01*
X42696Y486251D01*
X42696Y493416D01*
X44045Y493416D01*
X44045Y486251D01*
X48346Y486251D01*
X48346Y494300D01*
X49712Y494300D01*
X49712Y484578D01*
G37*
G36*
X46752Y471953D02*
X46428Y473573D01*
X46696Y473653D01*
X46947Y473752D01*
X47179Y473872D01*
X47392Y474011D01*
X47587Y474170D01*
X47764Y474348D01*
X47922Y474546D01*
X48061Y474764D01*
X48183Y475002D01*
X48289Y475261D01*
X48379Y475540D01*
X48452Y475839D01*
X48509Y476159D01*
X48550Y476500D01*
X48574Y476861D01*
X48582Y477243D01*
X48573Y477636D01*
X48547Y478007D01*
X48504Y478354D01*
X48443Y478678D01*
X48365Y478979D01*
X48269Y479257D01*
X48156Y479512D01*
X48026Y479743D01*
X47879Y479950D01*
X47715Y480128D01*
X47536Y480280D01*
X47340Y480403D01*
X47127Y480500D01*
X46899Y480568D01*
X46654Y480610D01*
X46393Y480624D01*
X46105Y480606D01*
X45845Y480555D01*
X45614Y480468D01*
X45412Y480348D01*
X45231Y480196D01*
X45068Y480016D01*
X44921Y479808D01*
X44790Y479572D01*
X44672Y479311D01*
X44564Y479025D01*
X44466Y478715D01*
X44378Y478381D01*
X44019Y476849D01*
X43857Y476161D01*
X43695Y475562D01*
X43533Y475051D01*
X43371Y474628D01*
X43204Y474269D01*
X43028Y473951D01*
X42843Y473672D01*
X42648Y473433D01*
X42441Y473227D01*
X42216Y473046D01*
X41974Y472892D01*
X41715Y472763D01*
X41438Y472661D01*
X41142Y472589D01*
X40825Y472545D01*
X40489Y472531D01*
X40104Y472550D01*
X39742Y472606D01*
X39403Y472701D01*
X39086Y472834D01*
X38792Y473004D01*
X38520Y473213D01*
X38272Y473459D01*
X38046Y473744D01*
X37844Y474063D01*
X37670Y474416D01*
X37523Y474801D01*
X37402Y475218D01*
X37308Y475669D01*
X37241Y476152D01*
X37201Y476668D01*
X37187Y477216D01*
X37197Y477726D01*
X37228Y478206D01*
X37278Y478654D01*
X37348Y479071D01*
X37439Y479457D01*
X37549Y479813D01*
X37680Y480137D01*
X37831Y480431D01*
X38006Y480698D01*
X38210Y480945D01*
X38441Y481171D01*
X38701Y481377D01*
X38990Y481561D01*
X39307Y481725D01*
X39652Y481868D01*
X40025Y481990D01*
X40314Y480343D01*
X40077Y480268D01*
X39857Y480177D01*
X39654Y480071D01*
X39468Y479949D01*
X39298Y479812D01*
X39146Y479660D01*
X39010Y479493D01*
X38891Y479310D01*
X38787Y479110D01*
X38697Y478892D01*
X38621Y478656D01*
X38559Y478401D01*
X38511Y478128D01*
X38476Y477837D01*
X38455Y477527D01*
X38449Y477199D01*
X38456Y476840D01*
X38479Y476503D01*
X38518Y476187D01*
X38571Y475894D01*
X38640Y475622D01*
X38724Y475373D01*
X38824Y475145D01*
X38939Y474939D01*
X39069Y474757D01*
X39214Y474598D01*
X39375Y474464D01*
X39550Y474355D01*
X39740Y474269D01*
X39946Y474208D01*
X40166Y474172D01*
X40402Y474160D01*
X40674Y474179D01*
X40922Y474235D01*
X41145Y474330D01*
X41343Y474462D01*
X41522Y474630D01*
X41687Y474831D01*
X41838Y475065D01*
X41974Y475333D01*
X42110Y475689D01*
X42262Y476185D01*
X42428Y476823D01*
X42609Y477602D01*
X42876Y478736D01*
X43025Y479289D01*
X43200Y479818D01*
X43405Y480318D01*
X43642Y480786D01*
X43776Y481004D01*
X43925Y481207D01*
X44087Y481396D01*
X44264Y481569D01*
X44456Y481727D01*
X44665Y481866D01*
X44890Y481987D01*
X45131Y482091D01*
X45392Y482173D01*
X45674Y482232D01*
X45979Y482267D01*
X46305Y482279D01*
X46720Y482258D01*
X47111Y482195D01*
X47478Y482091D01*
X47820Y481945D01*
X48139Y481757D01*
X48433Y481528D01*
X48704Y481256D01*
X48950Y480943D01*
X49170Y480592D01*
X49360Y480207D01*
X49521Y479788D01*
X49653Y479335D01*
X49755Y478848D01*
X49829Y478326D01*
X49873Y477771D01*
X49887Y477181D01*
X49875Y476632D01*
X49838Y476113D01*
X49777Y475623D01*
X49691Y475163D01*
X49581Y474733D01*
X49446Y474332D01*
X49287Y473960D01*
X49103Y473619D01*
X48895Y473307D01*
X48662Y473025D01*
X48405Y472772D01*
X48123Y472549D01*
X47817Y472355D01*
X47487Y472191D01*
X47131Y472057D01*
X46752Y471953D01*
G37*
G36*
X46752Y550390D02*
X46428Y552010D01*
X46696Y552090D01*
X46947Y552190D01*
X47179Y552309D01*
X47392Y552448D01*
X47587Y552607D01*
X47764Y552786D01*
X47922Y552984D01*
X48061Y553202D01*
X48183Y553440D01*
X48289Y553698D01*
X48379Y553977D01*
X48452Y554277D01*
X48509Y554597D01*
X48550Y554937D01*
X48574Y555299D01*
X48582Y555680D01*
X48573Y556074D01*
X48547Y556444D01*
X48504Y556791D01*
X48443Y557116D01*
X48365Y557417D01*
X48269Y557694D01*
X48156Y557949D01*
X48026Y558181D01*
X47879Y558387D01*
X47715Y558566D01*
X47536Y558717D01*
X47340Y558841D01*
X47127Y558937D01*
X46899Y559006D01*
X46654Y559047D01*
X46393Y559061D01*
X46105Y559044D01*
X45845Y558992D01*
X45614Y558906D01*
X45412Y558785D01*
X45231Y558633D01*
X45068Y558453D01*
X44921Y558246D01*
X44790Y558010D01*
X44672Y557748D01*
X44564Y557463D01*
X44466Y557153D01*
X44378Y556819D01*
X44019Y555286D01*
X43857Y554599D01*
X43695Y554000D01*
X43533Y553489D01*
X43371Y553066D01*
X43204Y552707D01*
X43028Y552388D01*
X42843Y552109D01*
X42648Y551870D01*
X42441Y551664D01*
X42216Y551484D01*
X41974Y551329D01*
X41715Y551200D01*
X41438Y551099D01*
X41142Y551026D01*
X40825Y550983D01*
X40489Y550968D01*
X40104Y550987D01*
X39742Y551044D01*
X39403Y551139D01*
X39086Y551271D01*
X38792Y551442D01*
X38520Y551650D01*
X38272Y551897D01*
X38046Y552181D01*
X37844Y552501D01*
X37670Y552853D01*
X37523Y553238D01*
X37402Y553656D01*
X37308Y554106D01*
X37241Y554589D01*
X37201Y555105D01*
X37187Y555654D01*
X37197Y556164D01*
X37228Y556643D01*
X37278Y557091D01*
X37348Y557509D01*
X37439Y557895D01*
X37549Y558250D01*
X37680Y558575D01*
X37831Y558868D01*
X38006Y559136D01*
X38210Y559383D01*
X38441Y559609D01*
X38701Y559814D01*
X38990Y559999D01*
X39307Y560162D01*
X39652Y560305D01*
X40025Y560427D01*
X40314Y558781D01*
X40077Y558705D01*
X39857Y558614D01*
X39654Y558508D01*
X39468Y558387D01*
X39298Y558250D01*
X39146Y558098D01*
X39010Y557930D01*
X38891Y557747D01*
X38787Y557548D01*
X38697Y557330D01*
X38621Y557093D01*
X38559Y556839D01*
X38511Y556566D01*
X38476Y556274D01*
X38455Y555964D01*
X38449Y555636D01*
X38456Y555277D01*
X38479Y554940D01*
X38518Y554625D01*
X38571Y554331D01*
X38640Y554060D01*
X38724Y553810D01*
X38824Y553583D01*
X38939Y553377D01*
X39069Y553194D01*
X39214Y553036D01*
X39375Y552902D01*
X39550Y552792D01*
X39740Y552707D01*
X39946Y552646D01*
X40166Y552609D01*
X40402Y552597D01*
X40674Y552616D01*
X40922Y552673D01*
X41145Y552767D01*
X41343Y552899D01*
X41522Y553067D01*
X41687Y553268D01*
X41838Y553503D01*
X41974Y553771D01*
X42110Y554126D01*
X42262Y554623D01*
X42428Y555260D01*
X42609Y556039D01*
X42876Y557174D01*
X43025Y557726D01*
X43200Y558255D01*
X43405Y558756D01*
X43642Y559223D01*
X43776Y559441D01*
X43925Y559645D01*
X44087Y559833D01*
X44264Y560007D01*
X44456Y560164D01*
X44665Y560304D01*
X44890Y560425D01*
X45131Y560528D01*
X45392Y560610D01*
X45674Y560669D01*
X45979Y560705D01*
X46305Y560716D01*
X46720Y560695D01*
X47111Y560633D01*
X47478Y560529D01*
X47820Y560382D01*
X48139Y560195D01*
X48433Y559965D01*
X48704Y559694D01*
X48950Y559381D01*
X49170Y559030D01*
X49360Y558645D01*
X49521Y558226D01*
X49653Y557772D01*
X49755Y557285D01*
X49829Y556764D01*
X49873Y556208D01*
X49887Y555619D01*
X49875Y555070D01*
X49838Y554550D01*
X49777Y554061D01*
X49691Y553601D01*
X49581Y553170D01*
X49446Y552769D01*
X49287Y552398D01*
X49103Y552056D01*
X48895Y551744D01*
X48662Y551462D01*
X48405Y551209D01*
X48123Y550986D01*
X47817Y550793D01*
X47487Y550629D01*
X47131Y550495D01*
X46752Y550390D01*
G37*
G36*
X46953Y562262D02*
X46769Y563857D01*
X46991Y563925D01*
X47198Y564006D01*
X47391Y564099D01*
X47570Y564204D01*
X47734Y564322D01*
X47885Y564451D01*
X48021Y564593D01*
X48142Y564748D01*
X48249Y564914D01*
X48342Y565093D01*
X48421Y565284D01*
X48485Y565487D01*
X48535Y565703D01*
X48571Y565931D01*
X48593Y566171D01*
X48600Y566423D01*
X48588Y566732D01*
X48552Y567023D01*
X48492Y567298D01*
X48408Y567555D01*
X48300Y567795D01*
X48169Y568017D01*
X48013Y568223D01*
X47833Y568411D01*
X47633Y568579D01*
X47414Y568725D01*
X47178Y568849D01*
X46924Y568950D01*
X46651Y569028D01*
X46361Y569084D01*
X46053Y569118D01*
X45727Y569129D01*
X45443Y569118D01*
X45172Y569084D01*
X44916Y569028D01*
X44674Y568949D01*
X44445Y568847D01*
X44231Y568723D01*
X44030Y568576D01*
X43844Y568407D01*
X43675Y568218D01*
X43530Y568014D01*
X43406Y567794D01*
X43305Y567558D01*
X43227Y567307D01*
X43170Y567039D01*
X43137Y566756D01*
X43126Y566458D01*
X43138Y566144D01*
X43176Y565840D01*
X43239Y565548D01*
X43327Y565267D01*
X43445Y564991D01*
X43599Y564715D01*
X43787Y564439D01*
X44010Y564163D01*
X44010Y562622D01*
X37371Y563033D01*
X37371Y570049D01*
X38711Y570049D01*
X38711Y564470D01*
X42626Y564233D01*
X42442Y564497D01*
X42282Y564777D01*
X42146Y565072D01*
X42035Y565383D01*
X41949Y565709D01*
X41887Y566051D01*
X41850Y566409D01*
X41838Y566782D01*
X41855Y567226D01*
X41905Y567646D01*
X41988Y568044D01*
X42105Y568419D01*
X42255Y568770D01*
X42439Y569098D01*
X42656Y569403D01*
X42907Y569685D01*
X43184Y569939D01*
X43481Y570159D01*
X43799Y570344D01*
X44137Y570497D01*
X44495Y570615D01*
X44874Y570699D01*
X45273Y570750D01*
X45692Y570767D01*
X46167Y570749D01*
X46616Y570694D01*
X47040Y570604D01*
X47437Y570477D01*
X47808Y570314D01*
X48154Y570114D01*
X48473Y569878D01*
X48766Y569606D01*
X49029Y569302D01*
X49257Y568970D01*
X49449Y568610D01*
X49607Y568222D01*
X49730Y567805D01*
X49817Y567361D01*
X49870Y566888D01*
X49887Y566388D01*
X49875Y565967D01*
X49840Y565567D01*
X49781Y565187D01*
X49699Y564829D01*
X49593Y564491D01*
X49464Y564174D01*
X49311Y563878D01*
X49134Y563603D01*
X48935Y563350D01*
X48715Y563121D01*
X48474Y562917D01*
X48212Y562738D01*
X47929Y562582D01*
X47625Y562451D01*
X47299Y562345D01*
X46953Y562262D01*
G37*
G36*
X37371Y507811D02*
X37371Y509571D01*
X46060Y512987D01*
X48241Y513723D01*
X46060Y514458D01*
X37371Y517857D01*
X37371Y519617D01*
X49712Y514581D01*
X49712Y512847D01*
X37371Y507811D01*
G37*
G36*
X49712Y572879D02*
X48372Y572879D01*
X48372Y576024D01*
X38878Y576024D01*
X40866Y573238D01*
X39377Y573238D01*
X37371Y576155D01*
X37371Y577609D01*
X48372Y577609D01*
X48372Y580613D01*
X49712Y580613D01*
X49712Y572879D01*
G37*
G36*
X53426Y581587D02*
X52963Y581985D01*
X52494Y582355D01*
X52018Y582697D01*
X51537Y583012D01*
X51050Y583300D01*
X50556Y583559D01*
X50056Y583791D01*
X49550Y583995D01*
X49035Y584174D01*
X48506Y584329D01*
X47965Y584460D01*
X47412Y584567D01*
X46845Y584650D01*
X46266Y584710D01*
X45675Y584746D01*
X45070Y584757D01*
X44465Y584745D01*
X43873Y584710D01*
X43294Y584650D01*
X42727Y584566D01*
X42173Y584458D01*
X41631Y584326D01*
X41102Y584171D01*
X40586Y583991D01*
X40079Y583786D01*
X39578Y583553D01*
X39085Y583294D01*
X38597Y583007D01*
X38117Y582693D01*
X37643Y582351D01*
X37175Y581983D01*
X36714Y581587D01*
X36714Y583111D01*
X37165Y583511D01*
X37622Y583884D01*
X38087Y584230D01*
X38559Y584549D01*
X39038Y584841D01*
X39525Y585106D01*
X40019Y585344D01*
X40520Y585554D01*
X41032Y585739D01*
X41560Y585899D01*
X42104Y586035D01*
X42662Y586146D01*
X43237Y586232D01*
X43827Y586293D01*
X44432Y586330D01*
X45052Y586343D01*
X45088Y586343D01*
X45712Y586330D01*
X46321Y586293D01*
X46913Y586231D01*
X47490Y586145D01*
X48050Y586033D01*
X48594Y585897D01*
X49122Y585736D01*
X49633Y585550D01*
X50133Y585339D01*
X50626Y585100D01*
X51111Y584836D01*
X51589Y584544D01*
X52059Y584226D01*
X52522Y583881D01*
X52977Y583509D01*
X53426Y583111D01*
X53426Y581587D01*
G37*
G36*
X45088Y544719D02*
X45052Y544719D01*
X44428Y544731D01*
X43819Y544769D01*
X43227Y544831D01*
X42650Y544917D01*
X42090Y545029D01*
X41546Y545165D01*
X41018Y545326D01*
X40507Y545512D01*
X40007Y545723D01*
X39514Y545961D01*
X39029Y546226D01*
X38551Y546518D01*
X38081Y546836D01*
X37618Y547181D01*
X37163Y547553D01*
X36714Y547951D01*
X36714Y549475D01*
X37173Y549079D01*
X37639Y548711D01*
X38113Y548369D01*
X38593Y548055D01*
X39081Y547768D01*
X39575Y547508D01*
X40077Y547276D01*
X40586Y547071D01*
X41104Y546891D01*
X41634Y546735D01*
X42177Y546604D01*
X42731Y546496D01*
X43298Y546412D01*
X43877Y546352D01*
X44467Y546316D01*
X45070Y546304D01*
X45671Y546316D01*
X46259Y546352D01*
X46835Y546411D01*
X47400Y546494D01*
X47952Y546600D01*
X48492Y546731D01*
X49021Y546884D01*
X49537Y547062D01*
X50044Y547265D01*
X50545Y547497D01*
X51040Y547756D01*
X51529Y548044D01*
X52012Y548360D01*
X52490Y548703D01*
X52961Y549075D01*
X53426Y549475D01*
X53426Y547951D01*
X52975Y547551D01*
X52518Y547177D01*
X52053Y546831D01*
X51581Y546512D01*
X51102Y546220D01*
X50615Y545956D01*
X50121Y545718D01*
X49620Y545507D01*
X49108Y545323D01*
X48580Y545162D01*
X48036Y545027D01*
X47478Y544916D01*
X46903Y544830D01*
X46313Y544768D01*
X45708Y544731D01*
X45088Y544719D01*
G37*
G36*
X53277Y533366D02*
X52138Y533366D01*
X52138Y543815D01*
X53277Y543815D01*
X53277Y533366D01*
G37*
G36*
X49712Y321442D02*
X37371Y326478D01*
X37371Y328379D01*
X49712Y333336D01*
X49712Y331628D01*
X46104Y330218D01*
X46104Y324595D01*
X49712Y323176D01*
X49712Y321442D01*
G37*
%LPC*%
G36*
X44798Y325103D02*
X44798Y329719D01*
X40726Y328133D01*
X40082Y327888D01*
X39359Y327643D01*
X38632Y327406D01*
X38878Y327328D01*
X39708Y327056D01*
X40743Y326679D01*
X44798Y325103D01*
G37*
%LPD*%
G36*
X49712Y309909D02*
X37371Y309909D01*
X37371Y311582D01*
X42591Y311582D01*
X42591Y318256D01*
X37371Y318256D01*
X37371Y319929D01*
X49712Y319929D01*
X49712Y318256D01*
X43993Y318256D01*
X43993Y311582D01*
X49712Y311582D01*
X49712Y309909D01*
G37*
G36*
X49712Y334847D02*
X37371Y334847D01*
X37371Y336520D01*
X48346Y336520D01*
X48346Y342756D01*
X49712Y342756D01*
X49712Y334847D01*
G37*
G36*
X49712Y344816D02*
X37371Y344816D01*
X37371Y346489D01*
X48346Y346489D01*
X48346Y352725D01*
X49712Y352725D01*
X49712Y344816D01*
G37*
G36*
X-92541Y47065D02*
X-92999Y47077D01*
X-93442Y47113D01*
X-93869Y47174D01*
X-94280Y47259D01*
X-94676Y47368D01*
X-95056Y47501D01*
X-95420Y47658D01*
X-95768Y47840D01*
X-96099Y48044D01*
X-96409Y48269D01*
X-96699Y48515D01*
X-96968Y48782D01*
X-97218Y49069D01*
X-97447Y49377D01*
X-97655Y49706D01*
X-97844Y50056D01*
X-98011Y50424D01*
X-98156Y50809D01*
X-98279Y51211D01*
X-98379Y51629D01*
X-98458Y52064D01*
X-98513Y52515D01*
X-98547Y52983D01*
X-98558Y53467D01*
X-98552Y53831D01*
X-98533Y54185D01*
X-98502Y54529D01*
X-98458Y54863D01*
X-98402Y55187D01*
X-98334Y55501D01*
X-98253Y55805D01*
X-98159Y56099D01*
X-98054Y56383D01*
X-97935Y56657D01*
X-97661Y57175D01*
X-97337Y57654D01*
X-96964Y58092D01*
X-96546Y58484D01*
X-96090Y58824D01*
X-95848Y58974D01*
X-95596Y59111D01*
X-95334Y59235D01*
X-95063Y59346D01*
X-94783Y59445D01*
X-94492Y59529D01*
X-94192Y59601D01*
X-93883Y59660D01*
X-93564Y59706D01*
X-93235Y59739D01*
X-92897Y59758D01*
X-92550Y59765D01*
X-92067Y59753D01*
X-91605Y59717D01*
X-91163Y59656D01*
X-90741Y59572D01*
X-90339Y59464D01*
X-89958Y59331D01*
X-89597Y59175D01*
X-89256Y58994D01*
X-88937Y58790D01*
X-88639Y58562D01*
X-88363Y58311D01*
X-88109Y58037D01*
X-87877Y57740D01*
X-87667Y57419D01*
X-87478Y57075D01*
X-87312Y56708D01*
X-88897Y56182D01*
X-89013Y56444D01*
X-89144Y56689D01*
X-89292Y56919D01*
X-89457Y57133D01*
X-89637Y57331D01*
X-89834Y57513D01*
X-90047Y57679D01*
X-90277Y57829D01*
X-90520Y57963D01*
X-90774Y58078D01*
X-91039Y58176D01*
X-91316Y58256D01*
X-91603Y58318D01*
X-91902Y58363D01*
X-92211Y58389D01*
X-92532Y58398D01*
X-93030Y58378D01*
X-93500Y58316D01*
X-93941Y58213D01*
X-94354Y58069D01*
X-94738Y57883D01*
X-95094Y57657D01*
X-95421Y57389D01*
X-95720Y57080D01*
X-95987Y56735D01*
X-96218Y56360D01*
X-96414Y55954D01*
X-96574Y55518D01*
X-96699Y55051D01*
X-96788Y54554D01*
X-96841Y54026D01*
X-96859Y53467D01*
X-96840Y52914D01*
X-96785Y52389D01*
X-96692Y51891D01*
X-96562Y51421D01*
X-96395Y50979D01*
X-96191Y50565D01*
X-95950Y50178D01*
X-95672Y49819D01*
X-95362Y49496D01*
X-95026Y49216D01*
X-94664Y48979D01*
X-94276Y48785D01*
X-93862Y48634D01*
X-93421Y48526D01*
X-92955Y48461D01*
X-92462Y48440D01*
X-92143Y48450D01*
X-91834Y48480D01*
X-91535Y48530D01*
X-91246Y48600D01*
X-90967Y48691D01*
X-90699Y48801D01*
X-90440Y48931D01*
X-90191Y49081D01*
X-89953Y49252D01*
X-89724Y49442D01*
X-89506Y49653D01*
X-89297Y49883D01*
X-89099Y50134D01*
X-88911Y50405D01*
X-88733Y50695D01*
X-88564Y51006D01*
X-87198Y50323D01*
X-87398Y49936D01*
X-87618Y49574D01*
X-87856Y49235D01*
X-88114Y48919D01*
X-88392Y48628D01*
X-88688Y48361D01*
X-89004Y48117D01*
X-89340Y47897D01*
X-89691Y47702D01*
X-90057Y47533D01*
X-90436Y47390D01*
X-90830Y47273D01*
X-91237Y47182D01*
X-91658Y47117D01*
X-92092Y47078D01*
X-92541Y47065D01*
G37*
G36*
X-77426Y47240D02*
X-85598Y47240D01*
X-85598Y48352D01*
X-85362Y48850D01*
X-85102Y49317D01*
X-84817Y49754D01*
X-84507Y50161D01*
X-84181Y50544D01*
X-83847Y50908D01*
X-83505Y51253D01*
X-83154Y51580D01*
X-82448Y52192D01*
X-81749Y52758D01*
X-81086Y53301D01*
X-80492Y53844D01*
X-80225Y54119D01*
X-79985Y54400D01*
X-79772Y54688D01*
X-79585Y54983D01*
X-79434Y55290D01*
X-79326Y55618D01*
X-79261Y55965D01*
X-79239Y56331D01*
X-79249Y56578D01*
X-79276Y56811D01*
X-79323Y57029D01*
X-79388Y57233D01*
X-79472Y57423D01*
X-79574Y57599D01*
X-79695Y57761D01*
X-79835Y57908D01*
X-79991Y58039D01*
X-80162Y58153D01*
X-80347Y58249D01*
X-80546Y58328D01*
X-80761Y58390D01*
X-80989Y58433D01*
X-81232Y58460D01*
X-81490Y58468D01*
X-81736Y58460D01*
X-81972Y58434D01*
X-82196Y58391D01*
X-82409Y58332D01*
X-82611Y58255D01*
X-82801Y58161D01*
X-82981Y58049D01*
X-83150Y57921D01*
X-83305Y57777D01*
X-83442Y57620D01*
X-83564Y57448D01*
X-83668Y57263D01*
X-83755Y57064D01*
X-83826Y56851D01*
X-83879Y56624D01*
X-83916Y56384D01*
X-85528Y56533D01*
X-85470Y56893D01*
X-85384Y57235D01*
X-85269Y57558D01*
X-85126Y57862D01*
X-84955Y58147D01*
X-84755Y58413D01*
X-84527Y58660D01*
X-84271Y58889D01*
X-83991Y59094D01*
X-83692Y59272D01*
X-83373Y59423D01*
X-83035Y59546D01*
X-82678Y59642D01*
X-82301Y59710D01*
X-81905Y59751D01*
X-81490Y59765D01*
X-81037Y59751D01*
X-80611Y59710D01*
X-80212Y59641D01*
X-79840Y59545D01*
X-79495Y59421D01*
X-79177Y59270D01*
X-78886Y59091D01*
X-78622Y58884D01*
X-78387Y58653D01*
X-78183Y58398D01*
X-78011Y58120D01*
X-77870Y57819D01*
X-77760Y57495D01*
X-77682Y57148D01*
X-77635Y56777D01*
X-77619Y56384D01*
X-77639Y56025D01*
X-77701Y55668D01*
X-77804Y55312D01*
X-77947Y54956D01*
X-78132Y54602D01*
X-78356Y54247D01*
X-78620Y53892D01*
X-78924Y53537D01*
X-79322Y53134D01*
X-79868Y52633D01*
X-80561Y52035D01*
X-81403Y51339D01*
X-81880Y50937D01*
X-82307Y50556D01*
X-82682Y50195D01*
X-83005Y49854D01*
X-83282Y49527D01*
X-83518Y49205D01*
X-83712Y48890D01*
X-83864Y48580D01*
X-77426Y48580D01*
X-77426Y47240D01*
G37*
G36*
X-170541Y47065D02*
X-170999Y47077D01*
X-171442Y47113D01*
X-171869Y47174D01*
X-172280Y47259D01*
X-172676Y47368D01*
X-173056Y47501D01*
X-173420Y47658D01*
X-173768Y47840D01*
X-174099Y48044D01*
X-174409Y48269D01*
X-174699Y48515D01*
X-174968Y48782D01*
X-175218Y49069D01*
X-175447Y49377D01*
X-175655Y49706D01*
X-175844Y50056D01*
X-176011Y50424D01*
X-176156Y50809D01*
X-176279Y51211D01*
X-176379Y51629D01*
X-176458Y52064D01*
X-176513Y52515D01*
X-176547Y52983D01*
X-176558Y53467D01*
X-176552Y53831D01*
X-176533Y54185D01*
X-176502Y54529D01*
X-176458Y54863D01*
X-176402Y55187D01*
X-176334Y55501D01*
X-176253Y55805D01*
X-176159Y56099D01*
X-176054Y56383D01*
X-175935Y56657D01*
X-175661Y57175D01*
X-175337Y57654D01*
X-174964Y58092D01*
X-174546Y58484D01*
X-174090Y58824D01*
X-173848Y58974D01*
X-173596Y59111D01*
X-173334Y59235D01*
X-173063Y59346D01*
X-172783Y59445D01*
X-172492Y59529D01*
X-172192Y59601D01*
X-171883Y59660D01*
X-171564Y59706D01*
X-171235Y59739D01*
X-170897Y59758D01*
X-170550Y59765D01*
X-170067Y59753D01*
X-169605Y59717D01*
X-169163Y59656D01*
X-168741Y59572D01*
X-168339Y59464D01*
X-167958Y59331D01*
X-167597Y59175D01*
X-167256Y58994D01*
X-166937Y58790D01*
X-166639Y58562D01*
X-166363Y58311D01*
X-166109Y58037D01*
X-165877Y57740D01*
X-165667Y57419D01*
X-165478Y57075D01*
X-165312Y56708D01*
X-166897Y56182D01*
X-167013Y56444D01*
X-167144Y56689D01*
X-167292Y56919D01*
X-167457Y57133D01*
X-167637Y57331D01*
X-167834Y57513D01*
X-168047Y57679D01*
X-168277Y57829D01*
X-168520Y57963D01*
X-168774Y58078D01*
X-169039Y58176D01*
X-169316Y58256D01*
X-169603Y58318D01*
X-169902Y58363D01*
X-170211Y58389D01*
X-170532Y58398D01*
X-171030Y58378D01*
X-171500Y58316D01*
X-171941Y58213D01*
X-172354Y58069D01*
X-172738Y57883D01*
X-173094Y57657D01*
X-173421Y57389D01*
X-173720Y57080D01*
X-173987Y56735D01*
X-174218Y56360D01*
X-174414Y55954D01*
X-174574Y55518D01*
X-174699Y55051D01*
X-174788Y54554D01*
X-174841Y54026D01*
X-174859Y53467D01*
X-174840Y52914D01*
X-174785Y52389D01*
X-174692Y51891D01*
X-174562Y51421D01*
X-174395Y50979D01*
X-174191Y50565D01*
X-173950Y50178D01*
X-173672Y49819D01*
X-173362Y49496D01*
X-173026Y49216D01*
X-172664Y48979D01*
X-172276Y48785D01*
X-171862Y48634D01*
X-171421Y48526D01*
X-170955Y48461D01*
X-170462Y48440D01*
X-170143Y48450D01*
X-169834Y48480D01*
X-169535Y48530D01*
X-169246Y48600D01*
X-168967Y48691D01*
X-168699Y48801D01*
X-168440Y48931D01*
X-168191Y49081D01*
X-167953Y49252D01*
X-167724Y49442D01*
X-167506Y49653D01*
X-167297Y49883D01*
X-167099Y50134D01*
X-166911Y50405D01*
X-166733Y50695D01*
X-166564Y51006D01*
X-165198Y50323D01*
X-165398Y49936D01*
X-165618Y49574D01*
X-165856Y49235D01*
X-166114Y48919D01*
X-166392Y48628D01*
X-166688Y48361D01*
X-167004Y48117D01*
X-167340Y47897D01*
X-167691Y47702D01*
X-168057Y47533D01*
X-168436Y47390D01*
X-168830Y47273D01*
X-169237Y47182D01*
X-169658Y47117D01*
X-170092Y47078D01*
X-170541Y47065D01*
G37*
G36*
X-155400Y47240D02*
X-163134Y47240D01*
X-163134Y48580D01*
X-159989Y48580D01*
X-159989Y58074D01*
X-162775Y56086D01*
X-162775Y57575D01*
X-159858Y59581D01*
X-158404Y59581D01*
X-158404Y48580D01*
X-155400Y48580D01*
X-155400Y47240D01*
G37*
G36*
X-83324Y115500D02*
X-84997Y115500D01*
X-84997Y127841D01*
X-79190Y127841D01*
X-78684Y127826D01*
X-78208Y127782D01*
X-77761Y127710D01*
X-77343Y127608D01*
X-76956Y127476D01*
X-76598Y127316D01*
X-76270Y127127D01*
X-75972Y126908D01*
X-75706Y126663D01*
X-75475Y126396D01*
X-75280Y126106D01*
X-75121Y125792D01*
X-74997Y125456D01*
X-74908Y125097D01*
X-74855Y124716D01*
X-74837Y124311D01*
X-74850Y123974D01*
X-74888Y123651D01*
X-74950Y123341D01*
X-75038Y123045D01*
X-75150Y122763D01*
X-75288Y122495D01*
X-75451Y122240D01*
X-75639Y121999D01*
X-75849Y121775D01*
X-76078Y121574D01*
X-76325Y121393D01*
X-76436Y121327D01*
X-76592Y121235D01*
X-76878Y121098D01*
X-77183Y120982D01*
X-77507Y120889D01*
X-77850Y120816D01*
X-76359Y118553D01*
X-74347Y115500D01*
X-76274Y115500D01*
X-79479Y120624D01*
X-83324Y120624D01*
X-83324Y115500D01*
G37*
%LPC*%
G36*
X-79287Y121946D02*
X-78966Y121956D01*
X-78663Y121985D01*
X-78379Y122033D01*
X-78114Y122101D01*
X-77868Y122187D01*
X-77640Y122294D01*
X-77432Y122419D01*
X-77242Y122564D01*
X-77072Y122726D01*
X-76926Y122903D01*
X-76801Y123096D01*
X-76700Y123305D01*
X-76621Y123529D01*
X-76564Y123768D01*
X-76530Y124023D01*
X-76519Y124294D01*
X-76531Y124555D01*
X-76565Y124800D01*
X-76622Y125030D01*
X-76702Y125243D01*
X-76805Y125440D01*
X-76930Y125621D01*
X-77079Y125787D01*
X-77250Y125936D01*
X-77443Y126068D01*
X-77656Y126183D01*
X-77889Y126280D01*
X-78143Y126360D01*
X-78416Y126421D01*
X-78710Y126465D01*
X-79023Y126492D01*
X-79357Y126501D01*
X-83324Y126501D01*
X-83324Y121946D01*
X-79287Y121946D01*
G37*
%LPD*%
G36*
X-68840Y115325D02*
X-69193Y115334D01*
X-69527Y115363D01*
X-69844Y115410D01*
X-70142Y115477D01*
X-70423Y115563D01*
X-70686Y115667D01*
X-70930Y115791D01*
X-71157Y115934D01*
X-71367Y116097D01*
X-71562Y116285D01*
X-71741Y116495D01*
X-71905Y116729D01*
X-72053Y116987D01*
X-72186Y117268D01*
X-72303Y117572D01*
X-72405Y117900D01*
X-70899Y118136D01*
X-70763Y117775D01*
X-70591Y117462D01*
X-70384Y117197D01*
X-70141Y116980D01*
X-69863Y116812D01*
X-69549Y116691D01*
X-69199Y116619D01*
X-69011Y116601D01*
X-68814Y116595D01*
X-68484Y116615D01*
X-68174Y116674D01*
X-67882Y116772D01*
X-67610Y116910D01*
X-67357Y117087D01*
X-67123Y117304D01*
X-66908Y117560D01*
X-66712Y117856D01*
X-66537Y118188D01*
X-66384Y118554D01*
X-66254Y118953D01*
X-66145Y119387D01*
X-66059Y119853D01*
X-65995Y120354D01*
X-65952Y120888D01*
X-65933Y121456D01*
X-66028Y121264D01*
X-66139Y121081D01*
X-66266Y120908D01*
X-66408Y120745D01*
X-66566Y120592D01*
X-66739Y120448D01*
X-66928Y120314D01*
X-67133Y120190D01*
X-67348Y120078D01*
X-67568Y119981D01*
X-67793Y119899D01*
X-68024Y119832D01*
X-68260Y119780D01*
X-68501Y119743D01*
X-68747Y119720D01*
X-68998Y119713D01*
X-69404Y119731D01*
X-69789Y119784D01*
X-70153Y119873D01*
X-70496Y119998D01*
X-70818Y120158D01*
X-71120Y120353D01*
X-71401Y120585D01*
X-71661Y120851D01*
X-71895Y121148D01*
X-72098Y121467D01*
X-72269Y121810D01*
X-72410Y122176D01*
X-72519Y122566D01*
X-72597Y122978D01*
X-72644Y123414D01*
X-72659Y123873D01*
X-72642Y124344D01*
X-72591Y124789D01*
X-72506Y125209D01*
X-72388Y125602D01*
X-72235Y125969D01*
X-72048Y126311D01*
X-71828Y126627D01*
X-71573Y126917D01*
X-71288Y127176D01*
X-70977Y127401D01*
X-70639Y127592D01*
X-70275Y127748D01*
X-69884Y127869D01*
X-69466Y127955D01*
X-69022Y128007D01*
X-68551Y128025D01*
X-68298Y128019D01*
X-68052Y128001D01*
X-67585Y127929D01*
X-67148Y127810D01*
X-66743Y127644D01*
X-66369Y127429D01*
X-66026Y127167D01*
X-65714Y126858D01*
X-65433Y126501D01*
X-65185Y126096D01*
X-64970Y125643D01*
X-64788Y125142D01*
X-64639Y124594D01*
X-64523Y123997D01*
X-64440Y123353D01*
X-64390Y122660D01*
X-64374Y121920D01*
X-64392Y121148D01*
X-64446Y120422D01*
X-64537Y119742D01*
X-64664Y119109D01*
X-64827Y118521D01*
X-65026Y117979D01*
X-65262Y117483D01*
X-65534Y117033D01*
X-65840Y116632D01*
X-66176Y116286D01*
X-66543Y115992D01*
X-66941Y115752D01*
X-67370Y115565D01*
X-67596Y115492D01*
X-67829Y115432D01*
X-68070Y115385D01*
X-68319Y115352D01*
X-68576Y115332D01*
X-68840Y115325D01*
G37*
%LPC*%
G36*
X-68622Y120957D02*
X-68286Y120976D01*
X-67962Y121034D01*
X-67651Y121131D01*
X-67352Y121268D01*
X-67074Y121439D01*
X-66827Y121643D01*
X-66612Y121879D01*
X-66428Y122148D01*
X-66280Y122442D01*
X-66175Y122756D01*
X-66111Y123090D01*
X-66090Y123444D01*
X-66101Y123807D01*
X-66133Y124152D01*
X-66186Y124479D01*
X-66261Y124787D01*
X-66357Y125078D01*
X-66475Y125350D01*
X-66613Y125604D01*
X-66773Y125839D01*
X-66952Y126052D01*
X-67144Y126236D01*
X-67351Y126392D01*
X-67573Y126519D01*
X-67809Y126618D01*
X-68059Y126689D01*
X-68324Y126732D01*
X-68604Y126746D01*
X-68881Y126734D01*
X-69143Y126698D01*
X-69390Y126637D01*
X-69622Y126552D01*
X-69839Y126443D01*
X-70041Y126310D01*
X-70228Y126153D01*
X-70400Y125971D01*
X-70553Y125769D01*
X-70687Y125549D01*
X-70800Y125313D01*
X-70892Y125059D01*
X-70964Y124788D01*
X-71015Y124500D01*
X-71046Y124195D01*
X-71056Y123873D01*
X-71046Y123545D01*
X-71015Y123234D01*
X-70964Y122941D01*
X-70892Y122666D01*
X-70800Y122408D01*
X-70687Y122168D01*
X-70553Y121945D01*
X-70400Y121740D01*
X-70228Y121557D01*
X-70042Y121398D01*
X-69842Y121263D01*
X-69627Y121153D01*
X-69397Y121067D01*
X-69153Y121006D01*
X-68895Y120969D01*
X-68622Y120957D01*
G37*
%LPD*%
G36*
X-170324Y115500D02*
X-171997Y115500D01*
X-171997Y127841D01*
X-166190Y127841D01*
X-165684Y127826D01*
X-165208Y127782D01*
X-164761Y127710D01*
X-164343Y127608D01*
X-163956Y127476D01*
X-163598Y127316D01*
X-163270Y127127D01*
X-162972Y126908D01*
X-162706Y126663D01*
X-162475Y126396D01*
X-162280Y126106D01*
X-162121Y125792D01*
X-161997Y125456D01*
X-161908Y125097D01*
X-161855Y124716D01*
X-161837Y124311D01*
X-161850Y123974D01*
X-161888Y123651D01*
X-161950Y123341D01*
X-162038Y123045D01*
X-162150Y122763D01*
X-162288Y122495D01*
X-162451Y122240D01*
X-162639Y121999D01*
X-162849Y121775D01*
X-163078Y121574D01*
X-163325Y121393D01*
X-163436Y121327D01*
X-163592Y121235D01*
X-163878Y121098D01*
X-164183Y120982D01*
X-164507Y120889D01*
X-164850Y120816D01*
X-163359Y118553D01*
X-161347Y115500D01*
X-163274Y115500D01*
X-166479Y120624D01*
X-170324Y120624D01*
X-170324Y115500D01*
G37*
%LPC*%
G36*
X-166287Y121946D02*
X-165966Y121956D01*
X-165663Y121985D01*
X-165379Y122033D01*
X-165114Y122101D01*
X-164868Y122187D01*
X-164640Y122294D01*
X-164432Y122419D01*
X-164242Y122564D01*
X-164072Y122726D01*
X-163926Y122903D01*
X-163801Y123096D01*
X-163700Y123305D01*
X-163621Y123529D01*
X-163564Y123768D01*
X-163530Y124023D01*
X-163519Y124294D01*
X-163531Y124555D01*
X-163565Y124800D01*
X-163622Y125030D01*
X-163702Y125243D01*
X-163805Y125440D01*
X-163930Y125621D01*
X-164079Y125787D01*
X-164250Y125936D01*
X-164443Y126068D01*
X-164656Y126183D01*
X-164889Y126280D01*
X-165143Y126360D01*
X-165416Y126421D01*
X-165710Y126465D01*
X-166023Y126492D01*
X-166357Y126501D01*
X-170324Y126501D01*
X-170324Y121946D01*
X-166287Y121946D01*
G37*
%LPD*%
G36*
X-151400Y115500D02*
X-159134Y115500D01*
X-159134Y116840D01*
X-155989Y116840D01*
X-155989Y126334D01*
X-158775Y124346D01*
X-158775Y125835D01*
X-155858Y127841D01*
X-154404Y127841D01*
X-154404Y116840D01*
X-151400Y116840D01*
X-151400Y115500D01*
G37*
G36*
X-150056Y263625D02*
X-150515Y263637D01*
X-150958Y263673D01*
X-151385Y263734D01*
X-151796Y263819D01*
X-152192Y263928D01*
X-152571Y264061D01*
X-152936Y264218D01*
X-153284Y264400D01*
X-153614Y264604D01*
X-153924Y264829D01*
X-154214Y265075D01*
X-154484Y265342D01*
X-154733Y265629D01*
X-154962Y265937D01*
X-155171Y266266D01*
X-155360Y266616D01*
X-155527Y266984D01*
X-155672Y267369D01*
X-155795Y267771D01*
X-155895Y268189D01*
X-155973Y268624D01*
X-156029Y269075D01*
X-156062Y269543D01*
X-156074Y270027D01*
X-156067Y270391D01*
X-156049Y270745D01*
X-156017Y271089D01*
X-155974Y271423D01*
X-155918Y271747D01*
X-155849Y272061D01*
X-155768Y272365D01*
X-155675Y272659D01*
X-155569Y272943D01*
X-155451Y273217D01*
X-155177Y273735D01*
X-154853Y274214D01*
X-154479Y274652D01*
X-154062Y275044D01*
X-153606Y275384D01*
X-153363Y275534D01*
X-153111Y275671D01*
X-152850Y275795D01*
X-152579Y275906D01*
X-152298Y276005D01*
X-152008Y276089D01*
X-151708Y276161D01*
X-151399Y276220D01*
X-151080Y276266D01*
X-150751Y276299D01*
X-150413Y276318D01*
X-150065Y276325D01*
X-149583Y276313D01*
X-149120Y276277D01*
X-148678Y276216D01*
X-148257Y276132D01*
X-147855Y276024D01*
X-147474Y275891D01*
X-147113Y275735D01*
X-146772Y275554D01*
X-146452Y275350D01*
X-146154Y275122D01*
X-145879Y274871D01*
X-145625Y274597D01*
X-145392Y274300D01*
X-145182Y273979D01*
X-144994Y273635D01*
X-144828Y273268D01*
X-146413Y272742D01*
X-146528Y273004D01*
X-146660Y273249D01*
X-146808Y273479D01*
X-146972Y273693D01*
X-147153Y273891D01*
X-147350Y274073D01*
X-147563Y274239D01*
X-147792Y274389D01*
X-148035Y274523D01*
X-148290Y274638D01*
X-148555Y274736D01*
X-148831Y274816D01*
X-149119Y274878D01*
X-149417Y274923D01*
X-149727Y274949D01*
X-150048Y274958D01*
X-150546Y274938D01*
X-151015Y274876D01*
X-151457Y274773D01*
X-151869Y274629D01*
X-152254Y274443D01*
X-152610Y274217D01*
X-152937Y273949D01*
X-153236Y273640D01*
X-153503Y273295D01*
X-153734Y272920D01*
X-153930Y272514D01*
X-154090Y272078D01*
X-154214Y271611D01*
X-154303Y271114D01*
X-154357Y270586D01*
X-154374Y270027D01*
X-154356Y269474D01*
X-154300Y268949D01*
X-154207Y268451D01*
X-154078Y267981D01*
X-153911Y267539D01*
X-153707Y267125D01*
X-153466Y266738D01*
X-153188Y266379D01*
X-152878Y266056D01*
X-152542Y265776D01*
X-152180Y265539D01*
X-151792Y265345D01*
X-151377Y265194D01*
X-150937Y265086D01*
X-150470Y265021D01*
X-149978Y265000D01*
X-149659Y265010D01*
X-149350Y265040D01*
X-149051Y265090D01*
X-148762Y265160D01*
X-148483Y265251D01*
X-148214Y265361D01*
X-147956Y265491D01*
X-147707Y265641D01*
X-147468Y265812D01*
X-147240Y266002D01*
X-147021Y266213D01*
X-146813Y266443D01*
X-146615Y266694D01*
X-146426Y266965D01*
X-146248Y267255D01*
X-146080Y267566D01*
X-144714Y266883D01*
X-144914Y266496D01*
X-145133Y266134D01*
X-145372Y265795D01*
X-145630Y265479D01*
X-145907Y265188D01*
X-146204Y264921D01*
X-146520Y264677D01*
X-146855Y264457D01*
X-147207Y264262D01*
X-147573Y264093D01*
X-147952Y263950D01*
X-148345Y263833D01*
X-148752Y263742D01*
X-149173Y263677D01*
X-149608Y263638D01*
X-150056Y263625D01*
G37*
G36*
X-134916Y263800D02*
X-142649Y263800D01*
X-142649Y265140D01*
X-139505Y265140D01*
X-139505Y274634D01*
X-142290Y272646D01*
X-142290Y274135D01*
X-139374Y276141D01*
X-137920Y276141D01*
X-137920Y265140D01*
X-134916Y265140D01*
X-134916Y263800D01*
G37*
G36*
X-158625Y263800D02*
X-160298Y263800D01*
X-160298Y276141D01*
X-158625Y276141D01*
X-158625Y263800D01*
G37*
G36*
X-153215Y189800D02*
X-154949Y189800D01*
X-149913Y202141D01*
X-148013Y202141D01*
X-143055Y189800D01*
X-144763Y189800D01*
X-146173Y193409D01*
X-151796Y193409D01*
X-153215Y189800D01*
G37*
%LPC*%
G36*
X-146673Y194714D02*
X-148258Y198786D01*
X-148503Y199430D01*
X-148748Y200153D01*
X-148985Y200880D01*
X-149064Y200634D01*
X-149335Y199804D01*
X-149712Y198769D01*
X-151288Y194714D01*
X-146673Y194714D01*
G37*
%LPD*%
G36*
X-115362Y189800D02*
X-116851Y189800D01*
X-116851Y192594D01*
X-122667Y192594D01*
X-122667Y193820D01*
X-117017Y202141D01*
X-115362Y202141D01*
X-115362Y193838D01*
X-113628Y193838D01*
X-113628Y192594D01*
X-115362Y192594D01*
X-115362Y189800D01*
G37*
%LPC*%
G36*
X-116851Y193838D02*
X-116851Y200363D01*
X-117096Y199899D01*
X-117438Y199321D01*
X-120599Y194661D01*
X-121072Y194013D01*
X-121213Y193838D01*
X-116851Y193838D01*
G37*
%LPD*%
G36*
X-105393Y189800D02*
X-106882Y189800D01*
X-106882Y192594D01*
X-112698Y192594D01*
X-112698Y193820D01*
X-107048Y202141D01*
X-105393Y202141D01*
X-105393Y193838D01*
X-103659Y193838D01*
X-103659Y192594D01*
X-105393Y192594D01*
X-105393Y189800D01*
G37*
%LPC*%
G36*
X-106882Y193838D02*
X-106882Y200363D01*
X-107127Y199899D01*
X-107469Y199321D01*
X-110631Y194661D01*
X-111104Y194013D01*
X-111244Y193838D01*
X-106882Y193838D01*
G37*
%LPD*%
G36*
X-186931Y189625D02*
X-187390Y189637D01*
X-187833Y189673D01*
X-188260Y189734D01*
X-188671Y189819D01*
X-189067Y189928D01*
X-189446Y190061D01*
X-189811Y190218D01*
X-190159Y190400D01*
X-190489Y190604D01*
X-190799Y190829D01*
X-191089Y191075D01*
X-191359Y191342D01*
X-191608Y191629D01*
X-191837Y191937D01*
X-192046Y192266D01*
X-192235Y192616D01*
X-192402Y192984D01*
X-192547Y193369D01*
X-192670Y193771D01*
X-192770Y194189D01*
X-192848Y194624D01*
X-192904Y195075D01*
X-192937Y195543D01*
X-192949Y196027D01*
X-192942Y196391D01*
X-192924Y196745D01*
X-192892Y197089D01*
X-192849Y197423D01*
X-192793Y197747D01*
X-192724Y198061D01*
X-192643Y198365D01*
X-192550Y198659D01*
X-192444Y198943D01*
X-192326Y199217D01*
X-192052Y199735D01*
X-191728Y200214D01*
X-191354Y200652D01*
X-190937Y201044D01*
X-190481Y201384D01*
X-190238Y201534D01*
X-189986Y201671D01*
X-189725Y201795D01*
X-189454Y201906D01*
X-189173Y202005D01*
X-188883Y202089D01*
X-188583Y202161D01*
X-188274Y202220D01*
X-187955Y202266D01*
X-187626Y202299D01*
X-187288Y202318D01*
X-186940Y202325D01*
X-186458Y202313D01*
X-185995Y202277D01*
X-185553Y202216D01*
X-185132Y202132D01*
X-184730Y202024D01*
X-184349Y201891D01*
X-183988Y201735D01*
X-183647Y201554D01*
X-183327Y201350D01*
X-183029Y201122D01*
X-182754Y200871D01*
X-182500Y200597D01*
X-182267Y200300D01*
X-182057Y199979D01*
X-181869Y199635D01*
X-181703Y199268D01*
X-183288Y198742D01*
X-183403Y199004D01*
X-183535Y199249D01*
X-183683Y199479D01*
X-183847Y199693D01*
X-184028Y199891D01*
X-184225Y200073D01*
X-184438Y200239D01*
X-184667Y200389D01*
X-184910Y200523D01*
X-185165Y200638D01*
X-185430Y200736D01*
X-185706Y200816D01*
X-185994Y200878D01*
X-186292Y200923D01*
X-186602Y200949D01*
X-186923Y200958D01*
X-187421Y200938D01*
X-187890Y200876D01*
X-188332Y200773D01*
X-188744Y200629D01*
X-189129Y200443D01*
X-189485Y200217D01*
X-189812Y199949D01*
X-190111Y199640D01*
X-190378Y199295D01*
X-190609Y198920D01*
X-190805Y198514D01*
X-190965Y198078D01*
X-191089Y197611D01*
X-191178Y197114D01*
X-191232Y196586D01*
X-191249Y196027D01*
X-191231Y195474D01*
X-191175Y194949D01*
X-191082Y194451D01*
X-190953Y193981D01*
X-190786Y193539D01*
X-190582Y193125D01*
X-190341Y192738D01*
X-190063Y192379D01*
X-189753Y192056D01*
X-189417Y191776D01*
X-189055Y191539D01*
X-188667Y191345D01*
X-188252Y191194D01*
X-187812Y191086D01*
X-187345Y191021D01*
X-186853Y191000D01*
X-186534Y191010D01*
X-186225Y191040D01*
X-185926Y191090D01*
X-185637Y191160D01*
X-185358Y191251D01*
X-185089Y191361D01*
X-184831Y191491D01*
X-184582Y191641D01*
X-184343Y191812D01*
X-184115Y192002D01*
X-183896Y192213D01*
X-183688Y192443D01*
X-183490Y192694D01*
X-183301Y192965D01*
X-183123Y193255D01*
X-182955Y193566D01*
X-181589Y192883D01*
X-181789Y192496D01*
X-182008Y192134D01*
X-182247Y191795D01*
X-182505Y191479D01*
X-182782Y191188D01*
X-183079Y190921D01*
X-183395Y190677D01*
X-183730Y190457D01*
X-184082Y190262D01*
X-184448Y190093D01*
X-184827Y189950D01*
X-185220Y189833D01*
X-185627Y189742D01*
X-186048Y189677D01*
X-186483Y189638D01*
X-186931Y189625D01*
G37*
G36*
X-138015Y189625D02*
X-138471Y189638D01*
X-138904Y189678D01*
X-139314Y189744D01*
X-139699Y189836D01*
X-140061Y189955D01*
X-140400Y190100D01*
X-140715Y190272D01*
X-141006Y190470D01*
X-141271Y190694D01*
X-141507Y190943D01*
X-141716Y191218D01*
X-141896Y191518D01*
X-142047Y191843D01*
X-142171Y192194D01*
X-142266Y192569D01*
X-142332Y192971D01*
X-140703Y193119D01*
X-140656Y192854D01*
X-140592Y192606D01*
X-140513Y192375D01*
X-140417Y192162D01*
X-140305Y191965D01*
X-140177Y191785D01*
X-140034Y191623D01*
X-139874Y191477D01*
X-139697Y191349D01*
X-139505Y191238D01*
X-139297Y191144D01*
X-139073Y191067D01*
X-138832Y191007D01*
X-138576Y190964D01*
X-138303Y190938D01*
X-138015Y190930D01*
X-137725Y190939D01*
X-137451Y190967D01*
X-137193Y191012D01*
X-136951Y191077D01*
X-136726Y191159D01*
X-136516Y191260D01*
X-136322Y191379D01*
X-136145Y191517D01*
X-135985Y191672D01*
X-135848Y191846D01*
X-135731Y192037D01*
X-135635Y192246D01*
X-135561Y192473D01*
X-135508Y192717D01*
X-135476Y192979D01*
X-135466Y193260D01*
X-135478Y193505D01*
X-135514Y193736D01*
X-135575Y193953D01*
X-135660Y194156D01*
X-135769Y194346D01*
X-135902Y194522D01*
X-136059Y194684D01*
X-136241Y194832D01*
X-136445Y194964D01*
X-136671Y195079D01*
X-136919Y195176D01*
X-137188Y195255D01*
X-137478Y195317D01*
X-137790Y195361D01*
X-138124Y195388D01*
X-138479Y195397D01*
X-139372Y195397D01*
X-139372Y196763D01*
X-138514Y196763D01*
X-138199Y196772D01*
X-137902Y196798D01*
X-137623Y196842D01*
X-137363Y196904D01*
X-137121Y196984D01*
X-136897Y197081D01*
X-136691Y197196D01*
X-136504Y197328D01*
X-136336Y197476D01*
X-136191Y197638D01*
X-136069Y197813D01*
X-135968Y198001D01*
X-135890Y198203D01*
X-135834Y198419D01*
X-135801Y198649D01*
X-135790Y198891D01*
X-135799Y199132D01*
X-135826Y199360D01*
X-135872Y199575D01*
X-135935Y199777D01*
X-136017Y199966D01*
X-136117Y200142D01*
X-136236Y200305D01*
X-136372Y200455D01*
X-136527Y200589D01*
X-136699Y200706D01*
X-136889Y200804D01*
X-137096Y200885D01*
X-137321Y200948D01*
X-137564Y200993D01*
X-137824Y201019D01*
X-138102Y201028D01*
X-138356Y201020D01*
X-138598Y200995D01*
X-138828Y200953D01*
X-139045Y200895D01*
X-139249Y200820D01*
X-139441Y200728D01*
X-139621Y200619D01*
X-139788Y200494D01*
X-139941Y200354D01*
X-140076Y200200D01*
X-140195Y200032D01*
X-140297Y199850D01*
X-140382Y199655D01*
X-140451Y199446D01*
X-140502Y199224D01*
X-140537Y198988D01*
X-142122Y199110D01*
X-142064Y199479D01*
X-141978Y199826D01*
X-141863Y200153D01*
X-141720Y200459D01*
X-141549Y200744D01*
X-141350Y201009D01*
X-141122Y201252D01*
X-140865Y201475D01*
X-140585Y201674D01*
X-140286Y201847D01*
X-139967Y201993D01*
X-139629Y202112D01*
X-139272Y202205D01*
X-138896Y202272D01*
X-138500Y202311D01*
X-138085Y202325D01*
X-137633Y202311D01*
X-137208Y202271D01*
X-136808Y202203D01*
X-136435Y202109D01*
X-136087Y201988D01*
X-135765Y201839D01*
X-135469Y201664D01*
X-135199Y201462D01*
X-134957Y201236D01*
X-134748Y200988D01*
X-134572Y200720D01*
X-134427Y200430D01*
X-134314Y200118D01*
X-134234Y199786D01*
X-134186Y199433D01*
X-134170Y199058D01*
X-134180Y198769D01*
X-134211Y198494D01*
X-134263Y198233D01*
X-134335Y197986D01*
X-134428Y197753D01*
X-134541Y197533D01*
X-134676Y197327D01*
X-134831Y197135D01*
X-135005Y196958D01*
X-135199Y196795D01*
X-135411Y196647D01*
X-135642Y196515D01*
X-135892Y196397D01*
X-136160Y196294D01*
X-136447Y196206D01*
X-136753Y196132D01*
X-136753Y196097D01*
X-136417Y196050D01*
X-136100Y195984D01*
X-135802Y195897D01*
X-135523Y195791D01*
X-135263Y195665D01*
X-135022Y195519D01*
X-134801Y195354D01*
X-134599Y195169D01*
X-134418Y194968D01*
X-134261Y194754D01*
X-134129Y194528D01*
X-134021Y194289D01*
X-133936Y194037D01*
X-133876Y193773D01*
X-133840Y193496D01*
X-133828Y193207D01*
X-133845Y192792D01*
X-133896Y192401D01*
X-133981Y192035D01*
X-134099Y191692D01*
X-134252Y191373D01*
X-134439Y191079D01*
X-134659Y190808D01*
X-134914Y190562D01*
X-135200Y190342D01*
X-135515Y190152D01*
X-135859Y189991D01*
X-136232Y189859D01*
X-136634Y189757D01*
X-137065Y189683D01*
X-137525Y189640D01*
X-138015Y189625D01*
G37*
G36*
X-171817Y189800D02*
X-179989Y189800D01*
X-179989Y190912D01*
X-179753Y191410D01*
X-179493Y191877D01*
X-179208Y192314D01*
X-178898Y192721D01*
X-178572Y193104D01*
X-178238Y193468D01*
X-177896Y193813D01*
X-177545Y194140D01*
X-176839Y194752D01*
X-176139Y195318D01*
X-175477Y195861D01*
X-174882Y196404D01*
X-174615Y196679D01*
X-174375Y196960D01*
X-174162Y197248D01*
X-173976Y197543D01*
X-173824Y197850D01*
X-173716Y198178D01*
X-173651Y198525D01*
X-173630Y198891D01*
X-173639Y199138D01*
X-173667Y199371D01*
X-173714Y199589D01*
X-173779Y199793D01*
X-173862Y199983D01*
X-173965Y200159D01*
X-174086Y200321D01*
X-174225Y200468D01*
X-174382Y200599D01*
X-174552Y200713D01*
X-174737Y200809D01*
X-174937Y200888D01*
X-175151Y200950D01*
X-175380Y200993D01*
X-175623Y201020D01*
X-175881Y201028D01*
X-176127Y201020D01*
X-176362Y200994D01*
X-176586Y200951D01*
X-176799Y200892D01*
X-177001Y200815D01*
X-177192Y200721D01*
X-177372Y200609D01*
X-177541Y200481D01*
X-177695Y200337D01*
X-177833Y200180D01*
X-177954Y200008D01*
X-178058Y199823D01*
X-178146Y199624D01*
X-178216Y199411D01*
X-178270Y199184D01*
X-178307Y198944D01*
X-179918Y199093D01*
X-179861Y199453D01*
X-179774Y199795D01*
X-179660Y200118D01*
X-179517Y200422D01*
X-179345Y200707D01*
X-179146Y200973D01*
X-178918Y201220D01*
X-178662Y201449D01*
X-178382Y201654D01*
X-178082Y201832D01*
X-177764Y201983D01*
X-177426Y202106D01*
X-177068Y202202D01*
X-176692Y202270D01*
X-176296Y202311D01*
X-175881Y202325D01*
X-175428Y202311D01*
X-175002Y202270D01*
X-174603Y202201D01*
X-174231Y202105D01*
X-173886Y201981D01*
X-173568Y201830D01*
X-173277Y201651D01*
X-173012Y201444D01*
X-172777Y201213D01*
X-172574Y200958D01*
X-172401Y200680D01*
X-172260Y200379D01*
X-172151Y200055D01*
X-172072Y199708D01*
X-172025Y199337D01*
X-172009Y198944D01*
X-172030Y198585D01*
X-172092Y198228D01*
X-172194Y197872D01*
X-172338Y197516D01*
X-172522Y197162D01*
X-172746Y196807D01*
X-173010Y196452D01*
X-173315Y196097D01*
X-173712Y195694D01*
X-174258Y195193D01*
X-174952Y194595D01*
X-175793Y193899D01*
X-176271Y193497D01*
X-176698Y193116D01*
X-177072Y192755D01*
X-177396Y192414D01*
X-177673Y192087D01*
X-177908Y191765D01*
X-178102Y191450D01*
X-178254Y191140D01*
X-171817Y191140D01*
X-171817Y189800D01*
G37*
G36*
X-123947Y189800D02*
X-131681Y189800D01*
X-131681Y191140D01*
X-128536Y191140D01*
X-128536Y200634D01*
X-131321Y198646D01*
X-131321Y200135D01*
X-128405Y202141D01*
X-126951Y202141D01*
X-126951Y191140D01*
X-123947Y191140D01*
X-123947Y189800D01*
G37*
G36*
X-101512Y186086D02*
X-103036Y186086D01*
X-102638Y186549D01*
X-102268Y187018D01*
X-101925Y187494D01*
X-101610Y187975D01*
X-101323Y188463D01*
X-101063Y188956D01*
X-100831Y189456D01*
X-100627Y189962D01*
X-100448Y190477D01*
X-100294Y191006D01*
X-100163Y191547D01*
X-100055Y192100D01*
X-99972Y192667D01*
X-99913Y193246D01*
X-99877Y193837D01*
X-99865Y194442D01*
X-99877Y195047D01*
X-99913Y195639D01*
X-99973Y196218D01*
X-100057Y196785D01*
X-100164Y197339D01*
X-100296Y197881D01*
X-100452Y198410D01*
X-100631Y198926D01*
X-100837Y199433D01*
X-101069Y199934D01*
X-101329Y200427D01*
X-101616Y200915D01*
X-101930Y201395D01*
X-102271Y201869D01*
X-102640Y202337D01*
X-103036Y202798D01*
X-101512Y202798D01*
X-101111Y202347D01*
X-100738Y201890D01*
X-100392Y201425D01*
X-100073Y200953D01*
X-99781Y200474D01*
X-99516Y199987D01*
X-99279Y199493D01*
X-99068Y198992D01*
X-98883Y198480D01*
X-98723Y197952D01*
X-98588Y197408D01*
X-98477Y196850D01*
X-98391Y196275D01*
X-98329Y195685D01*
X-98292Y195080D01*
X-98280Y194460D01*
X-98280Y194425D01*
X-98292Y193800D01*
X-98329Y193191D01*
X-98391Y192599D01*
X-98478Y192022D01*
X-98589Y191462D01*
X-98726Y190918D01*
X-98887Y190391D01*
X-99072Y189879D01*
X-99284Y189379D01*
X-99522Y188886D01*
X-99787Y188401D01*
X-100078Y187924D01*
X-100397Y187453D01*
X-100742Y186990D01*
X-101113Y186535D01*
X-101512Y186086D01*
G37*
G36*
X-155085Y186086D02*
X-156609Y186086D01*
X-157009Y186537D01*
X-157382Y186994D01*
X-157729Y187459D01*
X-158048Y187931D01*
X-158339Y188411D01*
X-158604Y188897D01*
X-158842Y189391D01*
X-159053Y189892D01*
X-159237Y190404D01*
X-159397Y190932D01*
X-159533Y191476D01*
X-159644Y192035D01*
X-159730Y192609D01*
X-159792Y193199D01*
X-159829Y193804D01*
X-159841Y194425D01*
X-159841Y194460D01*
X-159828Y195084D01*
X-159791Y195693D01*
X-159729Y196285D01*
X-159643Y196862D01*
X-159531Y197422D01*
X-159395Y197966D01*
X-159234Y198494D01*
X-159048Y199005D01*
X-158837Y199505D01*
X-158598Y199998D01*
X-158334Y200483D01*
X-158042Y200961D01*
X-157724Y201431D01*
X-157379Y201894D01*
X-157007Y202349D01*
X-156609Y202798D01*
X-155085Y202798D01*
X-155481Y202339D01*
X-155849Y201873D01*
X-156191Y201399D01*
X-156505Y200919D01*
X-156792Y200432D01*
X-157051Y199937D01*
X-157284Y199435D01*
X-157489Y198926D01*
X-157669Y198408D01*
X-157824Y197878D01*
X-157956Y197335D01*
X-158064Y196781D01*
X-158148Y196214D01*
X-158208Y195635D01*
X-158244Y195045D01*
X-158256Y194442D01*
X-158244Y193842D01*
X-158208Y193253D01*
X-158149Y192677D01*
X-158066Y192112D01*
X-157960Y191560D01*
X-157829Y191020D01*
X-157675Y190491D01*
X-157498Y189975D01*
X-157294Y189468D01*
X-157063Y188967D01*
X-156803Y188472D01*
X-156516Y187983D01*
X-156200Y187500D01*
X-155857Y187022D01*
X-155485Y186551D01*
X-155085Y186086D01*
G37*
G36*
X-195500Y189800D02*
X-197173Y189800D01*
X-197173Y202141D01*
X-195500Y202141D01*
X-195500Y189800D01*
G37*
G36*
X-160744Y186235D02*
X-171193Y186235D01*
X-171193Y187374D01*
X-160744Y187374D01*
X-160744Y186235D01*
G37*
D10*
X331600Y83800D02*
X128400Y83800D01*
X128400Y236200D01*
X331600Y236200D01*
X331600Y83800D01*
D11*
X140100Y78000D02*
X140102Y78063D01*
X140108Y78125D01*
X140118Y78187D01*
X140131Y78249D01*
X140149Y78309D01*
X140170Y78368D01*
X140195Y78426D01*
X140224Y78482D01*
X140256Y78536D01*
X140291Y78588D01*
X140329Y78637D01*
X140371Y78685D01*
X140415Y78729D01*
X140463Y78771D01*
X140512Y78809D01*
X140564Y78844D01*
X140618Y78876D01*
X140674Y78905D01*
X140732Y78930D01*
X140791Y78951D01*
X140851Y78969D01*
X140913Y78982D01*
X140975Y78992D01*
X141037Y78998D01*
X141100Y79000D01*
X141163Y78998D01*
X141225Y78992D01*
X141287Y78982D01*
X141349Y78969D01*
X141409Y78951D01*
X141468Y78930D01*
X141526Y78905D01*
X141582Y78876D01*
X141636Y78844D01*
X141688Y78809D01*
X141737Y78771D01*
X141785Y78729D01*
X141829Y78685D01*
X141871Y78637D01*
X141909Y78588D01*
X141944Y78536D01*
X141976Y78482D01*
X142005Y78426D01*
X142030Y78368D01*
X142051Y78309D01*
X142069Y78249D01*
X142082Y78187D01*
X142092Y78125D01*
X142098Y78063D01*
X142100Y78000D01*
X142098Y77937D01*
X142092Y77875D01*
X142082Y77813D01*
X142069Y77751D01*
X142051Y77691D01*
X142030Y77632D01*
X142005Y77574D01*
X141976Y77518D01*
X141944Y77464D01*
X141909Y77412D01*
X141871Y77363D01*
X141829Y77315D01*
X141785Y77271D01*
X141737Y77229D01*
X141688Y77191D01*
X141636Y77156D01*
X141582Y77124D01*
X141526Y77095D01*
X141468Y77070D01*
X141409Y77049D01*
X141349Y77031D01*
X141287Y77018D01*
X141225Y77008D01*
X141163Y77002D01*
X141100Y77000D01*
X141037Y77002D01*
X140975Y77008D01*
X140913Y77018D01*
X140851Y77031D01*
X140791Y77049D01*
X140732Y77070D01*
X140674Y77095D01*
X140618Y77124D01*
X140564Y77156D01*
X140512Y77191D01*
X140463Y77229D01*
X140415Y77271D01*
X140371Y77315D01*
X140329Y77363D01*
X140291Y77412D01*
X140256Y77464D01*
X140224Y77518D01*
X140195Y77574D01*
X140170Y77632D01*
X140149Y77691D01*
X140131Y77751D01*
X140118Y77813D01*
X140108Y77875D01*
X140102Y77937D01*
X140100Y78000D01*
D12*
X223553Y36618D02*
X229903Y42968D01*
X223553Y36618D02*
X210853Y36618D01*
X204503Y42968D01*
X204503Y55668D01*
X210853Y62018D01*
X223553Y62018D01*
X229903Y55668D01*
X261653Y36618D02*
X274353Y36618D01*
X261653Y36618D02*
X255303Y42968D01*
X255303Y55668D01*
X261653Y62018D01*
X255303Y42968D02*
X248953Y36618D01*
X236253Y36618D01*
X229903Y42968D01*
X229903Y55668D01*
X236253Y62018D01*
X248953Y62018D01*
X255303Y55668D01*
X280703Y55668D02*
X280703Y42968D01*
X274353Y36618D01*
X280703Y55668D02*
X274353Y62018D01*
X261653Y62018D01*
X198153Y36618D02*
X185453Y36618D01*
X179103Y42968D01*
X179103Y55668D01*
X185453Y62018D01*
X204503Y42968D02*
X198153Y36618D01*
X204503Y55668D02*
X198153Y62018D01*
X185453Y62018D01*
X261300Y256250D02*
X261300Y268950D01*
X267650Y275300D01*
X280350Y275300D01*
X286700Y268950D01*
X267650Y275300D02*
X261300Y281650D01*
X261300Y294350D01*
X267650Y300700D01*
X280350Y300700D01*
X286700Y294350D01*
X286700Y281650D01*
X280350Y275300D01*
X280350Y249900D02*
X267650Y249900D01*
X261300Y256250D01*
X280350Y249900D02*
X286700Y256250D01*
X286700Y268950D01*
X267650Y300700D02*
X261300Y307050D01*
X261300Y319750D01*
X267650Y326100D01*
X280350Y326100D01*
X286700Y319750D01*
X286700Y307050D01*
X280350Y300700D01*
X208300Y268950D02*
X208300Y256250D01*
X208300Y268950D02*
X214650Y275300D01*
X227350Y275300D01*
X233700Y268950D01*
X214650Y275300D02*
X208300Y281650D01*
X208300Y294350D01*
X214650Y300700D01*
X227350Y300700D01*
X233700Y294350D01*
X233700Y281650D01*
X227350Y275300D01*
X227350Y249900D02*
X214650Y249900D01*
X208300Y256250D01*
X227350Y249900D02*
X233700Y256250D01*
X233700Y268950D01*
X214650Y300700D02*
X208300Y307050D01*
X208300Y319750D01*
X214650Y326100D01*
X227350Y326100D01*
X233700Y319750D01*
X233700Y307050D01*
X227350Y300700D01*
D10*
X407686Y83800D02*
X610886Y83800D01*
X407686Y83800D02*
X407686Y236200D01*
X610886Y236200D01*
X610886Y83800D01*
D11*
X419386Y78000D02*
X419388Y78063D01*
X419394Y78125D01*
X419404Y78187D01*
X419417Y78249D01*
X419435Y78309D01*
X419456Y78368D01*
X419481Y78426D01*
X419510Y78482D01*
X419542Y78536D01*
X419577Y78588D01*
X419615Y78637D01*
X419657Y78685D01*
X419701Y78729D01*
X419749Y78771D01*
X419798Y78809D01*
X419850Y78844D01*
X419904Y78876D01*
X419960Y78905D01*
X420018Y78930D01*
X420077Y78951D01*
X420137Y78969D01*
X420199Y78982D01*
X420261Y78992D01*
X420323Y78998D01*
X420386Y79000D01*
X420449Y78998D01*
X420511Y78992D01*
X420573Y78982D01*
X420635Y78969D01*
X420695Y78951D01*
X420754Y78930D01*
X420812Y78905D01*
X420868Y78876D01*
X420922Y78844D01*
X420974Y78809D01*
X421023Y78771D01*
X421071Y78729D01*
X421115Y78685D01*
X421157Y78637D01*
X421195Y78588D01*
X421230Y78536D01*
X421262Y78482D01*
X421291Y78426D01*
X421316Y78368D01*
X421337Y78309D01*
X421355Y78249D01*
X421368Y78187D01*
X421378Y78125D01*
X421384Y78063D01*
X421386Y78000D01*
X421384Y77937D01*
X421378Y77875D01*
X421368Y77813D01*
X421355Y77751D01*
X421337Y77691D01*
X421316Y77632D01*
X421291Y77574D01*
X421262Y77518D01*
X421230Y77464D01*
X421195Y77412D01*
X421157Y77363D01*
X421115Y77315D01*
X421071Y77271D01*
X421023Y77229D01*
X420974Y77191D01*
X420922Y77156D01*
X420868Y77124D01*
X420812Y77095D01*
X420754Y77070D01*
X420695Y77049D01*
X420635Y77031D01*
X420573Y77018D01*
X420511Y77008D01*
X420449Y77002D01*
X420386Y77000D01*
X420323Y77002D01*
X420261Y77008D01*
X420199Y77018D01*
X420137Y77031D01*
X420077Y77049D01*
X420018Y77070D01*
X419960Y77095D01*
X419904Y77124D01*
X419850Y77156D01*
X419798Y77191D01*
X419749Y77229D01*
X419701Y77271D01*
X419657Y77315D01*
X419615Y77363D01*
X419577Y77412D01*
X419542Y77464D01*
X419510Y77518D01*
X419481Y77574D01*
X419456Y77632D01*
X419435Y77691D01*
X419417Y77751D01*
X419404Y77813D01*
X419394Y77875D01*
X419388Y77937D01*
X419386Y78000D01*
D12*
X502650Y36618D02*
X509000Y42968D01*
X502650Y36618D02*
X489950Y36618D01*
X483600Y42968D01*
X483600Y55668D01*
X489950Y62018D01*
X502650Y62018D01*
X509000Y55668D01*
X540750Y36618D02*
X553450Y36618D01*
X540750Y36618D02*
X534400Y42968D01*
X534400Y55668D01*
X540750Y62018D01*
X534400Y42968D02*
X528050Y36618D01*
X515350Y36618D01*
X509000Y42968D01*
X509000Y55668D01*
X515350Y62018D01*
X528050Y62018D01*
X534400Y55668D01*
X559800Y55668D02*
X559800Y42968D01*
X553450Y36618D01*
X559800Y55668D02*
X553450Y62018D01*
X540750Y62018D01*
X477250Y36618D02*
X464550Y36618D01*
X458200Y42968D01*
X458200Y55668D01*
X464550Y62018D01*
X483600Y42968D02*
X477250Y36618D01*
X483600Y55668D02*
X477250Y62018D01*
X464550Y62018D01*
X536300Y256250D02*
X536300Y268950D01*
X542650Y275300D01*
X555350Y275300D01*
X561700Y268950D01*
X542650Y275300D02*
X536300Y281650D01*
X536300Y294350D01*
X542650Y300700D01*
X555350Y300700D01*
X561700Y294350D01*
X561700Y281650D01*
X555350Y275300D01*
X555350Y249900D02*
X542650Y249900D01*
X536300Y256250D01*
X555350Y249900D02*
X561700Y256250D01*
X561700Y268950D01*
X542650Y300700D02*
X536300Y307050D01*
X536300Y319750D01*
X542650Y326100D01*
X555350Y326100D01*
X561700Y319750D01*
X561700Y307050D01*
X555350Y300700D01*
X479300Y268950D02*
X479300Y256250D01*
X479300Y268950D02*
X485650Y275300D01*
X498350Y275300D01*
X504700Y268950D01*
X485650Y275300D02*
X479300Y281650D01*
X479300Y294350D01*
X485650Y300700D01*
X498350Y300700D01*
X504700Y294350D01*
X504700Y281650D01*
X498350Y275300D01*
X498350Y249900D02*
X485650Y249900D01*
X479300Y256250D01*
X498350Y249900D02*
X504700Y256250D01*
X504700Y268950D01*
X485650Y300700D02*
X479300Y307050D01*
X479300Y319750D01*
X485650Y326100D01*
X498350Y326100D01*
X504700Y319750D01*
X504700Y307050D01*
X498350Y300700D01*
D10*
X128674Y250590D02*
X128674Y910990D01*
X128674Y250590D02*
X636674Y250590D01*
X636674Y910990D01*
X128674Y910990D01*
D11*
X119174Y606190D02*
X119176Y606253D01*
X119182Y606315D01*
X119192Y606377D01*
X119205Y606439D01*
X119223Y606499D01*
X119244Y606558D01*
X119269Y606616D01*
X119298Y606672D01*
X119330Y606726D01*
X119365Y606778D01*
X119403Y606827D01*
X119445Y606875D01*
X119489Y606919D01*
X119537Y606961D01*
X119586Y606999D01*
X119638Y607034D01*
X119692Y607066D01*
X119748Y607095D01*
X119806Y607120D01*
X119865Y607141D01*
X119925Y607159D01*
X119987Y607172D01*
X120049Y607182D01*
X120111Y607188D01*
X120174Y607190D01*
X120237Y607188D01*
X120299Y607182D01*
X120361Y607172D01*
X120423Y607159D01*
X120483Y607141D01*
X120542Y607120D01*
X120600Y607095D01*
X120656Y607066D01*
X120710Y607034D01*
X120762Y606999D01*
X120811Y606961D01*
X120859Y606919D01*
X120903Y606875D01*
X120945Y606827D01*
X120983Y606778D01*
X121018Y606726D01*
X121050Y606672D01*
X121079Y606616D01*
X121104Y606558D01*
X121125Y606499D01*
X121143Y606439D01*
X121156Y606377D01*
X121166Y606315D01*
X121172Y606253D01*
X121174Y606190D01*
X121172Y606127D01*
X121166Y606065D01*
X121156Y606003D01*
X121143Y605941D01*
X121125Y605881D01*
X121104Y605822D01*
X121079Y605764D01*
X121050Y605708D01*
X121018Y605654D01*
X120983Y605602D01*
X120945Y605553D01*
X120903Y605505D01*
X120859Y605461D01*
X120811Y605419D01*
X120762Y605381D01*
X120710Y605346D01*
X120656Y605314D01*
X120600Y605285D01*
X120542Y605260D01*
X120483Y605239D01*
X120423Y605221D01*
X120361Y605208D01*
X120299Y605198D01*
X120237Y605192D01*
X120174Y605190D01*
X120111Y605192D01*
X120049Y605198D01*
X119987Y605208D01*
X119925Y605221D01*
X119865Y605239D01*
X119806Y605260D01*
X119748Y605285D01*
X119692Y605314D01*
X119638Y605346D01*
X119586Y605381D01*
X119537Y605419D01*
X119489Y605461D01*
X119445Y605505D01*
X119403Y605553D01*
X119365Y605602D01*
X119330Y605654D01*
X119298Y605708D01*
X119269Y605764D01*
X119244Y605822D01*
X119223Y605881D01*
X119205Y605941D01*
X119192Y606003D01*
X119182Y606065D01*
X119176Y606127D01*
X119174Y606190D01*
D12*
X104500Y283250D02*
X19500Y283250D01*
X104500Y283250D02*
X104500Y128350D01*
X19500Y128350D01*
X19500Y283250D01*
X72350Y573300D02*
X85050Y573300D01*
X72350Y573300D02*
X66000Y579650D01*
X66000Y592350D01*
X72350Y598700D01*
X91400Y592350D02*
X91400Y579650D01*
X85050Y573300D01*
X91400Y592350D02*
X85050Y598700D01*
X72350Y598700D01*
X66000Y579650D02*
X59650Y573300D01*
X46950Y573300D01*
X40600Y579650D01*
X40600Y592350D01*
X46950Y598700D01*
X59650Y598700D01*
X66000Y592350D01*
X55300Y490950D02*
X55300Y478250D01*
X55300Y490950D02*
X61650Y497300D01*
X74350Y497300D01*
X80700Y490950D01*
X61650Y497300D02*
X55300Y503650D01*
X55300Y516350D01*
X61650Y522700D01*
X74350Y522700D01*
X80700Y516350D01*
X80700Y503650D01*
X74350Y497300D01*
X74350Y471900D02*
X61650Y471900D01*
X55300Y478250D01*
X74350Y471900D02*
X80700Y478250D01*
X80700Y490950D01*
X61650Y522700D02*
X55300Y529050D01*
X55300Y541750D01*
X61650Y548100D01*
X74350Y548100D01*
X80700Y541750D01*
X80700Y529050D01*
X74350Y522700D01*
X55300Y366350D02*
X61650Y360000D01*
X55300Y366350D02*
X55300Y379050D01*
X61650Y385400D01*
X74350Y385400D01*
X80700Y379050D01*
X80700Y366350D01*
X74350Y360000D01*
X55300Y328250D02*
X55300Y315550D01*
X55300Y328250D02*
X61650Y334600D01*
X74350Y334600D01*
X80700Y328250D01*
X61650Y334600D02*
X55300Y340950D01*
X55300Y353650D01*
X61650Y360000D01*
X74350Y360000D01*
X80700Y353650D01*
X80700Y340950D01*
X74350Y334600D01*
X74350Y309200D02*
X61650Y309200D01*
X55300Y315550D01*
X74350Y309200D02*
X80700Y315550D01*
X80700Y328250D01*
X55300Y391750D02*
X55300Y404450D01*
X61650Y410800D01*
X74350Y410800D01*
X80700Y404450D01*
X61650Y385400D02*
X55300Y391750D01*
X74350Y385400D02*
X80700Y391750D01*
X80700Y404450D01*
X-62600Y44700D02*
X-113400Y44700D01*
X-62600Y44700D02*
X-62291Y44696D01*
X-61982Y44685D01*
X-61673Y44666D01*
X-61365Y44640D01*
X-61057Y44606D01*
X-60751Y44565D01*
X-60445Y44516D01*
X-60141Y44460D01*
X-59839Y44396D01*
X-59538Y44325D01*
X-59238Y44247D01*
X-58941Y44162D01*
X-58646Y44069D01*
X-58353Y43969D01*
X-58063Y43862D01*
X-57776Y43748D01*
X-57491Y43627D01*
X-57209Y43499D01*
X-56931Y43365D01*
X-56656Y43223D01*
X-56384Y43075D01*
X-56117Y42920D01*
X-55853Y42759D01*
X-55593Y42592D01*
X-55337Y42418D01*
X-55085Y42238D01*
X-54838Y42052D01*
X-54596Y41860D01*
X-54358Y41662D01*
X-54125Y41459D01*
X-53897Y41249D01*
X-53675Y41035D01*
X-53457Y40815D01*
X-53245Y40589D01*
X-53039Y40359D01*
X-52838Y40124D01*
X-52643Y39884D01*
X-52454Y39639D01*
X-52271Y39390D01*
X-52094Y39136D01*
X-51924Y38878D01*
X-51759Y38616D01*
X-51601Y38350D01*
X-51450Y38080D01*
X-51305Y37807D01*
X-51167Y37530D01*
X-51036Y37250D01*
X-50912Y36967D01*
X-50794Y36681D01*
X-50684Y36392D01*
X-50580Y36101D01*
X-50484Y35807D01*
X-50395Y35511D01*
X-50313Y35212D01*
X-50238Y34912D01*
X-50171Y34610D01*
X-50111Y34307D01*
X-50059Y34002D01*
X-50014Y33696D01*
X-49976Y33389D01*
X-49946Y33081D01*
X-49924Y32773D01*
X-49908Y32464D01*
X-49901Y32155D01*
X-49901Y31845D01*
X-49908Y31536D01*
X-49924Y31227D01*
X-49946Y30919D01*
X-49976Y30611D01*
X-50014Y30304D01*
X-50059Y29998D01*
X-50111Y29693D01*
X-50171Y29390D01*
X-50238Y29088D01*
X-50313Y28788D01*
X-50395Y28489D01*
X-50484Y28193D01*
X-50580Y27899D01*
X-50684Y27608D01*
X-50794Y27319D01*
X-50912Y27033D01*
X-51036Y26750D01*
X-51167Y26470D01*
X-51305Y26193D01*
X-51450Y25920D01*
X-51601Y25650D01*
X-51759Y25384D01*
X-51924Y25122D01*
X-52094Y24864D01*
X-52271Y24610D01*
X-52454Y24361D01*
X-52643Y24116D01*
X-52838Y23876D01*
X-53039Y23641D01*
X-53245Y23411D01*
X-53457Y23185D01*
X-53675Y22965D01*
X-53897Y22751D01*
X-54125Y22541D01*
X-54358Y22338D01*
X-54596Y22140D01*
X-54838Y21948D01*
X-55085Y21762D01*
X-55337Y21582D01*
X-55593Y21408D01*
X-55853Y21241D01*
X-56117Y21080D01*
X-56384Y20925D01*
X-56656Y20777D01*
X-56931Y20635D01*
X-57209Y20501D01*
X-57491Y20373D01*
X-57776Y20252D01*
X-58063Y20138D01*
X-58353Y20031D01*
X-58646Y19931D01*
X-58941Y19838D01*
X-59238Y19753D01*
X-59538Y19675D01*
X-59839Y19604D01*
X-60141Y19540D01*
X-60445Y19484D01*
X-60751Y19435D01*
X-61057Y19394D01*
X-61365Y19360D01*
X-61673Y19334D01*
X-61982Y19315D01*
X-62291Y19304D01*
X-62600Y19300D01*
X-113400Y19300D01*
X-113709Y19304D01*
X-114018Y19315D01*
X-114327Y19334D01*
X-114635Y19360D01*
X-114943Y19394D01*
X-115249Y19435D01*
X-115555Y19484D01*
X-115859Y19540D01*
X-116161Y19604D01*
X-116462Y19675D01*
X-116762Y19753D01*
X-117059Y19838D01*
X-117354Y19931D01*
X-117647Y20031D01*
X-117937Y20138D01*
X-118224Y20252D01*
X-118509Y20373D01*
X-118791Y20501D01*
X-119069Y20635D01*
X-119344Y20777D01*
X-119616Y20925D01*
X-119883Y21080D01*
X-120147Y21241D01*
X-120407Y21408D01*
X-120663Y21582D01*
X-120915Y21762D01*
X-121162Y21948D01*
X-121404Y22140D01*
X-121642Y22338D01*
X-121875Y22541D01*
X-122103Y22751D01*
X-122325Y22965D01*
X-122543Y23185D01*
X-122755Y23411D01*
X-122961Y23641D01*
X-123162Y23876D01*
X-123357Y24116D01*
X-123546Y24361D01*
X-123729Y24610D01*
X-123906Y24864D01*
X-124076Y25122D01*
X-124241Y25384D01*
X-124399Y25650D01*
X-124550Y25920D01*
X-124695Y26193D01*
X-124833Y26470D01*
X-124964Y26750D01*
X-125088Y27033D01*
X-125206Y27319D01*
X-125316Y27608D01*
X-125420Y27899D01*
X-125516Y28193D01*
X-125605Y28489D01*
X-125687Y28788D01*
X-125762Y29088D01*
X-125829Y29390D01*
X-125889Y29693D01*
X-125941Y29998D01*
X-125986Y30304D01*
X-126024Y30611D01*
X-126054Y30919D01*
X-126076Y31227D01*
X-126092Y31536D01*
X-126099Y31845D01*
X-126099Y32155D01*
X-126092Y32464D01*
X-126076Y32773D01*
X-126054Y33081D01*
X-126024Y33389D01*
X-125986Y33696D01*
X-125941Y34002D01*
X-125889Y34307D01*
X-125829Y34610D01*
X-125762Y34912D01*
X-125687Y35212D01*
X-125605Y35511D01*
X-125516Y35807D01*
X-125420Y36101D01*
X-125316Y36392D01*
X-125206Y36681D01*
X-125088Y36967D01*
X-124964Y37250D01*
X-124833Y37530D01*
X-124695Y37807D01*
X-124550Y38080D01*
X-124399Y38350D01*
X-124241Y38616D01*
X-124076Y38878D01*
X-123906Y39136D01*
X-123729Y39390D01*
X-123546Y39639D01*
X-123357Y39884D01*
X-123162Y40124D01*
X-122961Y40359D01*
X-122755Y40589D01*
X-122543Y40815D01*
X-122325Y41035D01*
X-122103Y41249D01*
X-121875Y41459D01*
X-121642Y41662D01*
X-121404Y41860D01*
X-121162Y42052D01*
X-120915Y42238D01*
X-120663Y42418D01*
X-120407Y42592D01*
X-120147Y42759D01*
X-119883Y42920D01*
X-119616Y43075D01*
X-119344Y43223D01*
X-119069Y43365D01*
X-118791Y43499D01*
X-118509Y43627D01*
X-118224Y43748D01*
X-117937Y43862D01*
X-117647Y43969D01*
X-117354Y44069D01*
X-117059Y44162D01*
X-116762Y44247D01*
X-116462Y44325D01*
X-116161Y44396D01*
X-115859Y44460D01*
X-115555Y44516D01*
X-115249Y44565D01*
X-114943Y44606D01*
X-114635Y44640D01*
X-114327Y44666D01*
X-114018Y44685D01*
X-113709Y44696D01*
X-113400Y44700D01*
X-140600Y44700D02*
X-191400Y44700D01*
X-140600Y44700D02*
X-140291Y44696D01*
X-139982Y44685D01*
X-139673Y44666D01*
X-139365Y44640D01*
X-139057Y44606D01*
X-138751Y44565D01*
X-138445Y44516D01*
X-138141Y44460D01*
X-137839Y44396D01*
X-137538Y44325D01*
X-137238Y44247D01*
X-136941Y44162D01*
X-136646Y44069D01*
X-136353Y43969D01*
X-136063Y43862D01*
X-135776Y43748D01*
X-135491Y43627D01*
X-135209Y43499D01*
X-134931Y43365D01*
X-134656Y43223D01*
X-134384Y43075D01*
X-134117Y42920D01*
X-133853Y42759D01*
X-133593Y42592D01*
X-133337Y42418D01*
X-133085Y42238D01*
X-132838Y42052D01*
X-132596Y41860D01*
X-132358Y41662D01*
X-132125Y41459D01*
X-131897Y41249D01*
X-131675Y41035D01*
X-131457Y40815D01*
X-131245Y40589D01*
X-131039Y40359D01*
X-130838Y40124D01*
X-130643Y39884D01*
X-130454Y39639D01*
X-130271Y39390D01*
X-130094Y39136D01*
X-129924Y38878D01*
X-129759Y38616D01*
X-129601Y38350D01*
X-129450Y38080D01*
X-129305Y37807D01*
X-129167Y37530D01*
X-129036Y37250D01*
X-128912Y36967D01*
X-128794Y36681D01*
X-128684Y36392D01*
X-128580Y36101D01*
X-128484Y35807D01*
X-128395Y35511D01*
X-128313Y35212D01*
X-128238Y34912D01*
X-128171Y34610D01*
X-128111Y34307D01*
X-128059Y34002D01*
X-128014Y33696D01*
X-127976Y33389D01*
X-127946Y33081D01*
X-127924Y32773D01*
X-127908Y32464D01*
X-127901Y32155D01*
X-127901Y31845D01*
X-127908Y31536D01*
X-127924Y31227D01*
X-127946Y30919D01*
X-127976Y30611D01*
X-128014Y30304D01*
X-128059Y29998D01*
X-128111Y29693D01*
X-128171Y29390D01*
X-128238Y29088D01*
X-128313Y28788D01*
X-128395Y28489D01*
X-128484Y28193D01*
X-128580Y27899D01*
X-128684Y27608D01*
X-128794Y27319D01*
X-128912Y27033D01*
X-129036Y26750D01*
X-129167Y26470D01*
X-129305Y26193D01*
X-129450Y25920D01*
X-129601Y25650D01*
X-129759Y25384D01*
X-129924Y25122D01*
X-130094Y24864D01*
X-130271Y24610D01*
X-130454Y24361D01*
X-130643Y24116D01*
X-130838Y23876D01*
X-131039Y23641D01*
X-131245Y23411D01*
X-131457Y23185D01*
X-131675Y22965D01*
X-131897Y22751D01*
X-132125Y22541D01*
X-132358Y22338D01*
X-132596Y22140D01*
X-132838Y21948D01*
X-133085Y21762D01*
X-133337Y21582D01*
X-133593Y21408D01*
X-133853Y21241D01*
X-134117Y21080D01*
X-134384Y20925D01*
X-134656Y20777D01*
X-134931Y20635D01*
X-135209Y20501D01*
X-135491Y20373D01*
X-135776Y20252D01*
X-136063Y20138D01*
X-136353Y20031D01*
X-136646Y19931D01*
X-136941Y19838D01*
X-137238Y19753D01*
X-137538Y19675D01*
X-137839Y19604D01*
X-138141Y19540D01*
X-138445Y19484D01*
X-138751Y19435D01*
X-139057Y19394D01*
X-139365Y19360D01*
X-139673Y19334D01*
X-139982Y19315D01*
X-140291Y19304D01*
X-140600Y19300D01*
X-191400Y19300D01*
X-191709Y19304D01*
X-192018Y19315D01*
X-192327Y19334D01*
X-192635Y19360D01*
X-192943Y19394D01*
X-193249Y19435D01*
X-193555Y19484D01*
X-193859Y19540D01*
X-194161Y19604D01*
X-194462Y19675D01*
X-194762Y19753D01*
X-195059Y19838D01*
X-195354Y19931D01*
X-195647Y20031D01*
X-195937Y20138D01*
X-196224Y20252D01*
X-196509Y20373D01*
X-196791Y20501D01*
X-197069Y20635D01*
X-197344Y20777D01*
X-197616Y20925D01*
X-197883Y21080D01*
X-198147Y21241D01*
X-198407Y21408D01*
X-198663Y21582D01*
X-198915Y21762D01*
X-199162Y21948D01*
X-199404Y22140D01*
X-199642Y22338D01*
X-199875Y22541D01*
X-200103Y22751D01*
X-200325Y22965D01*
X-200543Y23185D01*
X-200755Y23411D01*
X-200961Y23641D01*
X-201162Y23876D01*
X-201357Y24116D01*
X-201546Y24361D01*
X-201729Y24610D01*
X-201906Y24864D01*
X-202076Y25122D01*
X-202241Y25384D01*
X-202399Y25650D01*
X-202550Y25920D01*
X-202695Y26193D01*
X-202833Y26470D01*
X-202964Y26750D01*
X-203088Y27033D01*
X-203206Y27319D01*
X-203316Y27608D01*
X-203420Y27899D01*
X-203516Y28193D01*
X-203605Y28489D01*
X-203687Y28788D01*
X-203762Y29088D01*
X-203829Y29390D01*
X-203889Y29693D01*
X-203941Y29998D01*
X-203986Y30304D01*
X-204024Y30611D01*
X-204054Y30919D01*
X-204076Y31227D01*
X-204092Y31536D01*
X-204099Y31845D01*
X-204099Y32155D01*
X-204092Y32464D01*
X-204076Y32773D01*
X-204054Y33081D01*
X-204024Y33389D01*
X-203986Y33696D01*
X-203941Y34002D01*
X-203889Y34307D01*
X-203829Y34610D01*
X-203762Y34912D01*
X-203687Y35212D01*
X-203605Y35511D01*
X-203516Y35807D01*
X-203420Y36101D01*
X-203316Y36392D01*
X-203206Y36681D01*
X-203088Y36967D01*
X-202964Y37250D01*
X-202833Y37530D01*
X-202695Y37807D01*
X-202550Y38080D01*
X-202399Y38350D01*
X-202241Y38616D01*
X-202076Y38878D01*
X-201906Y39136D01*
X-201729Y39390D01*
X-201546Y39639D01*
X-201357Y39884D01*
X-201162Y40124D01*
X-200961Y40359D01*
X-200755Y40589D01*
X-200543Y40815D01*
X-200325Y41035D01*
X-200103Y41249D01*
X-199875Y41459D01*
X-199642Y41662D01*
X-199404Y41860D01*
X-199162Y42052D01*
X-198915Y42238D01*
X-198663Y42418D01*
X-198407Y42592D01*
X-198147Y42759D01*
X-197883Y42920D01*
X-197616Y43075D01*
X-197344Y43223D01*
X-197069Y43365D01*
X-196791Y43499D01*
X-196509Y43627D01*
X-196224Y43748D01*
X-195937Y43862D01*
X-195647Y43969D01*
X-195354Y44069D01*
X-195059Y44162D01*
X-194762Y44247D01*
X-194462Y44325D01*
X-194161Y44396D01*
X-193859Y44460D01*
X-193555Y44516D01*
X-193249Y44565D01*
X-192943Y44606D01*
X-192635Y44640D01*
X-192327Y44666D01*
X-192018Y44685D01*
X-191709Y44696D01*
X-191400Y44700D01*
D10*
X-96600Y88850D02*
X-96600Y109150D01*
X-96600Y88850D02*
X-53400Y88850D01*
X-53400Y109150D01*
X-96600Y109150D01*
X-96600Y99000D02*
X-102360Y99000D01*
X-53400Y99000D02*
X-47640Y99000D01*
X-183600Y109150D02*
X-183600Y88850D01*
X-140400Y88850D01*
X-140400Y109150D01*
X-183600Y109150D01*
X-183600Y99000D02*
X-189360Y99000D01*
X-140400Y99000D02*
X-134640Y99000D01*
D13*
X-161500Y254500D02*
X-161502Y254456D01*
X-161508Y254413D01*
X-161517Y254371D01*
X-161530Y254329D01*
X-161547Y254289D01*
X-161567Y254250D01*
X-161590Y254213D01*
X-161617Y254179D01*
X-161646Y254146D01*
X-161679Y254117D01*
X-161713Y254090D01*
X-161750Y254067D01*
X-161789Y254047D01*
X-161829Y254030D01*
X-161871Y254017D01*
X-161913Y254008D01*
X-161956Y254002D01*
X-162000Y254000D01*
X-162044Y254002D01*
X-162087Y254008D01*
X-162129Y254017D01*
X-162171Y254030D01*
X-162211Y254047D01*
X-162250Y254067D01*
X-162287Y254090D01*
X-162321Y254117D01*
X-162354Y254146D01*
X-162383Y254179D01*
X-162410Y254213D01*
X-162433Y254250D01*
X-162453Y254289D01*
X-162470Y254329D01*
X-162483Y254371D01*
X-162492Y254413D01*
X-162498Y254456D01*
X-162500Y254500D01*
X-162498Y254544D01*
X-162492Y254587D01*
X-162483Y254629D01*
X-162470Y254671D01*
X-162453Y254711D01*
X-162433Y254750D01*
X-162410Y254787D01*
X-162383Y254821D01*
X-162354Y254854D01*
X-162321Y254883D01*
X-162287Y254910D01*
X-162250Y254933D01*
X-162211Y254953D01*
X-162171Y254970D01*
X-162129Y254983D01*
X-162087Y254992D01*
X-162044Y254998D01*
X-162000Y255000D01*
X-161956Y254998D01*
X-161913Y254992D01*
X-161871Y254983D01*
X-161829Y254970D01*
X-161789Y254953D01*
X-161750Y254933D01*
X-161713Y254910D01*
X-161679Y254883D01*
X-161646Y254854D01*
X-161617Y254821D01*
X-161590Y254787D01*
X-161567Y254750D01*
X-161547Y254711D01*
X-161530Y254671D01*
X-161517Y254629D01*
X-161508Y254587D01*
X-161502Y254544D01*
X-161500Y254500D01*
D11*
X-173400Y251700D02*
X-173400Y244200D01*
X-168000Y236000D01*
X-128000Y236000D01*
X-122600Y244200D01*
X-122600Y251700D01*
D13*
X-161500Y180500D02*
X-161502Y180456D01*
X-161508Y180413D01*
X-161517Y180371D01*
X-161530Y180329D01*
X-161547Y180289D01*
X-161567Y180250D01*
X-161590Y180213D01*
X-161617Y180179D01*
X-161646Y180146D01*
X-161679Y180117D01*
X-161713Y180090D01*
X-161750Y180067D01*
X-161789Y180047D01*
X-161829Y180030D01*
X-161871Y180017D01*
X-161913Y180008D01*
X-161956Y180002D01*
X-162000Y180000D01*
X-162044Y180002D01*
X-162087Y180008D01*
X-162129Y180017D01*
X-162171Y180030D01*
X-162211Y180047D01*
X-162250Y180067D01*
X-162287Y180090D01*
X-162321Y180117D01*
X-162354Y180146D01*
X-162383Y180179D01*
X-162410Y180213D01*
X-162433Y180250D01*
X-162453Y180289D01*
X-162470Y180329D01*
X-162483Y180371D01*
X-162492Y180413D01*
X-162498Y180456D01*
X-162500Y180500D01*
X-162498Y180544D01*
X-162492Y180587D01*
X-162483Y180629D01*
X-162470Y180671D01*
X-162453Y180711D01*
X-162433Y180750D01*
X-162410Y180787D01*
X-162383Y180821D01*
X-162354Y180854D01*
X-162321Y180883D01*
X-162287Y180910D01*
X-162250Y180933D01*
X-162211Y180953D01*
X-162171Y180970D01*
X-162129Y180983D01*
X-162087Y180992D01*
X-162044Y180998D01*
X-162000Y181000D01*
X-161956Y180998D01*
X-161913Y180992D01*
X-161871Y180983D01*
X-161829Y180970D01*
X-161789Y180953D01*
X-161750Y180933D01*
X-161713Y180910D01*
X-161679Y180883D01*
X-161646Y180854D01*
X-161617Y180821D01*
X-161590Y180787D01*
X-161567Y180750D01*
X-161547Y180711D01*
X-161530Y180671D01*
X-161517Y180629D01*
X-161508Y180587D01*
X-161502Y180544D01*
X-161500Y180500D01*
D11*
X-173400Y177700D02*
X-173400Y170200D01*
X-168000Y162000D01*
X-128000Y162000D01*
X-122600Y170200D01*
X-122600Y177700D01*
M02*
